M48
; DRILL file {KiCad (6.0.5)} date Fri Aug 26 20:13:24 2022
; FORMAT={-:-/ absolute / metric / decimal}
; #@! TF.CreationDate,2022-08-26T20:13:24-07:00
; #@! TF.GenerationSoftware,Kicad,Pcbnew,(6.0.5)
; #@! TF.FileFunction,Plated,1,2,PTH
FMAT,2
METRIC
; #@! TA.AperFunction,Plated,PTH,ViaDrill
T1C0.300
; #@! TA.AperFunction,Plated,PTH,ComponentDrill
T2C0.300
; #@! TA.AperFunction,Plated,PTH,ViaDrill
T3C0.400
; #@! TA.AperFunction,Plated,PTH,ComponentDrill
T4C0.400
; #@! TA.AperFunction,Plated,PTH,ComponentDrill
T5C0.600
; #@! TA.AperFunction,Plated,PTH,ComponentDrill
T6C0.750
; #@! TA.AperFunction,Plated,PTH,ComponentDrill
T7C1.000
; #@! TA.AperFunction,Plated,PTH,ComponentDrill
T8C2.200
%
G90
G05
T1
X51.6Y-61.2
X51.6Y-63.6
X53.8Y-79.4
X53.8Y-82.2
X55.1Y-61.2
X55.1Y-63.6
X55.4Y-73.8
X55.4Y-75.8
X55.9Y-66.8
X56.7Y-73.8
X56.7Y-75.8
X57.0Y-82.2
X57.0Y-85.0
X58.0Y-88.5
X58.0Y-103.0
X58.1Y-73.8
X58.1Y-75.8
X58.7Y-54.4
X58.7Y-57.0
X59.0Y-102.0
X59.0Y-103.0
X59.5Y-87.0
X59.5Y-90.5
X59.6Y-65.4
X59.7Y-75.8
X60.0Y-82.2
X60.0Y-97.0
X60.0Y-102.0
X60.0Y-103.0
X60.5Y-89.5
X61.0Y-54.4
X61.0Y-57.0
X61.0Y-59.4
X61.0Y-95.5
X61.0Y-97.0
X61.0Y-99.0
X61.0Y-102.0
X61.0Y-103.0
X61.1Y-67.4
X61.2Y-77.8
X61.3Y-75.8
X61.5Y-79.2
X61.5Y-88.5
X62.0Y-95.5
X62.0Y-97.0
X62.0Y-102.0
X62.0Y-103.0
X62.261Y-65.266
X62.3Y-77.8
X62.5Y-84.5
X62.7Y-68.253
X63.0Y-75.8
X63.0Y-97.0
X63.0Y-102.0
X63.0Y-103.0
X63.573Y-66.5
X63.818Y-63.897
X64.0Y-86.0
X64.0Y-97.0
X64.0Y-99.0
X64.0Y-102.0
X64.0Y-103.0
X64.315Y-65.265
X64.4Y-70.9
X64.5Y-66.5
X64.5Y-68.6
X64.7Y-75.8
X65.0Y-82.0
X65.0Y-97.0
X65.0Y-102.0
X65.0Y-103.0
X65.1Y-70.5
X65.47Y-64.309
X65.6Y-57.0
X65.6Y-59.4
X65.6Y-75.3
X66.0Y-97.0
X66.0Y-102.0
X66.0Y-103.0
X66.3Y-71.1
X66.5Y-94.5
X66.535Y-74.39
X66.95Y-76.65
X67.0Y-69.6
X67.0Y-80.0
X67.0Y-91.0
X67.0Y-93.0
X67.0Y-96.0
X67.0Y-97.0
X67.0Y-99.0
X67.0Y-102.0
X67.0Y-103.0
X67.1Y-73.5
X67.25Y-52.05
X67.257Y-75.157
X67.5Y-89.474
X68.0Y-77.5
X68.0Y-95.0
X68.0Y-96.0
X68.0Y-97.0
X68.0Y-102.0
X68.0Y-103.0
X68.442Y-69.396
X68.5Y-52.05
X68.5Y-61.6
X68.5Y-84.5
X68.5Y-91.0
X68.6Y-75.0
X69.0Y-80.0
X69.0Y-81.0
X69.0Y-94.0
X69.0Y-95.0
X69.0Y-96.0
X69.0Y-97.0
X69.0Y-98.0
X69.0Y-99.0
X69.0Y-100.0
X69.0Y-101.0
X69.0Y-102.0
X69.0Y-103.0
X69.4Y-71.7
X69.5Y-93.5
X69.5Y-94.5
X69.8Y-73.8
X70.0Y-77.5
X70.0Y-86.0
X70.0Y-87.0
X70.0Y-88.5
X70.0Y-89.5
X70.0Y-97.0
X70.0Y-98.0
X70.0Y-99.0
X70.0Y-100.0
X70.0Y-101.0
X70.0Y-102.0
X70.0Y-103.0
X70.3Y-70.2
X70.5Y-71.7
X70.75Y-57.0
X70.9Y-73.8
X71.0Y-86.0
X71.0Y-87.0
X71.0Y-88.5
X71.0Y-89.5
X71.0Y-97.0
X71.0Y-98.0
X71.0Y-100.0
X71.0Y-101.0
X71.0Y-102.0
X71.0Y-103.0
X71.175Y-67.475
X71.5Y-77.5
X71.5Y-94.5
X71.5Y-95.5
X71.5Y-96.5
X71.5Y-97.5
X71.5Y-100.5
X71.5Y-101.5
X71.5Y-102.5
X71.625Y-58.951
X71.7Y-61.3
X71.8Y-53.85
X72.45Y-66.9
X72.5Y-80.5
X72.5Y-86.0
X72.5Y-87.0
X72.5Y-88.5
X72.5Y-89.5
X72.6Y-68.1
X72.8Y-91.8
X73.5Y-86.0
X73.5Y-87.0
X73.5Y-88.5
X73.5Y-89.5
X73.5Y-97.5
X73.5Y-98.5
X73.5Y-101.5
X73.5Y-102.5
X74.0Y-57.8
X74.0Y-58.5
X74.0Y-97.0
X74.0Y-98.0
X74.0Y-99.0
X74.0Y-101.0
X74.0Y-102.0
X74.1Y-66.3
X74.1Y-68.1
X74.7Y-57.8
X74.7Y-58.5
X74.95Y-92.3
X75.0Y-85.0
X75.0Y-95.0
X75.0Y-96.0
X75.0Y-97.0
X75.0Y-98.0
X75.0Y-99.0
X75.0Y-100.0
X75.0Y-101.0
X75.0Y-102.0
X75.0Y-103.0
X75.6Y-66.3
X75.6Y-68.1
X76.0Y-96.0
X76.0Y-97.0
X76.0Y-98.0
X76.0Y-99.0
X76.0Y-100.0
X76.0Y-101.0
X76.0Y-102.0
X76.0Y-103.0
X76.1Y-60.6
X76.5Y-71.5
X76.601Y-90.501
X76.7Y-81.85
X77.0Y-97.0
X77.0Y-102.0
X77.0Y-103.0
X77.2Y-66.3
X77.2Y-68.1
X77.758Y-90.551
X77.9Y-64.1
X78.0Y-96.0
X78.0Y-102.0
X78.0Y-103.0
X78.5Y-72.5
X78.5Y-73.9
X78.5Y-76.0
X78.539Y-74.683
X78.9Y-66.3
X78.9Y-68.1
X79.0Y-95.0
X79.0Y-98.0
X79.0Y-100.0
X79.0Y-102.0
X79.0Y-103.0
X79.0Y-104.0
X79.0Y-105.0
X79.0Y-106.0
X79.0Y-107.0
X79.0Y-108.0
X79.0Y-109.0
X79.9Y-73.0
X80.0Y-94.0
X80.0Y-102.0
X80.0Y-103.0
X80.0Y-104.0
X80.0Y-105.0
X80.0Y-106.0
X80.2Y-64.1
X80.4Y-90.5
X80.5Y-75.0
X80.5Y-77.0
X80.6Y-66.3
X80.6Y-68.1
X81.0Y-79.5
X81.0Y-93.0
X81.1Y-86.4
X81.1Y-89.6
X81.4Y-91.4
X81.547Y-72.85
X82.0Y-95.0
X82.0Y-98.0
X82.0Y-101.0
X82.0Y-104.0
X82.4Y-68.253
X82.5Y-66.3
X83.0Y-89.6
X83.5Y-82.0
X83.5Y-86.4
X83.906Y-72.85
X84.1Y-71.7
X84.4Y-66.15
X84.4Y-74.2
X84.5Y-75.0
X84.6Y-89.4
X84.6Y-90.8
X84.641Y-80.233
X85.0Y-92.2
X85.2Y-69.95
X85.727Y-81.3
X85.8Y-77.7
X86.203Y-104.997
X86.3Y-71.7
X86.3Y-83.6
X86.4Y-66.8
X86.5Y-90.1
X86.8Y-78.7
X86.8Y-85.2
X86.8Y-86.6
X86.9Y-89.4
X86.9Y-90.8
X86.972Y-104.173
X87.1Y-85.9
X87.293Y-83.595
X87.3Y-92.2
X87.3Y-94.4
X87.3Y-96.5
X87.3Y-98.9
X87.8Y-55.4
X87.9Y-73.5
X88.1Y-72.3
X88.1Y-74.9
X88.8Y-90.1
X88.9Y-57.5
X88.9Y-58.3
X88.9Y-59.1
X89.1Y-84.3
X89.1Y-85.2
X89.1Y-86.6
X89.1Y-88.6
X89.2Y-89.4
X89.2Y-90.8
X89.213Y-76.613
X89.3Y-87.4
X89.4Y-85.9
X89.7Y-57.5
X89.7Y-58.3
X89.7Y-59.1
X89.7Y-92.2
X89.7Y-94.4
X89.7Y-96.5
X89.7Y-98.9
X90.023Y-76.667
X90.2Y-87.3
X90.205Y-67.15
X90.45Y-58.3
X90.45Y-59.1
X90.5Y-57.5
X90.6Y-79.6
X90.6Y-80.5
X90.7Y-55.531
X91.0Y-72.0
X91.4Y-85.2
X91.4Y-86.6
X91.5Y-102.379
X91.6Y-56.1
X91.604Y-54.08
X91.88Y-78.528
X91.9Y-80.773
X92.0Y-71.0
X92.0Y-72.0
X92.0Y-73.0
X92.45Y-103.0
X92.45Y-105.227
X92.5Y-77.0
X92.8Y-63.3
X92.8Y-87.1
X92.8Y-89.3
X93.0Y-65.4
X93.0Y-71.0
X93.0Y-72.0
X93.0Y-73.0
X93.0Y-74.0
X93.0Y-77.5
X93.572Y-79.425
X94.0Y-71.0
X94.0Y-72.0
X94.0Y-73.0
X94.4Y-64.0
X94.4Y-105.8
X94.55Y-77.1
X95.0Y-72.0
X95.0Y-73.0
X95.129Y-84.026
X95.373Y-77.277
X95.6Y-65.5
X95.691Y-104.141
X95.698Y-83.502
X95.9Y-75.9
X96.4Y-87.733
X96.4Y-91.9
X96.4Y-96.067
X96.4Y-100.233
X96.778Y-75.122
X97.0Y-77.5
X97.582Y-75.218
X97.975Y-70.926
X98.3Y-74.3
X98.3Y-80.9
X100.1Y-82.6
X100.681Y-74.481
X101.175Y-71.525
X101.2Y-85.9
X101.2Y-90.175
X101.2Y-94.45
X101.2Y-98.725
X101.2Y-103.0
X101.5Y-77.8
X101.9Y-59.8
X102.3Y-73.8
X102.35Y-71.1
X102.8Y-62.5
X102.8Y-65.1
T2
X74.57Y-104.4
T3
X76.7Y-74.9
X91.75Y-65.65
T4
X53.35Y-55.0
X53.35Y-105.0
X53.833Y-53.833
X53.833Y-56.167
X53.833Y-103.833
X53.833Y-106.167
X55.0Y-53.35
X55.0Y-56.65
X55.0Y-103.35
X55.0Y-106.65
X56.167Y-53.833
X56.167Y-56.167
X56.167Y-103.833
X56.167Y-106.167
X56.65Y-55.0
X56.65Y-105.0
X103.35Y-55.0
X103.35Y-105.0
X103.833Y-53.833
X103.833Y-56.167
X103.833Y-103.833
X103.833Y-106.167
X105.0Y-53.35
X105.0Y-56.65
X105.0Y-103.35
X105.0Y-106.65
X106.167Y-53.833
X106.167Y-56.167
X106.167Y-103.833
X106.167Y-106.167
X106.65Y-55.0
X106.65Y-105.0
T6
X53.35Y-71.8
X53.35Y-73.8
X53.35Y-75.8
X53.35Y-77.8
X53.35Y-93.4
X53.35Y-95.4
X53.35Y-97.4
X53.35Y-99.4
X62.4Y-53.45
X64.4Y-53.45
X87.7Y-107.8
X89.7Y-107.8
X91.7Y-107.8
X93.7Y-107.8
X95.7Y-107.8
X97.7Y-107.8
X99.7Y-107.8
X106.65Y-60.5
X106.65Y-62.5
X106.65Y-64.5
X106.65Y-66.5
X106.65Y-68.5
X106.65Y-70.5
X106.65Y-77.0
X106.65Y-79.0
X106.65Y-81.0
X106.65Y-87.4
X106.65Y-89.4
X106.65Y-91.4
X106.65Y-93.4
X106.65Y-95.4
X106.65Y-97.4
X106.65Y-99.4
T7
X57.8Y-92.9
X57.8Y-95.44
X57.8Y-97.98
X57.8Y-100.52
T8
X55.0Y-55.0
X55.0Y-105.0
X105.0Y-55.0
X105.0Y-105.0
T5
X53.525Y-59.28G85X52.925Y-59.28
G05
X53.525Y-67.92G85X52.925Y-67.92
G05
X57.955Y-59.28G85X56.855Y-59.28
G05
X57.955Y-67.92G85X56.855Y-67.92
G05
T0
M30
