%FSLAX45Y45*%
G04 Gerber Fmt 4.5, Leading zero omitted, Abs format (unit mm)*
G04 Created by KiCad (PCBNEW (6.0.5)) date 2022-08-26 20:13:26*
%MOMM*%
%LPD*%
G01*
G04 APERTURE LIST*
%TA.AperFunction,Profile*%
%ADD10C,0.127000*%
%TD*%
%ADD11C,0.200000*%
%ADD12C,0.065000*%
%ADD13C,0.070000*%
%ADD14C,0.150000*%
G04 APERTURE END LIST*
D10*
X5000000Y-5000000D02*
X11000000Y-5000000D01*
X11000000Y-5000000D02*
X11000000Y-11000000D01*
X11000000Y-11000000D02*
X5000000Y-11000000D01*
X5000000Y-11000000D02*
X5000000Y-5000000D01*
D11*
D12*
X5658000Y-6038500D02*
X5723000Y-6103500D01*
X5723000Y-6038500D02*
X5658000Y-6103500D01*
X5658000Y-6616500D02*
X5723000Y-6681500D01*
X5723000Y-6616500D02*
X5658000Y-6681500D01*
D13*
X8255000Y-10750000D02*
G75*
G03*
X8255000Y-10750000I-35000J0D01*
G01*
X8255000Y-10930000D02*
G75*
G03*
X8255000Y-10930000I-35000J0D01*
G01*
D14*
X5402500Y-8475000D02*
X5402500Y-8625000D01*
X5327500Y-8550000D02*
X5477500Y-8550000D01*
X6102500Y-8475000D02*
X6102500Y-8625000D01*
X6027500Y-8550000D02*
X6177500Y-8550000D01*
D11*
X5251269Y-11316826D02*
X5251269Y-11116826D01*
X5298888Y-11116826D01*
X5327460Y-11126350D01*
X5346507Y-11145398D01*
X5356031Y-11164445D01*
X5365555Y-11202540D01*
X5365555Y-11231112D01*
X5356031Y-11269207D01*
X5346507Y-11288255D01*
X5327460Y-11307302D01*
X5298888Y-11316826D01*
X5251269Y-11316826D01*
X5451269Y-11316826D02*
X5451269Y-11183493D01*
X5451269Y-11221588D02*
X5460793Y-11202540D01*
X5470317Y-11193017D01*
X5489364Y-11183493D01*
X5508412Y-11183493D01*
X5575079Y-11316826D02*
X5575079Y-11183493D01*
X5575079Y-11116826D02*
X5565555Y-11126350D01*
X5575079Y-11135874D01*
X5584602Y-11126350D01*
X5575079Y-11116826D01*
X5575079Y-11135874D01*
X5698888Y-11316826D02*
X5679840Y-11307302D01*
X5670317Y-11288255D01*
X5670317Y-11116826D01*
X5803650Y-11316826D02*
X5784602Y-11307302D01*
X5775078Y-11288255D01*
X5775078Y-11116826D01*
X6032221Y-11316826D02*
X6032221Y-11116826D01*
X6098888Y-11259683D01*
X6165555Y-11116826D01*
X6165555Y-11316826D01*
X6346507Y-11316826D02*
X6346507Y-11212064D01*
X6336983Y-11193017D01*
X6317936Y-11183493D01*
X6279840Y-11183493D01*
X6260793Y-11193017D01*
X6346507Y-11307302D02*
X6327459Y-11316826D01*
X6279840Y-11316826D01*
X6260793Y-11307302D01*
X6251269Y-11288255D01*
X6251269Y-11269207D01*
X6260793Y-11250159D01*
X6279840Y-11240636D01*
X6327459Y-11240636D01*
X6346507Y-11231112D01*
X6441745Y-11183493D02*
X6441745Y-11383493D01*
X6441745Y-11193017D02*
X6460793Y-11183493D01*
X6498888Y-11183493D01*
X6517936Y-11193017D01*
X6527459Y-11202540D01*
X6536983Y-11221588D01*
X6536983Y-11278731D01*
X6527459Y-11297778D01*
X6517936Y-11307302D01*
X6498888Y-11316826D01*
X6460793Y-11316826D01*
X6441745Y-11307302D01*
X6622698Y-11297778D02*
X6632221Y-11307302D01*
X6622698Y-11316826D01*
X6613174Y-11307302D01*
X6622698Y-11297778D01*
X6622698Y-11316826D01*
X6622698Y-11193017D02*
X6632221Y-11202540D01*
X6622698Y-11212064D01*
X6613174Y-11202540D01*
X6622698Y-11193017D01*
X6622698Y-11212064D01*
D12*
X4928650Y-11613850D02*
X4993650Y-11678850D01*
X4993650Y-11613850D02*
X4928650Y-11678850D01*
D11*
X5289364Y-11536826D02*
X5308412Y-11536826D01*
X5327460Y-11546350D01*
X5336983Y-11555874D01*
X5346507Y-11574921D01*
X5356031Y-11613017D01*
X5356031Y-11660636D01*
X5346507Y-11698731D01*
X5336983Y-11717778D01*
X5327460Y-11727302D01*
X5308412Y-11736826D01*
X5289364Y-11736826D01*
X5270317Y-11727302D01*
X5260793Y-11717778D01*
X5251269Y-11698731D01*
X5241745Y-11660636D01*
X5241745Y-11613017D01*
X5251269Y-11574921D01*
X5260793Y-11555874D01*
X5270317Y-11546350D01*
X5289364Y-11536826D01*
X5441745Y-11717778D02*
X5451269Y-11727302D01*
X5441745Y-11736826D01*
X5432221Y-11727302D01*
X5441745Y-11717778D01*
X5441745Y-11736826D01*
X5622698Y-11536826D02*
X5584602Y-11536826D01*
X5565555Y-11546350D01*
X5556031Y-11555874D01*
X5536983Y-11584445D01*
X5527460Y-11622540D01*
X5527460Y-11698731D01*
X5536983Y-11717778D01*
X5546507Y-11727302D01*
X5565555Y-11736826D01*
X5603650Y-11736826D01*
X5622698Y-11727302D01*
X5632221Y-11717778D01*
X5641745Y-11698731D01*
X5641745Y-11651112D01*
X5632221Y-11632064D01*
X5622698Y-11622540D01*
X5603650Y-11613017D01*
X5565555Y-11613017D01*
X5546507Y-11622540D01*
X5536983Y-11632064D01*
X5527460Y-11651112D01*
X5822698Y-11536826D02*
X5727459Y-11536826D01*
X5717936Y-11632064D01*
X5727459Y-11622540D01*
X5746507Y-11613017D01*
X5794126Y-11613017D01*
X5813174Y-11622540D01*
X5822698Y-11632064D01*
X5832221Y-11651112D01*
X5832221Y-11698731D01*
X5822698Y-11717778D01*
X5813174Y-11727302D01*
X5794126Y-11736826D01*
X5746507Y-11736826D01*
X5727459Y-11727302D01*
X5717936Y-11717778D01*
X5956031Y-11536826D02*
X5975078Y-11536826D01*
X5994126Y-11546350D01*
X6003650Y-11555874D01*
X6013174Y-11574921D01*
X6022698Y-11613017D01*
X6022698Y-11660636D01*
X6013174Y-11698731D01*
X6003650Y-11717778D01*
X5994126Y-11727302D01*
X5975078Y-11736826D01*
X5956031Y-11736826D01*
X5936983Y-11727302D01*
X5927459Y-11717778D01*
X5917936Y-11698731D01*
X5908412Y-11660636D01*
X5908412Y-11613017D01*
X5917936Y-11574921D01*
X5927459Y-11555874D01*
X5936983Y-11546350D01*
X5956031Y-11536826D01*
X6108412Y-11736826D02*
X6108412Y-11603493D01*
X6108412Y-11622540D02*
X6117936Y-11613017D01*
X6136983Y-11603493D01*
X6165555Y-11603493D01*
X6184602Y-11613017D01*
X6194126Y-11632064D01*
X6194126Y-11736826D01*
X6194126Y-11632064D02*
X6203650Y-11613017D01*
X6222698Y-11603493D01*
X6251269Y-11603493D01*
X6270317Y-11613017D01*
X6279840Y-11632064D01*
X6279840Y-11736826D01*
X6375078Y-11736826D02*
X6375078Y-11603493D01*
X6375078Y-11622540D02*
X6384602Y-11613017D01*
X6403650Y-11603493D01*
X6432221Y-11603493D01*
X6451269Y-11613017D01*
X6460793Y-11632064D01*
X6460793Y-11736826D01*
X6460793Y-11632064D02*
X6470317Y-11613017D01*
X6489364Y-11603493D01*
X6517936Y-11603493D01*
X6536983Y-11613017D01*
X6546507Y-11632064D01*
X6546507Y-11736826D01*
X6936983Y-11527302D02*
X6765555Y-11784445D01*
X7194126Y-11536826D02*
X7213174Y-11536826D01*
X7232221Y-11546350D01*
X7241745Y-11555874D01*
X7251269Y-11574921D01*
X7260793Y-11613017D01*
X7260793Y-11660636D01*
X7251269Y-11698731D01*
X7241745Y-11717778D01*
X7232221Y-11727302D01*
X7213174Y-11736826D01*
X7194126Y-11736826D01*
X7175078Y-11727302D01*
X7165555Y-11717778D01*
X7156031Y-11698731D01*
X7146507Y-11660636D01*
X7146507Y-11613017D01*
X7156031Y-11574921D01*
X7165555Y-11555874D01*
X7175078Y-11546350D01*
X7194126Y-11536826D01*
X7346507Y-11717778D02*
X7356031Y-11727302D01*
X7346507Y-11736826D01*
X7336983Y-11727302D01*
X7346507Y-11717778D01*
X7346507Y-11736826D01*
X7479840Y-11536826D02*
X7498888Y-11536826D01*
X7517936Y-11546350D01*
X7527459Y-11555874D01*
X7536983Y-11574921D01*
X7546507Y-11613017D01*
X7546507Y-11660636D01*
X7536983Y-11698731D01*
X7527459Y-11717778D01*
X7517936Y-11727302D01*
X7498888Y-11736826D01*
X7479840Y-11736826D01*
X7460793Y-11727302D01*
X7451269Y-11717778D01*
X7441745Y-11698731D01*
X7432221Y-11660636D01*
X7432221Y-11613017D01*
X7441745Y-11574921D01*
X7451269Y-11555874D01*
X7460793Y-11546350D01*
X7479840Y-11536826D01*
X7622698Y-11555874D02*
X7632221Y-11546350D01*
X7651269Y-11536826D01*
X7698888Y-11536826D01*
X7717936Y-11546350D01*
X7727459Y-11555874D01*
X7736983Y-11574921D01*
X7736983Y-11593969D01*
X7727459Y-11622540D01*
X7613174Y-11736826D01*
X7736983Y-11736826D01*
X7917936Y-11536826D02*
X7822698Y-11536826D01*
X7813174Y-11632064D01*
X7822698Y-11622540D01*
X7841745Y-11613017D01*
X7889364Y-11613017D01*
X7908412Y-11622540D01*
X7917936Y-11632064D01*
X7927459Y-11651112D01*
X7927459Y-11698731D01*
X7917936Y-11717778D01*
X7908412Y-11727302D01*
X7889364Y-11736826D01*
X7841745Y-11736826D01*
X7822698Y-11727302D01*
X7813174Y-11717778D01*
X8098888Y-11536826D02*
X8060793Y-11536826D01*
X8041745Y-11546350D01*
X8032221Y-11555874D01*
X8013174Y-11584445D01*
X8003650Y-11622540D01*
X8003650Y-11698731D01*
X8013174Y-11717778D01*
X8022698Y-11727302D01*
X8041745Y-11736826D01*
X8079840Y-11736826D01*
X8098888Y-11727302D01*
X8108412Y-11717778D01*
X8117936Y-11698731D01*
X8117936Y-11651112D01*
X8108412Y-11632064D01*
X8098888Y-11622540D01*
X8079840Y-11613017D01*
X8041745Y-11613017D01*
X8022698Y-11622540D01*
X8013174Y-11632064D01*
X8003650Y-11651112D01*
X8194126Y-11536826D02*
X8194126Y-11574921D01*
X8270317Y-11536826D02*
X8270317Y-11574921D01*
X8565555Y-11813017D02*
X8556031Y-11803493D01*
X8536983Y-11774921D01*
X8527460Y-11755874D01*
X8517936Y-11727302D01*
X8508412Y-11679683D01*
X8508412Y-11641588D01*
X8517936Y-11593969D01*
X8527460Y-11565398D01*
X8536983Y-11546350D01*
X8556031Y-11517778D01*
X8565555Y-11508255D01*
X8632221Y-11555874D02*
X8641745Y-11546350D01*
X8660793Y-11536826D01*
X8708412Y-11536826D01*
X8727460Y-11546350D01*
X8736983Y-11555874D01*
X8746507Y-11574921D01*
X8746507Y-11593969D01*
X8736983Y-11622540D01*
X8622698Y-11736826D01*
X8746507Y-11736826D01*
X8984602Y-11736826D02*
X8984602Y-11536826D01*
X9070317Y-11736826D02*
X9070317Y-11632064D01*
X9060793Y-11613017D01*
X9041745Y-11603493D01*
X9013174Y-11603493D01*
X8994126Y-11613017D01*
X8984602Y-11622540D01*
X9194126Y-11736826D02*
X9175079Y-11727302D01*
X9165555Y-11717778D01*
X9156031Y-11698731D01*
X9156031Y-11641588D01*
X9165555Y-11622540D01*
X9175079Y-11613017D01*
X9194126Y-11603493D01*
X9222698Y-11603493D01*
X9241745Y-11613017D01*
X9251269Y-11622540D01*
X9260793Y-11641588D01*
X9260793Y-11698731D01*
X9251269Y-11717778D01*
X9241745Y-11727302D01*
X9222698Y-11736826D01*
X9194126Y-11736826D01*
X9375079Y-11736826D02*
X9356031Y-11727302D01*
X9346507Y-11708255D01*
X9346507Y-11536826D01*
X9527460Y-11727302D02*
X9508412Y-11736826D01*
X9470317Y-11736826D01*
X9451269Y-11727302D01*
X9441745Y-11708255D01*
X9441745Y-11632064D01*
X9451269Y-11613017D01*
X9470317Y-11603493D01*
X9508412Y-11603493D01*
X9527460Y-11613017D01*
X9536983Y-11632064D01*
X9536983Y-11651112D01*
X9441745Y-11670159D01*
X9613174Y-11727302D02*
X9632221Y-11736826D01*
X9670317Y-11736826D01*
X9689364Y-11727302D01*
X9698888Y-11708255D01*
X9698888Y-11698731D01*
X9689364Y-11679683D01*
X9670317Y-11670159D01*
X9641745Y-11670159D01*
X9622698Y-11660636D01*
X9613174Y-11641588D01*
X9613174Y-11632064D01*
X9622698Y-11613017D01*
X9641745Y-11603493D01*
X9670317Y-11603493D01*
X9689364Y-11613017D01*
X9765555Y-11813017D02*
X9775079Y-11803493D01*
X9794126Y-11774921D01*
X9803650Y-11755874D01*
X9813174Y-11727302D01*
X9822698Y-11679683D01*
X9822698Y-11641588D01*
X9813174Y-11593969D01*
X9803650Y-11565398D01*
X9794126Y-11546350D01*
X9775079Y-11517778D01*
X9765555Y-11508255D01*
X10127460Y-11813017D02*
X10117936Y-11803493D01*
X10098888Y-11774921D01*
X10089364Y-11755874D01*
X10079840Y-11727302D01*
X10070317Y-11679683D01*
X10070317Y-11641588D01*
X10079840Y-11593969D01*
X10089364Y-11565398D01*
X10098888Y-11546350D01*
X10117936Y-11517778D01*
X10127460Y-11508255D01*
X10203650Y-11603493D02*
X10203650Y-11736826D01*
X10203650Y-11622540D02*
X10213174Y-11613017D01*
X10232221Y-11603493D01*
X10260793Y-11603493D01*
X10279840Y-11613017D01*
X10289364Y-11632064D01*
X10289364Y-11736826D01*
X10413174Y-11736826D02*
X10394126Y-11727302D01*
X10384602Y-11717778D01*
X10375079Y-11698731D01*
X10375079Y-11641588D01*
X10384602Y-11622540D01*
X10394126Y-11613017D01*
X10413174Y-11603493D01*
X10441745Y-11603493D01*
X10460793Y-11613017D01*
X10470317Y-11622540D01*
X10479840Y-11641588D01*
X10479840Y-11698731D01*
X10470317Y-11717778D01*
X10460793Y-11727302D01*
X10441745Y-11736826D01*
X10413174Y-11736826D01*
X10536983Y-11603493D02*
X10613174Y-11603493D01*
X10565555Y-11536826D02*
X10565555Y-11708255D01*
X10575079Y-11727302D01*
X10594126Y-11736826D01*
X10613174Y-11736826D01*
X10832221Y-11603493D02*
X10832221Y-11803493D01*
X10832221Y-11613017D02*
X10851269Y-11603493D01*
X10889364Y-11603493D01*
X10908412Y-11613017D01*
X10917936Y-11622540D01*
X10927460Y-11641588D01*
X10927460Y-11698731D01*
X10917936Y-11717778D01*
X10908412Y-11727302D01*
X10889364Y-11736826D01*
X10851269Y-11736826D01*
X10832221Y-11727302D01*
X11041745Y-11736826D02*
X11022698Y-11727302D01*
X11013174Y-11708255D01*
X11013174Y-11536826D01*
X11203650Y-11736826D02*
X11203650Y-11632064D01*
X11194126Y-11613017D01*
X11175079Y-11603493D01*
X11136983Y-11603493D01*
X11117936Y-11613017D01*
X11203650Y-11727302D02*
X11184602Y-11736826D01*
X11136983Y-11736826D01*
X11117936Y-11727302D01*
X11108412Y-11708255D01*
X11108412Y-11689207D01*
X11117936Y-11670159D01*
X11136983Y-11660636D01*
X11184602Y-11660636D01*
X11203650Y-11651112D01*
X11270317Y-11603493D02*
X11346507Y-11603493D01*
X11298888Y-11536826D02*
X11298888Y-11708255D01*
X11308412Y-11727302D01*
X11327459Y-11736826D01*
X11346507Y-11736826D01*
X11489364Y-11727302D02*
X11470317Y-11736826D01*
X11432221Y-11736826D01*
X11413174Y-11727302D01*
X11403650Y-11708255D01*
X11403650Y-11632064D01*
X11413174Y-11613017D01*
X11432221Y-11603493D01*
X11470317Y-11603493D01*
X11489364Y-11613017D01*
X11498888Y-11632064D01*
X11498888Y-11651112D01*
X11403650Y-11670159D01*
X11670317Y-11736826D02*
X11670317Y-11536826D01*
X11670317Y-11727302D02*
X11651269Y-11736826D01*
X11613174Y-11736826D01*
X11594126Y-11727302D01*
X11584602Y-11717778D01*
X11575078Y-11698731D01*
X11575078Y-11641588D01*
X11584602Y-11622540D01*
X11594126Y-11613017D01*
X11613174Y-11603493D01*
X11651269Y-11603493D01*
X11670317Y-11613017D01*
X11746507Y-11813017D02*
X11756031Y-11803493D01*
X11775078Y-11774921D01*
X11784602Y-11755874D01*
X11794126Y-11727302D01*
X11803650Y-11679683D01*
X11803650Y-11641588D01*
X11794126Y-11593969D01*
X11784602Y-11565398D01*
X11775078Y-11546350D01*
X11756031Y-11517778D01*
X11746507Y-11508255D01*
D13*
X4993650Y-11910350D02*
G75*
G03*
X4993650Y-11910350I-35000J0D01*
G01*
D11*
X5289364Y-11800826D02*
X5308412Y-11800826D01*
X5327460Y-11810350D01*
X5336983Y-11819874D01*
X5346507Y-11838921D01*
X5356031Y-11877017D01*
X5356031Y-11924636D01*
X5346507Y-11962731D01*
X5336983Y-11981778D01*
X5327460Y-11991302D01*
X5308412Y-12000826D01*
X5289364Y-12000826D01*
X5270317Y-11991302D01*
X5260793Y-11981778D01*
X5251269Y-11962731D01*
X5241745Y-11924636D01*
X5241745Y-11877017D01*
X5251269Y-11838921D01*
X5260793Y-11819874D01*
X5270317Y-11810350D01*
X5289364Y-11800826D01*
X5441745Y-11981778D02*
X5451269Y-11991302D01*
X5441745Y-12000826D01*
X5432221Y-11991302D01*
X5441745Y-11981778D01*
X5441745Y-12000826D01*
X5517936Y-11800826D02*
X5651269Y-11800826D01*
X5565555Y-12000826D01*
X5765555Y-11800826D02*
X5784602Y-11800826D01*
X5803650Y-11810350D01*
X5813174Y-11819874D01*
X5822698Y-11838921D01*
X5832221Y-11877017D01*
X5832221Y-11924636D01*
X5822698Y-11962731D01*
X5813174Y-11981778D01*
X5803650Y-11991302D01*
X5784602Y-12000826D01*
X5765555Y-12000826D01*
X5746507Y-11991302D01*
X5736983Y-11981778D01*
X5727459Y-11962731D01*
X5717936Y-11924636D01*
X5717936Y-11877017D01*
X5727459Y-11838921D01*
X5736983Y-11819874D01*
X5746507Y-11810350D01*
X5765555Y-11800826D01*
X5956031Y-11800826D02*
X5975078Y-11800826D01*
X5994126Y-11810350D01*
X6003650Y-11819874D01*
X6013174Y-11838921D01*
X6022698Y-11877017D01*
X6022698Y-11924636D01*
X6013174Y-11962731D01*
X6003650Y-11981778D01*
X5994126Y-11991302D01*
X5975078Y-12000826D01*
X5956031Y-12000826D01*
X5936983Y-11991302D01*
X5927459Y-11981778D01*
X5917936Y-11962731D01*
X5908412Y-11924636D01*
X5908412Y-11877017D01*
X5917936Y-11838921D01*
X5927459Y-11819874D01*
X5936983Y-11810350D01*
X5956031Y-11800826D01*
X6108412Y-12000826D02*
X6108412Y-11867493D01*
X6108412Y-11886540D02*
X6117936Y-11877017D01*
X6136983Y-11867493D01*
X6165555Y-11867493D01*
X6184602Y-11877017D01*
X6194126Y-11896064D01*
X6194126Y-12000826D01*
X6194126Y-11896064D02*
X6203650Y-11877017D01*
X6222698Y-11867493D01*
X6251269Y-11867493D01*
X6270317Y-11877017D01*
X6279840Y-11896064D01*
X6279840Y-12000826D01*
X6375078Y-12000826D02*
X6375078Y-11867493D01*
X6375078Y-11886540D02*
X6384602Y-11877017D01*
X6403650Y-11867493D01*
X6432221Y-11867493D01*
X6451269Y-11877017D01*
X6460793Y-11896064D01*
X6460793Y-12000826D01*
X6460793Y-11896064D02*
X6470317Y-11877017D01*
X6489364Y-11867493D01*
X6517936Y-11867493D01*
X6536983Y-11877017D01*
X6546507Y-11896064D01*
X6546507Y-12000826D01*
X6936983Y-11791302D02*
X6765555Y-12048445D01*
X7194126Y-11800826D02*
X7213174Y-11800826D01*
X7232221Y-11810350D01*
X7241745Y-11819874D01*
X7251269Y-11838921D01*
X7260793Y-11877017D01*
X7260793Y-11924636D01*
X7251269Y-11962731D01*
X7241745Y-11981778D01*
X7232221Y-11991302D01*
X7213174Y-12000826D01*
X7194126Y-12000826D01*
X7175078Y-11991302D01*
X7165555Y-11981778D01*
X7156031Y-11962731D01*
X7146507Y-11924636D01*
X7146507Y-11877017D01*
X7156031Y-11838921D01*
X7165555Y-11819874D01*
X7175078Y-11810350D01*
X7194126Y-11800826D01*
X7346507Y-11981778D02*
X7356031Y-11991302D01*
X7346507Y-12000826D01*
X7336983Y-11991302D01*
X7346507Y-11981778D01*
X7346507Y-12000826D01*
X7479840Y-11800826D02*
X7498888Y-11800826D01*
X7517936Y-11810350D01*
X7527459Y-11819874D01*
X7536983Y-11838921D01*
X7546507Y-11877017D01*
X7546507Y-11924636D01*
X7536983Y-11962731D01*
X7527459Y-11981778D01*
X7517936Y-11991302D01*
X7498888Y-12000826D01*
X7479840Y-12000826D01*
X7460793Y-11991302D01*
X7451269Y-11981778D01*
X7441745Y-11962731D01*
X7432221Y-11924636D01*
X7432221Y-11877017D01*
X7441745Y-11838921D01*
X7451269Y-11819874D01*
X7460793Y-11810350D01*
X7479840Y-11800826D01*
X7622698Y-11819874D02*
X7632221Y-11810350D01*
X7651269Y-11800826D01*
X7698888Y-11800826D01*
X7717936Y-11810350D01*
X7727459Y-11819874D01*
X7736983Y-11838921D01*
X7736983Y-11857969D01*
X7727459Y-11886540D01*
X7613174Y-12000826D01*
X7736983Y-12000826D01*
X7803650Y-11800826D02*
X7936983Y-11800826D01*
X7851269Y-12000826D01*
X8098888Y-11800826D02*
X8060793Y-11800826D01*
X8041745Y-11810350D01*
X8032221Y-11819874D01*
X8013174Y-11848445D01*
X8003650Y-11886540D01*
X8003650Y-11962731D01*
X8013174Y-11981778D01*
X8022698Y-11991302D01*
X8041745Y-12000826D01*
X8079840Y-12000826D01*
X8098888Y-11991302D01*
X8108412Y-11981778D01*
X8117936Y-11962731D01*
X8117936Y-11915112D01*
X8108412Y-11896064D01*
X8098888Y-11886540D01*
X8079840Y-11877017D01*
X8041745Y-11877017D01*
X8022698Y-11886540D01*
X8013174Y-11896064D01*
X8003650Y-11915112D01*
X8194126Y-11800826D02*
X8194126Y-11838921D01*
X8270317Y-11800826D02*
X8270317Y-11838921D01*
X8565555Y-12077017D02*
X8556031Y-12067493D01*
X8536983Y-12038921D01*
X8527460Y-12019874D01*
X8517936Y-11991302D01*
X8508412Y-11943683D01*
X8508412Y-11905588D01*
X8517936Y-11857969D01*
X8527460Y-11829398D01*
X8536983Y-11810350D01*
X8556031Y-11781778D01*
X8565555Y-11772255D01*
X8632221Y-11819874D02*
X8641745Y-11810350D01*
X8660793Y-11800826D01*
X8708412Y-11800826D01*
X8727460Y-11810350D01*
X8736983Y-11819874D01*
X8746507Y-11838921D01*
X8746507Y-11857969D01*
X8736983Y-11886540D01*
X8622698Y-12000826D01*
X8746507Y-12000826D01*
X8984602Y-12000826D02*
X8984602Y-11800826D01*
X9070317Y-12000826D02*
X9070317Y-11896064D01*
X9060793Y-11877017D01*
X9041745Y-11867493D01*
X9013174Y-11867493D01*
X8994126Y-11877017D01*
X8984602Y-11886540D01*
X9194126Y-12000826D02*
X9175079Y-11991302D01*
X9165555Y-11981778D01*
X9156031Y-11962731D01*
X9156031Y-11905588D01*
X9165555Y-11886540D01*
X9175079Y-11877017D01*
X9194126Y-11867493D01*
X9222698Y-11867493D01*
X9241745Y-11877017D01*
X9251269Y-11886540D01*
X9260793Y-11905588D01*
X9260793Y-11962731D01*
X9251269Y-11981778D01*
X9241745Y-11991302D01*
X9222698Y-12000826D01*
X9194126Y-12000826D01*
X9375079Y-12000826D02*
X9356031Y-11991302D01*
X9346507Y-11972255D01*
X9346507Y-11800826D01*
X9527460Y-11991302D02*
X9508412Y-12000826D01*
X9470317Y-12000826D01*
X9451269Y-11991302D01*
X9441745Y-11972255D01*
X9441745Y-11896064D01*
X9451269Y-11877017D01*
X9470317Y-11867493D01*
X9508412Y-11867493D01*
X9527460Y-11877017D01*
X9536983Y-11896064D01*
X9536983Y-11915112D01*
X9441745Y-11934159D01*
X9613174Y-11991302D02*
X9632221Y-12000826D01*
X9670317Y-12000826D01*
X9689364Y-11991302D01*
X9698888Y-11972255D01*
X9698888Y-11962731D01*
X9689364Y-11943683D01*
X9670317Y-11934159D01*
X9641745Y-11934159D01*
X9622698Y-11924636D01*
X9613174Y-11905588D01*
X9613174Y-11896064D01*
X9622698Y-11877017D01*
X9641745Y-11867493D01*
X9670317Y-11867493D01*
X9689364Y-11877017D01*
X9765555Y-12077017D02*
X9775079Y-12067493D01*
X9794126Y-12038921D01*
X9803650Y-12019874D01*
X9813174Y-11991302D01*
X9822698Y-11943683D01*
X9822698Y-11905588D01*
X9813174Y-11857969D01*
X9803650Y-11829398D01*
X9794126Y-11810350D01*
X9775079Y-11781778D01*
X9765555Y-11772255D01*
X10127460Y-12077017D02*
X10117936Y-12067493D01*
X10098888Y-12038921D01*
X10089364Y-12019874D01*
X10079840Y-11991302D01*
X10070317Y-11943683D01*
X10070317Y-11905588D01*
X10079840Y-11857969D01*
X10089364Y-11829398D01*
X10098888Y-11810350D01*
X10117936Y-11781778D01*
X10127460Y-11772255D01*
X10203650Y-11867493D02*
X10203650Y-12000826D01*
X10203650Y-11886540D02*
X10213174Y-11877017D01*
X10232221Y-11867493D01*
X10260793Y-11867493D01*
X10279840Y-11877017D01*
X10289364Y-11896064D01*
X10289364Y-12000826D01*
X10413174Y-12000826D02*
X10394126Y-11991302D01*
X10384602Y-11981778D01*
X10375079Y-11962731D01*
X10375079Y-11905588D01*
X10384602Y-11886540D01*
X10394126Y-11877017D01*
X10413174Y-11867493D01*
X10441745Y-11867493D01*
X10460793Y-11877017D01*
X10470317Y-11886540D01*
X10479840Y-11905588D01*
X10479840Y-11962731D01*
X10470317Y-11981778D01*
X10460793Y-11991302D01*
X10441745Y-12000826D01*
X10413174Y-12000826D01*
X10536983Y-11867493D02*
X10613174Y-11867493D01*
X10565555Y-11800826D02*
X10565555Y-11972255D01*
X10575079Y-11991302D01*
X10594126Y-12000826D01*
X10613174Y-12000826D01*
X10832221Y-11867493D02*
X10832221Y-12067493D01*
X10832221Y-11877017D02*
X10851269Y-11867493D01*
X10889364Y-11867493D01*
X10908412Y-11877017D01*
X10917936Y-11886540D01*
X10927460Y-11905588D01*
X10927460Y-11962731D01*
X10917936Y-11981778D01*
X10908412Y-11991302D01*
X10889364Y-12000826D01*
X10851269Y-12000826D01*
X10832221Y-11991302D01*
X11041745Y-12000826D02*
X11022698Y-11991302D01*
X11013174Y-11972255D01*
X11013174Y-11800826D01*
X11203650Y-12000826D02*
X11203650Y-11896064D01*
X11194126Y-11877017D01*
X11175079Y-11867493D01*
X11136983Y-11867493D01*
X11117936Y-11877017D01*
X11203650Y-11991302D02*
X11184602Y-12000826D01*
X11136983Y-12000826D01*
X11117936Y-11991302D01*
X11108412Y-11972255D01*
X11108412Y-11953207D01*
X11117936Y-11934159D01*
X11136983Y-11924636D01*
X11184602Y-11924636D01*
X11203650Y-11915112D01*
X11270317Y-11867493D02*
X11346507Y-11867493D01*
X11298888Y-11800826D02*
X11298888Y-11972255D01*
X11308412Y-11991302D01*
X11327459Y-12000826D01*
X11346507Y-12000826D01*
X11489364Y-11991302D02*
X11470317Y-12000826D01*
X11432221Y-12000826D01*
X11413174Y-11991302D01*
X11403650Y-11972255D01*
X11403650Y-11896064D01*
X11413174Y-11877017D01*
X11432221Y-11867493D01*
X11470317Y-11867493D01*
X11489364Y-11877017D01*
X11498888Y-11896064D01*
X11498888Y-11915112D01*
X11403650Y-11934159D01*
X11670317Y-12000826D02*
X11670317Y-11800826D01*
X11670317Y-11991302D02*
X11651269Y-12000826D01*
X11613174Y-12000826D01*
X11594126Y-11991302D01*
X11584602Y-11981778D01*
X11575078Y-11962731D01*
X11575078Y-11905588D01*
X11584602Y-11886540D01*
X11594126Y-11877017D01*
X11613174Y-11867493D01*
X11651269Y-11867493D01*
X11670317Y-11877017D01*
X11746507Y-12077017D02*
X11756031Y-12067493D01*
X11775078Y-12038921D01*
X11784602Y-12019874D01*
X11794126Y-11991302D01*
X11803650Y-11943683D01*
X11803650Y-11905588D01*
X11794126Y-11857969D01*
X11784602Y-11829398D01*
X11775078Y-11810350D01*
X11756031Y-11781778D01*
X11746507Y-11772255D01*
D14*
X4918650Y-12099350D02*
X4918650Y-12249350D01*
X4843650Y-12174350D02*
X4993650Y-12174350D01*
D11*
X5356031Y-12264826D02*
X5241745Y-12264826D01*
X5298888Y-12264826D02*
X5298888Y-12064826D01*
X5279840Y-12093398D01*
X5260793Y-12112445D01*
X5241745Y-12121969D01*
X5441745Y-12245778D02*
X5451269Y-12255302D01*
X5441745Y-12264826D01*
X5432221Y-12255302D01*
X5441745Y-12245778D01*
X5441745Y-12264826D01*
X5632221Y-12064826D02*
X5536983Y-12064826D01*
X5527460Y-12160064D01*
X5536983Y-12150540D01*
X5556031Y-12141017D01*
X5603650Y-12141017D01*
X5622698Y-12150540D01*
X5632221Y-12160064D01*
X5641745Y-12179112D01*
X5641745Y-12226731D01*
X5632221Y-12245778D01*
X5622698Y-12255302D01*
X5603650Y-12264826D01*
X5556031Y-12264826D01*
X5536983Y-12255302D01*
X5527460Y-12245778D01*
X5765555Y-12064826D02*
X5784602Y-12064826D01*
X5803650Y-12074350D01*
X5813174Y-12083874D01*
X5822698Y-12102921D01*
X5832221Y-12141017D01*
X5832221Y-12188636D01*
X5822698Y-12226731D01*
X5813174Y-12245778D01*
X5803650Y-12255302D01*
X5784602Y-12264826D01*
X5765555Y-12264826D01*
X5746507Y-12255302D01*
X5736983Y-12245778D01*
X5727459Y-12226731D01*
X5717936Y-12188636D01*
X5717936Y-12141017D01*
X5727459Y-12102921D01*
X5736983Y-12083874D01*
X5746507Y-12074350D01*
X5765555Y-12064826D01*
X5956031Y-12064826D02*
X5975078Y-12064826D01*
X5994126Y-12074350D01*
X6003650Y-12083874D01*
X6013174Y-12102921D01*
X6022698Y-12141017D01*
X6022698Y-12188636D01*
X6013174Y-12226731D01*
X6003650Y-12245778D01*
X5994126Y-12255302D01*
X5975078Y-12264826D01*
X5956031Y-12264826D01*
X5936983Y-12255302D01*
X5927459Y-12245778D01*
X5917936Y-12226731D01*
X5908412Y-12188636D01*
X5908412Y-12141017D01*
X5917936Y-12102921D01*
X5927459Y-12083874D01*
X5936983Y-12074350D01*
X5956031Y-12064826D01*
X6108412Y-12264826D02*
X6108412Y-12131493D01*
X6108412Y-12150540D02*
X6117936Y-12141017D01*
X6136983Y-12131493D01*
X6165555Y-12131493D01*
X6184602Y-12141017D01*
X6194126Y-12160064D01*
X6194126Y-12264826D01*
X6194126Y-12160064D02*
X6203650Y-12141017D01*
X6222698Y-12131493D01*
X6251269Y-12131493D01*
X6270317Y-12141017D01*
X6279840Y-12160064D01*
X6279840Y-12264826D01*
X6375078Y-12264826D02*
X6375078Y-12131493D01*
X6375078Y-12150540D02*
X6384602Y-12141017D01*
X6403650Y-12131493D01*
X6432221Y-12131493D01*
X6451269Y-12141017D01*
X6460793Y-12160064D01*
X6460793Y-12264826D01*
X6460793Y-12160064D02*
X6470317Y-12141017D01*
X6489364Y-12131493D01*
X6517936Y-12131493D01*
X6536983Y-12141017D01*
X6546507Y-12160064D01*
X6546507Y-12264826D01*
X6936983Y-12055302D02*
X6765555Y-12312445D01*
X7194126Y-12064826D02*
X7213174Y-12064826D01*
X7232221Y-12074350D01*
X7241745Y-12083874D01*
X7251269Y-12102921D01*
X7260793Y-12141017D01*
X7260793Y-12188636D01*
X7251269Y-12226731D01*
X7241745Y-12245778D01*
X7232221Y-12255302D01*
X7213174Y-12264826D01*
X7194126Y-12264826D01*
X7175078Y-12255302D01*
X7165555Y-12245778D01*
X7156031Y-12226731D01*
X7146507Y-12188636D01*
X7146507Y-12141017D01*
X7156031Y-12102921D01*
X7165555Y-12083874D01*
X7175078Y-12074350D01*
X7194126Y-12064826D01*
X7346507Y-12245778D02*
X7356031Y-12255302D01*
X7346507Y-12264826D01*
X7336983Y-12255302D01*
X7346507Y-12245778D01*
X7346507Y-12264826D01*
X7479840Y-12064826D02*
X7498888Y-12064826D01*
X7517936Y-12074350D01*
X7527459Y-12083874D01*
X7536983Y-12102921D01*
X7546507Y-12141017D01*
X7546507Y-12188636D01*
X7536983Y-12226731D01*
X7527459Y-12245778D01*
X7517936Y-12255302D01*
X7498888Y-12264826D01*
X7479840Y-12264826D01*
X7460793Y-12255302D01*
X7451269Y-12245778D01*
X7441745Y-12226731D01*
X7432221Y-12188636D01*
X7432221Y-12141017D01*
X7441745Y-12102921D01*
X7451269Y-12083874D01*
X7460793Y-12074350D01*
X7479840Y-12064826D01*
X7727459Y-12064826D02*
X7632221Y-12064826D01*
X7622698Y-12160064D01*
X7632221Y-12150540D01*
X7651269Y-12141017D01*
X7698888Y-12141017D01*
X7717936Y-12150540D01*
X7727459Y-12160064D01*
X7736983Y-12179112D01*
X7736983Y-12226731D01*
X7727459Y-12245778D01*
X7717936Y-12255302D01*
X7698888Y-12264826D01*
X7651269Y-12264826D01*
X7632221Y-12255302D01*
X7622698Y-12245778D01*
X7832221Y-12264826D02*
X7870317Y-12264826D01*
X7889364Y-12255302D01*
X7898888Y-12245778D01*
X7917936Y-12217207D01*
X7927459Y-12179112D01*
X7927459Y-12102921D01*
X7917936Y-12083874D01*
X7908412Y-12074350D01*
X7889364Y-12064826D01*
X7851269Y-12064826D01*
X7832221Y-12074350D01*
X7822698Y-12083874D01*
X7813174Y-12102921D01*
X7813174Y-12150540D01*
X7822698Y-12169588D01*
X7832221Y-12179112D01*
X7851269Y-12188636D01*
X7889364Y-12188636D01*
X7908412Y-12179112D01*
X7917936Y-12169588D01*
X7927459Y-12150540D01*
X8117936Y-12264826D02*
X8003650Y-12264826D01*
X8060793Y-12264826D02*
X8060793Y-12064826D01*
X8041745Y-12093398D01*
X8022698Y-12112445D01*
X8003650Y-12121969D01*
X8194126Y-12064826D02*
X8194126Y-12102921D01*
X8270317Y-12064826D02*
X8270317Y-12102921D01*
X8565555Y-12341017D02*
X8556031Y-12331493D01*
X8536983Y-12302921D01*
X8527460Y-12283874D01*
X8517936Y-12255302D01*
X8508412Y-12207683D01*
X8508412Y-12169588D01*
X8517936Y-12121969D01*
X8527460Y-12093398D01*
X8536983Y-12074350D01*
X8556031Y-12045778D01*
X8565555Y-12036255D01*
X8632221Y-12083874D02*
X8641745Y-12074350D01*
X8660793Y-12064826D01*
X8708412Y-12064826D01*
X8727460Y-12074350D01*
X8736983Y-12083874D01*
X8746507Y-12102921D01*
X8746507Y-12121969D01*
X8736983Y-12150540D01*
X8622698Y-12264826D01*
X8746507Y-12264826D01*
X8984602Y-12264826D02*
X8984602Y-12064826D01*
X9070317Y-12264826D02*
X9070317Y-12160064D01*
X9060793Y-12141017D01*
X9041745Y-12131493D01*
X9013174Y-12131493D01*
X8994126Y-12141017D01*
X8984602Y-12150540D01*
X9194126Y-12264826D02*
X9175079Y-12255302D01*
X9165555Y-12245778D01*
X9156031Y-12226731D01*
X9156031Y-12169588D01*
X9165555Y-12150540D01*
X9175079Y-12141017D01*
X9194126Y-12131493D01*
X9222698Y-12131493D01*
X9241745Y-12141017D01*
X9251269Y-12150540D01*
X9260793Y-12169588D01*
X9260793Y-12226731D01*
X9251269Y-12245778D01*
X9241745Y-12255302D01*
X9222698Y-12264826D01*
X9194126Y-12264826D01*
X9375079Y-12264826D02*
X9356031Y-12255302D01*
X9346507Y-12236255D01*
X9346507Y-12064826D01*
X9527460Y-12255302D02*
X9508412Y-12264826D01*
X9470317Y-12264826D01*
X9451269Y-12255302D01*
X9441745Y-12236255D01*
X9441745Y-12160064D01*
X9451269Y-12141017D01*
X9470317Y-12131493D01*
X9508412Y-12131493D01*
X9527460Y-12141017D01*
X9536983Y-12160064D01*
X9536983Y-12179112D01*
X9441745Y-12198159D01*
X9613174Y-12255302D02*
X9632221Y-12264826D01*
X9670317Y-12264826D01*
X9689364Y-12255302D01*
X9698888Y-12236255D01*
X9698888Y-12226731D01*
X9689364Y-12207683D01*
X9670317Y-12198159D01*
X9641745Y-12198159D01*
X9622698Y-12188636D01*
X9613174Y-12169588D01*
X9613174Y-12160064D01*
X9622698Y-12141017D01*
X9641745Y-12131493D01*
X9670317Y-12131493D01*
X9689364Y-12141017D01*
X9765555Y-12341017D02*
X9775079Y-12331493D01*
X9794126Y-12302921D01*
X9803650Y-12283874D01*
X9813174Y-12255302D01*
X9822698Y-12207683D01*
X9822698Y-12169588D01*
X9813174Y-12121969D01*
X9803650Y-12093398D01*
X9794126Y-12074350D01*
X9775079Y-12045778D01*
X9765555Y-12036255D01*
X10127460Y-12341017D02*
X10117936Y-12331493D01*
X10098888Y-12302921D01*
X10089364Y-12283874D01*
X10079840Y-12255302D01*
X10070317Y-12207683D01*
X10070317Y-12169588D01*
X10079840Y-12121969D01*
X10089364Y-12093398D01*
X10098888Y-12074350D01*
X10117936Y-12045778D01*
X10127460Y-12036255D01*
X10203650Y-12131493D02*
X10203650Y-12264826D01*
X10203650Y-12150540D02*
X10213174Y-12141017D01*
X10232221Y-12131493D01*
X10260793Y-12131493D01*
X10279840Y-12141017D01*
X10289364Y-12160064D01*
X10289364Y-12264826D01*
X10413174Y-12264826D02*
X10394126Y-12255302D01*
X10384602Y-12245778D01*
X10375079Y-12226731D01*
X10375079Y-12169588D01*
X10384602Y-12150540D01*
X10394126Y-12141017D01*
X10413174Y-12131493D01*
X10441745Y-12131493D01*
X10460793Y-12141017D01*
X10470317Y-12150540D01*
X10479840Y-12169588D01*
X10479840Y-12226731D01*
X10470317Y-12245778D01*
X10460793Y-12255302D01*
X10441745Y-12264826D01*
X10413174Y-12264826D01*
X10536983Y-12131493D02*
X10613174Y-12131493D01*
X10565555Y-12064826D02*
X10565555Y-12236255D01*
X10575079Y-12255302D01*
X10594126Y-12264826D01*
X10613174Y-12264826D01*
X10832221Y-12131493D02*
X10832221Y-12331493D01*
X10832221Y-12141017D02*
X10851269Y-12131493D01*
X10889364Y-12131493D01*
X10908412Y-12141017D01*
X10917936Y-12150540D01*
X10927460Y-12169588D01*
X10927460Y-12226731D01*
X10917936Y-12245778D01*
X10908412Y-12255302D01*
X10889364Y-12264826D01*
X10851269Y-12264826D01*
X10832221Y-12255302D01*
X11041745Y-12264826D02*
X11022698Y-12255302D01*
X11013174Y-12236255D01*
X11013174Y-12064826D01*
X11203650Y-12264826D02*
X11203650Y-12160064D01*
X11194126Y-12141017D01*
X11175079Y-12131493D01*
X11136983Y-12131493D01*
X11117936Y-12141017D01*
X11203650Y-12255302D02*
X11184602Y-12264826D01*
X11136983Y-12264826D01*
X11117936Y-12255302D01*
X11108412Y-12236255D01*
X11108412Y-12217207D01*
X11117936Y-12198159D01*
X11136983Y-12188636D01*
X11184602Y-12188636D01*
X11203650Y-12179112D01*
X11270317Y-12131493D02*
X11346507Y-12131493D01*
X11298888Y-12064826D02*
X11298888Y-12236255D01*
X11308412Y-12255302D01*
X11327459Y-12264826D01*
X11346507Y-12264826D01*
X11489364Y-12255302D02*
X11470317Y-12264826D01*
X11432221Y-12264826D01*
X11413174Y-12255302D01*
X11403650Y-12236255D01*
X11403650Y-12160064D01*
X11413174Y-12141017D01*
X11432221Y-12131493D01*
X11470317Y-12131493D01*
X11489364Y-12141017D01*
X11498888Y-12160064D01*
X11498888Y-12179112D01*
X11403650Y-12198159D01*
X11670317Y-12264826D02*
X11670317Y-12064826D01*
X11670317Y-12255302D02*
X11651269Y-12264826D01*
X11613174Y-12264826D01*
X11594126Y-12255302D01*
X11584602Y-12245778D01*
X11575078Y-12226731D01*
X11575078Y-12169588D01*
X11584602Y-12150540D01*
X11594126Y-12141017D01*
X11613174Y-12131493D01*
X11651269Y-12131493D01*
X11670317Y-12141017D01*
X11746507Y-12341017D02*
X11756031Y-12331493D01*
X11775078Y-12302921D01*
X11784602Y-12283874D01*
X11794126Y-12255302D01*
X11803650Y-12207683D01*
X11803650Y-12169588D01*
X11794126Y-12121969D01*
X11784602Y-12093398D01*
X11775078Y-12074350D01*
X11756031Y-12045778D01*
X11746507Y-12036255D01*
M02*
