G04 #@! TF.GenerationSoftware,KiCad,Pcbnew,(6.0.5)*
G04 #@! TF.CreationDate,2022-08-26T20:13:17-07:00*
G04 #@! TF.ProjectId,main,6d61696e-2e6b-4696-9361-645f70636258,1*
G04 #@! TF.SameCoordinates,Original*
G04 #@! TF.FileFunction,Paste,Top*
G04 #@! TF.FilePolarity,Positive*
%FSLAX46Y46*%
G04 Gerber Fmt 4.6, Leading zero omitted, Abs format (unit mm)*
G04 Created by KiCad (PCBNEW (6.0.5)) date 2022-08-26 20:13:17*
%MOMM*%
%LPD*%
G01*
G04 APERTURE LIST*
G04 Aperture macros list*
%AMRoundRect*
0 Rectangle with rounded corners*
0 $1 Rounding radius*
0 $2 $3 $4 $5 $6 $7 $8 $9 X,Y pos of 4 corners*
0 Add a 4 corners polygon primitive as box body*
4,1,4,$2,$3,$4,$5,$6,$7,$8,$9,$2,$3,0*
0 Add four circle primitives for the rounded corners*
1,1,$1+$1,$2,$3*
1,1,$1+$1,$4,$5*
1,1,$1+$1,$6,$7*
1,1,$1+$1,$8,$9*
0 Add four rect primitives between the rounded corners*
20,1,$1+$1,$2,$3,$4,$5,0*
20,1,$1+$1,$4,$5,$6,$7,0*
20,1,$1+$1,$6,$7,$8,$9,0*
20,1,$1+$1,$8,$9,$2,$3,0*%
%AMRotRect*
0 Rectangle, with rotation*
0 The origin of the aperture is its center*
0 $1 length*
0 $2 width*
0 $3 Rotation angle, in degrees counterclockwise*
0 Add horizontal line*
21,1,$1,$2,0,0,$3*%
%AMFreePoly0*
4,1,7,0.100000,-0.225000,-0.100000,-0.225000,-0.100000,0.075000,-0.200000,0.075000,-0.200000,0.225000,0.100000,0.225000,0.100000,-0.225000,0.100000,-0.225000,$1*%
G04 Aperture macros list end*
%ADD10FreePoly0,180.000000*%
%ADD11R,0.200000X0.450000*%
%ADD12FreePoly0,0.000000*%
%ADD13RoundRect,0.225000X0.250000X-0.225000X0.250000X0.225000X-0.250000X0.225000X-0.250000X-0.225000X0*%
%ADD14RoundRect,0.225000X-0.335876X-0.017678X-0.017678X-0.335876X0.335876X0.017678X0.017678X0.335876X0*%
%ADD15RoundRect,0.200000X0.275000X-0.200000X0.275000X0.200000X-0.275000X0.200000X-0.275000X-0.200000X0*%
%ADD16RoundRect,0.200000X0.200000X0.275000X-0.200000X0.275000X-0.200000X-0.275000X0.200000X-0.275000X0*%
%ADD17RoundRect,0.147500X0.172500X-0.147500X0.172500X0.147500X-0.172500X0.147500X-0.172500X-0.147500X0*%
%ADD18RoundRect,0.147500X0.147500X0.172500X-0.147500X0.172500X-0.147500X-0.172500X0.147500X-0.172500X0*%
%ADD19RotRect,0.900000X0.800000X225.000000*%
%ADD20RoundRect,0.200000X-0.275000X0.200000X-0.275000X-0.200000X0.275000X-0.200000X0.275000X0.200000X0*%
%ADD21RoundRect,0.250000X-0.370000X0.370000X-0.370000X-0.370000X0.370000X-0.370000X0.370000X0.370000X0*%
%ADD22RoundRect,0.050000X-0.050000X0.350000X-0.050000X-0.350000X0.050000X-0.350000X0.050000X0.350000X0*%
%ADD23RoundRect,0.050000X-0.350000X0.050000X-0.350000X-0.050000X0.350000X-0.050000X0.350000X0.050000X0*%
%ADD24RoundRect,0.140000X0.140000X0.170000X-0.140000X0.170000X-0.140000X-0.170000X0.140000X-0.170000X0*%
%ADD25R,2.000000X3.800000*%
%ADD26RoundRect,0.250000X0.475000X-0.250000X0.475000X0.250000X-0.475000X0.250000X-0.475000X-0.250000X0*%
%ADD27RoundRect,0.200000X-0.200000X-0.275000X0.200000X-0.275000X0.200000X0.275000X-0.200000X0.275000X0*%
%ADD28R,1.200000X2.500000*%
%ADD29RoundRect,0.218750X-0.218750X-0.256250X0.218750X-0.256250X0.218750X0.256250X-0.218750X0.256250X0*%
%ADD30RoundRect,0.225000X0.335876X0.017678X0.017678X0.335876X-0.335876X-0.017678X-0.017678X-0.335876X0*%
%ADD31RoundRect,0.250000X-0.362500X-1.425000X0.362500X-1.425000X0.362500X1.425000X-0.362500X1.425000X0*%
%ADD32RoundRect,0.250000X0.450000X0.425000X-0.450000X0.425000X-0.450000X-0.425000X0.450000X-0.425000X0*%
%ADD33RoundRect,0.225000X-0.225000X-0.250000X0.225000X-0.250000X0.225000X0.250000X-0.225000X0.250000X0*%
%ADD34RoundRect,0.225000X-0.250000X0.225000X-0.250000X-0.225000X0.250000X-0.225000X0.250000X0.225000X0*%
%ADD35R,3.800000X2.000000*%
%ADD36RotRect,1.000000X1.800000X135.000000*%
%ADD37RoundRect,0.250000X-0.388909X0.000000X0.000000X-0.388909X0.388909X0.000000X0.000000X0.388909X0*%
%ADD38RoundRect,0.062500X-0.380070X0.291682X0.291682X-0.380070X0.380070X-0.291682X-0.291682X0.380070X0*%
%ADD39RoundRect,0.062500X-0.380070X-0.291682X-0.291682X-0.380070X0.380070X0.291682X0.291682X0.380070X0*%
%ADD40R,0.300000X0.800000*%
%ADD41RoundRect,0.140000X-0.140000X-0.170000X0.140000X-0.170000X0.140000X0.170000X-0.140000X0.170000X0*%
%ADD42R,7.700000X3.100000*%
%ADD43RoundRect,0.150000X-0.150000X0.512500X-0.150000X-0.512500X0.150000X-0.512500X0.150000X0.512500X0*%
%ADD44RoundRect,0.250000X-0.475000X0.250000X-0.475000X-0.250000X0.475000X-0.250000X0.475000X0.250000X0*%
%ADD45RotRect,0.900000X0.800000X315.000000*%
%ADD46RoundRect,0.182500X0.182500X-0.182500X0.182500X0.182500X-0.182500X0.182500X-0.182500X-0.182500X0*%
%ADD47RoundRect,0.087500X0.087500X-0.325000X0.087500X0.325000X-0.087500X0.325000X-0.087500X-0.325000X0*%
%ADD48RoundRect,0.087500X0.325000X-0.087500X0.325000X0.087500X-0.325000X0.087500X-0.325000X-0.087500X0*%
%ADD49RoundRect,0.225000X-0.017678X0.335876X-0.335876X0.017678X0.017678X-0.335876X0.335876X-0.017678X0*%
%ADD50RoundRect,0.225000X0.017678X-0.335876X0.335876X-0.017678X-0.017678X0.335876X-0.335876X0.017678X0*%
%ADD51RoundRect,0.140000X0.170000X-0.140000X0.170000X0.140000X-0.170000X0.140000X-0.170000X-0.140000X0*%
%ADD52RoundRect,0.225000X0.225000X0.250000X-0.225000X0.250000X-0.225000X-0.250000X0.225000X-0.250000X0*%
%ADD53RoundRect,0.250000X0.425000X-0.450000X0.425000X0.450000X-0.425000X0.450000X-0.425000X-0.450000X0*%
%ADD54R,1.400000X1.050000*%
%ADD55RoundRect,0.218750X0.256250X-0.218750X0.256250X0.218750X-0.256250X0.218750X-0.256250X-0.218750X0*%
%ADD56R,1.150000X0.300000*%
%ADD57RoundRect,0.160000X-0.160000X-0.160000X0.160000X-0.160000X0.160000X0.160000X-0.160000X0.160000X0*%
%ADD58RoundRect,0.062500X-0.375000X-0.062500X0.375000X-0.062500X0.375000X0.062500X-0.375000X0.062500X0*%
%ADD59RoundRect,0.062500X-0.062500X-0.375000X0.062500X-0.375000X0.062500X0.375000X-0.062500X0.375000X0*%
%ADD60RoundRect,0.140000X-0.170000X0.140000X-0.170000X-0.140000X0.170000X-0.140000X0.170000X0.140000X0*%
%ADD61RoundRect,0.250000X-0.250000X-0.475000X0.250000X-0.475000X0.250000X0.475000X-0.250000X0.475000X0*%
%ADD62R,0.300000X0.300000*%
%ADD63C,0.165000*%
G04 APERTURE END LIST*
D10*
X86200000Y-85225000D03*
D11*
X85700000Y-85225000D03*
X85200000Y-85225000D03*
X85200000Y-86575000D03*
X85700000Y-86575000D03*
X86200000Y-86575000D03*
D10*
X88500000Y-85225000D03*
D11*
X88000000Y-85225000D03*
X87500000Y-85225000D03*
X87500000Y-86575000D03*
X88000000Y-86575000D03*
X88500000Y-86575000D03*
D10*
X90800000Y-85225000D03*
D11*
X90300000Y-85225000D03*
X89800000Y-85225000D03*
X89800000Y-86575000D03*
X90300000Y-86575000D03*
X90800000Y-86575000D03*
D12*
X85200000Y-90775000D03*
D11*
X85700000Y-90775000D03*
X86200000Y-90775000D03*
X86200000Y-89425000D03*
X85700000Y-89425000D03*
X85200000Y-89425000D03*
D12*
X87500000Y-90775000D03*
D11*
X88000000Y-90775000D03*
X88500000Y-90775000D03*
X88500000Y-89425000D03*
X88000000Y-89425000D03*
X87500000Y-89425000D03*
D12*
X89800000Y-90775000D03*
D11*
X90300000Y-90775000D03*
X90800000Y-90775000D03*
X90800000Y-89425000D03*
X90300000Y-89425000D03*
X89800000Y-89425000D03*
D13*
X74519000Y-83324000D03*
X74519000Y-81774000D03*
D14*
X75768109Y-94108058D03*
X76864125Y-95204074D03*
D13*
X78350000Y-79325000D03*
X78350000Y-77775000D03*
D15*
X70918400Y-64091300D03*
X70918400Y-62441300D03*
D16*
X58425000Y-69800000D03*
X56775000Y-69800000D03*
D17*
X72470000Y-102375000D03*
X72470000Y-101405000D03*
D18*
X72464000Y-92582000D03*
X71494000Y-92582000D03*
D19*
X77972183Y-92122183D03*
X76982234Y-93112132D03*
X77760051Y-93889949D03*
X78750000Y-92900000D03*
D16*
X79524000Y-60826700D03*
X77874000Y-60826700D03*
D20*
X60100000Y-61375000D03*
X60100000Y-63025000D03*
X63300000Y-72475000D03*
X63300000Y-74125000D03*
D21*
X71600000Y-87800000D03*
X70070000Y-89330000D03*
X71600000Y-89330000D03*
X73130000Y-87800000D03*
X73130000Y-86270000D03*
X70070000Y-86270000D03*
X73130000Y-89330000D03*
X70070000Y-87800000D03*
X71600000Y-86270000D03*
D22*
X73800000Y-84850000D03*
X73400000Y-84850000D03*
X73000000Y-84850000D03*
X72600000Y-84850000D03*
X72200000Y-84850000D03*
X71800000Y-84850000D03*
X71400000Y-84850000D03*
X71000000Y-84850000D03*
X70600000Y-84850000D03*
X70200000Y-84850000D03*
X69800000Y-84850000D03*
X69400000Y-84850000D03*
D23*
X68650000Y-85600000D03*
X68650000Y-86000000D03*
X68650000Y-86400000D03*
X68650000Y-86800000D03*
X68650000Y-87200000D03*
X68650000Y-87600000D03*
X68650000Y-88000000D03*
X68650000Y-88400000D03*
X68650000Y-88800000D03*
X68650000Y-89200000D03*
X68650000Y-89600000D03*
X68650000Y-90000000D03*
D22*
X69400000Y-90750000D03*
X69800000Y-90750000D03*
X70200000Y-90750000D03*
X70600000Y-90750000D03*
X71000000Y-90750000D03*
X71400000Y-90750000D03*
X71800000Y-90750000D03*
X72200000Y-90750000D03*
X72600000Y-90750000D03*
X73000000Y-90750000D03*
X73400000Y-90750000D03*
X73800000Y-90750000D03*
D23*
X74550000Y-90000000D03*
X74550000Y-89600000D03*
X74550000Y-89200000D03*
X74550000Y-88800000D03*
X74550000Y-88400000D03*
X74550000Y-88000000D03*
X74550000Y-87600000D03*
X74550000Y-87200000D03*
X74550000Y-86800000D03*
X74550000Y-86400000D03*
X74550000Y-86000000D03*
X74550000Y-85600000D03*
D16*
X79524000Y-62626700D03*
X77874000Y-62626700D03*
D24*
X73430000Y-100249000D03*
X72470000Y-100249000D03*
D25*
X60700000Y-71900000D03*
D26*
X79099200Y-58233500D03*
X79099200Y-56333500D03*
D20*
X72418400Y-62441300D03*
X72418400Y-64091300D03*
D27*
X68475000Y-66500000D03*
X70125000Y-66500000D03*
D28*
X58625000Y-82250000D03*
X55625000Y-82250000D03*
X63725000Y-88750000D03*
X62625000Y-82250000D03*
D16*
X86325000Y-59500000D03*
X84675000Y-59500000D03*
D20*
X74118400Y-62441300D03*
X74118400Y-64091300D03*
D29*
X81011500Y-62626700D03*
X82586500Y-62626700D03*
D30*
X80014125Y-92004074D03*
X78918109Y-90908058D03*
D25*
X66500000Y-85200000D03*
D24*
X73430000Y-95880000D03*
X72470000Y-95880000D03*
D31*
X62437500Y-59266300D03*
X68362500Y-59266300D03*
D29*
X60812500Y-92300000D03*
X62387500Y-92300000D03*
D13*
X61618400Y-63941300D03*
X61618400Y-62391300D03*
D32*
X87450000Y-62200000D03*
X84750000Y-62200000D03*
D33*
X77843400Y-53066300D03*
X79393400Y-53066300D03*
D20*
X63300000Y-69375000D03*
X63300000Y-71025000D03*
X67118400Y-62441300D03*
X67118400Y-64091300D03*
D33*
X63543400Y-62466300D03*
X65093400Y-62466300D03*
D34*
X73150000Y-76675000D03*
X73150000Y-78225000D03*
X70718400Y-58091300D03*
X70718400Y-59641300D03*
D35*
X83200000Y-52100000D03*
D30*
X89148008Y-68448008D03*
X88051992Y-67351992D03*
D20*
X91600000Y-53275000D03*
X91600000Y-54925000D03*
D15*
X72618400Y-54691300D03*
X72618400Y-53041300D03*
D36*
X76916117Y-83766117D03*
X78683883Y-85533883D03*
D15*
X99600000Y-73225000D03*
X99600000Y-71575000D03*
X72868000Y-83374000D03*
X72868000Y-81724000D03*
D16*
X79443400Y-54666300D03*
X77793400Y-54666300D03*
D37*
X93600000Y-74238478D03*
X91761522Y-72400000D03*
X91761522Y-70561522D03*
X93600000Y-70561522D03*
X92680761Y-69642284D03*
X90842283Y-71480761D03*
X89923045Y-72400000D03*
X95438477Y-72400000D03*
X93600000Y-72400000D03*
X94519239Y-71480761D03*
X92680761Y-75157716D03*
X90842283Y-73319239D03*
X91761522Y-74238478D03*
X94519239Y-73319239D03*
X92680761Y-73319239D03*
X92680761Y-71480761D03*
D38*
X92088559Y-68272264D03*
X91735006Y-68625818D03*
X91381452Y-68979371D03*
X91027899Y-69332924D03*
X90674346Y-69686478D03*
X90320792Y-70040031D03*
X89967239Y-70393585D03*
X89613685Y-70747138D03*
X89260132Y-71100691D03*
X88906579Y-71454245D03*
X88553025Y-71807798D03*
D39*
X88553025Y-72992202D03*
X88906579Y-73345755D03*
X89260132Y-73699309D03*
X89613685Y-74052862D03*
X89967239Y-74406415D03*
X90320792Y-74759969D03*
X90674346Y-75113522D03*
X91027899Y-75467076D03*
X91381452Y-75820629D03*
X91735006Y-76174182D03*
X92088559Y-76527736D03*
D38*
X93272963Y-76527736D03*
X93626516Y-76174182D03*
X93980070Y-75820629D03*
X94333623Y-75467076D03*
X94687176Y-75113522D03*
X95040730Y-74759969D03*
X95394283Y-74406415D03*
X95747837Y-74052862D03*
X96101390Y-73699309D03*
X96454943Y-73345755D03*
X96808497Y-72992202D03*
D39*
X96808497Y-71807798D03*
X96454943Y-71454245D03*
X96101390Y-71100691D03*
X95747837Y-70747138D03*
X95394283Y-70393585D03*
X95040730Y-70040031D03*
X94687176Y-69686478D03*
X94333623Y-69332924D03*
X93980070Y-68979371D03*
X93626516Y-68625818D03*
X93272963Y-68272264D03*
D40*
X66150000Y-69450000D03*
X65650000Y-69450000D03*
X65150000Y-69450000D03*
X64650000Y-69450000D03*
X64650000Y-72550000D03*
X65150000Y-72550000D03*
X65650000Y-72550000D03*
X66150000Y-72550000D03*
D41*
X71510000Y-99180000D03*
X72470000Y-99180000D03*
D42*
X96800000Y-52250000D03*
X96800000Y-59150000D03*
D20*
X86250000Y-56325000D03*
X86250000Y-57975000D03*
D15*
X89900000Y-53125000D03*
X89900000Y-51475000D03*
D43*
X76700000Y-76812500D03*
X75750000Y-76812500D03*
X74800000Y-76812500D03*
X74800000Y-79087500D03*
X76700000Y-79087500D03*
D33*
X76125000Y-89650000D03*
X77675000Y-89650000D03*
D44*
X84000000Y-55550000D03*
X84000000Y-57450000D03*
D17*
X72470000Y-98015000D03*
X72470000Y-97045000D03*
D16*
X65525000Y-93900000D03*
X63875000Y-93900000D03*
X101075000Y-65850000D03*
X99425000Y-65850000D03*
D29*
X81011500Y-60826700D03*
X82586500Y-60826700D03*
D45*
X86716117Y-76893934D03*
X87706066Y-77883883D03*
X88483883Y-77106066D03*
X87493934Y-76116117D03*
D46*
X90600000Y-57400000D03*
X89700000Y-58300000D03*
X89700000Y-57400000D03*
X89700000Y-59200000D03*
X88800000Y-58300000D03*
X88800000Y-57400000D03*
X88800000Y-59200000D03*
X90600000Y-59200000D03*
X90600000Y-58300000D03*
D47*
X88725000Y-60262500D03*
X89375000Y-60262500D03*
X90025000Y-60262500D03*
X90675000Y-60262500D03*
D48*
X91662500Y-59275000D03*
X91662500Y-58625000D03*
X91662500Y-57975000D03*
X91662500Y-57325000D03*
D47*
X90675000Y-56337500D03*
X90025000Y-56337500D03*
X89375000Y-56337500D03*
X88725000Y-56337500D03*
D48*
X87737500Y-57325000D03*
X87737500Y-57975000D03*
X87737500Y-58625000D03*
X87737500Y-59275000D03*
D49*
X86367247Y-74951992D03*
X85271231Y-76048008D03*
D50*
X80101992Y-84148008D03*
X81198008Y-83051992D03*
D15*
X66500000Y-90025000D03*
X66500000Y-88375000D03*
D51*
X72470000Y-94710000D03*
X72470000Y-93750000D03*
D15*
X85200000Y-72825000D03*
X85200000Y-71175000D03*
D34*
X73800000Y-92275000D03*
X73800000Y-93825000D03*
D20*
X67500000Y-70575000D03*
X67500000Y-72225000D03*
D16*
X65525000Y-92300000D03*
X63875000Y-92300000D03*
D27*
X87075000Y-54800000D03*
X88725000Y-54800000D03*
D15*
X60000000Y-68725000D03*
X60000000Y-67075000D03*
D44*
X89700000Y-61950000D03*
X89700000Y-63850000D03*
D52*
X68250000Y-82000000D03*
X66700000Y-82000000D03*
D53*
X81436000Y-57816900D03*
X81436000Y-55116900D03*
D50*
X88551992Y-79348008D03*
X89648008Y-78251992D03*
D54*
X84000000Y-107680000D03*
X80400000Y-107680000D03*
X80400000Y-109120000D03*
X84000000Y-109120000D03*
D18*
X71448000Y-93725000D03*
X70478000Y-93725000D03*
D55*
X101050000Y-64187500D03*
X101050000Y-62612500D03*
D56*
X57970000Y-60250000D03*
X57970000Y-61050000D03*
X57970000Y-62350000D03*
X57970000Y-63350000D03*
X57970000Y-63850000D03*
X57970000Y-64850000D03*
X57970000Y-66150000D03*
X57970000Y-66950000D03*
X57970000Y-66650000D03*
X57970000Y-65850000D03*
X57970000Y-65350000D03*
X57970000Y-64350000D03*
X57970000Y-62850000D03*
X57970000Y-61850000D03*
X57970000Y-61350000D03*
X57970000Y-60550000D03*
D50*
X78301992Y-82348008D03*
X79398008Y-81251992D03*
D16*
X60325000Y-79700000D03*
X58675000Y-79700000D03*
D20*
X74118400Y-53041300D03*
X74118400Y-54691300D03*
D35*
X73500000Y-71000000D03*
D57*
X74718400Y-58566300D03*
X74718400Y-57766300D03*
X73918400Y-58566300D03*
X73918400Y-57766300D03*
D58*
X72880900Y-57416300D03*
X72880900Y-57916300D03*
X72880900Y-58416300D03*
X72880900Y-58916300D03*
D59*
X73568400Y-59603800D03*
X74068400Y-59603800D03*
X74568400Y-59603800D03*
X75068400Y-59603800D03*
D58*
X75755900Y-58916300D03*
X75755900Y-58416300D03*
X75755900Y-57916300D03*
X75755900Y-57416300D03*
D59*
X75068400Y-56728800D03*
X74568400Y-56728800D03*
X74068400Y-56728800D03*
X73568400Y-56728800D03*
D50*
X100651992Y-75948008D03*
X101748008Y-74851992D03*
D29*
X60812500Y-93900000D03*
X62387500Y-93900000D03*
D60*
X70455000Y-94896000D03*
X70455000Y-95856000D03*
D15*
X69418400Y-64091300D03*
X69418400Y-62441300D03*
D16*
X59525000Y-78200000D03*
X57875000Y-78200000D03*
D30*
X95048008Y-67348008D03*
X93951992Y-66251992D03*
D20*
X75618400Y-53041300D03*
X75618400Y-54691300D03*
D27*
X68475000Y-68000000D03*
X70125000Y-68000000D03*
D20*
X69400000Y-53075000D03*
X69400000Y-54725000D03*
D35*
X97000000Y-62600000D03*
D27*
X67825000Y-56150000D03*
X69475000Y-56150000D03*
D15*
X67900000Y-54725000D03*
X67900000Y-53075000D03*
D24*
X73430000Y-103460000D03*
X72470000Y-103460000D03*
D25*
X70582000Y-81660000D03*
D52*
X65475000Y-95500000D03*
X63925000Y-95500000D03*
D15*
X75618400Y-64091300D03*
X75618400Y-62441300D03*
D61*
X91750000Y-62100000D03*
X93650000Y-62100000D03*
D62*
X64318400Y-64766300D03*
X64818400Y-64766300D03*
X64818400Y-65766300D03*
X64318400Y-65266300D03*
X64818400Y-65266300D03*
X63818400Y-64766300D03*
X64318400Y-65766300D03*
X63818400Y-65766300D03*
X63818400Y-65266300D03*
D63*
X63818400Y-65266300D03*
D35*
X73500000Y-74400000D03*
D20*
X71000000Y-53075000D03*
X71000000Y-54725000D03*
M02*
