G04 #@! TF.GenerationSoftware,KiCad,Pcbnew,(6.0.5)*
G04 #@! TF.CreationDate,2022-08-26T20:13:17-07:00*
G04 #@! TF.ProjectId,main,6d61696e-2e6b-4696-9361-645f70636258,1*
G04 #@! TF.SameCoordinates,Original*
G04 #@! TF.FileFunction,Legend,Bot*
G04 #@! TF.FilePolarity,Positive*
%FSLAX46Y46*%
G04 Gerber Fmt 4.6, Leading zero omitted, Abs format (unit mm)*
G04 Created by KiCad (PCBNEW (6.0.5)) date 2022-08-26 20:13:17*
%MOMM*%
%LPD*%
G01*
G04 APERTURE LIST*
G04 Aperture macros list*
%AMRoundRect*
0 Rectangle with rounded corners*
0 $1 Rounding radius*
0 $2 $3 $4 $5 $6 $7 $8 $9 X,Y pos of 4 corners*
0 Add a 4 corners polygon primitive as box body*
4,1,4,$2,$3,$4,$5,$6,$7,$8,$9,$2,$3,0*
0 Add four circle primitives for the rounded corners*
1,1,$1+$1,$2,$3*
1,1,$1+$1,$4,$5*
1,1,$1+$1,$6,$7*
1,1,$1+$1,$8,$9*
0 Add four rect primitives between the rounded corners*
20,1,$1+$1,$2,$3,$4,$5,0*
20,1,$1+$1,$4,$5,$6,$7,0*
20,1,$1+$1,$6,$7,$8,$9,0*
20,1,$1+$1,$8,$9,$2,$3,0*%
%AMRotRect*
0 Rectangle, with rotation*
0 The origin of the aperture is its center*
0 $1 length*
0 $2 width*
0 $3 Rotation angle, in degrees counterclockwise*
0 Add horizontal line*
21,1,$1,$2,0,0,$3*%
G04 Aperture macros list end*
%ADD10C,0.127000*%
%ADD11C,0.120000*%
%ADD12RoundRect,0.250000X0.625000X-0.350000X0.625000X0.350000X-0.625000X0.350000X-0.625000X-0.350000X0*%
%ADD13O,1.750000X1.200000*%
%ADD14RoundRect,0.250000X0.350000X0.625000X-0.350000X0.625000X-0.350000X-0.625000X0.350000X-0.625000X0*%
%ADD15O,1.200000X1.750000*%
%ADD16C,1.500000*%
%ADD17C,0.700000*%
%ADD18C,4.400000*%
%ADD19RoundRect,0.250000X-0.625000X0.350000X-0.625000X-0.350000X0.625000X-0.350000X0.625000X0.350000X0*%
%ADD20C,0.650000*%
%ADD21O,1.600000X1.000000*%
%ADD22O,2.100000X1.000000*%
%ADD23R,1.700000X1.700000*%
%ADD24O,1.700000X1.700000*%
%ADD25R,1.600000X1.000000*%
%ADD26R,1.200000X0.700000*%
%ADD27RotRect,1.600000X0.850000X135.000000*%
G04 APERTURE END LIST*
D10*
X103246742Y-67187200D02*
X103275771Y-67274285D01*
X103275771Y-67419428D01*
X103246742Y-67477485D01*
X103217714Y-67506514D01*
X103159657Y-67535542D01*
X103101600Y-67535542D01*
X103043542Y-67506514D01*
X103014514Y-67477485D01*
X102985485Y-67419428D01*
X102956457Y-67303314D01*
X102927428Y-67245257D01*
X102898400Y-67216228D01*
X102840342Y-67187200D01*
X102782285Y-67187200D01*
X102724228Y-67216228D01*
X102695200Y-67245257D01*
X102666171Y-67303314D01*
X102666171Y-67448457D01*
X102695200Y-67535542D01*
X102666171Y-67738742D02*
X103275771Y-67883885D01*
X102840342Y-68000000D01*
X103275771Y-68116114D01*
X102666171Y-68261257D01*
X102724228Y-68464457D02*
X102695200Y-68493485D01*
X102666171Y-68551542D01*
X102666171Y-68696685D01*
X102695200Y-68754742D01*
X102724228Y-68783771D01*
X102782285Y-68812800D01*
X102840342Y-68812800D01*
X102927428Y-68783771D01*
X103275771Y-68435428D01*
X103275771Y-68812800D01*
X103121391Y-75342288D02*
X102690338Y-75773340D01*
X102792970Y-75875972D01*
X102875075Y-75917024D01*
X102957180Y-75917024D01*
X103018759Y-75896498D01*
X103121391Y-75834919D01*
X103182970Y-75773340D01*
X103244549Y-75670709D01*
X103265075Y-75609130D01*
X103265075Y-75527025D01*
X103224022Y-75444920D01*
X103121391Y-75342288D01*
X103326654Y-76409656D02*
X103121391Y-76204393D01*
X103306127Y-75978603D01*
X103306127Y-76019656D01*
X103326654Y-76081235D01*
X103429285Y-76183866D01*
X103490864Y-76204393D01*
X103531917Y-76204393D01*
X103593496Y-76183866D01*
X103696127Y-76081235D01*
X103716653Y-76019656D01*
X103716653Y-75978603D01*
X103696127Y-75917024D01*
X103593496Y-75814393D01*
X103531917Y-75793867D01*
X103490864Y-75793867D01*
D11*
X98590000Y-60540000D02*
X98590000Y-59190000D01*
X98590000Y-65540000D02*
X98590000Y-64560000D01*
X98590000Y-63040000D02*
X98590000Y-62060000D01*
X102410000Y-63040000D02*
X102410000Y-62060000D01*
X98590000Y-68410000D02*
X98590000Y-67060000D01*
X98590000Y-68410000D02*
X102410000Y-68410000D01*
X102410000Y-65540000D02*
X102410000Y-64560000D01*
X102410000Y-68410000D02*
X102410000Y-67060000D01*
X102410000Y-59190000D02*
X102410000Y-60540000D01*
X98590000Y-59190000D02*
X102410000Y-59190000D01*
X104764824Y-78507104D02*
X100592894Y-74335174D01*
X97835178Y-77092890D02*
X98595318Y-76332750D01*
X102007108Y-81264820D02*
X97835178Y-77092890D01*
%LPC*%
D12*
X106650000Y-81000000D03*
D13*
X106650000Y-79000000D03*
X106650000Y-77000000D03*
D14*
X99700000Y-107800000D03*
D15*
X97700000Y-107800000D03*
X95700000Y-107800000D03*
X93700000Y-107800000D03*
X91700000Y-107800000D03*
X89700000Y-107800000D03*
X87700000Y-107800000D03*
D16*
X54025000Y-85500000D03*
X61025000Y-85500000D03*
D17*
X106166726Y-53833274D03*
X105000000Y-56650000D03*
X106166726Y-56166726D03*
X105000000Y-53350000D03*
X106650000Y-55000000D03*
X103833274Y-53833274D03*
X103350000Y-55000000D03*
X103833274Y-56166726D03*
D18*
X105000000Y-55000000D03*
D17*
X106166726Y-106166726D03*
X106166726Y-103833274D03*
X105000000Y-103350000D03*
X103833274Y-103833274D03*
X103350000Y-105000000D03*
D18*
X105000000Y-105000000D03*
D17*
X103833274Y-106166726D03*
X105000000Y-106650000D03*
X106650000Y-105000000D03*
D19*
X53350000Y-93400000D03*
D13*
X53350000Y-95400000D03*
X53350000Y-97400000D03*
X53350000Y-99400000D03*
D17*
X53833274Y-56166726D03*
X55000000Y-56650000D03*
X56650000Y-55000000D03*
X53833274Y-53833274D03*
D18*
X55000000Y-55000000D03*
D17*
X56166726Y-53833274D03*
X55000000Y-53350000D03*
X53350000Y-55000000D03*
X56166726Y-56166726D03*
X56166726Y-106166726D03*
X55000000Y-103350000D03*
X56650000Y-105000000D03*
X56166726Y-103833274D03*
D18*
X55000000Y-105000000D03*
D17*
X55000000Y-106650000D03*
X53833274Y-106166726D03*
X53833274Y-103833274D03*
X53350000Y-105000000D03*
X82200000Y-109300000D03*
X82200000Y-107500000D03*
D20*
X56905000Y-60710000D03*
X56905000Y-66490000D03*
D21*
X53225000Y-67920000D03*
X53225000Y-59280000D03*
D22*
X57405000Y-67920000D03*
X57405000Y-59280000D03*
D14*
X64400000Y-53450000D03*
D15*
X62400000Y-53450000D03*
D23*
X57800000Y-92900000D03*
D24*
X57800000Y-95440000D03*
X57800000Y-97980000D03*
X57800000Y-100520000D03*
D12*
X106650000Y-99400000D03*
D13*
X106650000Y-97400000D03*
X106650000Y-95400000D03*
X106650000Y-93400000D03*
X106650000Y-91400000D03*
X106650000Y-89400000D03*
X106650000Y-87400000D03*
D19*
X53350000Y-71800000D03*
D13*
X53350000Y-73800000D03*
X53350000Y-75800000D03*
X53350000Y-77800000D03*
D12*
X106650000Y-70500000D03*
D13*
X106650000Y-68500000D03*
X106650000Y-66500000D03*
X106650000Y-64500000D03*
X106650000Y-62500000D03*
X106650000Y-60500000D03*
D25*
X99300000Y-61300000D03*
D26*
X97250000Y-61300000D03*
X97250000Y-63800000D03*
D25*
X99300000Y-63800000D03*
X99300000Y-66300000D03*
D26*
X97250000Y-66300000D03*
D25*
X101700000Y-61300000D03*
D26*
X103750000Y-61300000D03*
D25*
X101700000Y-63800000D03*
D26*
X103750000Y-63800000D03*
D25*
X101700000Y-66300000D03*
D26*
X103750000Y-66300000D03*
D27*
X103156156Y-78418715D03*
X101918719Y-79656152D03*
X99443846Y-77181279D03*
X100681283Y-75943842D03*
M02*
