G04 #@! TF.GenerationSoftware,KiCad,Pcbnew,(6.0.5)*
G04 #@! TF.CreationDate,2022-07-09T20:46:05-07:00*
G04 #@! TF.ProjectId,interface,696e7465-7266-4616-9365-2e6b69636164,1*
G04 #@! TF.SameCoordinates,Original*
G04 #@! TF.FileFunction,Copper,L1,Top*
G04 #@! TF.FilePolarity,Positive*
%FSLAX46Y46*%
G04 Gerber Fmt 4.6, Leading zero omitted, Abs format (unit mm)*
G04 Created by KiCad (PCBNEW (6.0.5)) date 2022-07-09 20:46:05*
%MOMM*%
%LPD*%
G01*
G04 APERTURE LIST*
G04 Aperture macros list*
%AMRoundRect*
0 Rectangle with rounded corners*
0 $1 Rounding radius*
0 $2 $3 $4 $5 $6 $7 $8 $9 X,Y pos of 4 corners*
0 Add a 4 corners polygon primitive as box body*
4,1,4,$2,$3,$4,$5,$6,$7,$8,$9,$2,$3,0*
0 Add four circle primitives for the rounded corners*
1,1,$1+$1,$2,$3*
1,1,$1+$1,$4,$5*
1,1,$1+$1,$6,$7*
1,1,$1+$1,$8,$9*
0 Add four rect primitives between the rounded corners*
20,1,$1+$1,$2,$3,$4,$5,0*
20,1,$1+$1,$4,$5,$6,$7,0*
20,1,$1+$1,$6,$7,$8,$9,0*
20,1,$1+$1,$8,$9,$2,$3,0*%
G04 Aperture macros list end*
G04 #@! TA.AperFunction,SMDPad,CuDef*
%ADD10R,0.300000X1.150000*%
G04 #@! TD*
G04 #@! TA.AperFunction,ComponentPad*
%ADD11O,1.000000X1.600000*%
G04 #@! TD*
G04 #@! TA.AperFunction,ComponentPad*
%ADD12O,1.000000X2.100000*%
G04 #@! TD*
G04 #@! TA.AperFunction,SMDPad,CuDef*
%ADD13RoundRect,0.200000X-0.275000X0.200000X-0.275000X-0.200000X0.275000X-0.200000X0.275000X0.200000X0*%
G04 #@! TD*
G04 #@! TA.AperFunction,SMDPad,CuDef*
%ADD14R,2.500000X1.200000*%
G04 #@! TD*
G04 #@! TA.AperFunction,SMDPad,CuDef*
%ADD15RoundRect,0.200000X0.275000X-0.200000X0.275000X0.200000X-0.275000X0.200000X-0.275000X-0.200000X0*%
G04 #@! TD*
G04 #@! TA.AperFunction,ComponentPad*
%ADD16RoundRect,0.250000X-0.350000X-0.625000X0.350000X-0.625000X0.350000X0.625000X-0.350000X0.625000X0*%
G04 #@! TD*
G04 #@! TA.AperFunction,ComponentPad*
%ADD17O,1.200000X1.750000*%
G04 #@! TD*
G04 #@! TA.AperFunction,SMDPad,CuDef*
%ADD18RoundRect,0.200000X0.200000X0.275000X-0.200000X0.275000X-0.200000X-0.275000X0.200000X-0.275000X0*%
G04 #@! TD*
G04 #@! TA.AperFunction,ComponentPad*
%ADD19C,0.700000*%
G04 #@! TD*
G04 #@! TA.AperFunction,ComponentPad*
%ADD20C,4.400000*%
G04 #@! TD*
G04 #@! TA.AperFunction,ViaPad*
%ADD21C,0.600000*%
G04 #@! TD*
G04 #@! TA.AperFunction,Conductor*
%ADD22C,0.304800*%
G04 #@! TD*
G04 #@! TA.AperFunction,Conductor*
%ADD23C,0.200000*%
G04 #@! TD*
G04 #@! TA.AperFunction,Conductor*
%ADD24C,0.600000*%
G04 #@! TD*
G04 APERTURE END LIST*
D10*
X69850000Y-56170000D03*
X69050000Y-56170000D03*
X67750000Y-56170000D03*
X66750000Y-56170000D03*
X66250000Y-56170000D03*
X65250000Y-56170000D03*
X63950000Y-56170000D03*
X63150000Y-56170000D03*
X63450000Y-56170000D03*
X64250000Y-56170000D03*
X64750000Y-56170000D03*
X65750000Y-56170000D03*
X67250000Y-56170000D03*
X68250000Y-56170000D03*
X68750000Y-56170000D03*
X69550000Y-56170000D03*
D11*
X70820000Y-51425000D03*
D12*
X62180000Y-55605000D03*
X70820000Y-55605000D03*
D11*
X62180000Y-51425000D03*
D13*
X64500000Y-64175000D03*
X64500000Y-65825000D03*
D14*
X59250000Y-56825000D03*
X59250000Y-53825000D03*
X52750000Y-61925000D03*
X59250000Y-60825000D03*
D15*
X64500000Y-61225000D03*
X64500000Y-59575000D03*
X62500000Y-61225000D03*
X62500000Y-59575000D03*
D13*
X62500000Y-64175000D03*
X62500000Y-65825000D03*
D16*
X64000000Y-70450000D03*
D17*
X66000000Y-70450000D03*
X68000000Y-70450000D03*
X70000000Y-70450000D03*
D18*
X70825000Y-58800000D03*
X69175000Y-58800000D03*
D16*
X53000000Y-70450000D03*
D17*
X55000000Y-70450000D03*
X57000000Y-70450000D03*
X59000000Y-70450000D03*
D19*
X70650000Y-64000000D03*
X67350000Y-64000000D03*
X67833274Y-65166726D03*
X69000000Y-62350000D03*
X67833274Y-62833274D03*
X69000000Y-65650000D03*
D20*
X69000000Y-64000000D03*
D19*
X70166726Y-62833274D03*
X70166726Y-65166726D03*
D21*
X52600000Y-52200000D03*
X65300000Y-58500000D03*
X64400000Y-53100000D03*
X63200000Y-56500000D03*
X52600000Y-64100000D03*
X60300000Y-64100000D03*
X52600000Y-58900000D03*
X62700000Y-68800000D03*
X62300000Y-62400000D03*
X56000000Y-64100000D03*
X68300000Y-53100000D03*
X69600000Y-57500000D03*
X59200000Y-58900000D03*
X68000000Y-57500000D03*
X65000000Y-57500000D03*
D22*
X63478920Y-57121080D02*
X61500000Y-59100000D01*
X63400000Y-72400000D02*
X69400000Y-72400000D01*
X68750000Y-56170000D02*
X68750000Y-55493023D01*
X61500000Y-70500000D02*
X63400000Y-72400000D01*
X70000000Y-71800000D02*
X70000000Y-70450000D01*
X63950000Y-56170000D02*
X63950000Y-57121080D01*
X67756977Y-54500000D02*
X65243023Y-54500000D01*
X68750000Y-55493023D02*
X67756977Y-54500000D01*
X64250000Y-55493023D02*
X64250000Y-56170000D01*
X69400000Y-72400000D02*
X70000000Y-71800000D01*
X61500000Y-59100000D02*
X61500000Y-70500000D01*
X65243023Y-54500000D02*
X64250000Y-55493023D01*
X63950000Y-57121080D02*
X63478920Y-57121080D01*
D23*
X68000000Y-57500000D02*
X67750000Y-57250000D01*
X67750000Y-57250000D02*
X67750000Y-56170000D01*
X65000000Y-57500000D02*
X64500000Y-58000000D01*
X64500000Y-58000000D02*
X64500000Y-59575000D01*
X66750000Y-57250000D02*
X66750000Y-56170000D01*
X65750000Y-56170000D02*
X65750000Y-57250000D01*
X63200000Y-62500000D02*
X64638230Y-62500000D01*
X62500000Y-64175000D02*
X62500000Y-63200000D01*
X66000000Y-61138230D02*
X66000000Y-57500000D01*
X62500000Y-63200000D02*
X63200000Y-62500000D01*
X66500000Y-57500000D02*
X66750000Y-57250000D01*
X64638230Y-62500000D02*
X66000000Y-61138230D01*
X66000000Y-57500000D02*
X66500000Y-57500000D01*
X65750000Y-57250000D02*
X66000000Y-57500000D01*
X67250000Y-55250000D02*
X67000000Y-55000000D01*
X66500000Y-58000000D02*
X67250000Y-57250000D01*
X66500000Y-61100000D02*
X66500000Y-58000000D01*
X64500000Y-63100000D02*
X66500000Y-61100000D01*
X67250000Y-57250000D02*
X67250000Y-56170000D01*
X66250000Y-55250000D02*
X66250000Y-56170000D01*
X67000000Y-55000000D02*
X66500000Y-55000000D01*
X67250000Y-56170000D02*
X67250000Y-55250000D01*
X64500000Y-64175000D02*
X64500000Y-63100000D01*
X66500000Y-55000000D02*
X66250000Y-55250000D01*
X62500000Y-59000000D02*
X62500000Y-59575000D01*
X64750000Y-56945000D02*
X64195000Y-57500000D01*
X64000000Y-57500000D02*
X62500000Y-59000000D01*
X64195000Y-57500000D02*
X64000000Y-57500000D01*
X64750000Y-56170000D02*
X64750000Y-56945000D01*
D24*
X62180000Y-51425000D02*
X70820000Y-51425000D01*
X70820000Y-55605000D02*
X70820000Y-51425000D01*
X70825000Y-58800000D02*
X70825000Y-55610000D01*
X70825000Y-55610000D02*
X70820000Y-55605000D01*
X62180000Y-55605000D02*
X62180000Y-51425000D01*
D23*
X57000000Y-70450000D02*
X57099521Y-70350479D01*
X57875000Y-56825000D02*
X59250000Y-56825000D01*
X57099521Y-57600479D02*
X57875000Y-56825000D01*
X57099521Y-70350479D02*
X57099521Y-57600479D01*
X54900479Y-70350479D02*
X54900479Y-55299521D01*
X54900479Y-55299521D02*
X56375000Y-53825000D01*
X55000000Y-70450000D02*
X54900479Y-70350479D01*
X56375000Y-53825000D02*
X59250000Y-53825000D01*
D24*
X59000000Y-70450000D02*
X59000000Y-61075000D01*
X59000000Y-61075000D02*
X59250000Y-60825000D01*
D23*
X62500000Y-65825000D02*
X62500000Y-67000000D01*
X63726520Y-68226520D02*
X65500000Y-68226520D01*
X65500000Y-68226520D02*
X66000000Y-68726520D01*
X66000000Y-68726520D02*
X66000000Y-70450000D01*
X62500000Y-67000000D02*
X63726520Y-68226520D01*
X67100000Y-67900000D02*
X68000000Y-68800000D01*
X65600000Y-67900000D02*
X67100000Y-67900000D01*
X64500000Y-66800000D02*
X65600000Y-67900000D01*
X64500000Y-65825000D02*
X64500000Y-66800000D01*
X68000000Y-68800000D02*
X68000000Y-70450000D01*
G04 #@! TA.AperFunction,Conductor*
G36*
X72980694Y-50019306D02*
G01*
X72999000Y-50063500D01*
X72999000Y-74436500D01*
X72980694Y-74480694D01*
X72936500Y-74499000D01*
X50063500Y-74499000D01*
X50019306Y-74480694D01*
X50001000Y-74436500D01*
X50001000Y-71121018D01*
X52146001Y-71121018D01*
X52146183Y-71124388D01*
X52152272Y-71180443D01*
X52154071Y-71188012D01*
X52201808Y-71315351D01*
X52206043Y-71323086D01*
X52287285Y-71431487D01*
X52293513Y-71437715D01*
X52401914Y-71518957D01*
X52409649Y-71523192D01*
X52536992Y-71570930D01*
X52544556Y-71572728D01*
X52600608Y-71578817D01*
X52603976Y-71579000D01*
X52860569Y-71579000D01*
X52869359Y-71575359D01*
X52873000Y-71566569D01*
X52873000Y-71566568D01*
X53127000Y-71566568D01*
X53130641Y-71575358D01*
X53139431Y-71578999D01*
X53396018Y-71578999D01*
X53399388Y-71578817D01*
X53455443Y-71572728D01*
X53463012Y-71570929D01*
X53590351Y-71523192D01*
X53598086Y-71518957D01*
X53706487Y-71437715D01*
X53712715Y-71431487D01*
X53793957Y-71323086D01*
X53798192Y-71315351D01*
X53845930Y-71188008D01*
X53847728Y-71180444D01*
X53853817Y-71124392D01*
X53854000Y-71121024D01*
X53854000Y-70767483D01*
X54272500Y-70767483D01*
X54287192Y-70893501D01*
X54345074Y-71052962D01*
X54347065Y-71055998D01*
X54347065Y-71055999D01*
X54433617Y-71188012D01*
X54438088Y-71194832D01*
X54561243Y-71311498D01*
X54707935Y-71396703D01*
X54870294Y-71445877D01*
X55039610Y-71456381D01*
X55206802Y-71427652D01*
X55362900Y-71361232D01*
X55499532Y-71260682D01*
X55609367Y-71131397D01*
X55686515Y-70980313D01*
X55726837Y-70815532D01*
X55727500Y-70804844D01*
X55727500Y-70132517D01*
X55712808Y-70006499D01*
X55654926Y-69847038D01*
X55608097Y-69775612D01*
X55563902Y-69708203D01*
X55563901Y-69708202D01*
X55561912Y-69705168D01*
X55438757Y-69588502D01*
X55292065Y-69503297D01*
X55227500Y-69483742D01*
X55172362Y-69467042D01*
X55135372Y-69436711D01*
X55127979Y-69407225D01*
X55127979Y-59916083D01*
X55146285Y-59871889D01*
X55190479Y-59853583D01*
X55235890Y-59873140D01*
X55342881Y-59986280D01*
X55345475Y-59988096D01*
X55345478Y-59988099D01*
X55502575Y-60098099D01*
X55509379Y-60102863D01*
X55695919Y-60183586D01*
X55699013Y-60184232D01*
X55699015Y-60184233D01*
X55803893Y-60206143D01*
X55894880Y-60225151D01*
X55901539Y-60225500D01*
X56050800Y-60225500D01*
X56052374Y-60225340D01*
X56052376Y-60225340D01*
X56074767Y-60223066D01*
X56202216Y-60210120D01*
X56205229Y-60209176D01*
X56205233Y-60209175D01*
X56393151Y-60150285D01*
X56393153Y-60150284D01*
X56396172Y-60149338D01*
X56573944Y-60050797D01*
X56728271Y-59918523D01*
X56760136Y-59877443D01*
X56801688Y-59853743D01*
X56847828Y-59866365D01*
X56871528Y-59907917D01*
X56872021Y-59915750D01*
X56872021Y-69406128D01*
X56853715Y-69450322D01*
X56820105Y-69467725D01*
X56793198Y-69472348D01*
X56637100Y-69538768D01*
X56500468Y-69639318D01*
X56390633Y-69768603D01*
X56313485Y-69919687D01*
X56273163Y-70084468D01*
X56272500Y-70095156D01*
X56272500Y-70767483D01*
X56287192Y-70893501D01*
X56345074Y-71052962D01*
X56347065Y-71055998D01*
X56347065Y-71055999D01*
X56433617Y-71188012D01*
X56438088Y-71194832D01*
X56561243Y-71311498D01*
X56707935Y-71396703D01*
X56870294Y-71445877D01*
X57039610Y-71456381D01*
X57206802Y-71427652D01*
X57362900Y-71361232D01*
X57499532Y-71260682D01*
X57609367Y-71131397D01*
X57686515Y-70980313D01*
X57726837Y-70815532D01*
X57727500Y-70804844D01*
X57727500Y-70132517D01*
X57712808Y-70006499D01*
X57654926Y-69847038D01*
X57608097Y-69775612D01*
X57563902Y-69708203D01*
X57563901Y-69708202D01*
X57561912Y-69705168D01*
X57438757Y-69588502D01*
X57358129Y-69541670D01*
X57329108Y-69503643D01*
X57327021Y-69487625D01*
X57327021Y-61437558D01*
X57872500Y-61437558D01*
X57879898Y-61474748D01*
X57908078Y-61516922D01*
X57950252Y-61545102D01*
X57956285Y-61546302D01*
X57956287Y-61546303D01*
X57982384Y-61551494D01*
X57987442Y-61552500D01*
X58510000Y-61552500D01*
X58554194Y-61570806D01*
X58572500Y-61615000D01*
X58572500Y-69554703D01*
X58554194Y-69598897D01*
X58547046Y-69605040D01*
X58500468Y-69639318D01*
X58390633Y-69768603D01*
X58313485Y-69919687D01*
X58273163Y-70084468D01*
X58272500Y-70095156D01*
X58272500Y-70767483D01*
X58287192Y-70893501D01*
X58345074Y-71052962D01*
X58347065Y-71055998D01*
X58347065Y-71055999D01*
X58433617Y-71188012D01*
X58438088Y-71194832D01*
X58561243Y-71311498D01*
X58707935Y-71396703D01*
X58870294Y-71445877D01*
X59039610Y-71456381D01*
X59206802Y-71427652D01*
X59362900Y-71361232D01*
X59499532Y-71260682D01*
X59609367Y-71131397D01*
X59686515Y-70980313D01*
X59726837Y-70815532D01*
X59727500Y-70804844D01*
X59727500Y-70132517D01*
X59712808Y-70006499D01*
X59654926Y-69847038D01*
X59608097Y-69775612D01*
X59563902Y-69708203D01*
X59563901Y-69708202D01*
X59561912Y-69705168D01*
X59559281Y-69702676D01*
X59559278Y-69702672D01*
X59447017Y-69596327D01*
X59427500Y-69550954D01*
X59427500Y-61615000D01*
X59445806Y-61570806D01*
X59490000Y-61552500D01*
X60512558Y-61552500D01*
X60517616Y-61551494D01*
X60543713Y-61546303D01*
X60543715Y-61546302D01*
X60549748Y-61545102D01*
X60591922Y-61516922D01*
X60620102Y-61474748D01*
X60627500Y-61437558D01*
X60627500Y-60212442D01*
X60621760Y-60183586D01*
X60621303Y-60181287D01*
X60621302Y-60181285D01*
X60620102Y-60175252D01*
X60591922Y-60133078D01*
X60549748Y-60104898D01*
X60543715Y-60103698D01*
X60543713Y-60103697D01*
X60515569Y-60098099D01*
X60512558Y-60097500D01*
X57987442Y-60097500D01*
X57984431Y-60098099D01*
X57956287Y-60103697D01*
X57956285Y-60103698D01*
X57950252Y-60104898D01*
X57908078Y-60133078D01*
X57879898Y-60175252D01*
X57878698Y-60181285D01*
X57878697Y-60181287D01*
X57878240Y-60183586D01*
X57872500Y-60212442D01*
X57872500Y-61437558D01*
X57327021Y-61437558D01*
X57327021Y-59086090D01*
X61215592Y-59086090D01*
X61216370Y-59091806D01*
X61219529Y-59115018D01*
X61220100Y-59123446D01*
X61220100Y-70448896D01*
X61219700Y-70454342D01*
X61218306Y-70458403D01*
X61218523Y-70464171D01*
X61220056Y-70505015D01*
X61220100Y-70507360D01*
X61220100Y-70526031D01*
X61220628Y-70528864D01*
X61220892Y-70531729D01*
X61220773Y-70531740D01*
X61221205Y-70535628D01*
X61222218Y-70562601D01*
X61224494Y-70567899D01*
X61224495Y-70567903D01*
X61227757Y-70575495D01*
X61231775Y-70588719D01*
X61234343Y-70602508D01*
X61237373Y-70607423D01*
X61248506Y-70625484D01*
X61252722Y-70633600D01*
X61263379Y-70658404D01*
X61267119Y-70662957D01*
X61273638Y-70669476D01*
X61282648Y-70680874D01*
X61289057Y-70691271D01*
X61293651Y-70694764D01*
X61312302Y-70708947D01*
X61318665Y-70714503D01*
X63165945Y-72561783D01*
X63169514Y-72565917D01*
X63171399Y-72569774D01*
X63175629Y-72573698D01*
X63205600Y-72601500D01*
X63207289Y-72603127D01*
X63220488Y-72616326D01*
X63222868Y-72617959D01*
X63225075Y-72619793D01*
X63224998Y-72619886D01*
X63228049Y-72622324D01*
X63247844Y-72640687D01*
X63253203Y-72642825D01*
X63253206Y-72642827D01*
X63260874Y-72645886D01*
X63273064Y-72652394D01*
X63284636Y-72660332D01*
X63302847Y-72664653D01*
X63310894Y-72666563D01*
X63319624Y-72669324D01*
X63340590Y-72677689D01*
X63340594Y-72677690D01*
X63344692Y-72679325D01*
X63350556Y-72679900D01*
X63359780Y-72679900D01*
X63374211Y-72681589D01*
X63380477Y-72683076D01*
X63386090Y-72684408D01*
X63415021Y-72680471D01*
X63423448Y-72679900D01*
X69348896Y-72679900D01*
X69354342Y-72680300D01*
X69358403Y-72681694D01*
X69405015Y-72679944D01*
X69407360Y-72679900D01*
X69426031Y-72679900D01*
X69428864Y-72679372D01*
X69431729Y-72679108D01*
X69431740Y-72679227D01*
X69435628Y-72678795D01*
X69442692Y-72678530D01*
X69462601Y-72677782D01*
X69467899Y-72675506D01*
X69467903Y-72675505D01*
X69475495Y-72672243D01*
X69488719Y-72668225D01*
X69502508Y-72665657D01*
X69525487Y-72651492D01*
X69533600Y-72647278D01*
X69558404Y-72636621D01*
X69562957Y-72632881D01*
X69569476Y-72626362D01*
X69580874Y-72617352D01*
X69585849Y-72614285D01*
X69591271Y-72610943D01*
X69608947Y-72587698D01*
X69614503Y-72581335D01*
X69634055Y-72561783D01*
X70161793Y-72034046D01*
X70165916Y-72030487D01*
X70169774Y-72028601D01*
X70201487Y-71994414D01*
X70203114Y-71992725D01*
X70216326Y-71979513D01*
X70217953Y-71977140D01*
X70219795Y-71974924D01*
X70219886Y-71975000D01*
X70222332Y-71971943D01*
X70236762Y-71956387D01*
X70240687Y-71952156D01*
X70245885Y-71939127D01*
X70252394Y-71926935D01*
X70260332Y-71915364D01*
X70266563Y-71889106D01*
X70269324Y-71880376D01*
X70277689Y-71859410D01*
X70277690Y-71859406D01*
X70279325Y-71855308D01*
X70279900Y-71849444D01*
X70279900Y-71840220D01*
X70281589Y-71825789D01*
X70283076Y-71819523D01*
X70284408Y-71813910D01*
X70280471Y-71784981D01*
X70279900Y-71776554D01*
X70279900Y-71437877D01*
X70298206Y-71393683D01*
X70317930Y-71380367D01*
X70359552Y-71362657D01*
X70359555Y-71362655D01*
X70362900Y-71361232D01*
X70499532Y-71260682D01*
X70609367Y-71131397D01*
X70686515Y-70980313D01*
X70726837Y-70815532D01*
X70727500Y-70804844D01*
X70727500Y-70132517D01*
X70712808Y-70006499D01*
X70654926Y-69847038D01*
X70608097Y-69775612D01*
X70563902Y-69708203D01*
X70563901Y-69708202D01*
X70561912Y-69705168D01*
X70438757Y-69588502D01*
X70292065Y-69503297D01*
X70156655Y-69462285D01*
X70133183Y-69455176D01*
X70133182Y-69455176D01*
X70129706Y-69454123D01*
X69960390Y-69443619D01*
X69793198Y-69472348D01*
X69637100Y-69538768D01*
X69500468Y-69639318D01*
X69390633Y-69768603D01*
X69313485Y-69919687D01*
X69273163Y-70084468D01*
X69272500Y-70095156D01*
X69272500Y-70767483D01*
X69287192Y-70893501D01*
X69345074Y-71052962D01*
X69347065Y-71055998D01*
X69347065Y-71055999D01*
X69433617Y-71188012D01*
X69438088Y-71194832D01*
X69561243Y-71311498D01*
X69688992Y-71385700D01*
X69718013Y-71423727D01*
X69720100Y-71439745D01*
X69720100Y-71658174D01*
X69701794Y-71702368D01*
X69302368Y-72101794D01*
X69258174Y-72120100D01*
X63541827Y-72120100D01*
X63497633Y-72101794D01*
X62516856Y-71121018D01*
X63146001Y-71121018D01*
X63146183Y-71124388D01*
X63152272Y-71180443D01*
X63154071Y-71188012D01*
X63201808Y-71315351D01*
X63206043Y-71323086D01*
X63287285Y-71431487D01*
X63293513Y-71437715D01*
X63401914Y-71518957D01*
X63409649Y-71523192D01*
X63536992Y-71570930D01*
X63544556Y-71572728D01*
X63600608Y-71578817D01*
X63603976Y-71579000D01*
X63860569Y-71579000D01*
X63869359Y-71575359D01*
X63873000Y-71566569D01*
X63873000Y-71566568D01*
X64127000Y-71566568D01*
X64130641Y-71575358D01*
X64139431Y-71578999D01*
X64396018Y-71578999D01*
X64399388Y-71578817D01*
X64455443Y-71572728D01*
X64463012Y-71570929D01*
X64590351Y-71523192D01*
X64598086Y-71518957D01*
X64706487Y-71437715D01*
X64712715Y-71431487D01*
X64793957Y-71323086D01*
X64798192Y-71315351D01*
X64845930Y-71188008D01*
X64847728Y-71180444D01*
X64853817Y-71124392D01*
X64854000Y-71121024D01*
X64854000Y-70589431D01*
X64850359Y-70580641D01*
X64841569Y-70577000D01*
X64139431Y-70577000D01*
X64130641Y-70580641D01*
X64127000Y-70589431D01*
X64127000Y-71566568D01*
X63873000Y-71566568D01*
X63873000Y-70589431D01*
X63869359Y-70580641D01*
X63860569Y-70577000D01*
X63158432Y-70577000D01*
X63149642Y-70580641D01*
X63146001Y-70589431D01*
X63146001Y-71121018D01*
X62516856Y-71121018D01*
X61798206Y-70402368D01*
X61779900Y-70358174D01*
X61779900Y-70310569D01*
X63146000Y-70310569D01*
X63149641Y-70319359D01*
X63158431Y-70323000D01*
X63860569Y-70323000D01*
X63869359Y-70319359D01*
X63873000Y-70310569D01*
X64127000Y-70310569D01*
X64130641Y-70319359D01*
X64139431Y-70323000D01*
X64841568Y-70323000D01*
X64850358Y-70319359D01*
X64853999Y-70310569D01*
X64853999Y-69778982D01*
X64853817Y-69775612D01*
X64847728Y-69719557D01*
X64845929Y-69711988D01*
X64798192Y-69584649D01*
X64793957Y-69576914D01*
X64712715Y-69468513D01*
X64706487Y-69462285D01*
X64598086Y-69381043D01*
X64590351Y-69376808D01*
X64463008Y-69329070D01*
X64455444Y-69327272D01*
X64399392Y-69321183D01*
X64396024Y-69321000D01*
X64139431Y-69321000D01*
X64130641Y-69324641D01*
X64127000Y-69333431D01*
X64127000Y-70310569D01*
X63873000Y-70310569D01*
X63873000Y-69333432D01*
X63869359Y-69324642D01*
X63860569Y-69321001D01*
X63603982Y-69321001D01*
X63600612Y-69321183D01*
X63544557Y-69327272D01*
X63536988Y-69329071D01*
X63409649Y-69376808D01*
X63401914Y-69381043D01*
X63293513Y-69462285D01*
X63287285Y-69468513D01*
X63206043Y-69576914D01*
X63201808Y-69584649D01*
X63154070Y-69711992D01*
X63152272Y-69719556D01*
X63146183Y-69775608D01*
X63146000Y-69778976D01*
X63146000Y-70310569D01*
X61779900Y-70310569D01*
X61779900Y-66121241D01*
X61798206Y-66077047D01*
X61842400Y-66058741D01*
X61886594Y-66077047D01*
X61902403Y-66103751D01*
X61903155Y-66106330D01*
X61903779Y-66111071D01*
X61905800Y-66115404D01*
X61905800Y-66115405D01*
X61950277Y-66210787D01*
X61950279Y-66210789D01*
X61952589Y-66215744D01*
X62034256Y-66297411D01*
X62039211Y-66299721D01*
X62039213Y-66299723D01*
X62088015Y-66322479D01*
X62138929Y-66346221D01*
X62152295Y-66347981D01*
X62184593Y-66352233D01*
X62184601Y-66352233D01*
X62186625Y-66352500D01*
X62210000Y-66352500D01*
X62254194Y-66370806D01*
X62272500Y-66415000D01*
X62272500Y-66992427D01*
X62272414Y-66995698D01*
X62270282Y-67036384D01*
X62279435Y-67060231D01*
X62282216Y-67069619D01*
X62287526Y-67094600D01*
X62291388Y-67099916D01*
X62291389Y-67099918D01*
X62293508Y-67102835D01*
X62301291Y-67117168D01*
X62304940Y-67126673D01*
X62322994Y-67144727D01*
X62329363Y-67152184D01*
X62344372Y-67172842D01*
X62350059Y-67176125D01*
X62350063Y-67176129D01*
X62353188Y-67177933D01*
X62366132Y-67187865D01*
X63560293Y-68382027D01*
X63562527Y-68384379D01*
X63589812Y-68414683D01*
X63595810Y-68417353D01*
X63595812Y-68417355D01*
X63613135Y-68425067D01*
X63621756Y-68429748D01*
X63637657Y-68440074D01*
X63643170Y-68443654D01*
X63653222Y-68445246D01*
X63668860Y-68449878D01*
X63678163Y-68454020D01*
X63703697Y-68454020D01*
X63713474Y-68454789D01*
X63732206Y-68457756D01*
X63732207Y-68457756D01*
X63738692Y-68458783D01*
X63748525Y-68456148D01*
X63764695Y-68454020D01*
X65379879Y-68454020D01*
X65424073Y-68472326D01*
X65754194Y-68802447D01*
X65772500Y-68846641D01*
X65772500Y-69439826D01*
X65754194Y-69484020D01*
X65734471Y-69497336D01*
X65679790Y-69520603D01*
X65637100Y-69538768D01*
X65500468Y-69639318D01*
X65390633Y-69768603D01*
X65313485Y-69919687D01*
X65273163Y-70084468D01*
X65272500Y-70095156D01*
X65272500Y-70767483D01*
X65287192Y-70893501D01*
X65345074Y-71052962D01*
X65347065Y-71055998D01*
X65347065Y-71055999D01*
X65433617Y-71188012D01*
X65438088Y-71194832D01*
X65561243Y-71311498D01*
X65707935Y-71396703D01*
X65870294Y-71445877D01*
X66039610Y-71456381D01*
X66206802Y-71427652D01*
X66362900Y-71361232D01*
X66499532Y-71260682D01*
X66609367Y-71131397D01*
X66686515Y-70980313D01*
X66726837Y-70815532D01*
X66727500Y-70804844D01*
X66727500Y-70132517D01*
X66712808Y-70006499D01*
X66654926Y-69847038D01*
X66608097Y-69775612D01*
X66563902Y-69708203D01*
X66563901Y-69708202D01*
X66561912Y-69705168D01*
X66438757Y-69588502D01*
X66292065Y-69503297D01*
X66288593Y-69502245D01*
X66288585Y-69502242D01*
X66271882Y-69497183D01*
X66234892Y-69466852D01*
X66227500Y-69437367D01*
X66227500Y-68734104D01*
X66227586Y-68730833D01*
X66229375Y-68696698D01*
X66229719Y-68690136D01*
X66227364Y-68684000D01*
X66220566Y-68666290D01*
X66217781Y-68656888D01*
X66213840Y-68638346D01*
X66213840Y-68638345D01*
X66212474Y-68631920D01*
X66206494Y-68623689D01*
X66198711Y-68609354D01*
X66197416Y-68605980D01*
X66197414Y-68605977D01*
X66195061Y-68599847D01*
X66177003Y-68581789D01*
X66170640Y-68574340D01*
X66155628Y-68553678D01*
X66146811Y-68548587D01*
X66133873Y-68538659D01*
X65829408Y-68234194D01*
X65811102Y-68190000D01*
X65829408Y-68145806D01*
X65873602Y-68127500D01*
X66979879Y-68127500D01*
X67024073Y-68145806D01*
X67754194Y-68875928D01*
X67772500Y-68920122D01*
X67772500Y-69439826D01*
X67754194Y-69484020D01*
X67734471Y-69497336D01*
X67679790Y-69520603D01*
X67637100Y-69538768D01*
X67500468Y-69639318D01*
X67390633Y-69768603D01*
X67313485Y-69919687D01*
X67273163Y-70084468D01*
X67272500Y-70095156D01*
X67272500Y-70767483D01*
X67287192Y-70893501D01*
X67345074Y-71052962D01*
X67347065Y-71055998D01*
X67347065Y-71055999D01*
X67433617Y-71188012D01*
X67438088Y-71194832D01*
X67561243Y-71311498D01*
X67707935Y-71396703D01*
X67870294Y-71445877D01*
X68039610Y-71456381D01*
X68206802Y-71427652D01*
X68362900Y-71361232D01*
X68499532Y-71260682D01*
X68609367Y-71131397D01*
X68686515Y-70980313D01*
X68726837Y-70815532D01*
X68727500Y-70804844D01*
X68727500Y-70132517D01*
X68712808Y-70006499D01*
X68654926Y-69847038D01*
X68608097Y-69775612D01*
X68563902Y-69708203D01*
X68563901Y-69708202D01*
X68561912Y-69705168D01*
X68438757Y-69588502D01*
X68292065Y-69503297D01*
X68288593Y-69502245D01*
X68288585Y-69502242D01*
X68271882Y-69497183D01*
X68234892Y-69466852D01*
X68227500Y-69437367D01*
X68227500Y-68807573D01*
X68227586Y-68804302D01*
X68229374Y-68770179D01*
X68229718Y-68763616D01*
X68220565Y-68739769D01*
X68217783Y-68730377D01*
X68213840Y-68711828D01*
X68212474Y-68705400D01*
X68208612Y-68700084D01*
X68208611Y-68700082D01*
X68206492Y-68697165D01*
X68198709Y-68682832D01*
X68197414Y-68679459D01*
X68195060Y-68673327D01*
X68177006Y-68655273D01*
X68170636Y-68647815D01*
X68159489Y-68632472D01*
X68159488Y-68632472D01*
X68155628Y-68627158D01*
X68149941Y-68623875D01*
X68149937Y-68623871D01*
X68146812Y-68622067D01*
X68133868Y-68612135D01*
X67266227Y-67744493D01*
X67263993Y-67742141D01*
X67236708Y-67711837D01*
X67230710Y-67709167D01*
X67230708Y-67709165D01*
X67213385Y-67701453D01*
X67204764Y-67696772D01*
X67188863Y-67686446D01*
X67188862Y-67686446D01*
X67183350Y-67682866D01*
X67173298Y-67681274D01*
X67157660Y-67676642D01*
X67148357Y-67672500D01*
X67122823Y-67672500D01*
X67113046Y-67671731D01*
X67094314Y-67668764D01*
X67094313Y-67668764D01*
X67087828Y-67667737D01*
X67077995Y-67670372D01*
X67061825Y-67672500D01*
X65720121Y-67672500D01*
X65675927Y-67654194D01*
X64745806Y-66724072D01*
X64727500Y-66679878D01*
X64727500Y-66414999D01*
X64745806Y-66370805D01*
X64790000Y-66352499D01*
X64813374Y-66352499D01*
X64815385Y-66352234D01*
X64815390Y-66352234D01*
X64856331Y-66346845D01*
X64856332Y-66346845D01*
X64861071Y-66346221D01*
X64879164Y-66337784D01*
X64960787Y-66299723D01*
X64960789Y-66299721D01*
X64965744Y-66297411D01*
X65047411Y-66215744D01*
X65049721Y-66210789D01*
X65049723Y-66210787D01*
X65072479Y-66161985D01*
X65096221Y-66111071D01*
X65100980Y-66074923D01*
X65102233Y-66065407D01*
X65102233Y-66065399D01*
X65102500Y-66063375D01*
X65102499Y-65822543D01*
X67361898Y-65822543D01*
X67365964Y-65831938D01*
X67431245Y-65893241D01*
X67434247Y-65895725D01*
X67680893Y-66074923D01*
X67684205Y-66077025D01*
X67951343Y-66223885D01*
X67954907Y-66225562D01*
X68238348Y-66337784D01*
X68242078Y-66338996D01*
X68537343Y-66414808D01*
X68541216Y-66415546D01*
X68843649Y-66453753D01*
X68847579Y-66454000D01*
X69152421Y-66454000D01*
X69156351Y-66453753D01*
X69458784Y-66415546D01*
X69462657Y-66414808D01*
X69757922Y-66338996D01*
X69761652Y-66337784D01*
X70045093Y-66225562D01*
X70048657Y-66223885D01*
X70315795Y-66077025D01*
X70319107Y-66074923D01*
X70565753Y-65895725D01*
X70568755Y-65893241D01*
X70634409Y-65831587D01*
X70638087Y-65823441D01*
X70634319Y-65813924D01*
X69008790Y-64188395D01*
X69000000Y-64184754D01*
X68991210Y-64188395D01*
X67365318Y-65814287D01*
X67361898Y-65822543D01*
X65102499Y-65822543D01*
X65102499Y-65586626D01*
X65102232Y-65584593D01*
X65096845Y-65543669D01*
X65096845Y-65543668D01*
X65096221Y-65538929D01*
X65053257Y-65446792D01*
X65049723Y-65439213D01*
X65049721Y-65439211D01*
X65047411Y-65434256D01*
X64965744Y-65352589D01*
X64960789Y-65350279D01*
X64960787Y-65350277D01*
X64911985Y-65327521D01*
X64861071Y-65303779D01*
X64847705Y-65302019D01*
X64815407Y-65297767D01*
X64815399Y-65297767D01*
X64813375Y-65297500D01*
X64811328Y-65297500D01*
X64499156Y-65297501D01*
X64186626Y-65297501D01*
X64184615Y-65297766D01*
X64184610Y-65297766D01*
X64143669Y-65303155D01*
X64143668Y-65303155D01*
X64138929Y-65303779D01*
X64134595Y-65305800D01*
X64039213Y-65350277D01*
X64039211Y-65350279D01*
X64034256Y-65352589D01*
X63952589Y-65434256D01*
X63950279Y-65439211D01*
X63950277Y-65439213D01*
X63946743Y-65446792D01*
X63903779Y-65538929D01*
X63903155Y-65543669D01*
X63903155Y-65543670D01*
X63897767Y-65584593D01*
X63897767Y-65584601D01*
X63897500Y-65586625D01*
X63897501Y-66063374D01*
X63897766Y-66065385D01*
X63897766Y-66065390D01*
X63903155Y-66106330D01*
X63903779Y-66111071D01*
X63905800Y-66115404D01*
X63905800Y-66115405D01*
X63950277Y-66210787D01*
X63950279Y-66210789D01*
X63952589Y-66215744D01*
X64034256Y-66297411D01*
X64039211Y-66299721D01*
X64039213Y-66299723D01*
X64088015Y-66322479D01*
X64138929Y-66346221D01*
X64152295Y-66347981D01*
X64184593Y-66352233D01*
X64184601Y-66352233D01*
X64186625Y-66352500D01*
X64210000Y-66352500D01*
X64254194Y-66370806D01*
X64272500Y-66415000D01*
X64272500Y-66792427D01*
X64272414Y-66795698D01*
X64270282Y-66836384D01*
X64279435Y-66860231D01*
X64282216Y-66869619D01*
X64287526Y-66894600D01*
X64291388Y-66899916D01*
X64291389Y-66899918D01*
X64293508Y-66902835D01*
X64301291Y-66917168D01*
X64304940Y-66926673D01*
X64322994Y-66944727D01*
X64329363Y-66952184D01*
X64344372Y-66972842D01*
X64350059Y-66976125D01*
X64350063Y-66976129D01*
X64353188Y-66977933D01*
X64366132Y-66987865D01*
X65270592Y-67892326D01*
X65288898Y-67936520D01*
X65270592Y-67980714D01*
X65226398Y-67999020D01*
X63846641Y-67999020D01*
X63802447Y-67980714D01*
X62745806Y-66924072D01*
X62727500Y-66879878D01*
X62727500Y-66414999D01*
X62745806Y-66370805D01*
X62790000Y-66352499D01*
X62813374Y-66352499D01*
X62815385Y-66352234D01*
X62815390Y-66352234D01*
X62856331Y-66346845D01*
X62856332Y-66346845D01*
X62861071Y-66346221D01*
X62879164Y-66337784D01*
X62960787Y-66299723D01*
X62960789Y-66299721D01*
X62965744Y-66297411D01*
X63047411Y-66215744D01*
X63049721Y-66210789D01*
X63049723Y-66210787D01*
X63072479Y-66161985D01*
X63096221Y-66111071D01*
X63100980Y-66074923D01*
X63102233Y-66065407D01*
X63102233Y-66065399D01*
X63102500Y-66063375D01*
X63102499Y-65586626D01*
X63102232Y-65584593D01*
X63096845Y-65543669D01*
X63096845Y-65543668D01*
X63096221Y-65538929D01*
X63053257Y-65446792D01*
X63049723Y-65439213D01*
X63049721Y-65439211D01*
X63047411Y-65434256D01*
X62965744Y-65352589D01*
X62960789Y-65350279D01*
X62960787Y-65350277D01*
X62911985Y-65327521D01*
X62861071Y-65303779D01*
X62847705Y-65302019D01*
X62815407Y-65297767D01*
X62815399Y-65297767D01*
X62813375Y-65297500D01*
X62811328Y-65297500D01*
X62499156Y-65297501D01*
X62186626Y-65297501D01*
X62184615Y-65297766D01*
X62184610Y-65297766D01*
X62143669Y-65303155D01*
X62143668Y-65303155D01*
X62138929Y-65303779D01*
X62134595Y-65305800D01*
X62039213Y-65350277D01*
X62039211Y-65350279D01*
X62034256Y-65352589D01*
X61952589Y-65434256D01*
X61950279Y-65439211D01*
X61950277Y-65439213D01*
X61946743Y-65446792D01*
X61903779Y-65538929D01*
X61903155Y-65543669D01*
X61902403Y-65546249D01*
X61872462Y-65583555D01*
X61824911Y-65588763D01*
X61787605Y-65558822D01*
X61779900Y-65528760D01*
X61779900Y-64471241D01*
X61798206Y-64427047D01*
X61842400Y-64408741D01*
X61886594Y-64427047D01*
X61902403Y-64453751D01*
X61903155Y-64456330D01*
X61903779Y-64461071D01*
X61905800Y-64465404D01*
X61905800Y-64465405D01*
X61950277Y-64560787D01*
X61950279Y-64560789D01*
X61952589Y-64565744D01*
X62034256Y-64647411D01*
X62039211Y-64649721D01*
X62039213Y-64649723D01*
X62088015Y-64672479D01*
X62138929Y-64696221D01*
X62152295Y-64697981D01*
X62184593Y-64702233D01*
X62184601Y-64702233D01*
X62186625Y-64702500D01*
X62188672Y-64702500D01*
X62500844Y-64702499D01*
X62813374Y-64702499D01*
X62815385Y-64702234D01*
X62815390Y-64702234D01*
X62856331Y-64696845D01*
X62856332Y-64696845D01*
X62861071Y-64696221D01*
X62868198Y-64692898D01*
X62960787Y-64649723D01*
X62960789Y-64649721D01*
X62965744Y-64647411D01*
X63047411Y-64565744D01*
X63049721Y-64560789D01*
X63049723Y-64560787D01*
X63072479Y-64511985D01*
X63096221Y-64461071D01*
X63100700Y-64427047D01*
X63102233Y-64415407D01*
X63102233Y-64415399D01*
X63102500Y-64413375D01*
X63102499Y-63936626D01*
X63102232Y-63934593D01*
X63096845Y-63893669D01*
X63096845Y-63893668D01*
X63096221Y-63888929D01*
X63060164Y-63811605D01*
X63049723Y-63789213D01*
X63049721Y-63789211D01*
X63047411Y-63784256D01*
X62965744Y-63702589D01*
X62960789Y-63700279D01*
X62960787Y-63700277D01*
X62911985Y-63677521D01*
X62861071Y-63653779D01*
X62847705Y-63652019D01*
X62815407Y-63647767D01*
X62815399Y-63647767D01*
X62813375Y-63647500D01*
X62790000Y-63647500D01*
X62745806Y-63629194D01*
X62727500Y-63585000D01*
X62727500Y-63320121D01*
X62745806Y-63275927D01*
X63275928Y-62745806D01*
X63320122Y-62727500D01*
X64399878Y-62727500D01*
X64444072Y-62745806D01*
X64462378Y-62790000D01*
X64444072Y-62834194D01*
X64344493Y-62933773D01*
X64342141Y-62936007D01*
X64311837Y-62963292D01*
X64309167Y-62969290D01*
X64309165Y-62969292D01*
X64301453Y-62986615D01*
X64296772Y-62995236D01*
X64286446Y-63011137D01*
X64282866Y-63016650D01*
X64281274Y-63026702D01*
X64276642Y-63042340D01*
X64272500Y-63051643D01*
X64272500Y-63077177D01*
X64271731Y-63086954D01*
X64271073Y-63091112D01*
X64267737Y-63112172D01*
X64270372Y-63122005D01*
X64272500Y-63138175D01*
X64272500Y-63585001D01*
X64254194Y-63629195D01*
X64210000Y-63647501D01*
X64186626Y-63647501D01*
X64184615Y-63647766D01*
X64184610Y-63647766D01*
X64143669Y-63653155D01*
X64143668Y-63653155D01*
X64138929Y-63653779D01*
X64134595Y-63655800D01*
X64039213Y-63700277D01*
X64039211Y-63700279D01*
X64034256Y-63702589D01*
X63952589Y-63784256D01*
X63950279Y-63789211D01*
X63950277Y-63789213D01*
X63939836Y-63811605D01*
X63903779Y-63888929D01*
X63903155Y-63893669D01*
X63903155Y-63893670D01*
X63897767Y-63934593D01*
X63897767Y-63934601D01*
X63897500Y-63936625D01*
X63897501Y-64413374D01*
X63897766Y-64415385D01*
X63897766Y-64415390D01*
X63903155Y-64456330D01*
X63903779Y-64461071D01*
X63905800Y-64465404D01*
X63905800Y-64465405D01*
X63950277Y-64560787D01*
X63950279Y-64560789D01*
X63952589Y-64565744D01*
X64034256Y-64647411D01*
X64039211Y-64649721D01*
X64039213Y-64649723D01*
X64088015Y-64672479D01*
X64138929Y-64696221D01*
X64152295Y-64697981D01*
X64184593Y-64702233D01*
X64184601Y-64702233D01*
X64186625Y-64702500D01*
X64188672Y-64702500D01*
X64500844Y-64702499D01*
X64813374Y-64702499D01*
X64815385Y-64702234D01*
X64815390Y-64702234D01*
X64856331Y-64696845D01*
X64856332Y-64696845D01*
X64861071Y-64696221D01*
X64868198Y-64692898D01*
X64960787Y-64649723D01*
X64960789Y-64649721D01*
X64965744Y-64647411D01*
X65047411Y-64565744D01*
X65049721Y-64560789D01*
X65049723Y-64560787D01*
X65072479Y-64511985D01*
X65096221Y-64461071D01*
X65100700Y-64427047D01*
X65102233Y-64415407D01*
X65102233Y-64415399D01*
X65102500Y-64413375D01*
X65102499Y-64001955D01*
X66541271Y-64001955D01*
X66560414Y-64306218D01*
X66560905Y-64310105D01*
X66618028Y-64609559D01*
X66619005Y-64613363D01*
X66713212Y-64903303D01*
X66714650Y-64906934D01*
X66844457Y-65182788D01*
X66846341Y-65186215D01*
X67009695Y-65443619D01*
X67012000Y-65446792D01*
X67167787Y-65635105D01*
X67176195Y-65639557D01*
X67182900Y-65637495D01*
X68811605Y-64008790D01*
X68815246Y-64000000D01*
X69184754Y-64000000D01*
X69188395Y-64008790D01*
X70815499Y-65635894D01*
X70824289Y-65639535D01*
X70830770Y-65636850D01*
X70988000Y-65446792D01*
X70990305Y-65443619D01*
X71153659Y-65186215D01*
X71155543Y-65182788D01*
X71285350Y-64906934D01*
X71286788Y-64903303D01*
X71380995Y-64613363D01*
X71381972Y-64609559D01*
X71439095Y-64310105D01*
X71439586Y-64306218D01*
X71458729Y-64001955D01*
X71458729Y-63998045D01*
X71439586Y-63693782D01*
X71439095Y-63689895D01*
X71381972Y-63390441D01*
X71380995Y-63386637D01*
X71286788Y-63096697D01*
X71285350Y-63093066D01*
X71155543Y-62817212D01*
X71153659Y-62813785D01*
X70990305Y-62556381D01*
X70988000Y-62553208D01*
X70832213Y-62364895D01*
X70823805Y-62360443D01*
X70817100Y-62362505D01*
X69188395Y-63991210D01*
X69184754Y-64000000D01*
X68815246Y-64000000D01*
X68811605Y-63991210D01*
X67184501Y-62364106D01*
X67175711Y-62360465D01*
X67169230Y-62363150D01*
X67012000Y-62553208D01*
X67009695Y-62556381D01*
X66846341Y-62813785D01*
X66844457Y-62817212D01*
X66714650Y-63093066D01*
X66713212Y-63096697D01*
X66619005Y-63386637D01*
X66618028Y-63390441D01*
X66560905Y-63689895D01*
X66560414Y-63693782D01*
X66541271Y-63998045D01*
X66541271Y-64001955D01*
X65102499Y-64001955D01*
X65102499Y-63936626D01*
X65102232Y-63934593D01*
X65096845Y-63893669D01*
X65096845Y-63893668D01*
X65096221Y-63888929D01*
X65060164Y-63811605D01*
X65049723Y-63789213D01*
X65049721Y-63789211D01*
X65047411Y-63784256D01*
X64965744Y-63702589D01*
X64960789Y-63700279D01*
X64960787Y-63700277D01*
X64911985Y-63677521D01*
X64861071Y-63653779D01*
X64847705Y-63652019D01*
X64815407Y-63647767D01*
X64815399Y-63647767D01*
X64813375Y-63647500D01*
X64790000Y-63647500D01*
X64745806Y-63629194D01*
X64727500Y-63585000D01*
X64727500Y-63220121D01*
X64745806Y-63175927D01*
X65745175Y-62176559D01*
X67361913Y-62176559D01*
X67365681Y-62186076D01*
X68991210Y-63811605D01*
X69000000Y-63815246D01*
X69008790Y-63811605D01*
X70634682Y-62185713D01*
X70638102Y-62177457D01*
X70634036Y-62168062D01*
X70568755Y-62106759D01*
X70565753Y-62104275D01*
X70319107Y-61925077D01*
X70315795Y-61922975D01*
X70048657Y-61776115D01*
X70045093Y-61774438D01*
X69761652Y-61662216D01*
X69757922Y-61661004D01*
X69462657Y-61585192D01*
X69458784Y-61584454D01*
X69156351Y-61546247D01*
X69152421Y-61546000D01*
X68847579Y-61546000D01*
X68843649Y-61546247D01*
X68541216Y-61584454D01*
X68537343Y-61585192D01*
X68242078Y-61661004D01*
X68238348Y-61662216D01*
X67954907Y-61774438D01*
X67951343Y-61776115D01*
X67684205Y-61922975D01*
X67680893Y-61925077D01*
X67434247Y-62104275D01*
X67431245Y-62106759D01*
X67365591Y-62168413D01*
X67361913Y-62176559D01*
X65745175Y-62176559D01*
X66655507Y-61266227D01*
X66657859Y-61263993D01*
X66688163Y-61236708D01*
X66690833Y-61230710D01*
X66690835Y-61230708D01*
X66698547Y-61213385D01*
X66703228Y-61204764D01*
X66713554Y-61188863D01*
X66713554Y-61188862D01*
X66717134Y-61183350D01*
X66718726Y-61173298D01*
X66723358Y-61157660D01*
X66727500Y-61148357D01*
X66727500Y-61122823D01*
X66728269Y-61113046D01*
X66731236Y-61094314D01*
X66731236Y-61094313D01*
X66732263Y-61087828D01*
X66729628Y-61077995D01*
X66727500Y-61061825D01*
X66727500Y-59127772D01*
X68521001Y-59127772D01*
X68521140Y-59130720D01*
X68523645Y-59157238D01*
X68525266Y-59164626D01*
X68567693Y-59285440D01*
X68572009Y-59293591D01*
X68647575Y-59395900D01*
X68654100Y-59402425D01*
X68756409Y-59477991D01*
X68764560Y-59482307D01*
X68885379Y-59524736D01*
X68892756Y-59526354D01*
X68919283Y-59528861D01*
X68922225Y-59529000D01*
X69035569Y-59529000D01*
X69044359Y-59525359D01*
X69048000Y-59516569D01*
X69048000Y-59516568D01*
X69302000Y-59516568D01*
X69305641Y-59525358D01*
X69314431Y-59528999D01*
X69427772Y-59528999D01*
X69430720Y-59528860D01*
X69457238Y-59526355D01*
X69464626Y-59524734D01*
X69585440Y-59482307D01*
X69593591Y-59477991D01*
X69695900Y-59402425D01*
X69702425Y-59395900D01*
X69777991Y-59293591D01*
X69782307Y-59285440D01*
X69824736Y-59164621D01*
X69826354Y-59157244D01*
X69828861Y-59130717D01*
X69829000Y-59127775D01*
X69829000Y-58939431D01*
X69825359Y-58930641D01*
X69816569Y-58927000D01*
X69314431Y-58927000D01*
X69305641Y-58930641D01*
X69302000Y-58939431D01*
X69302000Y-59516568D01*
X69048000Y-59516568D01*
X69048000Y-58939431D01*
X69044359Y-58930641D01*
X69035569Y-58927000D01*
X68533432Y-58927000D01*
X68524642Y-58930641D01*
X68521001Y-58939431D01*
X68521001Y-59127772D01*
X66727500Y-59127772D01*
X66727500Y-58660569D01*
X68521000Y-58660569D01*
X68524641Y-58669359D01*
X68533431Y-58673000D01*
X69035569Y-58673000D01*
X69044359Y-58669359D01*
X69048000Y-58660569D01*
X69302000Y-58660569D01*
X69305641Y-58669359D01*
X69314431Y-58673000D01*
X69816568Y-58673000D01*
X69825358Y-58669359D01*
X69828999Y-58660569D01*
X69828999Y-58472228D01*
X69828860Y-58469280D01*
X69826355Y-58442762D01*
X69824734Y-58435374D01*
X69782307Y-58314560D01*
X69777991Y-58306409D01*
X69702425Y-58204100D01*
X69695900Y-58197575D01*
X69593591Y-58122009D01*
X69585440Y-58117693D01*
X69464621Y-58075264D01*
X69457244Y-58073646D01*
X69430717Y-58071139D01*
X69427775Y-58071000D01*
X69314431Y-58071000D01*
X69305641Y-58074641D01*
X69302000Y-58083431D01*
X69302000Y-58660569D01*
X69048000Y-58660569D01*
X69048000Y-58083432D01*
X69044359Y-58074642D01*
X69035569Y-58071001D01*
X68922228Y-58071001D01*
X68919280Y-58071140D01*
X68892762Y-58073645D01*
X68885374Y-58075266D01*
X68764560Y-58117693D01*
X68756409Y-58122009D01*
X68654100Y-58197575D01*
X68647575Y-58204100D01*
X68572009Y-58306409D01*
X68567693Y-58314560D01*
X68525264Y-58435379D01*
X68523646Y-58442756D01*
X68521139Y-58469283D01*
X68521000Y-58472225D01*
X68521000Y-58660569D01*
X66727500Y-58660569D01*
X66727500Y-58120121D01*
X66745806Y-58075927D01*
X67405507Y-57416227D01*
X67407859Y-57413993D01*
X67438163Y-57386708D01*
X67442152Y-57377748D01*
X67476849Y-57344818D01*
X67524668Y-57346068D01*
X67551666Y-57369124D01*
X67552586Y-57370540D01*
X67554940Y-57376673D01*
X67559817Y-57381550D01*
X67559959Y-57381894D01*
X67563162Y-57386825D01*
X67562248Y-57387419D01*
X67578123Y-57425744D01*
X67577379Y-57435359D01*
X67576568Y-57440569D01*
X67568136Y-57494724D01*
X67568713Y-57499137D01*
X67568713Y-57499138D01*
X67571039Y-57516922D01*
X67584014Y-57616145D01*
X67585807Y-57620220D01*
X67629976Y-57720600D01*
X67633333Y-57728230D01*
X67712127Y-57821968D01*
X67715832Y-57824434D01*
X67715834Y-57824436D01*
X67727650Y-57832301D01*
X67814064Y-57889823D01*
X67930948Y-57926340D01*
X67935398Y-57926422D01*
X67935401Y-57926422D01*
X67985074Y-57927332D01*
X68053383Y-57928584D01*
X68106088Y-57914215D01*
X68167226Y-57897548D01*
X68167229Y-57897547D01*
X68171527Y-57896375D01*
X68175323Y-57894044D01*
X68175326Y-57894043D01*
X68272083Y-57834633D01*
X68275881Y-57832301D01*
X68358058Y-57741513D01*
X68411451Y-57631311D01*
X68413334Y-57620122D01*
X68425752Y-57546303D01*
X68431767Y-57510552D01*
X68431896Y-57500000D01*
X68414536Y-57378781D01*
X68363852Y-57267307D01*
X68345233Y-57245698D01*
X68286826Y-57177914D01*
X68283918Y-57174539D01*
X68181160Y-57107935D01*
X68063838Y-57072848D01*
X68048831Y-57072756D01*
X68039618Y-57072700D01*
X67995537Y-57054124D01*
X67977500Y-57010201D01*
X67977500Y-56926787D01*
X67995806Y-56882593D01*
X68040000Y-56864287D01*
X68052191Y-56865488D01*
X68087442Y-56872500D01*
X68412558Y-56872500D01*
X68417616Y-56871494D01*
X68443713Y-56866303D01*
X68443715Y-56866302D01*
X68449748Y-56865102D01*
X68465277Y-56854726D01*
X68512194Y-56845394D01*
X68534724Y-56854726D01*
X68550252Y-56865102D01*
X68556285Y-56866302D01*
X68556287Y-56866303D01*
X68582384Y-56871494D01*
X68587442Y-56872500D01*
X69146302Y-56872500D01*
X69190496Y-56890806D01*
X69198269Y-56900277D01*
X69213457Y-56923007D01*
X69221993Y-56931543D01*
X69295775Y-56980843D01*
X69306933Y-56985464D01*
X69371970Y-56998401D01*
X69378054Y-56999000D01*
X69410569Y-56999000D01*
X69419359Y-56995359D01*
X69423000Y-56986569D01*
X69677000Y-56986569D01*
X69680641Y-56995359D01*
X69689431Y-56999000D01*
X69710569Y-56999000D01*
X69719359Y-56995359D01*
X69723000Y-56986569D01*
X69723000Y-56309431D01*
X69719359Y-56300641D01*
X69710569Y-56297000D01*
X69689431Y-56297000D01*
X69680641Y-56300641D01*
X69677000Y-56309431D01*
X69677000Y-56986569D01*
X69423000Y-56986569D01*
X69423000Y-56309431D01*
X69410758Y-56279877D01*
X69406000Y-56255959D01*
X69406000Y-56105500D01*
X69424306Y-56061306D01*
X69468500Y-56043000D01*
X69931500Y-56043000D01*
X69975694Y-56061306D01*
X69994000Y-56105500D01*
X69994000Y-56255959D01*
X69989242Y-56279877D01*
X69977000Y-56309431D01*
X69977000Y-56986568D01*
X69980641Y-56995358D01*
X69989431Y-56998999D01*
X70021945Y-56998999D01*
X70028030Y-56998400D01*
X70093068Y-56985464D01*
X70104224Y-56980843D01*
X70178007Y-56931543D01*
X70186543Y-56923007D01*
X70235843Y-56849225D01*
X70240464Y-56838067D01*
X70253401Y-56773030D01*
X70254000Y-56766946D01*
X70254000Y-56633357D01*
X70272306Y-56589163D01*
X70316500Y-56570857D01*
X70358171Y-56588891D01*
X70358936Y-56587967D01*
X70374838Y-56601122D01*
X70397223Y-56643397D01*
X70397500Y-56649279D01*
X70397500Y-58263457D01*
X70379194Y-58307651D01*
X70352589Y-58334256D01*
X70350279Y-58339211D01*
X70350277Y-58339213D01*
X70327521Y-58388015D01*
X70303779Y-58438929D01*
X70303155Y-58443669D01*
X70303155Y-58443670D01*
X70297767Y-58484593D01*
X70297767Y-58484601D01*
X70297500Y-58486625D01*
X70297501Y-59113374D01*
X70297766Y-59115385D01*
X70297766Y-59115390D01*
X70299784Y-59130720D01*
X70303779Y-59161071D01*
X70305800Y-59165404D01*
X70305800Y-59165405D01*
X70350277Y-59260787D01*
X70350279Y-59260789D01*
X70352589Y-59265744D01*
X70434256Y-59347411D01*
X70439211Y-59349721D01*
X70439213Y-59349723D01*
X70488015Y-59372479D01*
X70538929Y-59396221D01*
X70552295Y-59397981D01*
X70584593Y-59402233D01*
X70584601Y-59402233D01*
X70586625Y-59402500D01*
X70588672Y-59402500D01*
X70825642Y-59402499D01*
X71063374Y-59402499D01*
X71065385Y-59402234D01*
X71065390Y-59402234D01*
X71106331Y-59396845D01*
X71106332Y-59396845D01*
X71111071Y-59396221D01*
X71118198Y-59392898D01*
X71210787Y-59349723D01*
X71210789Y-59349721D01*
X71215744Y-59347411D01*
X71297411Y-59265744D01*
X71299721Y-59260789D01*
X71299723Y-59260787D01*
X71333098Y-59189213D01*
X71346221Y-59161071D01*
X71350217Y-59130717D01*
X71352233Y-59115407D01*
X71352233Y-59115399D01*
X71352500Y-59113375D01*
X71352499Y-58486626D01*
X71352232Y-58484593D01*
X71346845Y-58443669D01*
X71346845Y-58443668D01*
X71346221Y-58438929D01*
X71328659Y-58401267D01*
X71299723Y-58339213D01*
X71299721Y-58339211D01*
X71297411Y-58334256D01*
X71270806Y-58307651D01*
X71252500Y-58263457D01*
X71252500Y-56635843D01*
X71269440Y-56593059D01*
X71296426Y-56564322D01*
X71331693Y-56526767D01*
X71408072Y-56387834D01*
X71447500Y-56234272D01*
X71447500Y-55015524D01*
X71442970Y-54979661D01*
X71433109Y-54901612D01*
X71432616Y-54897707D01*
X71411500Y-54844372D01*
X71386008Y-54779987D01*
X71374253Y-54750297D01*
X71333750Y-54694549D01*
X71283376Y-54625216D01*
X71283374Y-54625214D01*
X71281063Y-54622033D01*
X71270161Y-54613014D01*
X71247777Y-54570738D01*
X71247500Y-54564857D01*
X71247500Y-52211168D01*
X71264440Y-52168384D01*
X71328998Y-52099637D01*
X71328998Y-52099636D01*
X71331693Y-52096767D01*
X71408072Y-51957834D01*
X71447500Y-51804272D01*
X71447500Y-51085524D01*
X71442970Y-51049661D01*
X71433109Y-50971612D01*
X71432616Y-50967707D01*
X71425821Y-50950543D01*
X71375699Y-50823950D01*
X71374253Y-50820297D01*
X71328033Y-50756680D01*
X71283376Y-50695216D01*
X71283374Y-50695214D01*
X71281063Y-50692033D01*
X71278034Y-50689527D01*
X71278032Y-50689525D01*
X71161933Y-50593481D01*
X71158903Y-50590974D01*
X71015449Y-50523469D01*
X71011591Y-50522733D01*
X70863579Y-50494498D01*
X70863577Y-50494498D01*
X70859714Y-50493761D01*
X70855788Y-50494008D01*
X70705408Y-50503469D01*
X70705407Y-50503469D01*
X70701484Y-50503716D01*
X70697746Y-50504931D01*
X70697744Y-50504931D01*
X70635545Y-50525141D01*
X70550700Y-50552709D01*
X70416838Y-50637660D01*
X70414149Y-50640524D01*
X70414146Y-50640526D01*
X70368133Y-50689525D01*
X70308307Y-50753233D01*
X70231928Y-50892166D01*
X70230949Y-50895979D01*
X70216939Y-50950543D01*
X70188218Y-50988797D01*
X70156403Y-50997500D01*
X62846887Y-50997500D01*
X62802693Y-50979194D01*
X62788776Y-50958008D01*
X62764217Y-50895979D01*
X62734253Y-50820297D01*
X62688033Y-50756680D01*
X62643376Y-50695216D01*
X62643374Y-50695214D01*
X62641063Y-50692033D01*
X62638034Y-50689527D01*
X62638032Y-50689525D01*
X62521933Y-50593481D01*
X62518903Y-50590974D01*
X62375449Y-50523469D01*
X62371591Y-50522733D01*
X62223579Y-50494498D01*
X62223577Y-50494498D01*
X62219714Y-50493761D01*
X62215788Y-50494008D01*
X62065408Y-50503469D01*
X62065407Y-50503469D01*
X62061484Y-50503716D01*
X62057746Y-50504931D01*
X62057744Y-50504931D01*
X61995545Y-50525141D01*
X61910700Y-50552709D01*
X61776838Y-50637660D01*
X61774149Y-50640524D01*
X61774146Y-50640526D01*
X61728133Y-50689525D01*
X61668307Y-50753233D01*
X61591928Y-50892166D01*
X61552500Y-51045728D01*
X61552500Y-51764476D01*
X61552747Y-51766428D01*
X61552747Y-51766434D01*
X61557527Y-51804272D01*
X61567384Y-51882293D01*
X61568831Y-51885949D01*
X61568832Y-51885951D01*
X61595612Y-51953591D01*
X61625747Y-52029703D01*
X61628056Y-52032881D01*
X61628057Y-52032883D01*
X61674472Y-52096767D01*
X61718937Y-52157967D01*
X61721969Y-52160475D01*
X61729839Y-52166986D01*
X61752223Y-52209262D01*
X61752500Y-52215143D01*
X61752500Y-54568832D01*
X61735560Y-54611616D01*
X61668307Y-54683233D01*
X61591928Y-54822166D01*
X61552500Y-54975728D01*
X61552500Y-56194476D01*
X61552747Y-56196428D01*
X61552747Y-56196434D01*
X61557527Y-56234272D01*
X61567384Y-56312293D01*
X61625747Y-56459703D01*
X61628056Y-56462881D01*
X61628057Y-56462883D01*
X61716624Y-56584784D01*
X61718937Y-56587967D01*
X61721966Y-56590473D01*
X61721968Y-56590475D01*
X61765867Y-56626791D01*
X61841097Y-56689026D01*
X61984551Y-56756531D01*
X61988409Y-56757267D01*
X62136421Y-56785502D01*
X62136423Y-56785502D01*
X62140286Y-56786239D01*
X62144212Y-56785992D01*
X62294592Y-56776531D01*
X62294593Y-56776531D01*
X62298516Y-56776284D01*
X62302254Y-56775069D01*
X62302256Y-56775069D01*
X62445564Y-56728505D01*
X62445565Y-56728505D01*
X62449300Y-56727291D01*
X62583162Y-56642340D01*
X62585851Y-56639476D01*
X62585854Y-56639474D01*
X62637941Y-56584007D01*
X62681538Y-56564322D01*
X62726285Y-56581231D01*
X62746001Y-56626791D01*
X62746001Y-56766945D01*
X62746600Y-56773030D01*
X62759536Y-56838068D01*
X62764157Y-56849224D01*
X62813457Y-56923007D01*
X62821993Y-56931543D01*
X62895775Y-56980843D01*
X62906933Y-56985464D01*
X62971970Y-56998401D01*
X62978054Y-56999000D01*
X63054273Y-56999000D01*
X63098467Y-57017306D01*
X63116773Y-57061500D01*
X63098467Y-57105694D01*
X61338217Y-58865945D01*
X61334083Y-58869514D01*
X61330226Y-58871399D01*
X61326302Y-58875629D01*
X61298500Y-58905600D01*
X61296873Y-58907289D01*
X61283674Y-58920488D01*
X61282041Y-58922868D01*
X61280207Y-58925075D01*
X61280114Y-58924998D01*
X61277676Y-58928049D01*
X61259313Y-58947844D01*
X61257175Y-58953203D01*
X61257173Y-58953206D01*
X61254114Y-58960874D01*
X61247606Y-58973064D01*
X61239668Y-58984636D01*
X61238335Y-58990255D01*
X61233437Y-59010894D01*
X61230676Y-59019624D01*
X61222311Y-59040590D01*
X61222310Y-59040594D01*
X61220675Y-59044692D01*
X61220100Y-59050556D01*
X61220100Y-59059780D01*
X61218411Y-59074211D01*
X61215592Y-59086090D01*
X57327021Y-59086090D01*
X57327021Y-57720600D01*
X57345327Y-57676406D01*
X57765806Y-57255928D01*
X57810000Y-57237622D01*
X57854194Y-57255928D01*
X57872500Y-57300122D01*
X57872500Y-57437558D01*
X57873099Y-57440569D01*
X57877657Y-57463480D01*
X57879898Y-57474748D01*
X57908078Y-57516922D01*
X57950252Y-57545102D01*
X57956285Y-57546302D01*
X57956287Y-57546303D01*
X57982384Y-57551494D01*
X57987442Y-57552500D01*
X60512558Y-57552500D01*
X60517616Y-57551494D01*
X60543713Y-57546303D01*
X60543715Y-57546302D01*
X60549748Y-57545102D01*
X60591922Y-57516922D01*
X60620102Y-57474748D01*
X60622344Y-57463480D01*
X60626901Y-57440569D01*
X60627500Y-57437558D01*
X60627500Y-56212442D01*
X60620102Y-56175252D01*
X60591922Y-56133078D01*
X60549748Y-56104898D01*
X60543715Y-56103698D01*
X60543713Y-56103697D01*
X60515569Y-56098099D01*
X60512558Y-56097500D01*
X57987442Y-56097500D01*
X57984431Y-56098099D01*
X57956287Y-56103697D01*
X57956285Y-56103698D01*
X57950252Y-56104898D01*
X57908078Y-56133078D01*
X57879898Y-56175252D01*
X57872500Y-56212442D01*
X57872500Y-56539319D01*
X57854194Y-56583513D01*
X57832397Y-56597668D01*
X57814773Y-56604433D01*
X57805370Y-56607218D01*
X57780400Y-56612526D01*
X57775085Y-56616388D01*
X57775082Y-56616389D01*
X57772167Y-56618507D01*
X57757825Y-56626294D01*
X57754462Y-56627585D01*
X57748327Y-56629940D01*
X57730273Y-56647994D01*
X57722816Y-56654363D01*
X57702158Y-56669372D01*
X57698875Y-56675059D01*
X57698871Y-56675063D01*
X57697067Y-56678188D01*
X57687135Y-56691132D01*
X57306160Y-57072106D01*
X56944014Y-57434252D01*
X56941662Y-57436486D01*
X56911358Y-57463771D01*
X56908688Y-57469769D01*
X56908686Y-57469771D01*
X56900974Y-57487094D01*
X56896293Y-57495715D01*
X56886658Y-57510552D01*
X56882387Y-57517129D01*
X56880795Y-57527181D01*
X56876163Y-57542819D01*
X56872021Y-57552122D01*
X56872021Y-57577656D01*
X56871252Y-57587433D01*
X56867258Y-57612651D01*
X56869893Y-57622484D01*
X56872021Y-57638654D01*
X56872021Y-58533917D01*
X56853715Y-58578111D01*
X56809521Y-58596417D01*
X56764110Y-58576860D01*
X56659296Y-58466022D01*
X56659295Y-58466021D01*
X56657119Y-58463720D01*
X56654525Y-58461904D01*
X56654522Y-58461901D01*
X56493215Y-58348953D01*
X56493213Y-58348952D01*
X56490621Y-58347137D01*
X56304081Y-58266414D01*
X56300987Y-58265768D01*
X56300985Y-58265767D01*
X56181593Y-58240825D01*
X56105120Y-58224849D01*
X56098461Y-58224500D01*
X55949200Y-58224500D01*
X55947626Y-58224660D01*
X55947624Y-58224660D01*
X55925233Y-58226934D01*
X55797784Y-58239880D01*
X55794771Y-58240824D01*
X55794767Y-58240825D01*
X55606849Y-58299715D01*
X55606847Y-58299716D01*
X55603828Y-58300662D01*
X55426056Y-58399203D01*
X55271729Y-58531477D01*
X55269790Y-58533977D01*
X55239864Y-58572557D01*
X55198312Y-58596257D01*
X55152172Y-58583635D01*
X55128472Y-58542083D01*
X55127979Y-58534250D01*
X55127979Y-55419642D01*
X55146285Y-55375448D01*
X56450927Y-54070806D01*
X56495121Y-54052500D01*
X57810000Y-54052500D01*
X57854194Y-54070806D01*
X57872500Y-54115000D01*
X57872500Y-54437558D01*
X57879898Y-54474748D01*
X57908078Y-54516922D01*
X57950252Y-54545102D01*
X57956285Y-54546302D01*
X57956287Y-54546303D01*
X57982384Y-54551494D01*
X57987442Y-54552500D01*
X60512558Y-54552500D01*
X60517616Y-54551494D01*
X60543713Y-54546303D01*
X60543715Y-54546302D01*
X60549748Y-54545102D01*
X60591922Y-54516922D01*
X60620102Y-54474748D01*
X60627500Y-54437558D01*
X60627500Y-53212442D01*
X60621760Y-53183586D01*
X60621303Y-53181287D01*
X60621302Y-53181285D01*
X60620102Y-53175252D01*
X60591922Y-53133078D01*
X60549748Y-53104898D01*
X60543715Y-53103698D01*
X60543713Y-53103697D01*
X60515569Y-53098099D01*
X60512558Y-53097500D01*
X57987442Y-53097500D01*
X57984431Y-53098099D01*
X57956287Y-53103697D01*
X57956285Y-53103698D01*
X57950252Y-53104898D01*
X57908078Y-53133078D01*
X57879898Y-53175252D01*
X57878698Y-53181285D01*
X57878697Y-53181287D01*
X57878240Y-53183586D01*
X57872500Y-53212442D01*
X57872500Y-53535000D01*
X57854194Y-53579194D01*
X57810000Y-53597500D01*
X56382584Y-53597500D01*
X56379313Y-53597414D01*
X56338616Y-53595281D01*
X56332482Y-53597636D01*
X56332480Y-53597636D01*
X56314770Y-53604434D01*
X56305368Y-53607219D01*
X56286826Y-53611160D01*
X56286825Y-53611160D01*
X56280400Y-53612526D01*
X56275085Y-53616387D01*
X56275086Y-53616387D01*
X56272169Y-53618506D01*
X56257834Y-53626289D01*
X56254460Y-53627584D01*
X56254457Y-53627586D01*
X56248327Y-53629939D01*
X56230269Y-53647997D01*
X56222820Y-53654360D01*
X56202158Y-53669372D01*
X56197067Y-53678189D01*
X56187139Y-53691127D01*
X54744972Y-55133294D01*
X54742620Y-55135528D01*
X54712316Y-55162813D01*
X54709646Y-55168811D01*
X54709644Y-55168813D01*
X54701932Y-55186136D01*
X54697251Y-55194757D01*
X54688515Y-55208210D01*
X54683345Y-55216171D01*
X54681753Y-55226223D01*
X54677121Y-55241861D01*
X54672979Y-55251164D01*
X54672979Y-55276698D01*
X54672210Y-55286475D01*
X54668216Y-55311693D01*
X54670851Y-55321526D01*
X54672979Y-55337696D01*
X54672979Y-69482484D01*
X54654673Y-69526678D01*
X54641446Y-69536773D01*
X54640440Y-69537347D01*
X54637100Y-69538768D01*
X54634178Y-69540918D01*
X54634175Y-69540920D01*
X54572500Y-69586308D01*
X54500468Y-69639318D01*
X54390633Y-69768603D01*
X54313485Y-69919687D01*
X54273163Y-70084468D01*
X54272500Y-70095156D01*
X54272500Y-70767483D01*
X53854000Y-70767483D01*
X53854000Y-70589431D01*
X53850359Y-70580641D01*
X53841569Y-70577000D01*
X53139431Y-70577000D01*
X53130641Y-70580641D01*
X53127000Y-70589431D01*
X53127000Y-71566568D01*
X52873000Y-71566568D01*
X52873000Y-70589431D01*
X52869359Y-70580641D01*
X52860569Y-70577000D01*
X52158432Y-70577000D01*
X52149642Y-70580641D01*
X52146001Y-70589431D01*
X52146001Y-71121018D01*
X50001000Y-71121018D01*
X50001000Y-70310569D01*
X52146000Y-70310569D01*
X52149641Y-70319359D01*
X52158431Y-70323000D01*
X52860569Y-70323000D01*
X52869359Y-70319359D01*
X52873000Y-70310569D01*
X53127000Y-70310569D01*
X53130641Y-70319359D01*
X53139431Y-70323000D01*
X53841568Y-70323000D01*
X53850358Y-70319359D01*
X53853999Y-70310569D01*
X53853999Y-69778982D01*
X53853817Y-69775612D01*
X53847728Y-69719557D01*
X53845929Y-69711988D01*
X53798192Y-69584649D01*
X53793957Y-69576914D01*
X53712715Y-69468513D01*
X53706487Y-69462285D01*
X53598086Y-69381043D01*
X53590351Y-69376808D01*
X53463008Y-69329070D01*
X53455444Y-69327272D01*
X53399392Y-69321183D01*
X53396024Y-69321000D01*
X53139431Y-69321000D01*
X53130641Y-69324641D01*
X53127000Y-69333431D01*
X53127000Y-70310569D01*
X52873000Y-70310569D01*
X52873000Y-69333432D01*
X52869359Y-69324642D01*
X52860569Y-69321001D01*
X52603982Y-69321001D01*
X52600612Y-69321183D01*
X52544557Y-69327272D01*
X52536988Y-69329071D01*
X52409649Y-69376808D01*
X52401914Y-69381043D01*
X52293513Y-69462285D01*
X52287285Y-69468513D01*
X52206043Y-69576914D01*
X52201808Y-69584649D01*
X52154070Y-69711992D01*
X52152272Y-69719556D01*
X52146183Y-69775608D01*
X52146000Y-69778976D01*
X52146000Y-70310569D01*
X50001000Y-70310569D01*
X50001000Y-62546945D01*
X51246001Y-62546945D01*
X51246600Y-62553030D01*
X51259536Y-62618068D01*
X51264157Y-62629224D01*
X51313457Y-62703007D01*
X51321993Y-62711543D01*
X51395775Y-62760843D01*
X51406933Y-62765464D01*
X51471970Y-62778401D01*
X51478054Y-62779000D01*
X52610569Y-62779000D01*
X52619359Y-62775359D01*
X52623000Y-62766569D01*
X52623000Y-62766568D01*
X52877000Y-62766568D01*
X52880641Y-62775358D01*
X52889431Y-62778999D01*
X54021945Y-62778999D01*
X54028030Y-62778400D01*
X54093068Y-62765464D01*
X54104224Y-62760843D01*
X54178007Y-62711543D01*
X54186543Y-62703007D01*
X54235843Y-62629225D01*
X54240464Y-62618067D01*
X54253401Y-62553030D01*
X54254000Y-62546946D01*
X54254000Y-62064431D01*
X54250359Y-62055641D01*
X54241569Y-62052000D01*
X52889431Y-62052000D01*
X52880641Y-62055641D01*
X52877000Y-62064431D01*
X52877000Y-62766568D01*
X52623000Y-62766568D01*
X52623000Y-62064431D01*
X52619359Y-62055641D01*
X52610569Y-62052000D01*
X51258432Y-62052000D01*
X51249642Y-62055641D01*
X51246001Y-62064431D01*
X51246001Y-62546945D01*
X50001000Y-62546945D01*
X50001000Y-61785569D01*
X51246000Y-61785569D01*
X51249641Y-61794359D01*
X51258431Y-61798000D01*
X52610569Y-61798000D01*
X52619359Y-61794359D01*
X52623000Y-61785569D01*
X52877000Y-61785569D01*
X52880641Y-61794359D01*
X52889431Y-61798000D01*
X54241568Y-61798000D01*
X54250358Y-61794359D01*
X54253999Y-61785569D01*
X54253999Y-61303055D01*
X54253400Y-61296970D01*
X54240464Y-61231932D01*
X54235843Y-61220776D01*
X54186543Y-61146993D01*
X54178007Y-61138457D01*
X54104225Y-61089157D01*
X54093067Y-61084536D01*
X54028030Y-61071599D01*
X54021946Y-61071000D01*
X52889431Y-61071000D01*
X52880641Y-61074641D01*
X52877000Y-61083431D01*
X52877000Y-61785569D01*
X52623000Y-61785569D01*
X52623000Y-61083432D01*
X52619359Y-61074642D01*
X52610569Y-61071001D01*
X51478055Y-61071001D01*
X51471970Y-61071600D01*
X51406932Y-61084536D01*
X51395776Y-61089157D01*
X51321993Y-61138457D01*
X51313457Y-61146993D01*
X51264157Y-61220775D01*
X51259536Y-61231933D01*
X51246599Y-61296970D01*
X51246000Y-61303054D01*
X51246000Y-61785569D01*
X50001000Y-61785569D01*
X50001000Y-52274126D01*
X54995541Y-52274126D01*
X55025935Y-52475097D01*
X55096119Y-52665852D01*
X55203226Y-52838599D01*
X55342881Y-52986280D01*
X55345475Y-52988096D01*
X55345478Y-52988099D01*
X55502575Y-53098099D01*
X55509379Y-53102863D01*
X55695919Y-53183586D01*
X55699013Y-53184232D01*
X55699015Y-53184233D01*
X55803893Y-53206143D01*
X55894880Y-53225151D01*
X55901539Y-53225500D01*
X56050800Y-53225500D01*
X56052374Y-53225340D01*
X56052376Y-53225340D01*
X56074767Y-53223066D01*
X56202216Y-53210120D01*
X56205229Y-53209176D01*
X56205233Y-53209175D01*
X56393151Y-53150285D01*
X56393153Y-53150284D01*
X56396172Y-53149338D01*
X56573944Y-53050797D01*
X56728271Y-52918523D01*
X56730207Y-52916027D01*
X56730210Y-52916024D01*
X56850908Y-52760420D01*
X56852848Y-52757919D01*
X56898151Y-52665852D01*
X56941188Y-52578389D01*
X56941189Y-52578386D01*
X56942587Y-52575545D01*
X56993822Y-52378852D01*
X57004459Y-52175874D01*
X57003327Y-52168384D01*
X56974539Y-51978035D01*
X56974538Y-51978032D01*
X56974065Y-51974903D01*
X56969054Y-51961282D01*
X56935765Y-51870806D01*
X56903881Y-51784148D01*
X56796774Y-51611401D01*
X56657119Y-51463720D01*
X56654525Y-51461904D01*
X56654522Y-51461901D01*
X56493215Y-51348953D01*
X56493213Y-51348952D01*
X56490621Y-51347137D01*
X56304081Y-51266414D01*
X56300987Y-51265768D01*
X56300985Y-51265767D01*
X56181593Y-51240825D01*
X56105120Y-51224849D01*
X56098461Y-51224500D01*
X55949200Y-51224500D01*
X55947626Y-51224660D01*
X55947624Y-51224660D01*
X55925233Y-51226934D01*
X55797784Y-51239880D01*
X55794771Y-51240824D01*
X55794767Y-51240825D01*
X55606849Y-51299715D01*
X55606847Y-51299716D01*
X55603828Y-51300662D01*
X55426056Y-51399203D01*
X55271729Y-51531477D01*
X55269793Y-51533973D01*
X55269790Y-51533976D01*
X55154865Y-51682138D01*
X55147152Y-51692081D01*
X55145754Y-51694922D01*
X55059209Y-51870806D01*
X55057413Y-51874455D01*
X55006178Y-52071148D01*
X54995541Y-52274126D01*
X50001000Y-52274126D01*
X50001000Y-50063500D01*
X50019306Y-50019306D01*
X50063500Y-50001000D01*
X72936500Y-50001000D01*
X72980694Y-50019306D01*
G37*
G04 #@! TD.AperFunction*
G04 #@! TA.AperFunction,Conductor*
G36*
X65055391Y-56866125D02*
G01*
X65084429Y-56871901D01*
X65084433Y-56871901D01*
X65087442Y-56872500D01*
X65412558Y-56872500D01*
X65447807Y-56865488D01*
X65494722Y-56874819D01*
X65521299Y-56914593D01*
X65522500Y-56926787D01*
X65522500Y-57242427D01*
X65522414Y-57245698D01*
X65520282Y-57286384D01*
X65529435Y-57310231D01*
X65532216Y-57319619D01*
X65537526Y-57344600D01*
X65541388Y-57349916D01*
X65541389Y-57349918D01*
X65543508Y-57352835D01*
X65551291Y-57367168D01*
X65554940Y-57376673D01*
X65572994Y-57394727D01*
X65579364Y-57402185D01*
X65588725Y-57415069D01*
X65594372Y-57422842D01*
X65600059Y-57426125D01*
X65600063Y-57426129D01*
X65603188Y-57427933D01*
X65616132Y-57437865D01*
X65754194Y-57575928D01*
X65772500Y-57620122D01*
X65772500Y-61018108D01*
X65754194Y-61062302D01*
X65335694Y-61480802D01*
X65291500Y-61499108D01*
X65247306Y-61480802D01*
X65229000Y-61436608D01*
X65229000Y-61364431D01*
X65225359Y-61355641D01*
X65216569Y-61352000D01*
X64639431Y-61352000D01*
X64630641Y-61355641D01*
X64627000Y-61364431D01*
X64627000Y-61866568D01*
X64630641Y-61875358D01*
X64639431Y-61878999D01*
X64786609Y-61878999D01*
X64830803Y-61897305D01*
X64849109Y-61941499D01*
X64830803Y-61985693D01*
X64562302Y-62254194D01*
X64518108Y-62272500D01*
X63207572Y-62272500D01*
X63204301Y-62272414D01*
X63201134Y-62272248D01*
X63163615Y-62270282D01*
X63157481Y-62272637D01*
X63157479Y-62272637D01*
X63139774Y-62279433D01*
X63130372Y-62282218D01*
X63122157Y-62283964D01*
X63105400Y-62287526D01*
X63100082Y-62291389D01*
X63100083Y-62291389D01*
X63097166Y-62293508D01*
X63082833Y-62301290D01*
X63073326Y-62304940D01*
X63055269Y-62322997D01*
X63047820Y-62329360D01*
X63027158Y-62344372D01*
X63022067Y-62353189D01*
X63012139Y-62366127D01*
X62344493Y-63033773D01*
X62342141Y-63036007D01*
X62311837Y-63063292D01*
X62309167Y-63069290D01*
X62309165Y-63069292D01*
X62301453Y-63086615D01*
X62296772Y-63095236D01*
X62289986Y-63105686D01*
X62282866Y-63116650D01*
X62281274Y-63126702D01*
X62276642Y-63142340D01*
X62272500Y-63151643D01*
X62272500Y-63177177D01*
X62271731Y-63186954D01*
X62267737Y-63212172D01*
X62270372Y-63222005D01*
X62272500Y-63238175D01*
X62272500Y-63585001D01*
X62254194Y-63629195D01*
X62210000Y-63647501D01*
X62186626Y-63647501D01*
X62184615Y-63647766D01*
X62184610Y-63647766D01*
X62143669Y-63653155D01*
X62143668Y-63653155D01*
X62138929Y-63653779D01*
X62134595Y-63655800D01*
X62039213Y-63700277D01*
X62039211Y-63700279D01*
X62034256Y-63702589D01*
X61952589Y-63784256D01*
X61950279Y-63789211D01*
X61950277Y-63789213D01*
X61939836Y-63811605D01*
X61903779Y-63888929D01*
X61903155Y-63893669D01*
X61902403Y-63896249D01*
X61872462Y-63933555D01*
X61824911Y-63938763D01*
X61787605Y-63908822D01*
X61779900Y-63878760D01*
X61779900Y-61776398D01*
X61798206Y-61732204D01*
X61842400Y-61713898D01*
X61886594Y-61732204D01*
X61892673Y-61739264D01*
X61897574Y-61745899D01*
X61904100Y-61752425D01*
X62006409Y-61827991D01*
X62014560Y-61832307D01*
X62135379Y-61874736D01*
X62142756Y-61876354D01*
X62169283Y-61878861D01*
X62172225Y-61879000D01*
X62360569Y-61879000D01*
X62369359Y-61875359D01*
X62373000Y-61866569D01*
X62373000Y-61866568D01*
X62627000Y-61866568D01*
X62630641Y-61875358D01*
X62639431Y-61878999D01*
X62827772Y-61878999D01*
X62830720Y-61878860D01*
X62857238Y-61876355D01*
X62864626Y-61874734D01*
X62985440Y-61832307D01*
X62993591Y-61827991D01*
X63095900Y-61752425D01*
X63102425Y-61745900D01*
X63177991Y-61643591D01*
X63182307Y-61635440D01*
X63224736Y-61514621D01*
X63226354Y-61507244D01*
X63228861Y-61480717D01*
X63229000Y-61477775D01*
X63229000Y-61477772D01*
X63771001Y-61477772D01*
X63771140Y-61480720D01*
X63773645Y-61507238D01*
X63775266Y-61514626D01*
X63817693Y-61635440D01*
X63822009Y-61643591D01*
X63897575Y-61745900D01*
X63904100Y-61752425D01*
X64006409Y-61827991D01*
X64014560Y-61832307D01*
X64135379Y-61874736D01*
X64142756Y-61876354D01*
X64169283Y-61878861D01*
X64172225Y-61879000D01*
X64360569Y-61879000D01*
X64369359Y-61875359D01*
X64373000Y-61866569D01*
X64373000Y-61364431D01*
X64369359Y-61355641D01*
X64360569Y-61352000D01*
X63783432Y-61352000D01*
X63774642Y-61355641D01*
X63771001Y-61364431D01*
X63771001Y-61477772D01*
X63229000Y-61477772D01*
X63229000Y-61364431D01*
X63225359Y-61355641D01*
X63216569Y-61352000D01*
X62639431Y-61352000D01*
X62630641Y-61355641D01*
X62627000Y-61364431D01*
X62627000Y-61866568D01*
X62373000Y-61866568D01*
X62373000Y-61085569D01*
X62627000Y-61085569D01*
X62630641Y-61094359D01*
X62639431Y-61098000D01*
X63216568Y-61098000D01*
X63225358Y-61094359D01*
X63228999Y-61085569D01*
X63771000Y-61085569D01*
X63774641Y-61094359D01*
X63783431Y-61098000D01*
X64360569Y-61098000D01*
X64369359Y-61094359D01*
X64373000Y-61085569D01*
X64627000Y-61085569D01*
X64630641Y-61094359D01*
X64639431Y-61098000D01*
X65216568Y-61098000D01*
X65225358Y-61094359D01*
X65228999Y-61085569D01*
X65228999Y-60972228D01*
X65228860Y-60969280D01*
X65226355Y-60942762D01*
X65224734Y-60935374D01*
X65182307Y-60814560D01*
X65177991Y-60806409D01*
X65102425Y-60704100D01*
X65095900Y-60697575D01*
X64993591Y-60622009D01*
X64985440Y-60617693D01*
X64864621Y-60575264D01*
X64857244Y-60573646D01*
X64830717Y-60571139D01*
X64827775Y-60571000D01*
X64639431Y-60571000D01*
X64630641Y-60574641D01*
X64627000Y-60583431D01*
X64627000Y-61085569D01*
X64373000Y-61085569D01*
X64373000Y-60583432D01*
X64369359Y-60574642D01*
X64360569Y-60571001D01*
X64172228Y-60571001D01*
X64169280Y-60571140D01*
X64142762Y-60573645D01*
X64135374Y-60575266D01*
X64014560Y-60617693D01*
X64006409Y-60622009D01*
X63904100Y-60697575D01*
X63897575Y-60704100D01*
X63822009Y-60806409D01*
X63817693Y-60814560D01*
X63775264Y-60935379D01*
X63773646Y-60942756D01*
X63771139Y-60969283D01*
X63771000Y-60972225D01*
X63771000Y-61085569D01*
X63228999Y-61085569D01*
X63228999Y-60972228D01*
X63228860Y-60969280D01*
X63226355Y-60942762D01*
X63224734Y-60935374D01*
X63182307Y-60814560D01*
X63177991Y-60806409D01*
X63102425Y-60704100D01*
X63095900Y-60697575D01*
X62993591Y-60622009D01*
X62985440Y-60617693D01*
X62864621Y-60575264D01*
X62857244Y-60573646D01*
X62830717Y-60571139D01*
X62827775Y-60571000D01*
X62639431Y-60571000D01*
X62630641Y-60574641D01*
X62627000Y-60583431D01*
X62627000Y-61085569D01*
X62373000Y-61085569D01*
X62373000Y-60583432D01*
X62369359Y-60574642D01*
X62360569Y-60571001D01*
X62172228Y-60571001D01*
X62169280Y-60571140D01*
X62142762Y-60573645D01*
X62135374Y-60575266D01*
X62014560Y-60617693D01*
X62006409Y-60622009D01*
X61904100Y-60697575D01*
X61897574Y-60704101D01*
X61892673Y-60710736D01*
X61851691Y-60735408D01*
X61805266Y-60723875D01*
X61780594Y-60682893D01*
X61779900Y-60673602D01*
X61779900Y-59871241D01*
X61798206Y-59827047D01*
X61842400Y-59808741D01*
X61886594Y-59827047D01*
X61902403Y-59853751D01*
X61903155Y-59856330D01*
X61903779Y-59861071D01*
X61905800Y-59865404D01*
X61905800Y-59865405D01*
X61950277Y-59960787D01*
X61950279Y-59960789D01*
X61952589Y-59965744D01*
X62034256Y-60047411D01*
X62039211Y-60049721D01*
X62039213Y-60049723D01*
X62088015Y-60072479D01*
X62138929Y-60096221D01*
X62152295Y-60097981D01*
X62184593Y-60102233D01*
X62184601Y-60102233D01*
X62186625Y-60102500D01*
X62188672Y-60102500D01*
X62500844Y-60102499D01*
X62813374Y-60102499D01*
X62815385Y-60102234D01*
X62815390Y-60102234D01*
X62856331Y-60096845D01*
X62856332Y-60096845D01*
X62861071Y-60096221D01*
X62868198Y-60092898D01*
X62960787Y-60049723D01*
X62960789Y-60049721D01*
X62965744Y-60047411D01*
X63047411Y-59965744D01*
X63049721Y-59960789D01*
X63049723Y-59960787D01*
X63074376Y-59907917D01*
X63096221Y-59861071D01*
X63100700Y-59827047D01*
X63102233Y-59815407D01*
X63102233Y-59815399D01*
X63102500Y-59813375D01*
X63102499Y-59336626D01*
X63102232Y-59334593D01*
X63096845Y-59293669D01*
X63096845Y-59293668D01*
X63096221Y-59288929D01*
X63083098Y-59260787D01*
X63049723Y-59189213D01*
X63049721Y-59189211D01*
X63047411Y-59184256D01*
X62965744Y-59102589D01*
X62960789Y-59100279D01*
X62960787Y-59100277D01*
X62904887Y-59074211D01*
X62878461Y-59061888D01*
X62846145Y-59026621D01*
X62848232Y-58978831D01*
X62860682Y-58961051D01*
X64075928Y-57745806D01*
X64120122Y-57727500D01*
X64187427Y-57727500D01*
X64190698Y-57727586D01*
X64231384Y-57729718D01*
X64255231Y-57720565D01*
X64264619Y-57717784D01*
X64289600Y-57712474D01*
X64294916Y-57708612D01*
X64300915Y-57705941D01*
X64302090Y-57708579D01*
X64337957Y-57699969D01*
X64378743Y-57724963D01*
X64389909Y-57771477D01*
X64372373Y-57805893D01*
X64344493Y-57833773D01*
X64342141Y-57836007D01*
X64311837Y-57863292D01*
X64309167Y-57869290D01*
X64309165Y-57869292D01*
X64301453Y-57886615D01*
X64296772Y-57895236D01*
X64295271Y-57897548D01*
X64282866Y-57916650D01*
X64281274Y-57926702D01*
X64276642Y-57942340D01*
X64272500Y-57951643D01*
X64272500Y-57977177D01*
X64271731Y-57986954D01*
X64267737Y-58012172D01*
X64270372Y-58022005D01*
X64272500Y-58038175D01*
X64272500Y-58985001D01*
X64254194Y-59029195D01*
X64210000Y-59047501D01*
X64186626Y-59047501D01*
X64184615Y-59047766D01*
X64184610Y-59047766D01*
X64143669Y-59053155D01*
X64143668Y-59053155D01*
X64138929Y-59053779D01*
X64134595Y-59055800D01*
X64039213Y-59100277D01*
X64039211Y-59100279D01*
X64034256Y-59102589D01*
X63952589Y-59184256D01*
X63950279Y-59189211D01*
X63950277Y-59189213D01*
X63938310Y-59214877D01*
X63903779Y-59288929D01*
X63903155Y-59293669D01*
X63903155Y-59293670D01*
X63897767Y-59334593D01*
X63897767Y-59334601D01*
X63897500Y-59336625D01*
X63897501Y-59813374D01*
X63897766Y-59815385D01*
X63897766Y-59815390D01*
X63903155Y-59856330D01*
X63903779Y-59861071D01*
X63905800Y-59865404D01*
X63905800Y-59865405D01*
X63950277Y-59960787D01*
X63950279Y-59960789D01*
X63952589Y-59965744D01*
X64034256Y-60047411D01*
X64039211Y-60049721D01*
X64039213Y-60049723D01*
X64088015Y-60072479D01*
X64138929Y-60096221D01*
X64152295Y-60097981D01*
X64184593Y-60102233D01*
X64184601Y-60102233D01*
X64186625Y-60102500D01*
X64188672Y-60102500D01*
X64500844Y-60102499D01*
X64813374Y-60102499D01*
X64815385Y-60102234D01*
X64815390Y-60102234D01*
X64856331Y-60096845D01*
X64856332Y-60096845D01*
X64861071Y-60096221D01*
X64868198Y-60092898D01*
X64960787Y-60049723D01*
X64960789Y-60049721D01*
X64965744Y-60047411D01*
X65047411Y-59965744D01*
X65049721Y-59960789D01*
X65049723Y-59960787D01*
X65074376Y-59907917D01*
X65096221Y-59861071D01*
X65100700Y-59827047D01*
X65102233Y-59815407D01*
X65102233Y-59815399D01*
X65102500Y-59813375D01*
X65102499Y-59336626D01*
X65102232Y-59334593D01*
X65096845Y-59293669D01*
X65096845Y-59293668D01*
X65096221Y-59288929D01*
X65083098Y-59260787D01*
X65049723Y-59189213D01*
X65049721Y-59189211D01*
X65047411Y-59184256D01*
X64965744Y-59102589D01*
X64960789Y-59100279D01*
X64960787Y-59100277D01*
X64889625Y-59067094D01*
X64861071Y-59053779D01*
X64847705Y-59052019D01*
X64815407Y-59047767D01*
X64815399Y-59047767D01*
X64813375Y-59047500D01*
X64790000Y-59047500D01*
X64745806Y-59029194D01*
X64727500Y-58985000D01*
X64727500Y-58120121D01*
X64745806Y-58075927D01*
X64878284Y-57943449D01*
X64922478Y-57925143D01*
X64928727Y-57925646D01*
X64930948Y-57926340D01*
X64935395Y-57926422D01*
X64935398Y-57926422D01*
X64988828Y-57927401D01*
X65053383Y-57928584D01*
X65106088Y-57914215D01*
X65167226Y-57897548D01*
X65167229Y-57897547D01*
X65171527Y-57896375D01*
X65175323Y-57894044D01*
X65175326Y-57894043D01*
X65272083Y-57834633D01*
X65275881Y-57832301D01*
X65358058Y-57741513D01*
X65411451Y-57631311D01*
X65413334Y-57620122D01*
X65425752Y-57546303D01*
X65431767Y-57510552D01*
X65431896Y-57500000D01*
X65414536Y-57378781D01*
X65363852Y-57267307D01*
X65345233Y-57245698D01*
X65286826Y-57177914D01*
X65283918Y-57174539D01*
X65181160Y-57107935D01*
X65063838Y-57072848D01*
X65044188Y-57072728D01*
X65036043Y-57072678D01*
X64991961Y-57054102D01*
X64973926Y-57009797D01*
X64975128Y-56998685D01*
X64977500Y-56993357D01*
X64977500Y-56967822D01*
X64978270Y-56958044D01*
X64981236Y-56939318D01*
X64982264Y-56932828D01*
X64981301Y-56929235D01*
X64996751Y-56885604D01*
X65039926Y-56865010D01*
X65055391Y-56866125D01*
G37*
G04 #@! TD.AperFunction*
G04 #@! TA.AperFunction,Conductor*
G36*
X63575694Y-56061306D02*
G01*
X63594000Y-56105500D01*
X63594000Y-56234500D01*
X63575694Y-56278694D01*
X63531500Y-56297000D01*
X63068500Y-56297000D01*
X63024306Y-56278694D01*
X63006000Y-56234500D01*
X63006000Y-56105500D01*
X63024306Y-56061306D01*
X63068500Y-56043000D01*
X63531500Y-56043000D01*
X63575694Y-56061306D01*
G37*
G04 #@! TD.AperFunction*
G04 #@! TA.AperFunction,Conductor*
G36*
X70197307Y-51870806D02*
G01*
X70211224Y-51891992D01*
X70265747Y-52029703D01*
X70268056Y-52032881D01*
X70268057Y-52032883D01*
X70314472Y-52096767D01*
X70358937Y-52157967D01*
X70361969Y-52160475D01*
X70369839Y-52166986D01*
X70392223Y-52209262D01*
X70392500Y-52215143D01*
X70392500Y-54568832D01*
X70375560Y-54611616D01*
X70308307Y-54683233D01*
X70231928Y-54822166D01*
X70192500Y-54975728D01*
X70192500Y-55302184D01*
X70174194Y-55346378D01*
X70130000Y-55364684D01*
X70106083Y-55359927D01*
X70093067Y-55354536D01*
X70028030Y-55341599D01*
X70021946Y-55341000D01*
X70008604Y-55341000D01*
X69964410Y-55322694D01*
X69946104Y-55278500D01*
X69948234Y-55262322D01*
X69949117Y-55259026D01*
X69950687Y-55255236D01*
X69970466Y-55105000D01*
X69964685Y-55061086D01*
X69951222Y-54958827D01*
X69951222Y-54958826D01*
X69950687Y-54954764D01*
X69904961Y-54844372D01*
X69894268Y-54818556D01*
X69894266Y-54818553D01*
X69892698Y-54814767D01*
X69800451Y-54694549D01*
X69680233Y-54602302D01*
X69676447Y-54600734D01*
X69676444Y-54600732D01*
X69544022Y-54545881D01*
X69544020Y-54545881D01*
X69540236Y-54544313D01*
X69536174Y-54543778D01*
X69536173Y-54543778D01*
X69429751Y-54529767D01*
X69429745Y-54529767D01*
X69427720Y-54529500D01*
X69352280Y-54529500D01*
X69350255Y-54529767D01*
X69350249Y-54529767D01*
X69243827Y-54543778D01*
X69243826Y-54543778D01*
X69239764Y-54544313D01*
X69235980Y-54545881D01*
X69235978Y-54545881D01*
X69103556Y-54600732D01*
X69103553Y-54600734D01*
X69099767Y-54602302D01*
X68979549Y-54694549D01*
X68887302Y-54814767D01*
X68885734Y-54818553D01*
X68885732Y-54818556D01*
X68875039Y-54844372D01*
X68829313Y-54954764D01*
X68828778Y-54958824D01*
X68828778Y-54958826D01*
X68820060Y-55025049D01*
X68796143Y-55066475D01*
X68749937Y-55078856D01*
X68713901Y-55061085D01*
X67991032Y-54338217D01*
X67987463Y-54334083D01*
X67985578Y-54330226D01*
X67951377Y-54298500D01*
X67949688Y-54296873D01*
X67936489Y-54283674D01*
X67934109Y-54282041D01*
X67931902Y-54280207D01*
X67931979Y-54280114D01*
X67928928Y-54277676D01*
X67909133Y-54259313D01*
X67903774Y-54257175D01*
X67903771Y-54257173D01*
X67896103Y-54254114D01*
X67883913Y-54247606D01*
X67872341Y-54239668D01*
X67854130Y-54235347D01*
X67846083Y-54233437D01*
X67837353Y-54230676D01*
X67816387Y-54222311D01*
X67816383Y-54222310D01*
X67812285Y-54220675D01*
X67806421Y-54220100D01*
X67797197Y-54220100D01*
X67782766Y-54218411D01*
X67776500Y-54216924D01*
X67770887Y-54215592D01*
X67749351Y-54218523D01*
X67741959Y-54219529D01*
X67733531Y-54220100D01*
X65294127Y-54220100D01*
X65288681Y-54219700D01*
X65284620Y-54218306D01*
X65238008Y-54220056D01*
X65235663Y-54220100D01*
X65216992Y-54220100D01*
X65214159Y-54220628D01*
X65211294Y-54220892D01*
X65211283Y-54220773D01*
X65207395Y-54221205D01*
X65186190Y-54222001D01*
X65186188Y-54222002D01*
X65180422Y-54222218D01*
X65167531Y-54227757D01*
X65154305Y-54231775D01*
X65140515Y-54234343D01*
X65135603Y-54237370D01*
X65135602Y-54237371D01*
X65117541Y-54248504D01*
X65109426Y-54252720D01*
X65084619Y-54263378D01*
X65080066Y-54267118D01*
X65073542Y-54273642D01*
X65062149Y-54282648D01*
X65051752Y-54289057D01*
X65048260Y-54293649D01*
X65034079Y-54312298D01*
X65028523Y-54318661D01*
X64649387Y-54697798D01*
X64286099Y-55061086D01*
X64241905Y-55079392D01*
X64197711Y-55061086D01*
X64179940Y-55025050D01*
X64171222Y-54958826D01*
X64171222Y-54958824D01*
X64170687Y-54954764D01*
X64124961Y-54844372D01*
X64114268Y-54818556D01*
X64114266Y-54818553D01*
X64112698Y-54814767D01*
X64020451Y-54694549D01*
X63900233Y-54602302D01*
X63896447Y-54600734D01*
X63896444Y-54600732D01*
X63764022Y-54545881D01*
X63764020Y-54545881D01*
X63760236Y-54544313D01*
X63756174Y-54543778D01*
X63756173Y-54543778D01*
X63649751Y-54529767D01*
X63649745Y-54529767D01*
X63647720Y-54529500D01*
X63572280Y-54529500D01*
X63570255Y-54529767D01*
X63570249Y-54529767D01*
X63463827Y-54543778D01*
X63463826Y-54543778D01*
X63459764Y-54544313D01*
X63455980Y-54545881D01*
X63455978Y-54545881D01*
X63323556Y-54600732D01*
X63323553Y-54600734D01*
X63319767Y-54602302D01*
X63199549Y-54694549D01*
X63107302Y-54814767D01*
X63105734Y-54818553D01*
X63105732Y-54818556D01*
X63095039Y-54844372D01*
X63049313Y-54954764D01*
X63048778Y-54958826D01*
X63048778Y-54958827D01*
X63035315Y-55061086D01*
X63029534Y-55105000D01*
X63030069Y-55109064D01*
X63048072Y-55245806D01*
X63049313Y-55255236D01*
X63050881Y-55259022D01*
X63051766Y-55262324D01*
X63045523Y-55309751D01*
X63007573Y-55338871D01*
X62991396Y-55341001D01*
X62978055Y-55341001D01*
X62971970Y-55341600D01*
X62906932Y-55354536D01*
X62893916Y-55359927D01*
X62846081Y-55359926D01*
X62812257Y-55326100D01*
X62807500Y-55302184D01*
X62807500Y-55015524D01*
X62802970Y-54979661D01*
X62793109Y-54901612D01*
X62792616Y-54897707D01*
X62771500Y-54844372D01*
X62746008Y-54779987D01*
X62734253Y-54750297D01*
X62693750Y-54694549D01*
X62643376Y-54625216D01*
X62643374Y-54625214D01*
X62641063Y-54622033D01*
X62630161Y-54613014D01*
X62607777Y-54570738D01*
X62607500Y-54564857D01*
X62607500Y-52211168D01*
X62624440Y-52168384D01*
X62688998Y-52099637D01*
X62688998Y-52099636D01*
X62691693Y-52096767D01*
X62768072Y-51957834D01*
X62783061Y-51899457D01*
X62811782Y-51861203D01*
X62843597Y-51852500D01*
X70153113Y-51852500D01*
X70197307Y-51870806D01*
G37*
G04 #@! TD.AperFunction*
M02*
