%FSLAX45Y45*%
G04 Gerber Fmt 4.5, Leading zero omitted, Abs format (unit mm)*
G04 Created by KiCad (PCBNEW (6.0.5)) date 2022-07-09 20:46:15*
%MOMM*%
%LPD*%
G01*
G04 APERTURE LIST*
%TA.AperFunction,Profile*%
%ADD10C,0.127000*%
%TD*%
%ADD11C,0.200000*%
%ADD12C,0.065000*%
%ADD13C,0.150000*%
G04 APERTURE END LIST*
D10*
X5000000Y-5000000D02*
X7300000Y-5000000D01*
X7300000Y-5000000D02*
X7300000Y-7450000D01*
X7300000Y-7450000D02*
X5000000Y-7450000D01*
X5000000Y-7450000D02*
X5000000Y-5000000D01*
D11*
D12*
X6328500Y-5478000D02*
X6393500Y-5543000D01*
X6393500Y-5478000D02*
X6328500Y-5543000D01*
X6906500Y-5478000D02*
X6971500Y-5543000D01*
X6971500Y-5478000D02*
X6906500Y-5543000D01*
D13*
X5675000Y-5222500D02*
G75*
G03*
X5675000Y-5222500I-75000J0D01*
G01*
X5675000Y-5922500D02*
G75*
G03*
X5675000Y-5922500I-75000J0D01*
G01*
D11*
X5251269Y-7766826D02*
X5251269Y-7566826D01*
X5298888Y-7566826D01*
X5327460Y-7576350D01*
X5346507Y-7595398D01*
X5356031Y-7614445D01*
X5365555Y-7652540D01*
X5365555Y-7681112D01*
X5356031Y-7719207D01*
X5346507Y-7738255D01*
X5327460Y-7757302D01*
X5298888Y-7766826D01*
X5251269Y-7766826D01*
X5451269Y-7766826D02*
X5451269Y-7633493D01*
X5451269Y-7671588D02*
X5460793Y-7652540D01*
X5470317Y-7643017D01*
X5489364Y-7633493D01*
X5508412Y-7633493D01*
X5575079Y-7766826D02*
X5575079Y-7633493D01*
X5575079Y-7566826D02*
X5565555Y-7576350D01*
X5575079Y-7585874D01*
X5584602Y-7576350D01*
X5575079Y-7566826D01*
X5575079Y-7585874D01*
X5698888Y-7766826D02*
X5679840Y-7757302D01*
X5670317Y-7738255D01*
X5670317Y-7566826D01*
X5803650Y-7766826D02*
X5784602Y-7757302D01*
X5775078Y-7738255D01*
X5775078Y-7566826D01*
X6032221Y-7766826D02*
X6032221Y-7566826D01*
X6098888Y-7709683D01*
X6165555Y-7566826D01*
X6165555Y-7766826D01*
X6346507Y-7766826D02*
X6346507Y-7662064D01*
X6336983Y-7643017D01*
X6317936Y-7633493D01*
X6279840Y-7633493D01*
X6260793Y-7643017D01*
X6346507Y-7757302D02*
X6327459Y-7766826D01*
X6279840Y-7766826D01*
X6260793Y-7757302D01*
X6251269Y-7738255D01*
X6251269Y-7719207D01*
X6260793Y-7700159D01*
X6279840Y-7690636D01*
X6327459Y-7690636D01*
X6346507Y-7681112D01*
X6441745Y-7633493D02*
X6441745Y-7833493D01*
X6441745Y-7643017D02*
X6460793Y-7633493D01*
X6498888Y-7633493D01*
X6517936Y-7643017D01*
X6527459Y-7652540D01*
X6536983Y-7671588D01*
X6536983Y-7728731D01*
X6527459Y-7747778D01*
X6517936Y-7757302D01*
X6498888Y-7766826D01*
X6460793Y-7766826D01*
X6441745Y-7757302D01*
X6622698Y-7747778D02*
X6632221Y-7757302D01*
X6622698Y-7766826D01*
X6613174Y-7757302D01*
X6622698Y-7747778D01*
X6622698Y-7766826D01*
X6622698Y-7643017D02*
X6632221Y-7652540D01*
X6622698Y-7662064D01*
X6613174Y-7652540D01*
X6622698Y-7643017D01*
X6622698Y-7662064D01*
D12*
X4928650Y-8063850D02*
X4993650Y-8128850D01*
X4993650Y-8063850D02*
X4928650Y-8128850D01*
D11*
X5289364Y-7986826D02*
X5308412Y-7986826D01*
X5327460Y-7996350D01*
X5336983Y-8005874D01*
X5346507Y-8024921D01*
X5356031Y-8063017D01*
X5356031Y-8110636D01*
X5346507Y-8148731D01*
X5336983Y-8167778D01*
X5327460Y-8177302D01*
X5308412Y-8186826D01*
X5289364Y-8186826D01*
X5270317Y-8177302D01*
X5260793Y-8167778D01*
X5251269Y-8148731D01*
X5241745Y-8110636D01*
X5241745Y-8063017D01*
X5251269Y-8024921D01*
X5260793Y-8005874D01*
X5270317Y-7996350D01*
X5289364Y-7986826D01*
X5441745Y-8167778D02*
X5451269Y-8177302D01*
X5441745Y-8186826D01*
X5432221Y-8177302D01*
X5441745Y-8167778D01*
X5441745Y-8186826D01*
X5622698Y-7986826D02*
X5584602Y-7986826D01*
X5565555Y-7996350D01*
X5556031Y-8005874D01*
X5536983Y-8034445D01*
X5527460Y-8072540D01*
X5527460Y-8148731D01*
X5536983Y-8167778D01*
X5546507Y-8177302D01*
X5565555Y-8186826D01*
X5603650Y-8186826D01*
X5622698Y-8177302D01*
X5632221Y-8167778D01*
X5641745Y-8148731D01*
X5641745Y-8101112D01*
X5632221Y-8082064D01*
X5622698Y-8072540D01*
X5603650Y-8063017D01*
X5565555Y-8063017D01*
X5546507Y-8072540D01*
X5536983Y-8082064D01*
X5527460Y-8101112D01*
X5822698Y-7986826D02*
X5727459Y-7986826D01*
X5717936Y-8082064D01*
X5727459Y-8072540D01*
X5746507Y-8063017D01*
X5794126Y-8063017D01*
X5813174Y-8072540D01*
X5822698Y-8082064D01*
X5832221Y-8101112D01*
X5832221Y-8148731D01*
X5822698Y-8167778D01*
X5813174Y-8177302D01*
X5794126Y-8186826D01*
X5746507Y-8186826D01*
X5727459Y-8177302D01*
X5717936Y-8167778D01*
X5956031Y-7986826D02*
X5975078Y-7986826D01*
X5994126Y-7996350D01*
X6003650Y-8005874D01*
X6013174Y-8024921D01*
X6022698Y-8063017D01*
X6022698Y-8110636D01*
X6013174Y-8148731D01*
X6003650Y-8167778D01*
X5994126Y-8177302D01*
X5975078Y-8186826D01*
X5956031Y-8186826D01*
X5936983Y-8177302D01*
X5927459Y-8167778D01*
X5917936Y-8148731D01*
X5908412Y-8110636D01*
X5908412Y-8063017D01*
X5917936Y-8024921D01*
X5927459Y-8005874D01*
X5936983Y-7996350D01*
X5956031Y-7986826D01*
X6108412Y-8186826D02*
X6108412Y-8053493D01*
X6108412Y-8072540D02*
X6117936Y-8063017D01*
X6136983Y-8053493D01*
X6165555Y-8053493D01*
X6184602Y-8063017D01*
X6194126Y-8082064D01*
X6194126Y-8186826D01*
X6194126Y-8082064D02*
X6203650Y-8063017D01*
X6222698Y-8053493D01*
X6251269Y-8053493D01*
X6270317Y-8063017D01*
X6279840Y-8082064D01*
X6279840Y-8186826D01*
X6375078Y-8186826D02*
X6375078Y-8053493D01*
X6375078Y-8072540D02*
X6384602Y-8063017D01*
X6403650Y-8053493D01*
X6432221Y-8053493D01*
X6451269Y-8063017D01*
X6460793Y-8082064D01*
X6460793Y-8186826D01*
X6460793Y-8082064D02*
X6470317Y-8063017D01*
X6489364Y-8053493D01*
X6517936Y-8053493D01*
X6536983Y-8063017D01*
X6546507Y-8082064D01*
X6546507Y-8186826D01*
X6936983Y-7977302D02*
X6765555Y-8234445D01*
X7194126Y-7986826D02*
X7213174Y-7986826D01*
X7232221Y-7996350D01*
X7241745Y-8005874D01*
X7251269Y-8024921D01*
X7260793Y-8063017D01*
X7260793Y-8110636D01*
X7251269Y-8148731D01*
X7241745Y-8167778D01*
X7232221Y-8177302D01*
X7213174Y-8186826D01*
X7194126Y-8186826D01*
X7175078Y-8177302D01*
X7165555Y-8167778D01*
X7156031Y-8148731D01*
X7146507Y-8110636D01*
X7146507Y-8063017D01*
X7156031Y-8024921D01*
X7165555Y-8005874D01*
X7175078Y-7996350D01*
X7194126Y-7986826D01*
X7346507Y-8167778D02*
X7356031Y-8177302D01*
X7346507Y-8186826D01*
X7336983Y-8177302D01*
X7346507Y-8167778D01*
X7346507Y-8186826D01*
X7479840Y-7986826D02*
X7498888Y-7986826D01*
X7517936Y-7996350D01*
X7527459Y-8005874D01*
X7536983Y-8024921D01*
X7546507Y-8063017D01*
X7546507Y-8110636D01*
X7536983Y-8148731D01*
X7527459Y-8167778D01*
X7517936Y-8177302D01*
X7498888Y-8186826D01*
X7479840Y-8186826D01*
X7460793Y-8177302D01*
X7451269Y-8167778D01*
X7441745Y-8148731D01*
X7432221Y-8110636D01*
X7432221Y-8063017D01*
X7441745Y-8024921D01*
X7451269Y-8005874D01*
X7460793Y-7996350D01*
X7479840Y-7986826D01*
X7622698Y-8005874D02*
X7632221Y-7996350D01*
X7651269Y-7986826D01*
X7698888Y-7986826D01*
X7717936Y-7996350D01*
X7727459Y-8005874D01*
X7736983Y-8024921D01*
X7736983Y-8043969D01*
X7727459Y-8072540D01*
X7613174Y-8186826D01*
X7736983Y-8186826D01*
X7917936Y-7986826D02*
X7822698Y-7986826D01*
X7813174Y-8082064D01*
X7822698Y-8072540D01*
X7841745Y-8063017D01*
X7889364Y-8063017D01*
X7908412Y-8072540D01*
X7917936Y-8082064D01*
X7927459Y-8101112D01*
X7927459Y-8148731D01*
X7917936Y-8167778D01*
X7908412Y-8177302D01*
X7889364Y-8186826D01*
X7841745Y-8186826D01*
X7822698Y-8177302D01*
X7813174Y-8167778D01*
X8098888Y-7986826D02*
X8060793Y-7986826D01*
X8041745Y-7996350D01*
X8032221Y-8005874D01*
X8013174Y-8034445D01*
X8003650Y-8072540D01*
X8003650Y-8148731D01*
X8013174Y-8167778D01*
X8022698Y-8177302D01*
X8041745Y-8186826D01*
X8079840Y-8186826D01*
X8098888Y-8177302D01*
X8108412Y-8167778D01*
X8117936Y-8148731D01*
X8117936Y-8101112D01*
X8108412Y-8082064D01*
X8098888Y-8072540D01*
X8079840Y-8063017D01*
X8041745Y-8063017D01*
X8022698Y-8072540D01*
X8013174Y-8082064D01*
X8003650Y-8101112D01*
X8194126Y-7986826D02*
X8194126Y-8024921D01*
X8270317Y-7986826D02*
X8270317Y-8024921D01*
X8565555Y-8263017D02*
X8556031Y-8253493D01*
X8536983Y-8224921D01*
X8527460Y-8205874D01*
X8517936Y-8177302D01*
X8508412Y-8129683D01*
X8508412Y-8091588D01*
X8517936Y-8043969D01*
X8527460Y-8015398D01*
X8536983Y-7996350D01*
X8556031Y-7967778D01*
X8565555Y-7958255D01*
X8632221Y-8005874D02*
X8641745Y-7996350D01*
X8660793Y-7986826D01*
X8708412Y-7986826D01*
X8727460Y-7996350D01*
X8736983Y-8005874D01*
X8746507Y-8024921D01*
X8746507Y-8043969D01*
X8736983Y-8072540D01*
X8622698Y-8186826D01*
X8746507Y-8186826D01*
X8984602Y-8186826D02*
X8984602Y-7986826D01*
X9070317Y-8186826D02*
X9070317Y-8082064D01*
X9060793Y-8063017D01*
X9041745Y-8053493D01*
X9013174Y-8053493D01*
X8994126Y-8063017D01*
X8984602Y-8072540D01*
X9194126Y-8186826D02*
X9175079Y-8177302D01*
X9165555Y-8167778D01*
X9156031Y-8148731D01*
X9156031Y-8091588D01*
X9165555Y-8072540D01*
X9175079Y-8063017D01*
X9194126Y-8053493D01*
X9222698Y-8053493D01*
X9241745Y-8063017D01*
X9251269Y-8072540D01*
X9260793Y-8091588D01*
X9260793Y-8148731D01*
X9251269Y-8167778D01*
X9241745Y-8177302D01*
X9222698Y-8186826D01*
X9194126Y-8186826D01*
X9375079Y-8186826D02*
X9356031Y-8177302D01*
X9346507Y-8158255D01*
X9346507Y-7986826D01*
X9527460Y-8177302D02*
X9508412Y-8186826D01*
X9470317Y-8186826D01*
X9451269Y-8177302D01*
X9441745Y-8158255D01*
X9441745Y-8082064D01*
X9451269Y-8063017D01*
X9470317Y-8053493D01*
X9508412Y-8053493D01*
X9527460Y-8063017D01*
X9536983Y-8082064D01*
X9536983Y-8101112D01*
X9441745Y-8120159D01*
X9613174Y-8177302D02*
X9632221Y-8186826D01*
X9670317Y-8186826D01*
X9689364Y-8177302D01*
X9698888Y-8158255D01*
X9698888Y-8148731D01*
X9689364Y-8129683D01*
X9670317Y-8120159D01*
X9641745Y-8120159D01*
X9622698Y-8110636D01*
X9613174Y-8091588D01*
X9613174Y-8082064D01*
X9622698Y-8063017D01*
X9641745Y-8053493D01*
X9670317Y-8053493D01*
X9689364Y-8063017D01*
X9765555Y-8263017D02*
X9775079Y-8253493D01*
X9794126Y-8224921D01*
X9803650Y-8205874D01*
X9813174Y-8177302D01*
X9822698Y-8129683D01*
X9822698Y-8091588D01*
X9813174Y-8043969D01*
X9803650Y-8015398D01*
X9794126Y-7996350D01*
X9775079Y-7967778D01*
X9765555Y-7958255D01*
X10127460Y-8263017D02*
X10117936Y-8253493D01*
X10098888Y-8224921D01*
X10089364Y-8205874D01*
X10079840Y-8177302D01*
X10070317Y-8129683D01*
X10070317Y-8091588D01*
X10079840Y-8043969D01*
X10089364Y-8015398D01*
X10098888Y-7996350D01*
X10117936Y-7967778D01*
X10127460Y-7958255D01*
X10203650Y-8053493D02*
X10203650Y-8186826D01*
X10203650Y-8072540D02*
X10213174Y-8063017D01*
X10232221Y-8053493D01*
X10260793Y-8053493D01*
X10279840Y-8063017D01*
X10289364Y-8082064D01*
X10289364Y-8186826D01*
X10413174Y-8186826D02*
X10394126Y-8177302D01*
X10384602Y-8167778D01*
X10375079Y-8148731D01*
X10375079Y-8091588D01*
X10384602Y-8072540D01*
X10394126Y-8063017D01*
X10413174Y-8053493D01*
X10441745Y-8053493D01*
X10460793Y-8063017D01*
X10470317Y-8072540D01*
X10479840Y-8091588D01*
X10479840Y-8148731D01*
X10470317Y-8167778D01*
X10460793Y-8177302D01*
X10441745Y-8186826D01*
X10413174Y-8186826D01*
X10536983Y-8053493D02*
X10613174Y-8053493D01*
X10565555Y-7986826D02*
X10565555Y-8158255D01*
X10575079Y-8177302D01*
X10594126Y-8186826D01*
X10613174Y-8186826D01*
X10832221Y-8053493D02*
X10832221Y-8253493D01*
X10832221Y-8063017D02*
X10851269Y-8053493D01*
X10889364Y-8053493D01*
X10908412Y-8063017D01*
X10917936Y-8072540D01*
X10927460Y-8091588D01*
X10927460Y-8148731D01*
X10917936Y-8167778D01*
X10908412Y-8177302D01*
X10889364Y-8186826D01*
X10851269Y-8186826D01*
X10832221Y-8177302D01*
X11041745Y-8186826D02*
X11022698Y-8177302D01*
X11013174Y-8158255D01*
X11013174Y-7986826D01*
X11203650Y-8186826D02*
X11203650Y-8082064D01*
X11194126Y-8063017D01*
X11175079Y-8053493D01*
X11136983Y-8053493D01*
X11117936Y-8063017D01*
X11203650Y-8177302D02*
X11184602Y-8186826D01*
X11136983Y-8186826D01*
X11117936Y-8177302D01*
X11108412Y-8158255D01*
X11108412Y-8139207D01*
X11117936Y-8120159D01*
X11136983Y-8110636D01*
X11184602Y-8110636D01*
X11203650Y-8101112D01*
X11270317Y-8053493D02*
X11346507Y-8053493D01*
X11298888Y-7986826D02*
X11298888Y-8158255D01*
X11308412Y-8177302D01*
X11327459Y-8186826D01*
X11346507Y-8186826D01*
X11489364Y-8177302D02*
X11470317Y-8186826D01*
X11432221Y-8186826D01*
X11413174Y-8177302D01*
X11403650Y-8158255D01*
X11403650Y-8082064D01*
X11413174Y-8063017D01*
X11432221Y-8053493D01*
X11470317Y-8053493D01*
X11489364Y-8063017D01*
X11498888Y-8082064D01*
X11498888Y-8101112D01*
X11403650Y-8120159D01*
X11670317Y-8186826D02*
X11670317Y-7986826D01*
X11670317Y-8177302D02*
X11651269Y-8186826D01*
X11613174Y-8186826D01*
X11594126Y-8177302D01*
X11584602Y-8167778D01*
X11575078Y-8148731D01*
X11575078Y-8091588D01*
X11584602Y-8072540D01*
X11594126Y-8063017D01*
X11613174Y-8053493D01*
X11651269Y-8053493D01*
X11670317Y-8063017D01*
X11746507Y-8263017D02*
X11756031Y-8253493D01*
X11775078Y-8224921D01*
X11784602Y-8205874D01*
X11794126Y-8177302D01*
X11803650Y-8129683D01*
X11803650Y-8091588D01*
X11794126Y-8043969D01*
X11784602Y-8015398D01*
X11775078Y-7996350D01*
X11756031Y-7967778D01*
X11746507Y-7958255D01*
D13*
X4993650Y-8360350D02*
G75*
G03*
X4993650Y-8360350I-75000J0D01*
G01*
D11*
X5356031Y-8450826D02*
X5241745Y-8450826D01*
X5298888Y-8450826D02*
X5298888Y-8250826D01*
X5279840Y-8279398D01*
X5260793Y-8298445D01*
X5241745Y-8307969D01*
X5441745Y-8431779D02*
X5451269Y-8441302D01*
X5441745Y-8450826D01*
X5432221Y-8441302D01*
X5441745Y-8431779D01*
X5441745Y-8450826D01*
X5632221Y-8250826D02*
X5536983Y-8250826D01*
X5527460Y-8346064D01*
X5536983Y-8336540D01*
X5556031Y-8327017D01*
X5603650Y-8327017D01*
X5622698Y-8336540D01*
X5632221Y-8346064D01*
X5641745Y-8365112D01*
X5641745Y-8412731D01*
X5632221Y-8431779D01*
X5622698Y-8441302D01*
X5603650Y-8450826D01*
X5556031Y-8450826D01*
X5536983Y-8441302D01*
X5527460Y-8431779D01*
X5765555Y-8250826D02*
X5784602Y-8250826D01*
X5803650Y-8260350D01*
X5813174Y-8269874D01*
X5822698Y-8288921D01*
X5832221Y-8327017D01*
X5832221Y-8374636D01*
X5822698Y-8412731D01*
X5813174Y-8431779D01*
X5803650Y-8441302D01*
X5784602Y-8450826D01*
X5765555Y-8450826D01*
X5746507Y-8441302D01*
X5736983Y-8431779D01*
X5727459Y-8412731D01*
X5717936Y-8374636D01*
X5717936Y-8327017D01*
X5727459Y-8288921D01*
X5736983Y-8269874D01*
X5746507Y-8260350D01*
X5765555Y-8250826D01*
X5956031Y-8250826D02*
X5975078Y-8250826D01*
X5994126Y-8260350D01*
X6003650Y-8269874D01*
X6013174Y-8288921D01*
X6022698Y-8327017D01*
X6022698Y-8374636D01*
X6013174Y-8412731D01*
X6003650Y-8431779D01*
X5994126Y-8441302D01*
X5975078Y-8450826D01*
X5956031Y-8450826D01*
X5936983Y-8441302D01*
X5927459Y-8431779D01*
X5917936Y-8412731D01*
X5908412Y-8374636D01*
X5908412Y-8327017D01*
X5917936Y-8288921D01*
X5927459Y-8269874D01*
X5936983Y-8260350D01*
X5956031Y-8250826D01*
X6108412Y-8450826D02*
X6108412Y-8317493D01*
X6108412Y-8336540D02*
X6117936Y-8327017D01*
X6136983Y-8317493D01*
X6165555Y-8317493D01*
X6184602Y-8327017D01*
X6194126Y-8346064D01*
X6194126Y-8450826D01*
X6194126Y-8346064D02*
X6203650Y-8327017D01*
X6222698Y-8317493D01*
X6251269Y-8317493D01*
X6270317Y-8327017D01*
X6279840Y-8346064D01*
X6279840Y-8450826D01*
X6375078Y-8450826D02*
X6375078Y-8317493D01*
X6375078Y-8336540D02*
X6384602Y-8327017D01*
X6403650Y-8317493D01*
X6432221Y-8317493D01*
X6451269Y-8327017D01*
X6460793Y-8346064D01*
X6460793Y-8450826D01*
X6460793Y-8346064D02*
X6470317Y-8327017D01*
X6489364Y-8317493D01*
X6517936Y-8317493D01*
X6536983Y-8327017D01*
X6546507Y-8346064D01*
X6546507Y-8450826D01*
X6936983Y-8241302D02*
X6765555Y-8498445D01*
X7194126Y-8250826D02*
X7213174Y-8250826D01*
X7232221Y-8260350D01*
X7241745Y-8269874D01*
X7251269Y-8288921D01*
X7260793Y-8327017D01*
X7260793Y-8374636D01*
X7251269Y-8412731D01*
X7241745Y-8431779D01*
X7232221Y-8441302D01*
X7213174Y-8450826D01*
X7194126Y-8450826D01*
X7175078Y-8441302D01*
X7165555Y-8431779D01*
X7156031Y-8412731D01*
X7146507Y-8374636D01*
X7146507Y-8327017D01*
X7156031Y-8288921D01*
X7165555Y-8269874D01*
X7175078Y-8260350D01*
X7194126Y-8250826D01*
X7346507Y-8431779D02*
X7356031Y-8441302D01*
X7346507Y-8450826D01*
X7336983Y-8441302D01*
X7346507Y-8431779D01*
X7346507Y-8450826D01*
X7479840Y-8250826D02*
X7498888Y-8250826D01*
X7517936Y-8260350D01*
X7527459Y-8269874D01*
X7536983Y-8288921D01*
X7546507Y-8327017D01*
X7546507Y-8374636D01*
X7536983Y-8412731D01*
X7527459Y-8431779D01*
X7517936Y-8441302D01*
X7498888Y-8450826D01*
X7479840Y-8450826D01*
X7460793Y-8441302D01*
X7451269Y-8431779D01*
X7441745Y-8412731D01*
X7432221Y-8374636D01*
X7432221Y-8327017D01*
X7441745Y-8288921D01*
X7451269Y-8269874D01*
X7460793Y-8260350D01*
X7479840Y-8250826D01*
X7727459Y-8250826D02*
X7632221Y-8250826D01*
X7622698Y-8346064D01*
X7632221Y-8336540D01*
X7651269Y-8327017D01*
X7698888Y-8327017D01*
X7717936Y-8336540D01*
X7727459Y-8346064D01*
X7736983Y-8365112D01*
X7736983Y-8412731D01*
X7727459Y-8431779D01*
X7717936Y-8441302D01*
X7698888Y-8450826D01*
X7651269Y-8450826D01*
X7632221Y-8441302D01*
X7622698Y-8431779D01*
X7832221Y-8450826D02*
X7870317Y-8450826D01*
X7889364Y-8441302D01*
X7898888Y-8431779D01*
X7917936Y-8403207D01*
X7927459Y-8365112D01*
X7927459Y-8288921D01*
X7917936Y-8269874D01*
X7908412Y-8260350D01*
X7889364Y-8250826D01*
X7851269Y-8250826D01*
X7832221Y-8260350D01*
X7822698Y-8269874D01*
X7813174Y-8288921D01*
X7813174Y-8336540D01*
X7822698Y-8355588D01*
X7832221Y-8365112D01*
X7851269Y-8374636D01*
X7889364Y-8374636D01*
X7908412Y-8365112D01*
X7917936Y-8355588D01*
X7927459Y-8336540D01*
X8117936Y-8450826D02*
X8003650Y-8450826D01*
X8060793Y-8450826D02*
X8060793Y-8250826D01*
X8041745Y-8279398D01*
X8022698Y-8298445D01*
X8003650Y-8307969D01*
X8194126Y-8250826D02*
X8194126Y-8288921D01*
X8270317Y-8250826D02*
X8270317Y-8288921D01*
X8565555Y-8527017D02*
X8556031Y-8517493D01*
X8536983Y-8488921D01*
X8527460Y-8469874D01*
X8517936Y-8441302D01*
X8508412Y-8393683D01*
X8508412Y-8355588D01*
X8517936Y-8307969D01*
X8527460Y-8279398D01*
X8536983Y-8260350D01*
X8556031Y-8231778D01*
X8565555Y-8222255D01*
X8632221Y-8269874D02*
X8641745Y-8260350D01*
X8660793Y-8250826D01*
X8708412Y-8250826D01*
X8727460Y-8260350D01*
X8736983Y-8269874D01*
X8746507Y-8288921D01*
X8746507Y-8307969D01*
X8736983Y-8336540D01*
X8622698Y-8450826D01*
X8746507Y-8450826D01*
X8984602Y-8450826D02*
X8984602Y-8250826D01*
X9070317Y-8450826D02*
X9070317Y-8346064D01*
X9060793Y-8327017D01*
X9041745Y-8317493D01*
X9013174Y-8317493D01*
X8994126Y-8327017D01*
X8984602Y-8336540D01*
X9194126Y-8450826D02*
X9175079Y-8441302D01*
X9165555Y-8431779D01*
X9156031Y-8412731D01*
X9156031Y-8355588D01*
X9165555Y-8336540D01*
X9175079Y-8327017D01*
X9194126Y-8317493D01*
X9222698Y-8317493D01*
X9241745Y-8327017D01*
X9251269Y-8336540D01*
X9260793Y-8355588D01*
X9260793Y-8412731D01*
X9251269Y-8431779D01*
X9241745Y-8441302D01*
X9222698Y-8450826D01*
X9194126Y-8450826D01*
X9375079Y-8450826D02*
X9356031Y-8441302D01*
X9346507Y-8422255D01*
X9346507Y-8250826D01*
X9527460Y-8441302D02*
X9508412Y-8450826D01*
X9470317Y-8450826D01*
X9451269Y-8441302D01*
X9441745Y-8422255D01*
X9441745Y-8346064D01*
X9451269Y-8327017D01*
X9470317Y-8317493D01*
X9508412Y-8317493D01*
X9527460Y-8327017D01*
X9536983Y-8346064D01*
X9536983Y-8365112D01*
X9441745Y-8384159D01*
X9613174Y-8441302D02*
X9632221Y-8450826D01*
X9670317Y-8450826D01*
X9689364Y-8441302D01*
X9698888Y-8422255D01*
X9698888Y-8412731D01*
X9689364Y-8393683D01*
X9670317Y-8384159D01*
X9641745Y-8384159D01*
X9622698Y-8374636D01*
X9613174Y-8355588D01*
X9613174Y-8346064D01*
X9622698Y-8327017D01*
X9641745Y-8317493D01*
X9670317Y-8317493D01*
X9689364Y-8327017D01*
X9765555Y-8527017D02*
X9775079Y-8517493D01*
X9794126Y-8488921D01*
X9803650Y-8469874D01*
X9813174Y-8441302D01*
X9822698Y-8393683D01*
X9822698Y-8355588D01*
X9813174Y-8307969D01*
X9803650Y-8279398D01*
X9794126Y-8260350D01*
X9775079Y-8231778D01*
X9765555Y-8222255D01*
X10127460Y-8527017D02*
X10117936Y-8517493D01*
X10098888Y-8488921D01*
X10089364Y-8469874D01*
X10079840Y-8441302D01*
X10070317Y-8393683D01*
X10070317Y-8355588D01*
X10079840Y-8307969D01*
X10089364Y-8279398D01*
X10098888Y-8260350D01*
X10117936Y-8231778D01*
X10127460Y-8222255D01*
X10203650Y-8317493D02*
X10203650Y-8450826D01*
X10203650Y-8336540D02*
X10213174Y-8327017D01*
X10232221Y-8317493D01*
X10260793Y-8317493D01*
X10279840Y-8327017D01*
X10289364Y-8346064D01*
X10289364Y-8450826D01*
X10413174Y-8450826D02*
X10394126Y-8441302D01*
X10384602Y-8431779D01*
X10375079Y-8412731D01*
X10375079Y-8355588D01*
X10384602Y-8336540D01*
X10394126Y-8327017D01*
X10413174Y-8317493D01*
X10441745Y-8317493D01*
X10460793Y-8327017D01*
X10470317Y-8336540D01*
X10479840Y-8355588D01*
X10479840Y-8412731D01*
X10470317Y-8431779D01*
X10460793Y-8441302D01*
X10441745Y-8450826D01*
X10413174Y-8450826D01*
X10536983Y-8317493D02*
X10613174Y-8317493D01*
X10565555Y-8250826D02*
X10565555Y-8422255D01*
X10575079Y-8441302D01*
X10594126Y-8450826D01*
X10613174Y-8450826D01*
X10832221Y-8317493D02*
X10832221Y-8517493D01*
X10832221Y-8327017D02*
X10851269Y-8317493D01*
X10889364Y-8317493D01*
X10908412Y-8327017D01*
X10917936Y-8336540D01*
X10927460Y-8355588D01*
X10927460Y-8412731D01*
X10917936Y-8431779D01*
X10908412Y-8441302D01*
X10889364Y-8450826D01*
X10851269Y-8450826D01*
X10832221Y-8441302D01*
X11041745Y-8450826D02*
X11022698Y-8441302D01*
X11013174Y-8422255D01*
X11013174Y-8250826D01*
X11203650Y-8450826D02*
X11203650Y-8346064D01*
X11194126Y-8327017D01*
X11175079Y-8317493D01*
X11136983Y-8317493D01*
X11117936Y-8327017D01*
X11203650Y-8441302D02*
X11184602Y-8450826D01*
X11136983Y-8450826D01*
X11117936Y-8441302D01*
X11108412Y-8422255D01*
X11108412Y-8403207D01*
X11117936Y-8384159D01*
X11136983Y-8374636D01*
X11184602Y-8374636D01*
X11203650Y-8365112D01*
X11270317Y-8317493D02*
X11346507Y-8317493D01*
X11298888Y-8250826D02*
X11298888Y-8422255D01*
X11308412Y-8441302D01*
X11327459Y-8450826D01*
X11346507Y-8450826D01*
X11489364Y-8441302D02*
X11470317Y-8450826D01*
X11432221Y-8450826D01*
X11413174Y-8441302D01*
X11403650Y-8422255D01*
X11403650Y-8346064D01*
X11413174Y-8327017D01*
X11432221Y-8317493D01*
X11470317Y-8317493D01*
X11489364Y-8327017D01*
X11498888Y-8346064D01*
X11498888Y-8365112D01*
X11403650Y-8384159D01*
X11670317Y-8450826D02*
X11670317Y-8250826D01*
X11670317Y-8441302D02*
X11651269Y-8450826D01*
X11613174Y-8450826D01*
X11594126Y-8441302D01*
X11584602Y-8431779D01*
X11575078Y-8412731D01*
X11575078Y-8355588D01*
X11584602Y-8336540D01*
X11594126Y-8327017D01*
X11613174Y-8317493D01*
X11651269Y-8317493D01*
X11670317Y-8327017D01*
X11746507Y-8527017D02*
X11756031Y-8517493D01*
X11775078Y-8488921D01*
X11784602Y-8469874D01*
X11794126Y-8441302D01*
X11803650Y-8393683D01*
X11803650Y-8355588D01*
X11794126Y-8307969D01*
X11784602Y-8279398D01*
X11775078Y-8260350D01*
X11756031Y-8231778D01*
X11746507Y-8222255D01*
M02*
