G04 #@! TF.GenerationSoftware,KiCad,Pcbnew,(6.0.5)*
G04 #@! TF.CreationDate,2022-07-09T20:46:05-07:00*
G04 #@! TF.ProjectId,interface,696e7465-7266-4616-9365-2e6b69636164,1*
G04 #@! TF.SameCoordinates,Original*
G04 #@! TF.FileFunction,Legend,Top*
G04 #@! TF.FilePolarity,Positive*
%FSLAX46Y46*%
G04 Gerber Fmt 4.6, Leading zero omitted, Abs format (unit mm)*
G04 Created by KiCad (PCBNEW (6.0.5)) date 2022-07-09 20:46:05*
%MOMM*%
%LPD*%
G01*
G04 APERTURE LIST*
G04 Aperture macros list*
%AMRoundRect*
0 Rectangle with rounded corners*
0 $1 Rounding radius*
0 $2 $3 $4 $5 $6 $7 $8 $9 X,Y pos of 4 corners*
0 Add a 4 corners polygon primitive as box body*
4,1,4,$2,$3,$4,$5,$6,$7,$8,$9,$2,$3,0*
0 Add four circle primitives for the rounded corners*
1,1,$1+$1,$2,$3*
1,1,$1+$1,$4,$5*
1,1,$1+$1,$6,$7*
1,1,$1+$1,$8,$9*
0 Add four rect primitives between the rounded corners*
20,1,$1+$1,$2,$3,$4,$5,0*
20,1,$1+$1,$4,$5,$6,$7,0*
20,1,$1+$1,$6,$7,$8,$9,0*
20,1,$1+$1,$8,$9,$2,$3,0*%
G04 Aperture macros list end*
%ADD10C,0.152400*%
%ADD11C,0.127000*%
%ADD12C,0.650000*%
%ADD13R,0.300000X1.150000*%
%ADD14O,1.000000X1.600000*%
%ADD15O,1.000000X2.100000*%
%ADD16RoundRect,0.200000X-0.275000X0.200000X-0.275000X-0.200000X0.275000X-0.200000X0.275000X0.200000X0*%
%ADD17C,1.500000*%
%ADD18R,2.500000X1.200000*%
%ADD19RoundRect,0.200000X0.275000X-0.200000X0.275000X0.200000X-0.275000X0.200000X-0.275000X-0.200000X0*%
%ADD20RoundRect,0.250000X-0.350000X-0.625000X0.350000X-0.625000X0.350000X0.625000X-0.350000X0.625000X0*%
%ADD21O,1.200000X1.750000*%
%ADD22RoundRect,0.200000X0.200000X0.275000X-0.200000X0.275000X-0.200000X-0.275000X0.200000X-0.275000X0*%
%ADD23C,0.700000*%
%ADD24C,4.400000*%
G04 APERTURE END LIST*
D10*
X51540964Y-64559619D02*
X51540964Y-63543619D01*
X51782869Y-63543619D01*
X51928012Y-63592000D01*
X52024774Y-63688761D01*
X52073155Y-63785523D01*
X52121536Y-63979047D01*
X52121536Y-64124190D01*
X52073155Y-64317714D01*
X52024774Y-64414476D01*
X51928012Y-64511238D01*
X51782869Y-64559619D01*
X51540964Y-64559619D01*
X52556964Y-64559619D02*
X52556964Y-63543619D01*
X52895631Y-64269333D01*
X53234298Y-63543619D01*
X53234298Y-64559619D01*
X54492202Y-64559619D02*
X54492202Y-63543619D01*
X54976012Y-63882285D02*
X54976012Y-64559619D01*
X54976012Y-63979047D02*
X55024393Y-63930666D01*
X55121155Y-63882285D01*
X55266298Y-63882285D01*
X55363060Y-63930666D01*
X55411440Y-64027428D01*
X55411440Y-64559619D01*
X55750107Y-63882285D02*
X56137155Y-63882285D01*
X55895250Y-63543619D02*
X55895250Y-64414476D01*
X55943631Y-64511238D01*
X56040393Y-64559619D01*
X56137155Y-64559619D01*
X56862869Y-64511238D02*
X56766107Y-64559619D01*
X56572583Y-64559619D01*
X56475821Y-64511238D01*
X56427440Y-64414476D01*
X56427440Y-64027428D01*
X56475821Y-63930666D01*
X56572583Y-63882285D01*
X56766107Y-63882285D01*
X56862869Y-63930666D01*
X56911250Y-64027428D01*
X56911250Y-64124190D01*
X56427440Y-64220952D01*
X57346679Y-64559619D02*
X57346679Y-63882285D01*
X57346679Y-64075809D02*
X57395060Y-63979047D01*
X57443440Y-63930666D01*
X57540202Y-63882285D01*
X57636964Y-63882285D01*
X57830488Y-63882285D02*
X58217536Y-63882285D01*
X57975631Y-64559619D02*
X57975631Y-63688761D01*
X58024012Y-63592000D01*
X58120774Y-63543619D01*
X58217536Y-63543619D01*
X58991631Y-64559619D02*
X58991631Y-64027428D01*
X58943250Y-63930666D01*
X58846488Y-63882285D01*
X58652964Y-63882285D01*
X58556202Y-63930666D01*
X58991631Y-64511238D02*
X58894869Y-64559619D01*
X58652964Y-64559619D01*
X58556202Y-64511238D01*
X58507821Y-64414476D01*
X58507821Y-64317714D01*
X58556202Y-64220952D01*
X58652964Y-64172571D01*
X58894869Y-64172571D01*
X58991631Y-64124190D01*
X59910869Y-64511238D02*
X59814107Y-64559619D01*
X59620583Y-64559619D01*
X59523821Y-64511238D01*
X59475440Y-64462857D01*
X59427060Y-64366095D01*
X59427060Y-64075809D01*
X59475440Y-63979047D01*
X59523821Y-63930666D01*
X59620583Y-63882285D01*
X59814107Y-63882285D01*
X59910869Y-63930666D01*
X60733345Y-64511238D02*
X60636583Y-64559619D01*
X60443060Y-64559619D01*
X60346298Y-64511238D01*
X60297917Y-64414476D01*
X60297917Y-64027428D01*
X60346298Y-63930666D01*
X60443060Y-63882285D01*
X60636583Y-63882285D01*
X60733345Y-63930666D01*
X60781726Y-64027428D01*
X60781726Y-64124190D01*
X60297917Y-64220952D01*
X54181028Y-65867695D02*
X53910095Y-65480647D01*
X53716571Y-65867695D02*
X53716571Y-65054895D01*
X54026209Y-65054895D01*
X54103619Y-65093600D01*
X54142323Y-65132304D01*
X54181028Y-65209714D01*
X54181028Y-65325828D01*
X54142323Y-65403238D01*
X54103619Y-65441942D01*
X54026209Y-65480647D01*
X53716571Y-65480647D01*
X54529371Y-65867695D02*
X54529371Y-65325828D01*
X54529371Y-65054895D02*
X54490666Y-65093600D01*
X54529371Y-65132304D01*
X54568076Y-65093600D01*
X54529371Y-65054895D01*
X54529371Y-65132304D01*
X54916419Y-65325828D02*
X54916419Y-66022514D01*
X54877714Y-66099923D01*
X54800304Y-66138628D01*
X54761600Y-66138628D01*
X54916419Y-65054895D02*
X54877714Y-65093600D01*
X54916419Y-65132304D01*
X54955123Y-65093600D01*
X54916419Y-65054895D01*
X54916419Y-65132304D01*
X55303466Y-65325828D02*
X55303466Y-65867695D01*
X55303466Y-65403238D02*
X55342171Y-65364533D01*
X55419580Y-65325828D01*
X55535695Y-65325828D01*
X55613104Y-65364533D01*
X55651809Y-65441942D01*
X55651809Y-65867695D01*
X57006476Y-65828990D02*
X56929066Y-65867695D01*
X56774247Y-65867695D01*
X56696838Y-65828990D01*
X56658133Y-65790285D01*
X56619428Y-65712876D01*
X56619428Y-65480647D01*
X56658133Y-65403238D01*
X56696838Y-65364533D01*
X56774247Y-65325828D01*
X56929066Y-65325828D01*
X57006476Y-65364533D01*
X57935390Y-65132304D02*
X57974095Y-65093600D01*
X58051504Y-65054895D01*
X58245028Y-65054895D01*
X58322438Y-65093600D01*
X58361142Y-65132304D01*
X58399847Y-65209714D01*
X58399847Y-65287123D01*
X58361142Y-65403238D01*
X57896685Y-65867695D01*
X58399847Y-65867695D01*
X58903009Y-65054895D02*
X58980419Y-65054895D01*
X59057828Y-65093600D01*
X59096533Y-65132304D01*
X59135238Y-65209714D01*
X59173942Y-65364533D01*
X59173942Y-65558057D01*
X59135238Y-65712876D01*
X59096533Y-65790285D01*
X59057828Y-65828990D01*
X58980419Y-65867695D01*
X58903009Y-65867695D01*
X58825600Y-65828990D01*
X58786895Y-65790285D01*
X58748190Y-65712876D01*
X58709485Y-65558057D01*
X58709485Y-65364533D01*
X58748190Y-65209714D01*
X58786895Y-65132304D01*
X58825600Y-65093600D01*
X58903009Y-65054895D01*
X59483580Y-65132304D02*
X59522285Y-65093600D01*
X59599695Y-65054895D01*
X59793219Y-65054895D01*
X59870628Y-65093600D01*
X59909333Y-65132304D01*
X59948038Y-65209714D01*
X59948038Y-65287123D01*
X59909333Y-65403238D01*
X59444876Y-65867695D01*
X59948038Y-65867695D01*
X60257676Y-65132304D02*
X60296380Y-65093600D01*
X60373790Y-65054895D01*
X60567314Y-65054895D01*
X60644723Y-65093600D01*
X60683428Y-65132304D01*
X60722133Y-65209714D01*
X60722133Y-65287123D01*
X60683428Y-65403238D01*
X60218971Y-65867695D01*
X60722133Y-65867695D01*
D11*
X68996800Y-51066171D02*
X68996800Y-51501600D01*
X68967771Y-51588685D01*
X68909714Y-51646742D01*
X68822628Y-51675771D01*
X68764571Y-51675771D01*
X69606400Y-51675771D02*
X69258057Y-51675771D01*
X69432228Y-51675771D02*
X69432228Y-51066171D01*
X69374171Y-51153257D01*
X69316114Y-51211314D01*
X69258057Y-51240342D01*
X64775771Y-62901600D02*
X64485485Y-63104800D01*
X64775771Y-63249942D02*
X64166171Y-63249942D01*
X64166171Y-63017714D01*
X64195200Y-62959657D01*
X64224228Y-62930628D01*
X64282285Y-62901600D01*
X64369371Y-62901600D01*
X64427428Y-62930628D01*
X64456457Y-62959657D01*
X64485485Y-63017714D01*
X64485485Y-63249942D01*
X64369371Y-62379085D02*
X64775771Y-62379085D01*
X64137142Y-62524228D02*
X64572571Y-62669371D01*
X64572571Y-62292000D01*
X57866171Y-52003200D02*
X58301600Y-52003200D01*
X58388685Y-52032228D01*
X58446742Y-52090285D01*
X58475771Y-52177371D01*
X58475771Y-52235428D01*
X57924228Y-51741942D02*
X57895200Y-51712914D01*
X57866171Y-51654857D01*
X57866171Y-51509714D01*
X57895200Y-51451657D01*
X57924228Y-51422628D01*
X57982285Y-51393600D01*
X58040342Y-51393600D01*
X58127428Y-51422628D01*
X58475771Y-51770971D01*
X58475771Y-51393600D01*
X64775771Y-58301600D02*
X64485485Y-58504800D01*
X64775771Y-58649942D02*
X64166171Y-58649942D01*
X64166171Y-58417714D01*
X64195200Y-58359657D01*
X64224228Y-58330628D01*
X64282285Y-58301600D01*
X64369371Y-58301600D01*
X64427428Y-58330628D01*
X64456457Y-58359657D01*
X64485485Y-58417714D01*
X64485485Y-58649942D01*
X64166171Y-58098400D02*
X64166171Y-57721028D01*
X64398400Y-57924228D01*
X64398400Y-57837142D01*
X64427428Y-57779085D01*
X64456457Y-57750057D01*
X64514514Y-57721028D01*
X64659657Y-57721028D01*
X64717714Y-57750057D01*
X64746742Y-57779085D01*
X64775771Y-57837142D01*
X64775771Y-58011314D01*
X64746742Y-58069371D01*
X64717714Y-58098400D01*
X62675771Y-58301600D02*
X62385485Y-58504800D01*
X62675771Y-58649942D02*
X62066171Y-58649942D01*
X62066171Y-58417714D01*
X62095200Y-58359657D01*
X62124228Y-58330628D01*
X62182285Y-58301600D01*
X62269371Y-58301600D01*
X62327428Y-58330628D01*
X62356457Y-58359657D01*
X62385485Y-58417714D01*
X62385485Y-58649942D01*
X62124228Y-58069371D02*
X62095200Y-58040342D01*
X62066171Y-57982285D01*
X62066171Y-57837142D01*
X62095200Y-57779085D01*
X62124228Y-57750057D01*
X62182285Y-57721028D01*
X62240342Y-57721028D01*
X62327428Y-57750057D01*
X62675771Y-58098400D01*
X62675771Y-57721028D01*
X62775771Y-62901600D02*
X62485485Y-63104800D01*
X62775771Y-63249942D02*
X62166171Y-63249942D01*
X62166171Y-63017714D01*
X62195200Y-62959657D01*
X62224228Y-62930628D01*
X62282285Y-62901600D01*
X62369371Y-62901600D01*
X62427428Y-62930628D01*
X62456457Y-62959657D01*
X62485485Y-63017714D01*
X62485485Y-63249942D01*
X62166171Y-62350057D02*
X62166171Y-62640342D01*
X62456457Y-62669371D01*
X62427428Y-62640342D01*
X62398400Y-62582285D01*
X62398400Y-62437142D01*
X62427428Y-62379085D01*
X62456457Y-62350057D01*
X62514514Y-62321028D01*
X62659657Y-62321028D01*
X62717714Y-62350057D01*
X62746742Y-62379085D01*
X62775771Y-62437142D01*
X62775771Y-62582285D01*
X62746742Y-62640342D01*
X62717714Y-62669371D01*
X67698400Y-59175771D02*
X67495200Y-58885485D01*
X67350057Y-59175771D02*
X67350057Y-58566171D01*
X67582285Y-58566171D01*
X67640342Y-58595200D01*
X67669371Y-58624228D01*
X67698400Y-58682285D01*
X67698400Y-58769371D01*
X67669371Y-58827428D01*
X67640342Y-58856457D01*
X67582285Y-58885485D01*
X67350057Y-58885485D01*
X68278971Y-59175771D02*
X67930628Y-59175771D01*
X68104800Y-59175771D02*
X68104800Y-58566171D01*
X68046742Y-58653257D01*
X67988685Y-58711314D01*
X67930628Y-58740342D01*
X71080000Y-54350000D02*
X71080000Y-52430000D01*
X61920000Y-52430000D02*
X61920000Y-54350000D01*
X61920000Y-50420000D02*
X61920000Y-48715000D01*
X61920000Y-48715000D02*
X71080000Y-48715000D01*
X71080000Y-48715000D02*
X71080000Y-50420000D01*
X63977500Y-64762742D02*
X63977500Y-65237258D01*
X65022500Y-64762742D02*
X65022500Y-65237258D01*
X59100000Y-61600000D02*
X60500000Y-61600000D01*
X59100000Y-57650000D02*
X59100000Y-60050000D01*
X58500000Y-50625000D02*
X58500000Y-48625000D01*
X58500000Y-48625000D02*
X53500000Y-48625000D01*
X59100000Y-61600000D02*
X59100000Y-62725000D01*
X59100000Y-54650000D02*
X59100000Y-56000000D01*
X59100000Y-60050000D02*
X60500000Y-60050000D01*
X52900000Y-61150000D02*
X52900000Y-50625000D01*
X59100000Y-50625000D02*
X59100000Y-53000000D01*
X53500000Y-50625000D02*
X53500000Y-48625000D01*
X53500000Y-50625000D02*
X52900000Y-50625000D01*
X52900000Y-62725000D02*
X59100000Y-62725000D01*
X59100000Y-50625000D02*
X58500000Y-50625000D01*
G36*
X61634208Y-66556508D02*
G01*
X64565792Y-66556508D01*
X64565792Y-68243492D01*
X61634208Y-68243492D01*
X61634208Y-67536525D01*
X61964937Y-67536525D01*
X61968906Y-67618281D01*
X61980812Y-67692100D01*
X62002244Y-67756791D01*
X62034787Y-67811162D01*
X62137181Y-67886569D01*
X62209214Y-67906214D01*
X62296725Y-67912762D01*
X62385625Y-67906214D01*
X62458650Y-67886569D01*
X62517387Y-67854620D01*
X62534835Y-67838150D01*
X62760275Y-67838150D01*
X62869812Y-67886569D01*
X62955141Y-67906214D01*
X63065075Y-67912762D01*
X63176465Y-67904384D01*
X63267217Y-67879249D01*
X63272236Y-67876250D01*
X63576250Y-67876250D01*
X63644909Y-67888752D01*
X63714363Y-67897681D01*
X63783022Y-67903039D01*
X63849300Y-67904825D01*
X63927683Y-67901055D01*
X64000906Y-67889744D01*
X64066788Y-67869503D01*
X64123144Y-67838944D01*
X64204900Y-67743694D01*
X64227522Y-67676820D01*
X64235063Y-67595262D01*
X64226133Y-67528587D01*
X64199344Y-67465087D01*
X64147552Y-67409525D01*
X64063613Y-67366662D01*
X64154894Y-67280937D01*
X64180492Y-67222994D01*
X64189025Y-67157112D01*
X64174738Y-67065037D01*
X64120763Y-66981694D01*
X64011225Y-66921369D01*
X63931056Y-66904105D01*
X63830250Y-66898350D01*
X63698487Y-66905494D01*
X63576250Y-66922162D01*
X63576250Y-67876250D01*
X63272236Y-67876250D01*
X63337331Y-67837356D01*
X63404602Y-67746273D01*
X63427025Y-67623837D01*
X63420278Y-67549820D01*
X63400037Y-67489694D01*
X63330981Y-67400794D01*
X63238906Y-67343644D01*
X63142862Y-67304750D01*
X63081744Y-67280937D01*
X63026181Y-67251569D01*
X62985700Y-67213469D01*
X62969825Y-67163462D01*
X62987111Y-67100844D01*
X63038969Y-67063274D01*
X63125400Y-67050750D01*
X63237319Y-67066625D01*
X63325425Y-67104725D01*
X63382575Y-66953912D01*
X63269069Y-66907875D01*
X63195845Y-66892397D01*
X63111112Y-66887237D01*
X63013834Y-66895881D01*
X62931549Y-66921810D01*
X62864256Y-66965025D01*
X62796986Y-67057894D01*
X62774562Y-67180925D01*
X62799963Y-67297606D01*
X62864256Y-67376187D01*
X62950775Y-67428575D01*
X63042850Y-67465087D01*
X63109525Y-67492869D01*
X63169850Y-67526206D01*
X63214300Y-67568275D01*
X63231763Y-67622250D01*
X63224619Y-67669081D01*
X63198425Y-67710356D01*
X63146831Y-67738931D01*
X63065075Y-67749250D01*
X62985898Y-67743694D01*
X62919819Y-67727025D01*
X62817425Y-67679400D01*
X62760275Y-67838150D01*
X62534835Y-67838150D01*
X62563425Y-67811162D01*
X62597159Y-67756791D01*
X62618987Y-67692100D01*
X62630894Y-67618281D01*
X62634862Y-67536525D01*
X62634862Y-66909462D01*
X62439600Y-66909462D01*
X62439600Y-67522237D01*
X62433250Y-67626219D01*
X62411025Y-67694481D01*
X62368162Y-67731787D01*
X62299900Y-67742900D01*
X62231637Y-67731787D01*
X62189569Y-67695275D01*
X62168137Y-67627806D01*
X62161787Y-67523825D01*
X62161787Y-66909462D01*
X61964937Y-66909462D01*
X61964937Y-67536525D01*
X61634208Y-67536525D01*
X61634208Y-66556508D01*
G37*
G36*
X63912800Y-67072181D02*
G01*
X63957250Y-67088056D01*
X63987413Y-67121394D01*
X63998525Y-67177750D01*
X63960425Y-67267444D01*
X63847712Y-67299987D01*
X63771513Y-67299987D01*
X63771513Y-67074562D01*
X63814375Y-67069800D01*
X63860412Y-67068212D01*
X63912800Y-67072181D01*
G37*
G36*
X63997731Y-67492869D02*
G01*
X64042975Y-67595262D01*
X64027100Y-67665906D01*
X63986619Y-67708769D01*
X63930263Y-67729406D01*
X63865175Y-67734962D01*
X63816756Y-67733375D01*
X63771513Y-67728612D01*
X63771513Y-67461912D01*
X63876288Y-67461912D01*
X63997731Y-67492869D01*
G37*
G36*
X50641352Y-66577940D02*
G01*
X53558648Y-66577940D01*
X53558648Y-68222060D01*
X50641352Y-68222060D01*
X50641352Y-67891331D01*
X50972081Y-67891331D01*
X51595969Y-67891331D01*
X51753131Y-67891331D01*
X51929344Y-67891331D01*
X51929344Y-67238869D01*
X51988346Y-67347789D01*
X52044702Y-67456533D01*
X52098412Y-67565100D01*
X52149477Y-67673667D01*
X52197896Y-67782411D01*
X52243669Y-67891331D01*
X52400831Y-67891331D01*
X52400831Y-67070594D01*
X52513544Y-67070594D01*
X52772306Y-67070594D01*
X52772306Y-67891331D01*
X52969156Y-67891331D01*
X52969156Y-67070594D01*
X53227919Y-67070594D01*
X53227919Y-66908669D01*
X52513544Y-66908669D01*
X52513544Y-67070594D01*
X52400831Y-67070594D01*
X52400831Y-66908669D01*
X52224619Y-66908669D01*
X52224619Y-67513506D01*
X52196639Y-67451594D01*
X52163500Y-67380156D01*
X52126194Y-67302766D01*
X52085713Y-67222994D01*
X52043048Y-67141833D01*
X51999194Y-67060275D01*
X51954744Y-66981495D01*
X51910294Y-66908669D01*
X51753131Y-66908669D01*
X51753131Y-67891331D01*
X51595969Y-67891331D01*
X51595969Y-67729406D01*
X51383244Y-67729406D01*
X51383244Y-67070594D01*
X51595969Y-67070594D01*
X51595969Y-66908669D01*
X50972081Y-66908669D01*
X50972081Y-67070594D01*
X51186394Y-67070594D01*
X51186394Y-67729406D01*
X50972081Y-67729406D01*
X50972081Y-67891331D01*
X50641352Y-67891331D01*
X50641352Y-66577940D01*
G37*
X65022500Y-60637258D02*
X65022500Y-60162742D01*
X63977500Y-60637258D02*
X63977500Y-60162742D01*
X63022500Y-60637258D02*
X63022500Y-60162742D01*
X61977500Y-60637258D02*
X61977500Y-60162742D01*
X61977500Y-64762742D02*
X61977500Y-65237258D01*
X63022500Y-64762742D02*
X63022500Y-65237258D01*
X66900000Y-72750000D02*
X66900000Y-72250000D01*
X68900000Y-72250000D02*
X69100000Y-72250000D01*
X61640000Y-68340000D02*
X61640000Y-69590000D01*
X61940000Y-68640000D02*
X61940000Y-73360000D01*
X67000000Y-72750000D02*
X67000000Y-72250000D01*
X72060000Y-69950000D02*
X71450000Y-69950000D01*
X64500000Y-69250000D02*
X62550000Y-69250000D01*
X69000000Y-72750000D02*
X69000000Y-72250000D01*
X65000000Y-72750000D02*
X65000000Y-72250000D01*
X68900000Y-72750000D02*
X68900000Y-72250000D01*
X67100000Y-72250000D02*
X67100000Y-72750000D01*
X63700000Y-68640000D02*
X63700000Y-68440000D01*
X64900000Y-72750000D02*
X64900000Y-72250000D01*
X72060000Y-71250000D02*
X71450000Y-71250000D01*
X71450000Y-72750000D02*
X71450000Y-69250000D01*
X65100000Y-72250000D02*
X65100000Y-72750000D01*
X64900000Y-72250000D02*
X65100000Y-72250000D01*
X61940000Y-69950000D02*
X62550000Y-69950000D01*
X72060000Y-73360000D02*
X72060000Y-68640000D01*
X72060000Y-68640000D02*
X61940000Y-68640000D01*
X62550000Y-69250000D02*
X62550000Y-72750000D01*
X62890000Y-68340000D02*
X61640000Y-68340000D01*
X63700000Y-68440000D02*
X63400000Y-68440000D01*
X61940000Y-71250000D02*
X62550000Y-71250000D01*
X61940000Y-73360000D02*
X72060000Y-73360000D01*
X63700000Y-68540000D02*
X63400000Y-68540000D01*
X62550000Y-72750000D02*
X71450000Y-72750000D01*
X69100000Y-72250000D02*
X69100000Y-72750000D01*
X66900000Y-72250000D02*
X67100000Y-72250000D01*
X69500000Y-69250000D02*
X69500000Y-68640000D01*
X63400000Y-68440000D02*
X63400000Y-68640000D01*
X64500000Y-68640000D02*
X64500000Y-69250000D01*
X71450000Y-69250000D02*
X69500000Y-69250000D01*
X70237258Y-58277500D02*
X69762742Y-58277500D01*
X70237258Y-59322500D02*
X69762742Y-59322500D01*
X54100000Y-72250000D02*
X54100000Y-72750000D01*
X52700000Y-68440000D02*
X52400000Y-68440000D01*
X58500000Y-69250000D02*
X58500000Y-68640000D01*
X51550000Y-69250000D02*
X51550000Y-72750000D01*
X51550000Y-72750000D02*
X60450000Y-72750000D01*
X56000000Y-72750000D02*
X56000000Y-72250000D01*
X58100000Y-72250000D02*
X58100000Y-72750000D01*
X58000000Y-72750000D02*
X58000000Y-72250000D01*
X52700000Y-68540000D02*
X52400000Y-68540000D01*
X60450000Y-69250000D02*
X58500000Y-69250000D01*
X50640000Y-68340000D02*
X50640000Y-69590000D01*
X57900000Y-72250000D02*
X58100000Y-72250000D01*
X53500000Y-68640000D02*
X53500000Y-69250000D01*
X56100000Y-72250000D02*
X56100000Y-72750000D01*
X50940000Y-69950000D02*
X51550000Y-69950000D01*
X52400000Y-68440000D02*
X52400000Y-68640000D01*
X61060000Y-69950000D02*
X60450000Y-69950000D01*
X53500000Y-69250000D02*
X51550000Y-69250000D01*
X50940000Y-73360000D02*
X61060000Y-73360000D01*
X52700000Y-68640000D02*
X52700000Y-68440000D01*
X53900000Y-72250000D02*
X54100000Y-72250000D01*
X61060000Y-68640000D02*
X50940000Y-68640000D01*
X61060000Y-73360000D02*
X61060000Y-68640000D01*
X54000000Y-72750000D02*
X54000000Y-72250000D01*
X57900000Y-72750000D02*
X57900000Y-72250000D01*
X61060000Y-71250000D02*
X60450000Y-71250000D01*
X53900000Y-72750000D02*
X53900000Y-72250000D01*
X60450000Y-72750000D02*
X60450000Y-69250000D01*
X51890000Y-68340000D02*
X50640000Y-68340000D01*
X55900000Y-72250000D02*
X56100000Y-72250000D01*
X50940000Y-71250000D02*
X51550000Y-71250000D01*
X50940000Y-68640000D02*
X50940000Y-73360000D01*
X55900000Y-72750000D02*
X55900000Y-72250000D01*
%LPC*%
D12*
X69390000Y-55105000D03*
X63610000Y-55105000D03*
D13*
X69850000Y-56170000D03*
X69050000Y-56170000D03*
X67750000Y-56170000D03*
X66750000Y-56170000D03*
X66250000Y-56170000D03*
X65250000Y-56170000D03*
X63950000Y-56170000D03*
X63150000Y-56170000D03*
X63450000Y-56170000D03*
X64250000Y-56170000D03*
X64750000Y-56170000D03*
X65750000Y-56170000D03*
X67250000Y-56170000D03*
X68250000Y-56170000D03*
X68750000Y-56170000D03*
X69550000Y-56170000D03*
D14*
X70820000Y-51425000D03*
D15*
X62180000Y-55605000D03*
X70820000Y-55605000D03*
D14*
X62180000Y-51425000D03*
D16*
X64500000Y-64175000D03*
X64500000Y-65825000D03*
D17*
X56000000Y-52225000D03*
X56000000Y-59225000D03*
D18*
X59250000Y-56825000D03*
X59250000Y-53825000D03*
X52750000Y-61925000D03*
X59250000Y-60825000D03*
D19*
X64500000Y-61225000D03*
X64500000Y-59575000D03*
X62500000Y-61225000D03*
X62500000Y-59575000D03*
D16*
X62500000Y-64175000D03*
X62500000Y-65825000D03*
D20*
X64000000Y-70450000D03*
D21*
X66000000Y-70450000D03*
X68000000Y-70450000D03*
X70000000Y-70450000D03*
D22*
X70825000Y-58800000D03*
X69175000Y-58800000D03*
D20*
X53000000Y-70450000D03*
D21*
X55000000Y-70450000D03*
X57000000Y-70450000D03*
X59000000Y-70450000D03*
D23*
X70650000Y-64000000D03*
X67350000Y-64000000D03*
X67833274Y-65166726D03*
X69000000Y-62350000D03*
X67833274Y-62833274D03*
X69000000Y-65650000D03*
D24*
X69000000Y-64000000D03*
D23*
X70166726Y-62833274D03*
X70166726Y-65166726D03*
M02*
