G04 #@! TF.GenerationSoftware,KiCad,Pcbnew,(6.0.5)*
G04 #@! TF.CreationDate,2022-07-09T20:46:05-07:00*
G04 #@! TF.ProjectId,interface,696e7465-7266-4616-9365-2e6b69636164,1*
G04 #@! TF.SameCoordinates,Original*
G04 #@! TF.FileFunction,Copper,L4,Bot*
G04 #@! TF.FilePolarity,Positive*
%FSLAX46Y46*%
G04 Gerber Fmt 4.6, Leading zero omitted, Abs format (unit mm)*
G04 Created by KiCad (PCBNEW (6.0.5)) date 2022-07-09 20:46:05*
%MOMM*%
%LPD*%
G01*
G04 APERTURE LIST*
G04 Aperture macros list*
%AMRoundRect*
0 Rectangle with rounded corners*
0 $1 Rounding radius*
0 $2 $3 $4 $5 $6 $7 $8 $9 X,Y pos of 4 corners*
0 Add a 4 corners polygon primitive as box body*
4,1,4,$2,$3,$4,$5,$6,$7,$8,$9,$2,$3,0*
0 Add four circle primitives for the rounded corners*
1,1,$1+$1,$2,$3*
1,1,$1+$1,$4,$5*
1,1,$1+$1,$6,$7*
1,1,$1+$1,$8,$9*
0 Add four rect primitives between the rounded corners*
20,1,$1+$1,$2,$3,$4,$5,0*
20,1,$1+$1,$4,$5,$6,$7,0*
20,1,$1+$1,$6,$7,$8,$9,0*
20,1,$1+$1,$8,$9,$2,$3,0*%
G04 Aperture macros list end*
G04 #@! TA.AperFunction,ComponentPad*
%ADD10O,1.000000X1.600000*%
G04 #@! TD*
G04 #@! TA.AperFunction,ComponentPad*
%ADD11O,1.000000X2.100000*%
G04 #@! TD*
G04 #@! TA.AperFunction,ComponentPad*
%ADD12RoundRect,0.250000X-0.350000X-0.625000X0.350000X-0.625000X0.350000X0.625000X-0.350000X0.625000X0*%
G04 #@! TD*
G04 #@! TA.AperFunction,ComponentPad*
%ADD13O,1.200000X1.750000*%
G04 #@! TD*
G04 #@! TA.AperFunction,ComponentPad*
%ADD14C,0.700000*%
G04 #@! TD*
G04 #@! TA.AperFunction,ComponentPad*
%ADD15C,4.400000*%
G04 #@! TD*
G04 #@! TA.AperFunction,ViaPad*
%ADD16C,0.600000*%
G04 #@! TD*
G04 #@! TA.AperFunction,Conductor*
%ADD17C,0.200000*%
G04 #@! TD*
G04 APERTURE END LIST*
D10*
X70820000Y-51425000D03*
D11*
X62180000Y-55605000D03*
X70820000Y-55605000D03*
D10*
X62180000Y-51425000D03*
D12*
X64000000Y-70450000D03*
D13*
X66000000Y-70450000D03*
X68000000Y-70450000D03*
X70000000Y-70450000D03*
D12*
X53000000Y-70450000D03*
D13*
X55000000Y-70450000D03*
X57000000Y-70450000D03*
X59000000Y-70450000D03*
D14*
X70650000Y-64000000D03*
X67350000Y-64000000D03*
X67833274Y-65166726D03*
X69000000Y-62350000D03*
X67833274Y-62833274D03*
X69000000Y-65650000D03*
D15*
X69000000Y-64000000D03*
D14*
X70166726Y-62833274D03*
X70166726Y-65166726D03*
D16*
X52600000Y-52200000D03*
X65300000Y-58500000D03*
X64400000Y-53100000D03*
X63200000Y-56500000D03*
X52600000Y-64100000D03*
X60300000Y-64100000D03*
X52600000Y-58900000D03*
X62700000Y-68800000D03*
X62300000Y-62400000D03*
X56000000Y-64100000D03*
X68300000Y-53100000D03*
X69600000Y-57500000D03*
X59200000Y-58900000D03*
X68000000Y-57500000D03*
X65000000Y-57500000D03*
D17*
X65000000Y-57500000D02*
X68000000Y-57500000D01*
G04 #@! TA.AperFunction,Conductor*
G36*
X72980694Y-50019306D02*
G01*
X72999000Y-50063500D01*
X72999000Y-74436500D01*
X72980694Y-74480694D01*
X72936500Y-74499000D01*
X50063500Y-74499000D01*
X50019306Y-74480694D01*
X50001000Y-74436500D01*
X50001000Y-71121018D01*
X52146001Y-71121018D01*
X52146183Y-71124388D01*
X52152272Y-71180443D01*
X52154071Y-71188012D01*
X52201808Y-71315351D01*
X52206043Y-71323086D01*
X52287285Y-71431487D01*
X52293513Y-71437715D01*
X52401914Y-71518957D01*
X52409649Y-71523192D01*
X52536992Y-71570930D01*
X52544556Y-71572728D01*
X52600608Y-71578817D01*
X52603976Y-71579000D01*
X52860569Y-71579000D01*
X52869359Y-71575359D01*
X52873000Y-71566569D01*
X52873000Y-71566568D01*
X53127000Y-71566568D01*
X53130641Y-71575358D01*
X53139431Y-71578999D01*
X53396018Y-71578999D01*
X53399388Y-71578817D01*
X53455443Y-71572728D01*
X53463012Y-71570929D01*
X53590351Y-71523192D01*
X53598086Y-71518957D01*
X53706487Y-71437715D01*
X53712715Y-71431487D01*
X53793957Y-71323086D01*
X53798192Y-71315351D01*
X53845930Y-71188008D01*
X53847728Y-71180444D01*
X53853817Y-71124392D01*
X53854000Y-71121024D01*
X53854000Y-70767483D01*
X54272500Y-70767483D01*
X54287192Y-70893501D01*
X54345074Y-71052962D01*
X54347065Y-71055998D01*
X54347065Y-71055999D01*
X54433617Y-71188012D01*
X54438088Y-71194832D01*
X54561243Y-71311498D01*
X54707935Y-71396703D01*
X54870294Y-71445877D01*
X55039610Y-71456381D01*
X55206802Y-71427652D01*
X55362900Y-71361232D01*
X55499532Y-71260682D01*
X55609367Y-71131397D01*
X55686515Y-70980313D01*
X55726837Y-70815532D01*
X55727500Y-70804844D01*
X55727500Y-70767483D01*
X56272500Y-70767483D01*
X56287192Y-70893501D01*
X56345074Y-71052962D01*
X56347065Y-71055998D01*
X56347065Y-71055999D01*
X56433617Y-71188012D01*
X56438088Y-71194832D01*
X56561243Y-71311498D01*
X56707935Y-71396703D01*
X56870294Y-71445877D01*
X57039610Y-71456381D01*
X57206802Y-71427652D01*
X57362900Y-71361232D01*
X57499532Y-71260682D01*
X57609367Y-71131397D01*
X57686515Y-70980313D01*
X57726837Y-70815532D01*
X57727500Y-70804844D01*
X57727500Y-70767483D01*
X58272500Y-70767483D01*
X58287192Y-70893501D01*
X58345074Y-71052962D01*
X58347065Y-71055998D01*
X58347065Y-71055999D01*
X58433617Y-71188012D01*
X58438088Y-71194832D01*
X58561243Y-71311498D01*
X58707935Y-71396703D01*
X58870294Y-71445877D01*
X59039610Y-71456381D01*
X59206802Y-71427652D01*
X59362900Y-71361232D01*
X59499532Y-71260682D01*
X59609367Y-71131397D01*
X59614667Y-71121018D01*
X63146001Y-71121018D01*
X63146183Y-71124388D01*
X63152272Y-71180443D01*
X63154071Y-71188012D01*
X63201808Y-71315351D01*
X63206043Y-71323086D01*
X63287285Y-71431487D01*
X63293513Y-71437715D01*
X63401914Y-71518957D01*
X63409649Y-71523192D01*
X63536992Y-71570930D01*
X63544556Y-71572728D01*
X63600608Y-71578817D01*
X63603976Y-71579000D01*
X63860569Y-71579000D01*
X63869359Y-71575359D01*
X63873000Y-71566569D01*
X63873000Y-71566568D01*
X64127000Y-71566568D01*
X64130641Y-71575358D01*
X64139431Y-71578999D01*
X64396018Y-71578999D01*
X64399388Y-71578817D01*
X64455443Y-71572728D01*
X64463012Y-71570929D01*
X64590351Y-71523192D01*
X64598086Y-71518957D01*
X64706487Y-71437715D01*
X64712715Y-71431487D01*
X64793957Y-71323086D01*
X64798192Y-71315351D01*
X64845930Y-71188008D01*
X64847728Y-71180444D01*
X64853817Y-71124392D01*
X64854000Y-71121024D01*
X64854000Y-70767483D01*
X65272500Y-70767483D01*
X65287192Y-70893501D01*
X65345074Y-71052962D01*
X65347065Y-71055998D01*
X65347065Y-71055999D01*
X65433617Y-71188012D01*
X65438088Y-71194832D01*
X65561243Y-71311498D01*
X65707935Y-71396703D01*
X65870294Y-71445877D01*
X66039610Y-71456381D01*
X66206802Y-71427652D01*
X66362900Y-71361232D01*
X66499532Y-71260682D01*
X66609367Y-71131397D01*
X66686515Y-70980313D01*
X66726837Y-70815532D01*
X66727500Y-70804844D01*
X66727500Y-70767483D01*
X67272500Y-70767483D01*
X67287192Y-70893501D01*
X67345074Y-71052962D01*
X67347065Y-71055998D01*
X67347065Y-71055999D01*
X67433617Y-71188012D01*
X67438088Y-71194832D01*
X67561243Y-71311498D01*
X67707935Y-71396703D01*
X67870294Y-71445877D01*
X68039610Y-71456381D01*
X68206802Y-71427652D01*
X68362900Y-71361232D01*
X68499532Y-71260682D01*
X68609367Y-71131397D01*
X68686515Y-70980313D01*
X68726837Y-70815532D01*
X68727500Y-70804844D01*
X68727500Y-70767483D01*
X69272500Y-70767483D01*
X69287192Y-70893501D01*
X69345074Y-71052962D01*
X69347065Y-71055998D01*
X69347065Y-71055999D01*
X69433617Y-71188012D01*
X69438088Y-71194832D01*
X69561243Y-71311498D01*
X69707935Y-71396703D01*
X69870294Y-71445877D01*
X70039610Y-71456381D01*
X70206802Y-71427652D01*
X70362900Y-71361232D01*
X70499532Y-71260682D01*
X70609367Y-71131397D01*
X70686515Y-70980313D01*
X70726837Y-70815532D01*
X70727500Y-70804844D01*
X70727500Y-70132517D01*
X70712808Y-70006499D01*
X70654926Y-69847038D01*
X70608097Y-69775612D01*
X70563902Y-69708203D01*
X70563901Y-69708202D01*
X70561912Y-69705168D01*
X70438757Y-69588502D01*
X70292065Y-69503297D01*
X70129706Y-69454123D01*
X69960390Y-69443619D01*
X69793198Y-69472348D01*
X69637100Y-69538768D01*
X69500468Y-69639318D01*
X69390633Y-69768603D01*
X69313485Y-69919687D01*
X69273163Y-70084468D01*
X69272500Y-70095156D01*
X69272500Y-70767483D01*
X68727500Y-70767483D01*
X68727500Y-70132517D01*
X68712808Y-70006499D01*
X68654926Y-69847038D01*
X68608097Y-69775612D01*
X68563902Y-69708203D01*
X68563901Y-69708202D01*
X68561912Y-69705168D01*
X68438757Y-69588502D01*
X68292065Y-69503297D01*
X68129706Y-69454123D01*
X67960390Y-69443619D01*
X67793198Y-69472348D01*
X67637100Y-69538768D01*
X67500468Y-69639318D01*
X67390633Y-69768603D01*
X67313485Y-69919687D01*
X67273163Y-70084468D01*
X67272500Y-70095156D01*
X67272500Y-70767483D01*
X66727500Y-70767483D01*
X66727500Y-70132517D01*
X66712808Y-70006499D01*
X66654926Y-69847038D01*
X66608097Y-69775612D01*
X66563902Y-69708203D01*
X66563901Y-69708202D01*
X66561912Y-69705168D01*
X66438757Y-69588502D01*
X66292065Y-69503297D01*
X66129706Y-69454123D01*
X65960390Y-69443619D01*
X65793198Y-69472348D01*
X65637100Y-69538768D01*
X65500468Y-69639318D01*
X65390633Y-69768603D01*
X65313485Y-69919687D01*
X65273163Y-70084468D01*
X65272500Y-70095156D01*
X65272500Y-70767483D01*
X64854000Y-70767483D01*
X64854000Y-70589431D01*
X64850359Y-70580641D01*
X64841569Y-70577000D01*
X64139431Y-70577000D01*
X64130641Y-70580641D01*
X64127000Y-70589431D01*
X64127000Y-71566568D01*
X63873000Y-71566568D01*
X63873000Y-70589431D01*
X63869359Y-70580641D01*
X63860569Y-70577000D01*
X63158432Y-70577000D01*
X63149642Y-70580641D01*
X63146001Y-70589431D01*
X63146001Y-71121018D01*
X59614667Y-71121018D01*
X59686515Y-70980313D01*
X59726837Y-70815532D01*
X59727500Y-70804844D01*
X59727500Y-70310569D01*
X63146000Y-70310569D01*
X63149641Y-70319359D01*
X63158431Y-70323000D01*
X63860569Y-70323000D01*
X63869359Y-70319359D01*
X63873000Y-70310569D01*
X64127000Y-70310569D01*
X64130641Y-70319359D01*
X64139431Y-70323000D01*
X64841568Y-70323000D01*
X64850358Y-70319359D01*
X64853999Y-70310569D01*
X64853999Y-69778982D01*
X64853817Y-69775612D01*
X64847728Y-69719557D01*
X64845929Y-69711988D01*
X64798192Y-69584649D01*
X64793957Y-69576914D01*
X64712715Y-69468513D01*
X64706487Y-69462285D01*
X64598086Y-69381043D01*
X64590351Y-69376808D01*
X64463008Y-69329070D01*
X64455444Y-69327272D01*
X64399392Y-69321183D01*
X64396024Y-69321000D01*
X64139431Y-69321000D01*
X64130641Y-69324641D01*
X64127000Y-69333431D01*
X64127000Y-70310569D01*
X63873000Y-70310569D01*
X63873000Y-69333432D01*
X63869359Y-69324642D01*
X63860569Y-69321001D01*
X63603982Y-69321001D01*
X63600612Y-69321183D01*
X63544557Y-69327272D01*
X63536988Y-69329071D01*
X63409649Y-69376808D01*
X63401914Y-69381043D01*
X63293513Y-69462285D01*
X63287285Y-69468513D01*
X63206043Y-69576914D01*
X63201808Y-69584649D01*
X63154070Y-69711992D01*
X63152272Y-69719556D01*
X63146183Y-69775608D01*
X63146000Y-69778976D01*
X63146000Y-70310569D01*
X59727500Y-70310569D01*
X59727500Y-70132517D01*
X59712808Y-70006499D01*
X59654926Y-69847038D01*
X59608097Y-69775612D01*
X59563902Y-69708203D01*
X59563901Y-69708202D01*
X59561912Y-69705168D01*
X59438757Y-69588502D01*
X59292065Y-69503297D01*
X59129706Y-69454123D01*
X58960390Y-69443619D01*
X58793198Y-69472348D01*
X58637100Y-69538768D01*
X58500468Y-69639318D01*
X58390633Y-69768603D01*
X58313485Y-69919687D01*
X58273163Y-70084468D01*
X58272500Y-70095156D01*
X58272500Y-70767483D01*
X57727500Y-70767483D01*
X57727500Y-70132517D01*
X57712808Y-70006499D01*
X57654926Y-69847038D01*
X57608097Y-69775612D01*
X57563902Y-69708203D01*
X57563901Y-69708202D01*
X57561912Y-69705168D01*
X57438757Y-69588502D01*
X57292065Y-69503297D01*
X57129706Y-69454123D01*
X56960390Y-69443619D01*
X56793198Y-69472348D01*
X56637100Y-69538768D01*
X56500468Y-69639318D01*
X56390633Y-69768603D01*
X56313485Y-69919687D01*
X56273163Y-70084468D01*
X56272500Y-70095156D01*
X56272500Y-70767483D01*
X55727500Y-70767483D01*
X55727500Y-70132517D01*
X55712808Y-70006499D01*
X55654926Y-69847038D01*
X55608097Y-69775612D01*
X55563902Y-69708203D01*
X55563901Y-69708202D01*
X55561912Y-69705168D01*
X55438757Y-69588502D01*
X55292065Y-69503297D01*
X55129706Y-69454123D01*
X54960390Y-69443619D01*
X54793198Y-69472348D01*
X54637100Y-69538768D01*
X54500468Y-69639318D01*
X54390633Y-69768603D01*
X54313485Y-69919687D01*
X54273163Y-70084468D01*
X54272500Y-70095156D01*
X54272500Y-70767483D01*
X53854000Y-70767483D01*
X53854000Y-70589431D01*
X53850359Y-70580641D01*
X53841569Y-70577000D01*
X53139431Y-70577000D01*
X53130641Y-70580641D01*
X53127000Y-70589431D01*
X53127000Y-71566568D01*
X52873000Y-71566568D01*
X52873000Y-70589431D01*
X52869359Y-70580641D01*
X52860569Y-70577000D01*
X52158432Y-70577000D01*
X52149642Y-70580641D01*
X52146001Y-70589431D01*
X52146001Y-71121018D01*
X50001000Y-71121018D01*
X50001000Y-70310569D01*
X52146000Y-70310569D01*
X52149641Y-70319359D01*
X52158431Y-70323000D01*
X52860569Y-70323000D01*
X52869359Y-70319359D01*
X52873000Y-70310569D01*
X53127000Y-70310569D01*
X53130641Y-70319359D01*
X53139431Y-70323000D01*
X53841568Y-70323000D01*
X53850358Y-70319359D01*
X53853999Y-70310569D01*
X53853999Y-69778982D01*
X53853817Y-69775612D01*
X53847728Y-69719557D01*
X53845929Y-69711988D01*
X53798192Y-69584649D01*
X53793957Y-69576914D01*
X53712715Y-69468513D01*
X53706487Y-69462285D01*
X53598086Y-69381043D01*
X53590351Y-69376808D01*
X53463008Y-69329070D01*
X53455444Y-69327272D01*
X53399392Y-69321183D01*
X53396024Y-69321000D01*
X53139431Y-69321000D01*
X53130641Y-69324641D01*
X53127000Y-69333431D01*
X53127000Y-70310569D01*
X52873000Y-70310569D01*
X52873000Y-69333432D01*
X52869359Y-69324642D01*
X52860569Y-69321001D01*
X52603982Y-69321001D01*
X52600612Y-69321183D01*
X52544557Y-69327272D01*
X52536988Y-69329071D01*
X52409649Y-69376808D01*
X52401914Y-69381043D01*
X52293513Y-69462285D01*
X52287285Y-69468513D01*
X52206043Y-69576914D01*
X52201808Y-69584649D01*
X52154070Y-69711992D01*
X52152272Y-69719556D01*
X52146183Y-69775608D01*
X52146000Y-69778976D01*
X52146000Y-70310569D01*
X50001000Y-70310569D01*
X50001000Y-65822543D01*
X67361898Y-65822543D01*
X67365964Y-65831938D01*
X67431245Y-65893241D01*
X67434247Y-65895725D01*
X67680893Y-66074923D01*
X67684205Y-66077025D01*
X67951343Y-66223885D01*
X67954907Y-66225562D01*
X68238348Y-66337784D01*
X68242078Y-66338996D01*
X68537343Y-66414808D01*
X68541216Y-66415546D01*
X68843649Y-66453753D01*
X68847579Y-66454000D01*
X69152421Y-66454000D01*
X69156351Y-66453753D01*
X69458784Y-66415546D01*
X69462657Y-66414808D01*
X69757922Y-66338996D01*
X69761652Y-66337784D01*
X70045093Y-66225562D01*
X70048657Y-66223885D01*
X70315795Y-66077025D01*
X70319107Y-66074923D01*
X70565753Y-65895725D01*
X70568755Y-65893241D01*
X70634409Y-65831587D01*
X70638087Y-65823441D01*
X70634319Y-65813924D01*
X69008790Y-64188395D01*
X69000000Y-64184754D01*
X68991210Y-64188395D01*
X67365318Y-65814287D01*
X67361898Y-65822543D01*
X50001000Y-65822543D01*
X50001000Y-64001955D01*
X66541271Y-64001955D01*
X66560414Y-64306218D01*
X66560905Y-64310105D01*
X66618028Y-64609559D01*
X66619005Y-64613363D01*
X66713212Y-64903303D01*
X66714650Y-64906934D01*
X66844457Y-65182788D01*
X66846341Y-65186215D01*
X67009695Y-65443619D01*
X67012000Y-65446792D01*
X67167787Y-65635105D01*
X67176195Y-65639557D01*
X67182900Y-65637495D01*
X68811605Y-64008790D01*
X68815246Y-64000000D01*
X69184754Y-64000000D01*
X69188395Y-64008790D01*
X70815499Y-65635894D01*
X70824289Y-65639535D01*
X70830770Y-65636850D01*
X70988000Y-65446792D01*
X70990305Y-65443619D01*
X71153659Y-65186215D01*
X71155543Y-65182788D01*
X71285350Y-64906934D01*
X71286788Y-64903303D01*
X71380995Y-64613363D01*
X71381972Y-64609559D01*
X71439095Y-64310105D01*
X71439586Y-64306218D01*
X71458729Y-64001955D01*
X71458729Y-63998045D01*
X71439586Y-63693782D01*
X71439095Y-63689895D01*
X71381972Y-63390441D01*
X71380995Y-63386637D01*
X71286788Y-63096697D01*
X71285350Y-63093066D01*
X71155543Y-62817212D01*
X71153659Y-62813785D01*
X70990305Y-62556381D01*
X70988000Y-62553208D01*
X70832213Y-62364895D01*
X70823805Y-62360443D01*
X70817100Y-62362505D01*
X69188395Y-63991210D01*
X69184754Y-64000000D01*
X68815246Y-64000000D01*
X68811605Y-63991210D01*
X67184501Y-62364106D01*
X67175711Y-62360465D01*
X67169230Y-62363150D01*
X67012000Y-62553208D01*
X67009695Y-62556381D01*
X66846341Y-62813785D01*
X66844457Y-62817212D01*
X66714650Y-63093066D01*
X66713212Y-63096697D01*
X66619005Y-63386637D01*
X66618028Y-63390441D01*
X66560905Y-63689895D01*
X66560414Y-63693782D01*
X66541271Y-63998045D01*
X66541271Y-64001955D01*
X50001000Y-64001955D01*
X50001000Y-62176559D01*
X67361913Y-62176559D01*
X67365681Y-62186076D01*
X68991210Y-63811605D01*
X69000000Y-63815246D01*
X69008790Y-63811605D01*
X70634682Y-62185713D01*
X70638102Y-62177457D01*
X70634036Y-62168062D01*
X70568755Y-62106759D01*
X70565753Y-62104275D01*
X70319107Y-61925077D01*
X70315795Y-61922975D01*
X70048657Y-61776115D01*
X70045093Y-61774438D01*
X69761652Y-61662216D01*
X69757922Y-61661004D01*
X69462657Y-61585192D01*
X69458784Y-61584454D01*
X69156351Y-61546247D01*
X69152421Y-61546000D01*
X68847579Y-61546000D01*
X68843649Y-61546247D01*
X68541216Y-61584454D01*
X68537343Y-61585192D01*
X68242078Y-61661004D01*
X68238348Y-61662216D01*
X67954907Y-61774438D01*
X67951343Y-61776115D01*
X67684205Y-61922975D01*
X67680893Y-61925077D01*
X67434247Y-62104275D01*
X67431245Y-62106759D01*
X67365591Y-62168413D01*
X67361913Y-62176559D01*
X50001000Y-62176559D01*
X50001000Y-59274126D01*
X54995541Y-59274126D01*
X55025935Y-59475097D01*
X55096119Y-59665852D01*
X55203226Y-59838599D01*
X55342881Y-59986280D01*
X55345475Y-59988096D01*
X55345478Y-59988099D01*
X55437213Y-60052332D01*
X55509379Y-60102863D01*
X55695919Y-60183586D01*
X55699013Y-60184232D01*
X55699015Y-60184233D01*
X55803893Y-60206143D01*
X55894880Y-60225151D01*
X55901539Y-60225500D01*
X56050800Y-60225500D01*
X56052374Y-60225340D01*
X56052376Y-60225340D01*
X56074767Y-60223066D01*
X56202216Y-60210120D01*
X56205229Y-60209176D01*
X56205233Y-60209175D01*
X56393151Y-60150285D01*
X56393153Y-60150284D01*
X56396172Y-60149338D01*
X56573944Y-60050797D01*
X56728271Y-59918523D01*
X56730207Y-59916027D01*
X56730210Y-59916024D01*
X56850908Y-59760420D01*
X56852848Y-59757919D01*
X56898151Y-59665852D01*
X56941188Y-59578389D01*
X56941189Y-59578386D01*
X56942587Y-59575545D01*
X56993822Y-59378852D01*
X57004459Y-59175874D01*
X56974065Y-58974903D01*
X56903881Y-58784148D01*
X56796774Y-58611401D01*
X56657119Y-58463720D01*
X56654525Y-58461904D01*
X56654522Y-58461901D01*
X56493215Y-58348953D01*
X56493213Y-58348952D01*
X56490621Y-58347137D01*
X56304081Y-58266414D01*
X56300987Y-58265768D01*
X56300985Y-58265767D01*
X56181593Y-58240825D01*
X56105120Y-58224849D01*
X56098461Y-58224500D01*
X55949200Y-58224500D01*
X55947626Y-58224660D01*
X55947624Y-58224660D01*
X55925233Y-58226934D01*
X55797784Y-58239880D01*
X55794771Y-58240824D01*
X55794767Y-58240825D01*
X55606849Y-58299715D01*
X55606847Y-58299716D01*
X55603828Y-58300662D01*
X55426056Y-58399203D01*
X55271729Y-58531477D01*
X55269793Y-58533973D01*
X55269790Y-58533976D01*
X55154865Y-58682138D01*
X55147152Y-58692081D01*
X55145754Y-58694922D01*
X55100389Y-58787117D01*
X55057413Y-58874455D01*
X55006178Y-59071148D01*
X54995541Y-59274126D01*
X50001000Y-59274126D01*
X50001000Y-57494724D01*
X64568136Y-57494724D01*
X64568713Y-57499137D01*
X64568713Y-57499138D01*
X64573255Y-57533870D01*
X64584014Y-57616145D01*
X64633333Y-57728230D01*
X64712127Y-57821968D01*
X64715832Y-57824434D01*
X64715834Y-57824436D01*
X64727650Y-57832301D01*
X64814064Y-57889823D01*
X64930948Y-57926340D01*
X64935398Y-57926422D01*
X64935401Y-57926422D01*
X64985074Y-57927332D01*
X65053383Y-57928584D01*
X65106088Y-57914215D01*
X65167226Y-57897548D01*
X65167229Y-57897547D01*
X65171527Y-57896375D01*
X65175323Y-57894044D01*
X65175326Y-57894043D01*
X65272083Y-57834633D01*
X65275881Y-57832301D01*
X65332779Y-57769441D01*
X65352134Y-57748058D01*
X65398471Y-57727500D01*
X67603608Y-57727500D01*
X67647802Y-57745806D01*
X67651449Y-57749781D01*
X67712127Y-57821968D01*
X67715832Y-57824434D01*
X67715834Y-57824436D01*
X67727650Y-57832301D01*
X67814064Y-57889823D01*
X67930948Y-57926340D01*
X67935398Y-57926422D01*
X67935401Y-57926422D01*
X67985074Y-57927332D01*
X68053383Y-57928584D01*
X68106088Y-57914215D01*
X68167226Y-57897548D01*
X68167229Y-57897547D01*
X68171527Y-57896375D01*
X68175323Y-57894044D01*
X68175326Y-57894043D01*
X68272083Y-57834633D01*
X68275881Y-57832301D01*
X68358058Y-57741513D01*
X68411451Y-57631311D01*
X68414003Y-57616145D01*
X68431367Y-57512928D01*
X68431767Y-57510552D01*
X68431896Y-57500000D01*
X68414536Y-57378781D01*
X68363852Y-57267307D01*
X68283918Y-57174539D01*
X68181160Y-57107935D01*
X68063838Y-57072848D01*
X68002611Y-57072474D01*
X67945838Y-57072127D01*
X67945837Y-57072127D01*
X67941385Y-57072100D01*
X67823644Y-57105751D01*
X67720080Y-57171095D01*
X67717137Y-57174427D01*
X67717135Y-57174429D01*
X67649180Y-57251373D01*
X67602334Y-57272500D01*
X65396974Y-57272500D01*
X65349626Y-57250797D01*
X65286826Y-57177914D01*
X65283918Y-57174539D01*
X65181160Y-57107935D01*
X65063838Y-57072848D01*
X65002611Y-57072474D01*
X64945838Y-57072127D01*
X64945837Y-57072127D01*
X64941385Y-57072100D01*
X64823644Y-57105751D01*
X64720080Y-57171095D01*
X64717137Y-57174427D01*
X64717135Y-57174429D01*
X64649180Y-57251373D01*
X64639018Y-57262879D01*
X64637126Y-57266909D01*
X64588868Y-57369695D01*
X64588867Y-57369698D01*
X64586976Y-57373726D01*
X64568136Y-57494724D01*
X50001000Y-57494724D01*
X50001000Y-56194476D01*
X61552500Y-56194476D01*
X61552747Y-56196428D01*
X61552747Y-56196434D01*
X61557527Y-56234272D01*
X61567384Y-56312293D01*
X61625747Y-56459703D01*
X61628056Y-56462881D01*
X61628057Y-56462883D01*
X61674472Y-56526767D01*
X61718937Y-56587967D01*
X61721966Y-56590473D01*
X61721968Y-56590475D01*
X61781199Y-56639474D01*
X61841097Y-56689026D01*
X61984551Y-56756531D01*
X61988409Y-56757267D01*
X62136421Y-56785502D01*
X62136423Y-56785502D01*
X62140286Y-56786239D01*
X62144212Y-56785992D01*
X62294592Y-56776531D01*
X62294593Y-56776531D01*
X62298516Y-56776284D01*
X62302254Y-56775069D01*
X62302256Y-56775069D01*
X62445564Y-56728505D01*
X62445565Y-56728505D01*
X62449300Y-56727291D01*
X62583162Y-56642340D01*
X62585851Y-56639476D01*
X62585854Y-56639474D01*
X62688998Y-56529637D01*
X62688998Y-56529636D01*
X62691693Y-56526767D01*
X62768072Y-56387834D01*
X62807500Y-56234272D01*
X62807500Y-56194476D01*
X70192500Y-56194476D01*
X70192747Y-56196428D01*
X70192747Y-56196434D01*
X70197527Y-56234272D01*
X70207384Y-56312293D01*
X70265747Y-56459703D01*
X70268056Y-56462881D01*
X70268057Y-56462883D01*
X70314472Y-56526767D01*
X70358937Y-56587967D01*
X70361966Y-56590473D01*
X70361968Y-56590475D01*
X70421199Y-56639474D01*
X70481097Y-56689026D01*
X70624551Y-56756531D01*
X70628409Y-56757267D01*
X70776421Y-56785502D01*
X70776423Y-56785502D01*
X70780286Y-56786239D01*
X70784212Y-56785992D01*
X70934592Y-56776531D01*
X70934593Y-56776531D01*
X70938516Y-56776284D01*
X70942254Y-56775069D01*
X70942256Y-56775069D01*
X71085564Y-56728505D01*
X71085565Y-56728505D01*
X71089300Y-56727291D01*
X71223162Y-56642340D01*
X71225851Y-56639476D01*
X71225854Y-56639474D01*
X71328998Y-56529637D01*
X71328998Y-56529636D01*
X71331693Y-56526767D01*
X71408072Y-56387834D01*
X71447500Y-56234272D01*
X71447500Y-55015524D01*
X71442970Y-54979661D01*
X71433109Y-54901612D01*
X71432616Y-54897707D01*
X71374253Y-54750297D01*
X71333750Y-54694549D01*
X71283376Y-54625216D01*
X71283374Y-54625214D01*
X71281063Y-54622033D01*
X71278034Y-54619527D01*
X71278032Y-54619525D01*
X71209219Y-54562599D01*
X71158903Y-54520974D01*
X71015449Y-54453469D01*
X71011591Y-54452733D01*
X70863579Y-54424498D01*
X70863577Y-54424498D01*
X70859714Y-54423761D01*
X70855788Y-54424008D01*
X70705408Y-54433469D01*
X70705407Y-54433469D01*
X70701484Y-54433716D01*
X70697746Y-54434931D01*
X70697744Y-54434931D01*
X70635545Y-54455141D01*
X70550700Y-54482709D01*
X70416838Y-54567660D01*
X70414149Y-54570524D01*
X70414146Y-54570526D01*
X70368133Y-54619525D01*
X70308307Y-54683233D01*
X70231928Y-54822166D01*
X70192500Y-54975728D01*
X70192500Y-56194476D01*
X62807500Y-56194476D01*
X62807500Y-55105000D01*
X63029534Y-55105000D01*
X63049313Y-55255236D01*
X63050881Y-55259020D01*
X63050881Y-55259022D01*
X63105732Y-55391444D01*
X63105734Y-55391447D01*
X63107302Y-55395233D01*
X63199549Y-55515451D01*
X63319767Y-55607698D01*
X63323553Y-55609266D01*
X63323556Y-55609268D01*
X63455978Y-55664119D01*
X63455980Y-55664119D01*
X63459764Y-55665687D01*
X63463826Y-55666222D01*
X63463827Y-55666222D01*
X63570249Y-55680233D01*
X63570255Y-55680233D01*
X63572280Y-55680500D01*
X63647720Y-55680500D01*
X63649745Y-55680233D01*
X63649751Y-55680233D01*
X63756173Y-55666222D01*
X63756174Y-55666222D01*
X63760236Y-55665687D01*
X63764020Y-55664119D01*
X63764022Y-55664119D01*
X63896444Y-55609268D01*
X63896447Y-55609266D01*
X63900233Y-55607698D01*
X64020451Y-55515451D01*
X64112698Y-55395233D01*
X64114266Y-55391447D01*
X64114268Y-55391444D01*
X64169119Y-55259022D01*
X64169119Y-55259020D01*
X64170687Y-55255236D01*
X64190466Y-55105000D01*
X68809534Y-55105000D01*
X68829313Y-55255236D01*
X68830881Y-55259020D01*
X68830881Y-55259022D01*
X68885732Y-55391444D01*
X68885734Y-55391447D01*
X68887302Y-55395233D01*
X68979549Y-55515451D01*
X69099767Y-55607698D01*
X69103553Y-55609266D01*
X69103556Y-55609268D01*
X69235978Y-55664119D01*
X69235980Y-55664119D01*
X69239764Y-55665687D01*
X69243826Y-55666222D01*
X69243827Y-55666222D01*
X69350249Y-55680233D01*
X69350255Y-55680233D01*
X69352280Y-55680500D01*
X69427720Y-55680500D01*
X69429745Y-55680233D01*
X69429751Y-55680233D01*
X69536173Y-55666222D01*
X69536174Y-55666222D01*
X69540236Y-55665687D01*
X69544020Y-55664119D01*
X69544022Y-55664119D01*
X69676444Y-55609268D01*
X69676447Y-55609266D01*
X69680233Y-55607698D01*
X69800451Y-55515451D01*
X69892698Y-55395233D01*
X69894266Y-55391447D01*
X69894268Y-55391444D01*
X69949119Y-55259022D01*
X69949119Y-55259020D01*
X69950687Y-55255236D01*
X69970466Y-55105000D01*
X69958686Y-55015524D01*
X69951222Y-54958827D01*
X69951222Y-54958826D01*
X69950687Y-54954764D01*
X69925538Y-54894049D01*
X69894268Y-54818556D01*
X69894266Y-54818553D01*
X69892698Y-54814767D01*
X69800451Y-54694549D01*
X69680233Y-54602302D01*
X69676447Y-54600734D01*
X69676444Y-54600732D01*
X69544022Y-54545881D01*
X69544020Y-54545881D01*
X69540236Y-54544313D01*
X69536174Y-54543778D01*
X69536173Y-54543778D01*
X69429751Y-54529767D01*
X69429745Y-54529767D01*
X69427720Y-54529500D01*
X69352280Y-54529500D01*
X69350255Y-54529767D01*
X69350249Y-54529767D01*
X69243827Y-54543778D01*
X69243826Y-54543778D01*
X69239764Y-54544313D01*
X69235980Y-54545881D01*
X69235978Y-54545881D01*
X69103556Y-54600732D01*
X69103553Y-54600734D01*
X69099767Y-54602302D01*
X68979549Y-54694549D01*
X68887302Y-54814767D01*
X68885734Y-54818553D01*
X68885732Y-54818556D01*
X68854462Y-54894049D01*
X68829313Y-54954764D01*
X68828778Y-54958826D01*
X68828778Y-54958827D01*
X68821314Y-55015524D01*
X68809534Y-55105000D01*
X64190466Y-55105000D01*
X64178686Y-55015524D01*
X64171222Y-54958827D01*
X64171222Y-54958826D01*
X64170687Y-54954764D01*
X64145538Y-54894049D01*
X64114268Y-54818556D01*
X64114266Y-54818553D01*
X64112698Y-54814767D01*
X64020451Y-54694549D01*
X63900233Y-54602302D01*
X63896447Y-54600734D01*
X63896444Y-54600732D01*
X63764022Y-54545881D01*
X63764020Y-54545881D01*
X63760236Y-54544313D01*
X63756174Y-54543778D01*
X63756173Y-54543778D01*
X63649751Y-54529767D01*
X63649745Y-54529767D01*
X63647720Y-54529500D01*
X63572280Y-54529500D01*
X63570255Y-54529767D01*
X63570249Y-54529767D01*
X63463827Y-54543778D01*
X63463826Y-54543778D01*
X63459764Y-54544313D01*
X63455980Y-54545881D01*
X63455978Y-54545881D01*
X63323556Y-54600732D01*
X63323553Y-54600734D01*
X63319767Y-54602302D01*
X63199549Y-54694549D01*
X63107302Y-54814767D01*
X63105734Y-54818553D01*
X63105732Y-54818556D01*
X63074462Y-54894049D01*
X63049313Y-54954764D01*
X63048778Y-54958826D01*
X63048778Y-54958827D01*
X63041314Y-55015524D01*
X63029534Y-55105000D01*
X62807500Y-55105000D01*
X62807500Y-55015524D01*
X62802970Y-54979661D01*
X62793109Y-54901612D01*
X62792616Y-54897707D01*
X62734253Y-54750297D01*
X62693750Y-54694549D01*
X62643376Y-54625216D01*
X62643374Y-54625214D01*
X62641063Y-54622033D01*
X62638034Y-54619527D01*
X62638032Y-54619525D01*
X62569219Y-54562599D01*
X62518903Y-54520974D01*
X62375449Y-54453469D01*
X62371591Y-54452733D01*
X62223579Y-54424498D01*
X62223577Y-54424498D01*
X62219714Y-54423761D01*
X62215788Y-54424008D01*
X62065408Y-54433469D01*
X62065407Y-54433469D01*
X62061484Y-54433716D01*
X62057746Y-54434931D01*
X62057744Y-54434931D01*
X61995545Y-54455141D01*
X61910700Y-54482709D01*
X61776838Y-54567660D01*
X61774149Y-54570524D01*
X61774146Y-54570526D01*
X61728133Y-54619525D01*
X61668307Y-54683233D01*
X61591928Y-54822166D01*
X61552500Y-54975728D01*
X61552500Y-56194476D01*
X50001000Y-56194476D01*
X50001000Y-52274126D01*
X54995541Y-52274126D01*
X54996014Y-52277252D01*
X54996014Y-52277256D01*
X55006270Y-52345069D01*
X55025935Y-52475097D01*
X55096119Y-52665852D01*
X55203226Y-52838599D01*
X55342881Y-52986280D01*
X55345475Y-52988096D01*
X55345478Y-52988099D01*
X55437213Y-53052332D01*
X55509379Y-53102863D01*
X55695919Y-53183586D01*
X55699013Y-53184232D01*
X55699015Y-53184233D01*
X55803893Y-53206143D01*
X55894880Y-53225151D01*
X55901539Y-53225500D01*
X56050800Y-53225500D01*
X56052374Y-53225340D01*
X56052376Y-53225340D01*
X56074767Y-53223066D01*
X56202216Y-53210120D01*
X56205229Y-53209176D01*
X56205233Y-53209175D01*
X56393151Y-53150285D01*
X56393153Y-53150284D01*
X56396172Y-53149338D01*
X56573944Y-53050797D01*
X56728271Y-52918523D01*
X56730207Y-52916027D01*
X56730210Y-52916024D01*
X56850908Y-52760420D01*
X56852848Y-52757919D01*
X56898151Y-52665852D01*
X56941188Y-52578389D01*
X56941189Y-52578386D01*
X56942587Y-52575545D01*
X56993822Y-52378852D01*
X57004459Y-52175874D01*
X57001270Y-52154784D01*
X56974539Y-51978035D01*
X56974538Y-51978032D01*
X56974065Y-51974903D01*
X56969054Y-51961282D01*
X56936061Y-51871611D01*
X56903881Y-51784148D01*
X56891684Y-51764476D01*
X61552500Y-51764476D01*
X61552747Y-51766428D01*
X61552747Y-51766434D01*
X61557527Y-51804272D01*
X61567384Y-51882293D01*
X61625747Y-52029703D01*
X61628056Y-52032881D01*
X61628057Y-52032883D01*
X61674472Y-52096767D01*
X61718937Y-52157967D01*
X61721966Y-52160473D01*
X61721968Y-52160475D01*
X61744404Y-52179035D01*
X61841097Y-52259026D01*
X61984551Y-52326531D01*
X61988409Y-52327267D01*
X62136421Y-52355502D01*
X62136423Y-52355502D01*
X62140286Y-52356239D01*
X62144212Y-52355992D01*
X62294592Y-52346531D01*
X62294593Y-52346531D01*
X62298516Y-52346284D01*
X62302254Y-52345069D01*
X62302256Y-52345069D01*
X62445564Y-52298505D01*
X62445565Y-52298505D01*
X62449300Y-52297291D01*
X62583162Y-52212340D01*
X62585851Y-52209476D01*
X62585854Y-52209474D01*
X62688998Y-52099637D01*
X62688998Y-52099636D01*
X62691693Y-52096767D01*
X62768072Y-51957834D01*
X62807500Y-51804272D01*
X62807500Y-51764476D01*
X70192500Y-51764476D01*
X70192747Y-51766428D01*
X70192747Y-51766434D01*
X70197527Y-51804272D01*
X70207384Y-51882293D01*
X70265747Y-52029703D01*
X70268056Y-52032881D01*
X70268057Y-52032883D01*
X70314472Y-52096767D01*
X70358937Y-52157967D01*
X70361966Y-52160473D01*
X70361968Y-52160475D01*
X70384404Y-52179035D01*
X70481097Y-52259026D01*
X70624551Y-52326531D01*
X70628409Y-52327267D01*
X70776421Y-52355502D01*
X70776423Y-52355502D01*
X70780286Y-52356239D01*
X70784212Y-52355992D01*
X70934592Y-52346531D01*
X70934593Y-52346531D01*
X70938516Y-52346284D01*
X70942254Y-52345069D01*
X70942256Y-52345069D01*
X71085564Y-52298505D01*
X71085565Y-52298505D01*
X71089300Y-52297291D01*
X71223162Y-52212340D01*
X71225851Y-52209476D01*
X71225854Y-52209474D01*
X71328998Y-52099637D01*
X71328998Y-52099636D01*
X71331693Y-52096767D01*
X71408072Y-51957834D01*
X71447500Y-51804272D01*
X71447500Y-51085524D01*
X71442970Y-51049661D01*
X71433109Y-50971612D01*
X71432616Y-50967707D01*
X71374253Y-50820297D01*
X71328033Y-50756680D01*
X71283376Y-50695216D01*
X71283374Y-50695214D01*
X71281063Y-50692033D01*
X71278034Y-50689527D01*
X71278032Y-50689525D01*
X71161933Y-50593481D01*
X71158903Y-50590974D01*
X71015449Y-50523469D01*
X71011591Y-50522733D01*
X70863579Y-50494498D01*
X70863577Y-50494498D01*
X70859714Y-50493761D01*
X70855788Y-50494008D01*
X70705408Y-50503469D01*
X70705407Y-50503469D01*
X70701484Y-50503716D01*
X70697746Y-50504931D01*
X70697744Y-50504931D01*
X70635545Y-50525141D01*
X70550700Y-50552709D01*
X70416838Y-50637660D01*
X70414149Y-50640524D01*
X70414146Y-50640526D01*
X70368133Y-50689525D01*
X70308307Y-50753233D01*
X70231928Y-50892166D01*
X70192500Y-51045728D01*
X70192500Y-51764476D01*
X62807500Y-51764476D01*
X62807500Y-51085524D01*
X62802970Y-51049661D01*
X62793109Y-50971612D01*
X62792616Y-50967707D01*
X62734253Y-50820297D01*
X62688033Y-50756680D01*
X62643376Y-50695216D01*
X62643374Y-50695214D01*
X62641063Y-50692033D01*
X62638034Y-50689527D01*
X62638032Y-50689525D01*
X62521933Y-50593481D01*
X62518903Y-50590974D01*
X62375449Y-50523469D01*
X62371591Y-50522733D01*
X62223579Y-50494498D01*
X62223577Y-50494498D01*
X62219714Y-50493761D01*
X62215788Y-50494008D01*
X62065408Y-50503469D01*
X62065407Y-50503469D01*
X62061484Y-50503716D01*
X62057746Y-50504931D01*
X62057744Y-50504931D01*
X61995545Y-50525141D01*
X61910700Y-50552709D01*
X61776838Y-50637660D01*
X61774149Y-50640524D01*
X61774146Y-50640526D01*
X61728133Y-50689525D01*
X61668307Y-50753233D01*
X61591928Y-50892166D01*
X61552500Y-51045728D01*
X61552500Y-51764476D01*
X56891684Y-51764476D01*
X56796774Y-51611401D01*
X56657119Y-51463720D01*
X56654525Y-51461904D01*
X56654522Y-51461901D01*
X56493215Y-51348953D01*
X56493213Y-51348952D01*
X56490621Y-51347137D01*
X56304081Y-51266414D01*
X56300987Y-51265768D01*
X56300985Y-51265767D01*
X56181593Y-51240825D01*
X56105120Y-51224849D01*
X56098461Y-51224500D01*
X55949200Y-51224500D01*
X55947626Y-51224660D01*
X55947624Y-51224660D01*
X55925233Y-51226934D01*
X55797784Y-51239880D01*
X55794771Y-51240824D01*
X55794767Y-51240825D01*
X55606849Y-51299715D01*
X55606847Y-51299716D01*
X55603828Y-51300662D01*
X55426056Y-51399203D01*
X55271729Y-51531477D01*
X55269793Y-51533973D01*
X55269790Y-51533976D01*
X55154865Y-51682138D01*
X55147152Y-51692081D01*
X55145754Y-51694922D01*
X55090072Y-51808084D01*
X55057413Y-51874455D01*
X55006178Y-52071148D01*
X54995541Y-52274126D01*
X50001000Y-52274126D01*
X50001000Y-50063500D01*
X50019306Y-50019306D01*
X50063500Y-50001000D01*
X72936500Y-50001000D01*
X72980694Y-50019306D01*
G37*
G04 #@! TD.AperFunction*
M02*
