%FSLAX45Y45*%
G04 Gerber Fmt 4.5, Leading zero omitted, Abs format (unit mm)*
G04 Created by KiCad (PCBNEW (6.0.5)) date 2022-08-26 20:17:28*
%MOMM*%
%LPD*%
G01*
G04 APERTURE LIST*
%TA.AperFunction,Profile*%
%ADD10C,0.038100*%
%TD*%
%ADD11C,0.200000*%
%ADD12C,0.170000*%
%ADD13C,0.295000*%
%ADD14C,0.398018*%
G04 APERTURE END LIST*
D10*
X12078000Y-12452600D02*
X12078001Y-10725400D01*
X12052600Y-10699999D02*
X10325400Y-10700000D01*
X10300000Y-12452599D02*
G75*
G03*
X10325400Y-12478000I25400J-1D01*
G01*
X10325400Y-10699999D02*
G75*
G03*
X10299999Y-10725401I0J-25401D01*
G01*
X12052599Y-12478000D02*
G75*
G03*
X12078000Y-12452600I1J25400D01*
G01*
X10299999Y-10725401D02*
X10299999Y-12452599D01*
X10325400Y-12478000D02*
X12052599Y-12478001D01*
X12078001Y-10725400D02*
G75*
G03*
X12052600Y-10699999I-25401J0D01*
G01*
D11*
D12*
X10596000Y-11503999D02*
X10766000Y-11673999D01*
X10766000Y-11503999D02*
X10596000Y-11673999D01*
X11612000Y-11503999D02*
X11782000Y-11673999D01*
X11782000Y-11503999D02*
X11612000Y-11673999D01*
D13*
X11082500Y-11080999D02*
G75*
G03*
X11082500Y-11080999I-147500J0D01*
G01*
X11717500Y-11334999D02*
G75*
G03*
X11717500Y-11334999I-147500J0D01*
G01*
D14*
X11189000Y-11389990D02*
X11189000Y-11788008D01*
X10989991Y-11588999D02*
X11388009Y-11588999D01*
D11*
X10555713Y-12790382D02*
X10555713Y-12590382D01*
X10603332Y-12590382D01*
X10631903Y-12599906D01*
X10650951Y-12618954D01*
X10660475Y-12638001D01*
X10669999Y-12676096D01*
X10669999Y-12704668D01*
X10660475Y-12742763D01*
X10650951Y-12761811D01*
X10631903Y-12780858D01*
X10603332Y-12790382D01*
X10555713Y-12790382D01*
X10755713Y-12790382D02*
X10755713Y-12657049D01*
X10755713Y-12695144D02*
X10765237Y-12676096D01*
X10774761Y-12666573D01*
X10793808Y-12657049D01*
X10812856Y-12657049D01*
X10879522Y-12790382D02*
X10879522Y-12657049D01*
X10879522Y-12590382D02*
X10869999Y-12599906D01*
X10879522Y-12609430D01*
X10889046Y-12599906D01*
X10879522Y-12590382D01*
X10879522Y-12609430D01*
X11003332Y-12790382D02*
X10984284Y-12780858D01*
X10974761Y-12761811D01*
X10974761Y-12590382D01*
X11108094Y-12790382D02*
X11089046Y-12780858D01*
X11079522Y-12761811D01*
X11079522Y-12590382D01*
X11336665Y-12790382D02*
X11336665Y-12590382D01*
X11403332Y-12733239D01*
X11469999Y-12590382D01*
X11469999Y-12790382D01*
X11650951Y-12790382D02*
X11650951Y-12685620D01*
X11641427Y-12666573D01*
X11622380Y-12657049D01*
X11584284Y-12657049D01*
X11565237Y-12666573D01*
X11650951Y-12780858D02*
X11631903Y-12790382D01*
X11584284Y-12790382D01*
X11565237Y-12780858D01*
X11555713Y-12761811D01*
X11555713Y-12742763D01*
X11565237Y-12723716D01*
X11584284Y-12714192D01*
X11631903Y-12714192D01*
X11650951Y-12704668D01*
X11746189Y-12657049D02*
X11746189Y-12857049D01*
X11746189Y-12666573D02*
X11765237Y-12657049D01*
X11803332Y-12657049D01*
X11822380Y-12666573D01*
X11831903Y-12676096D01*
X11841427Y-12695144D01*
X11841427Y-12752287D01*
X11831903Y-12771335D01*
X11822380Y-12780858D01*
X11803332Y-12790382D01*
X11765237Y-12790382D01*
X11746189Y-12780858D01*
X11927141Y-12771335D02*
X11936665Y-12780858D01*
X11927141Y-12790382D01*
X11917618Y-12780858D01*
X11927141Y-12771335D01*
X11927141Y-12790382D01*
X11927141Y-12666573D02*
X11936665Y-12676096D01*
X11927141Y-12685620D01*
X11917618Y-12676096D01*
X11927141Y-12666573D01*
X11927141Y-12685620D01*
D12*
X10128094Y-13034906D02*
X10298094Y-13204906D01*
X10298094Y-13034906D02*
X10128094Y-13204906D01*
D11*
X10660475Y-13210382D02*
X10546189Y-13210382D01*
X10603332Y-13210382D02*
X10603332Y-13010382D01*
X10584284Y-13038954D01*
X10565237Y-13058001D01*
X10546189Y-13067525D01*
X10746189Y-13191335D02*
X10755713Y-13200858D01*
X10746189Y-13210382D01*
X10736665Y-13200858D01*
X10746189Y-13191335D01*
X10746189Y-13210382D01*
X10822380Y-13010382D02*
X10955713Y-13010382D01*
X10869999Y-13210382D01*
X11069999Y-13010382D02*
X11089046Y-13010382D01*
X11108094Y-13019906D01*
X11117618Y-13029430D01*
X11127142Y-13048477D01*
X11136665Y-13086573D01*
X11136665Y-13134192D01*
X11127142Y-13172287D01*
X11117618Y-13191335D01*
X11108094Y-13200858D01*
X11089046Y-13210382D01*
X11069999Y-13210382D01*
X11050951Y-13200858D01*
X11041427Y-13191335D01*
X11031903Y-13172287D01*
X11022380Y-13134192D01*
X11022380Y-13086573D01*
X11031903Y-13048477D01*
X11041427Y-13029430D01*
X11050951Y-13019906D01*
X11069999Y-13010382D01*
X11260475Y-13010382D02*
X11279522Y-13010382D01*
X11298570Y-13019906D01*
X11308094Y-13029430D01*
X11317618Y-13048477D01*
X11327141Y-13086573D01*
X11327141Y-13134192D01*
X11317618Y-13172287D01*
X11308094Y-13191335D01*
X11298570Y-13200858D01*
X11279522Y-13210382D01*
X11260475Y-13210382D01*
X11241427Y-13200858D01*
X11231903Y-13191335D01*
X11222380Y-13172287D01*
X11212856Y-13134192D01*
X11212856Y-13086573D01*
X11222380Y-13048477D01*
X11231903Y-13029430D01*
X11241427Y-13019906D01*
X11260475Y-13010382D01*
X11412856Y-13210382D02*
X11412856Y-13077049D01*
X11412856Y-13096096D02*
X11422380Y-13086573D01*
X11441427Y-13077049D01*
X11469999Y-13077049D01*
X11489046Y-13086573D01*
X11498570Y-13105620D01*
X11498570Y-13210382D01*
X11498570Y-13105620D02*
X11508094Y-13086573D01*
X11527141Y-13077049D01*
X11555713Y-13077049D01*
X11574760Y-13086573D01*
X11584284Y-13105620D01*
X11584284Y-13210382D01*
X11679522Y-13210382D02*
X11679522Y-13077049D01*
X11679522Y-13096096D02*
X11689046Y-13086573D01*
X11708094Y-13077049D01*
X11736665Y-13077049D01*
X11755713Y-13086573D01*
X11765237Y-13105620D01*
X11765237Y-13210382D01*
X11765237Y-13105620D02*
X11774760Y-13086573D01*
X11793808Y-13077049D01*
X11822380Y-13077049D01*
X11841427Y-13086573D01*
X11850951Y-13105620D01*
X11850951Y-13210382D01*
X12241427Y-13000858D02*
X12069999Y-13258001D01*
X12498570Y-13010382D02*
X12517618Y-13010382D01*
X12536665Y-13019906D01*
X12546189Y-13029430D01*
X12555713Y-13048477D01*
X12565237Y-13086573D01*
X12565237Y-13134192D01*
X12555713Y-13172287D01*
X12546189Y-13191335D01*
X12536665Y-13200858D01*
X12517618Y-13210382D01*
X12498570Y-13210382D01*
X12479522Y-13200858D01*
X12469999Y-13191335D01*
X12460475Y-13172287D01*
X12450951Y-13134192D01*
X12450951Y-13086573D01*
X12460475Y-13048477D01*
X12469999Y-13029430D01*
X12479522Y-13019906D01*
X12498570Y-13010382D01*
X12650951Y-13191335D02*
X12660475Y-13200858D01*
X12650951Y-13210382D01*
X12641427Y-13200858D01*
X12650951Y-13191335D01*
X12650951Y-13210382D01*
X12784284Y-13010382D02*
X12803332Y-13010382D01*
X12822380Y-13019906D01*
X12831903Y-13029430D01*
X12841427Y-13048477D01*
X12850951Y-13086573D01*
X12850951Y-13134192D01*
X12841427Y-13172287D01*
X12831903Y-13191335D01*
X12822380Y-13200858D01*
X12803332Y-13210382D01*
X12784284Y-13210382D01*
X12765237Y-13200858D01*
X12755713Y-13191335D01*
X12746189Y-13172287D01*
X12736665Y-13134192D01*
X12736665Y-13086573D01*
X12746189Y-13048477D01*
X12755713Y-13029430D01*
X12765237Y-13019906D01*
X12784284Y-13010382D01*
X13022380Y-13010382D02*
X12984284Y-13010382D01*
X12965237Y-13019906D01*
X12955713Y-13029430D01*
X12936665Y-13058001D01*
X12927141Y-13096096D01*
X12927141Y-13172287D01*
X12936665Y-13191335D01*
X12946189Y-13200858D01*
X12965237Y-13210382D01*
X13003332Y-13210382D01*
X13022380Y-13200858D01*
X13031903Y-13191335D01*
X13041427Y-13172287D01*
X13041427Y-13124668D01*
X13031903Y-13105620D01*
X13022380Y-13096096D01*
X13003332Y-13086573D01*
X12965237Y-13086573D01*
X12946189Y-13096096D01*
X12936665Y-13105620D01*
X12927141Y-13124668D01*
X13212856Y-13010382D02*
X13174760Y-13010382D01*
X13155713Y-13019906D01*
X13146189Y-13029430D01*
X13127141Y-13058001D01*
X13117618Y-13096096D01*
X13117618Y-13172287D01*
X13127141Y-13191335D01*
X13136665Y-13200858D01*
X13155713Y-13210382D01*
X13193808Y-13210382D01*
X13212856Y-13200858D01*
X13222380Y-13191335D01*
X13231903Y-13172287D01*
X13231903Y-13124668D01*
X13222380Y-13105620D01*
X13212856Y-13096096D01*
X13193808Y-13086573D01*
X13155713Y-13086573D01*
X13136665Y-13096096D01*
X13127141Y-13105620D01*
X13117618Y-13124668D01*
X13327141Y-13210382D02*
X13365237Y-13210382D01*
X13384284Y-13200858D01*
X13393808Y-13191335D01*
X13412856Y-13162763D01*
X13422380Y-13124668D01*
X13422380Y-13048477D01*
X13412856Y-13029430D01*
X13403332Y-13019906D01*
X13384284Y-13010382D01*
X13346189Y-13010382D01*
X13327141Y-13019906D01*
X13317618Y-13029430D01*
X13308094Y-13048477D01*
X13308094Y-13096096D01*
X13317618Y-13115144D01*
X13327141Y-13124668D01*
X13346189Y-13134192D01*
X13384284Y-13134192D01*
X13403332Y-13124668D01*
X13412856Y-13115144D01*
X13422380Y-13096096D01*
X13498570Y-13010382D02*
X13498570Y-13048477D01*
X13574760Y-13010382D02*
X13574760Y-13048477D01*
X13869999Y-13286573D02*
X13860475Y-13277049D01*
X13841427Y-13248477D01*
X13831903Y-13229430D01*
X13822380Y-13200858D01*
X13812856Y-13153239D01*
X13812856Y-13115144D01*
X13822380Y-13067525D01*
X13831903Y-13038954D01*
X13841427Y-13019906D01*
X13860475Y-12991335D01*
X13869999Y-12981811D01*
X13936665Y-13029430D02*
X13946189Y-13019906D01*
X13965237Y-13010382D01*
X14012856Y-13010382D01*
X14031903Y-13019906D01*
X14041427Y-13029430D01*
X14050951Y-13048477D01*
X14050951Y-13067525D01*
X14041427Y-13096096D01*
X13927141Y-13210382D01*
X14050951Y-13210382D01*
X14289046Y-13210382D02*
X14289046Y-13010382D01*
X14374760Y-13210382D02*
X14374760Y-13105620D01*
X14365237Y-13086573D01*
X14346189Y-13077049D01*
X14317618Y-13077049D01*
X14298570Y-13086573D01*
X14289046Y-13096096D01*
X14498570Y-13210382D02*
X14479522Y-13200858D01*
X14469999Y-13191335D01*
X14460475Y-13172287D01*
X14460475Y-13115144D01*
X14469999Y-13096096D01*
X14479522Y-13086573D01*
X14498570Y-13077049D01*
X14527141Y-13077049D01*
X14546189Y-13086573D01*
X14555713Y-13096096D01*
X14565237Y-13115144D01*
X14565237Y-13172287D01*
X14555713Y-13191335D01*
X14546189Y-13200858D01*
X14527141Y-13210382D01*
X14498570Y-13210382D01*
X14679522Y-13210382D02*
X14660475Y-13200858D01*
X14650951Y-13181811D01*
X14650951Y-13010382D01*
X14831903Y-13200858D02*
X14812856Y-13210382D01*
X14774760Y-13210382D01*
X14755713Y-13200858D01*
X14746189Y-13181811D01*
X14746189Y-13105620D01*
X14755713Y-13086573D01*
X14774760Y-13077049D01*
X14812856Y-13077049D01*
X14831903Y-13086573D01*
X14841427Y-13105620D01*
X14841427Y-13124668D01*
X14746189Y-13143716D01*
X14917618Y-13200858D02*
X14936665Y-13210382D01*
X14974760Y-13210382D01*
X14993808Y-13200858D01*
X15003332Y-13181811D01*
X15003332Y-13172287D01*
X14993808Y-13153239D01*
X14974760Y-13143716D01*
X14946189Y-13143716D01*
X14927141Y-13134192D01*
X14917618Y-13115144D01*
X14917618Y-13105620D01*
X14927141Y-13086573D01*
X14946189Y-13077049D01*
X14974760Y-13077049D01*
X14993808Y-13086573D01*
X15069999Y-13286573D02*
X15079522Y-13277049D01*
X15098570Y-13248477D01*
X15108094Y-13229430D01*
X15117618Y-13200858D01*
X15127141Y-13153239D01*
X15127141Y-13115144D01*
X15117618Y-13067525D01*
X15108094Y-13038954D01*
X15098570Y-13019906D01*
X15079522Y-12991335D01*
X15069999Y-12981811D01*
X15431903Y-13286573D02*
X15422380Y-13277049D01*
X15403332Y-13248477D01*
X15393808Y-13229430D01*
X15384284Y-13200858D01*
X15374760Y-13153239D01*
X15374760Y-13115144D01*
X15384284Y-13067525D01*
X15393808Y-13038954D01*
X15403332Y-13019906D01*
X15422380Y-12991335D01*
X15431903Y-12981811D01*
X15508094Y-13077049D02*
X15508094Y-13210382D01*
X15508094Y-13096096D02*
X15517618Y-13086573D01*
X15536665Y-13077049D01*
X15565237Y-13077049D01*
X15584284Y-13086573D01*
X15593808Y-13105620D01*
X15593808Y-13210382D01*
X15717618Y-13210382D02*
X15698570Y-13200858D01*
X15689046Y-13191335D01*
X15679522Y-13172287D01*
X15679522Y-13115144D01*
X15689046Y-13096096D01*
X15698570Y-13086573D01*
X15717618Y-13077049D01*
X15746189Y-13077049D01*
X15765237Y-13086573D01*
X15774760Y-13096096D01*
X15784284Y-13115144D01*
X15784284Y-13172287D01*
X15774760Y-13191335D01*
X15765237Y-13200858D01*
X15746189Y-13210382D01*
X15717618Y-13210382D01*
X15841427Y-13077049D02*
X15917618Y-13077049D01*
X15869999Y-13010382D02*
X15869999Y-13181811D01*
X15879522Y-13200858D01*
X15898570Y-13210382D01*
X15917618Y-13210382D01*
X16136665Y-13077049D02*
X16136665Y-13277049D01*
X16136665Y-13086573D02*
X16155713Y-13077049D01*
X16193808Y-13077049D01*
X16212856Y-13086573D01*
X16222380Y-13096096D01*
X16231903Y-13115144D01*
X16231903Y-13172287D01*
X16222380Y-13191335D01*
X16212856Y-13200858D01*
X16193808Y-13210382D01*
X16155713Y-13210382D01*
X16136665Y-13200858D01*
X16346189Y-13210382D02*
X16327141Y-13200858D01*
X16317618Y-13181811D01*
X16317618Y-13010382D01*
X16508094Y-13210382D02*
X16508094Y-13105620D01*
X16498570Y-13086573D01*
X16479522Y-13077049D01*
X16441427Y-13077049D01*
X16422380Y-13086573D01*
X16508094Y-13200858D02*
X16489046Y-13210382D01*
X16441427Y-13210382D01*
X16422380Y-13200858D01*
X16412856Y-13181811D01*
X16412856Y-13162763D01*
X16422380Y-13143716D01*
X16441427Y-13134192D01*
X16489046Y-13134192D01*
X16508094Y-13124668D01*
X16574760Y-13077049D02*
X16650951Y-13077049D01*
X16603332Y-13010382D02*
X16603332Y-13181811D01*
X16612856Y-13200858D01*
X16631903Y-13210382D01*
X16650951Y-13210382D01*
X16793808Y-13200858D02*
X16774760Y-13210382D01*
X16736665Y-13210382D01*
X16717618Y-13200858D01*
X16708094Y-13181811D01*
X16708094Y-13105620D01*
X16717618Y-13086573D01*
X16736665Y-13077049D01*
X16774760Y-13077049D01*
X16793808Y-13086573D01*
X16803332Y-13105620D01*
X16803332Y-13124668D01*
X16708094Y-13143716D01*
X16974761Y-13210382D02*
X16974761Y-13010382D01*
X16974761Y-13200858D02*
X16955713Y-13210382D01*
X16917618Y-13210382D01*
X16898570Y-13200858D01*
X16889046Y-13191335D01*
X16879522Y-13172287D01*
X16879522Y-13115144D01*
X16889046Y-13096096D01*
X16898570Y-13086573D01*
X16917618Y-13077049D01*
X16955713Y-13077049D01*
X16974761Y-13086573D01*
X17050951Y-13286573D02*
X17060475Y-13277049D01*
X17079522Y-13248477D01*
X17089046Y-13229430D01*
X17098570Y-13200858D01*
X17108094Y-13153239D01*
X17108094Y-13115144D01*
X17098570Y-13067525D01*
X17089046Y-13038954D01*
X17079522Y-13019906D01*
X17060475Y-12991335D01*
X17050951Y-12981811D01*
X10298094Y-13409906D02*
G75*
G03*
X10298094Y-13409906I-100000J0D01*
G01*
X10546189Y-13319430D02*
X10555713Y-13309906D01*
X10574761Y-13300382D01*
X10622380Y-13300382D01*
X10641427Y-13309906D01*
X10650951Y-13319430D01*
X10660475Y-13338477D01*
X10660475Y-13357525D01*
X10650951Y-13386096D01*
X10536665Y-13500382D01*
X10660475Y-13500382D01*
X10746189Y-13481335D02*
X10755713Y-13490858D01*
X10746189Y-13500382D01*
X10736665Y-13490858D01*
X10746189Y-13481335D01*
X10746189Y-13500382D01*
X10850951Y-13500382D02*
X10889046Y-13500382D01*
X10908094Y-13490858D01*
X10917618Y-13481335D01*
X10936665Y-13452763D01*
X10946189Y-13414668D01*
X10946189Y-13338477D01*
X10936665Y-13319430D01*
X10927142Y-13309906D01*
X10908094Y-13300382D01*
X10869999Y-13300382D01*
X10850951Y-13309906D01*
X10841427Y-13319430D01*
X10831903Y-13338477D01*
X10831903Y-13386096D01*
X10841427Y-13405144D01*
X10850951Y-13414668D01*
X10869999Y-13424192D01*
X10908094Y-13424192D01*
X10927142Y-13414668D01*
X10936665Y-13405144D01*
X10946189Y-13386096D01*
X11127142Y-13300382D02*
X11031903Y-13300382D01*
X11022380Y-13395620D01*
X11031903Y-13386096D01*
X11050951Y-13376573D01*
X11098570Y-13376573D01*
X11117618Y-13386096D01*
X11127142Y-13395620D01*
X11136665Y-13414668D01*
X11136665Y-13462287D01*
X11127142Y-13481335D01*
X11117618Y-13490858D01*
X11098570Y-13500382D01*
X11050951Y-13500382D01*
X11031903Y-13490858D01*
X11022380Y-13481335D01*
X11260475Y-13300382D02*
X11279522Y-13300382D01*
X11298570Y-13309906D01*
X11308094Y-13319430D01*
X11317618Y-13338477D01*
X11327141Y-13376573D01*
X11327141Y-13424192D01*
X11317618Y-13462287D01*
X11308094Y-13481335D01*
X11298570Y-13490858D01*
X11279522Y-13500382D01*
X11260475Y-13500382D01*
X11241427Y-13490858D01*
X11231903Y-13481335D01*
X11222380Y-13462287D01*
X11212856Y-13424192D01*
X11212856Y-13376573D01*
X11222380Y-13338477D01*
X11231903Y-13319430D01*
X11241427Y-13309906D01*
X11260475Y-13300382D01*
X11412856Y-13500382D02*
X11412856Y-13367049D01*
X11412856Y-13386096D02*
X11422380Y-13376573D01*
X11441427Y-13367049D01*
X11469999Y-13367049D01*
X11489046Y-13376573D01*
X11498570Y-13395620D01*
X11498570Y-13500382D01*
X11498570Y-13395620D02*
X11508094Y-13376573D01*
X11527141Y-13367049D01*
X11555713Y-13367049D01*
X11574760Y-13376573D01*
X11584284Y-13395620D01*
X11584284Y-13500382D01*
X11679522Y-13500382D02*
X11679522Y-13367049D01*
X11679522Y-13386096D02*
X11689046Y-13376573D01*
X11708094Y-13367049D01*
X11736665Y-13367049D01*
X11755713Y-13376573D01*
X11765237Y-13395620D01*
X11765237Y-13500382D01*
X11765237Y-13395620D02*
X11774760Y-13376573D01*
X11793808Y-13367049D01*
X11822380Y-13367049D01*
X11841427Y-13376573D01*
X11850951Y-13395620D01*
X11850951Y-13500382D01*
X12241427Y-13290858D02*
X12069999Y-13548001D01*
X12498570Y-13300382D02*
X12517618Y-13300382D01*
X12536665Y-13309906D01*
X12546189Y-13319430D01*
X12555713Y-13338477D01*
X12565237Y-13376573D01*
X12565237Y-13424192D01*
X12555713Y-13462287D01*
X12546189Y-13481335D01*
X12536665Y-13490858D01*
X12517618Y-13500382D01*
X12498570Y-13500382D01*
X12479522Y-13490858D01*
X12469999Y-13481335D01*
X12460475Y-13462287D01*
X12450951Y-13424192D01*
X12450951Y-13376573D01*
X12460475Y-13338477D01*
X12469999Y-13319430D01*
X12479522Y-13309906D01*
X12498570Y-13300382D01*
X12650951Y-13481335D02*
X12660475Y-13490858D01*
X12650951Y-13500382D01*
X12641427Y-13490858D01*
X12650951Y-13481335D01*
X12650951Y-13500382D01*
X12850951Y-13500382D02*
X12736665Y-13500382D01*
X12793808Y-13500382D02*
X12793808Y-13300382D01*
X12774760Y-13328954D01*
X12755713Y-13348001D01*
X12736665Y-13357525D01*
X13041427Y-13500382D02*
X12927141Y-13500382D01*
X12984284Y-13500382D02*
X12984284Y-13300382D01*
X12965237Y-13328954D01*
X12946189Y-13348001D01*
X12927141Y-13357525D01*
X13212856Y-13300382D02*
X13174760Y-13300382D01*
X13155713Y-13309906D01*
X13146189Y-13319430D01*
X13127141Y-13348001D01*
X13117618Y-13386096D01*
X13117618Y-13462287D01*
X13127141Y-13481335D01*
X13136665Y-13490858D01*
X13155713Y-13500382D01*
X13193808Y-13500382D01*
X13212856Y-13490858D01*
X13222380Y-13481335D01*
X13231903Y-13462287D01*
X13231903Y-13414668D01*
X13222380Y-13395620D01*
X13212856Y-13386096D01*
X13193808Y-13376573D01*
X13155713Y-13376573D01*
X13136665Y-13386096D01*
X13127141Y-13395620D01*
X13117618Y-13414668D01*
X13422380Y-13500382D02*
X13308094Y-13500382D01*
X13365237Y-13500382D02*
X13365237Y-13300382D01*
X13346189Y-13328954D01*
X13327141Y-13348001D01*
X13308094Y-13357525D01*
X13498570Y-13300382D02*
X13498570Y-13338477D01*
X13574760Y-13300382D02*
X13574760Y-13338477D01*
X13869999Y-13576573D02*
X13860475Y-13567049D01*
X13841427Y-13538477D01*
X13831903Y-13519430D01*
X13822380Y-13490858D01*
X13812856Y-13443239D01*
X13812856Y-13405144D01*
X13822380Y-13357525D01*
X13831903Y-13328954D01*
X13841427Y-13309906D01*
X13860475Y-13281335D01*
X13869999Y-13271811D01*
X13936665Y-13319430D02*
X13946189Y-13309906D01*
X13965237Y-13300382D01*
X14012856Y-13300382D01*
X14031903Y-13309906D01*
X14041427Y-13319430D01*
X14050951Y-13338477D01*
X14050951Y-13357525D01*
X14041427Y-13386096D01*
X13927141Y-13500382D01*
X14050951Y-13500382D01*
X14289046Y-13500382D02*
X14289046Y-13300382D01*
X14374760Y-13500382D02*
X14374760Y-13395620D01*
X14365237Y-13376573D01*
X14346189Y-13367049D01*
X14317618Y-13367049D01*
X14298570Y-13376573D01*
X14289046Y-13386096D01*
X14498570Y-13500382D02*
X14479522Y-13490858D01*
X14469999Y-13481335D01*
X14460475Y-13462287D01*
X14460475Y-13405144D01*
X14469999Y-13386096D01*
X14479522Y-13376573D01*
X14498570Y-13367049D01*
X14527141Y-13367049D01*
X14546189Y-13376573D01*
X14555713Y-13386096D01*
X14565237Y-13405144D01*
X14565237Y-13462287D01*
X14555713Y-13481335D01*
X14546189Y-13490858D01*
X14527141Y-13500382D01*
X14498570Y-13500382D01*
X14679522Y-13500382D02*
X14660475Y-13490858D01*
X14650951Y-13471811D01*
X14650951Y-13300382D01*
X14831903Y-13490858D02*
X14812856Y-13500382D01*
X14774760Y-13500382D01*
X14755713Y-13490858D01*
X14746189Y-13471811D01*
X14746189Y-13395620D01*
X14755713Y-13376573D01*
X14774760Y-13367049D01*
X14812856Y-13367049D01*
X14831903Y-13376573D01*
X14841427Y-13395620D01*
X14841427Y-13414668D01*
X14746189Y-13433716D01*
X14917618Y-13490858D02*
X14936665Y-13500382D01*
X14974760Y-13500382D01*
X14993808Y-13490858D01*
X15003332Y-13471811D01*
X15003332Y-13462287D01*
X14993808Y-13443239D01*
X14974760Y-13433716D01*
X14946189Y-13433716D01*
X14927141Y-13424192D01*
X14917618Y-13405144D01*
X14917618Y-13395620D01*
X14927141Y-13376573D01*
X14946189Y-13367049D01*
X14974760Y-13367049D01*
X14993808Y-13376573D01*
X15069999Y-13576573D02*
X15079522Y-13567049D01*
X15098570Y-13538477D01*
X15108094Y-13519430D01*
X15117618Y-13490858D01*
X15127141Y-13443239D01*
X15127141Y-13405144D01*
X15117618Y-13357525D01*
X15108094Y-13328954D01*
X15098570Y-13309906D01*
X15079522Y-13281335D01*
X15069999Y-13271811D01*
X15431903Y-13576573D02*
X15422380Y-13567049D01*
X15403332Y-13538477D01*
X15393808Y-13519430D01*
X15384284Y-13490858D01*
X15374760Y-13443239D01*
X15374760Y-13405144D01*
X15384284Y-13357525D01*
X15393808Y-13328954D01*
X15403332Y-13309906D01*
X15422380Y-13281335D01*
X15431903Y-13271811D01*
X15508094Y-13367049D02*
X15508094Y-13500382D01*
X15508094Y-13386096D02*
X15517618Y-13376573D01*
X15536665Y-13367049D01*
X15565237Y-13367049D01*
X15584284Y-13376573D01*
X15593808Y-13395620D01*
X15593808Y-13500382D01*
X15717618Y-13500382D02*
X15698570Y-13490858D01*
X15689046Y-13481335D01*
X15679522Y-13462287D01*
X15679522Y-13405144D01*
X15689046Y-13386096D01*
X15698570Y-13376573D01*
X15717618Y-13367049D01*
X15746189Y-13367049D01*
X15765237Y-13376573D01*
X15774760Y-13386096D01*
X15784284Y-13405144D01*
X15784284Y-13462287D01*
X15774760Y-13481335D01*
X15765237Y-13490858D01*
X15746189Y-13500382D01*
X15717618Y-13500382D01*
X15841427Y-13367049D02*
X15917618Y-13367049D01*
X15869999Y-13300382D02*
X15869999Y-13471811D01*
X15879522Y-13490858D01*
X15898570Y-13500382D01*
X15917618Y-13500382D01*
X16136665Y-13367049D02*
X16136665Y-13567049D01*
X16136665Y-13376573D02*
X16155713Y-13367049D01*
X16193808Y-13367049D01*
X16212856Y-13376573D01*
X16222380Y-13386096D01*
X16231903Y-13405144D01*
X16231903Y-13462287D01*
X16222380Y-13481335D01*
X16212856Y-13490858D01*
X16193808Y-13500382D01*
X16155713Y-13500382D01*
X16136665Y-13490858D01*
X16346189Y-13500382D02*
X16327141Y-13490858D01*
X16317618Y-13471811D01*
X16317618Y-13300382D01*
X16508094Y-13500382D02*
X16508094Y-13395620D01*
X16498570Y-13376573D01*
X16479522Y-13367049D01*
X16441427Y-13367049D01*
X16422380Y-13376573D01*
X16508094Y-13490858D02*
X16489046Y-13500382D01*
X16441427Y-13500382D01*
X16422380Y-13490858D01*
X16412856Y-13471811D01*
X16412856Y-13452763D01*
X16422380Y-13433716D01*
X16441427Y-13424192D01*
X16489046Y-13424192D01*
X16508094Y-13414668D01*
X16574760Y-13367049D02*
X16650951Y-13367049D01*
X16603332Y-13300382D02*
X16603332Y-13471811D01*
X16612856Y-13490858D01*
X16631903Y-13500382D01*
X16650951Y-13500382D01*
X16793808Y-13490858D02*
X16774760Y-13500382D01*
X16736665Y-13500382D01*
X16717618Y-13490858D01*
X16708094Y-13471811D01*
X16708094Y-13395620D01*
X16717618Y-13376573D01*
X16736665Y-13367049D01*
X16774760Y-13367049D01*
X16793808Y-13376573D01*
X16803332Y-13395620D01*
X16803332Y-13414668D01*
X16708094Y-13433716D01*
X16974761Y-13500382D02*
X16974761Y-13300382D01*
X16974761Y-13490858D02*
X16955713Y-13500382D01*
X16917618Y-13500382D01*
X16898570Y-13490858D01*
X16889046Y-13481335D01*
X16879522Y-13462287D01*
X16879522Y-13405144D01*
X16889046Y-13386096D01*
X16898570Y-13376573D01*
X16917618Y-13367049D01*
X16955713Y-13367049D01*
X16974761Y-13376573D01*
X17050951Y-13576573D02*
X17060475Y-13567049D01*
X17079522Y-13538477D01*
X17089046Y-13519430D01*
X17098570Y-13490858D01*
X17108094Y-13443239D01*
X17108094Y-13405144D01*
X17098570Y-13357525D01*
X17089046Y-13328954D01*
X17079522Y-13309906D01*
X17060475Y-13281335D01*
X17050951Y-13271811D01*
X10198094Y-13629906D02*
X10198094Y-13829906D01*
X10098094Y-13729906D02*
X10298094Y-13729906D01*
X10536665Y-13620382D02*
X10660475Y-13620382D01*
X10593808Y-13696573D01*
X10622380Y-13696573D01*
X10641427Y-13706096D01*
X10650951Y-13715620D01*
X10660475Y-13734668D01*
X10660475Y-13782287D01*
X10650951Y-13801335D01*
X10641427Y-13810858D01*
X10622380Y-13820382D01*
X10565237Y-13820382D01*
X10546189Y-13810858D01*
X10536665Y-13801335D01*
X10746189Y-13801335D02*
X10755713Y-13810858D01*
X10746189Y-13820382D01*
X10736665Y-13810858D01*
X10746189Y-13801335D01*
X10746189Y-13820382D01*
X10850951Y-13820382D02*
X10889046Y-13820382D01*
X10908094Y-13810858D01*
X10917618Y-13801335D01*
X10936665Y-13772763D01*
X10946189Y-13734668D01*
X10946189Y-13658477D01*
X10936665Y-13639430D01*
X10927142Y-13629906D01*
X10908094Y-13620382D01*
X10869999Y-13620382D01*
X10850951Y-13629906D01*
X10841427Y-13639430D01*
X10831903Y-13658477D01*
X10831903Y-13706096D01*
X10841427Y-13725144D01*
X10850951Y-13734668D01*
X10869999Y-13744192D01*
X10908094Y-13744192D01*
X10927142Y-13734668D01*
X10936665Y-13725144D01*
X10946189Y-13706096D01*
X11060475Y-13706096D02*
X11041427Y-13696573D01*
X11031903Y-13687049D01*
X11022380Y-13668001D01*
X11022380Y-13658477D01*
X11031903Y-13639430D01*
X11041427Y-13629906D01*
X11060475Y-13620382D01*
X11098570Y-13620382D01*
X11117618Y-13629906D01*
X11127142Y-13639430D01*
X11136665Y-13658477D01*
X11136665Y-13668001D01*
X11127142Y-13687049D01*
X11117618Y-13696573D01*
X11098570Y-13706096D01*
X11060475Y-13706096D01*
X11041427Y-13715620D01*
X11031903Y-13725144D01*
X11022380Y-13744192D01*
X11022380Y-13782287D01*
X11031903Y-13801335D01*
X11041427Y-13810858D01*
X11060475Y-13820382D01*
X11098570Y-13820382D01*
X11117618Y-13810858D01*
X11127142Y-13801335D01*
X11136665Y-13782287D01*
X11136665Y-13744192D01*
X11127142Y-13725144D01*
X11117618Y-13715620D01*
X11098570Y-13706096D01*
X11260475Y-13620382D02*
X11279522Y-13620382D01*
X11298570Y-13629906D01*
X11308094Y-13639430D01*
X11317618Y-13658477D01*
X11327141Y-13696573D01*
X11327141Y-13744192D01*
X11317618Y-13782287D01*
X11308094Y-13801335D01*
X11298570Y-13810858D01*
X11279522Y-13820382D01*
X11260475Y-13820382D01*
X11241427Y-13810858D01*
X11231903Y-13801335D01*
X11222380Y-13782287D01*
X11212856Y-13744192D01*
X11212856Y-13696573D01*
X11222380Y-13658477D01*
X11231903Y-13639430D01*
X11241427Y-13629906D01*
X11260475Y-13620382D01*
X11412856Y-13820382D02*
X11412856Y-13687049D01*
X11412856Y-13706096D02*
X11422380Y-13696573D01*
X11441427Y-13687049D01*
X11469999Y-13687049D01*
X11489046Y-13696573D01*
X11498570Y-13715620D01*
X11498570Y-13820382D01*
X11498570Y-13715620D02*
X11508094Y-13696573D01*
X11527141Y-13687049D01*
X11555713Y-13687049D01*
X11574760Y-13696573D01*
X11584284Y-13715620D01*
X11584284Y-13820382D01*
X11679522Y-13820382D02*
X11679522Y-13687049D01*
X11679522Y-13706096D02*
X11689046Y-13696573D01*
X11708094Y-13687049D01*
X11736665Y-13687049D01*
X11755713Y-13696573D01*
X11765237Y-13715620D01*
X11765237Y-13820382D01*
X11765237Y-13715620D02*
X11774760Y-13696573D01*
X11793808Y-13687049D01*
X11822380Y-13687049D01*
X11841427Y-13696573D01*
X11850951Y-13715620D01*
X11850951Y-13820382D01*
X12241427Y-13610858D02*
X12069999Y-13868001D01*
X12498570Y-13620382D02*
X12517618Y-13620382D01*
X12536665Y-13629906D01*
X12546189Y-13639430D01*
X12555713Y-13658477D01*
X12565237Y-13696573D01*
X12565237Y-13744192D01*
X12555713Y-13782287D01*
X12546189Y-13801335D01*
X12536665Y-13810858D01*
X12517618Y-13820382D01*
X12498570Y-13820382D01*
X12479522Y-13810858D01*
X12469999Y-13801335D01*
X12460475Y-13782287D01*
X12450951Y-13744192D01*
X12450951Y-13696573D01*
X12460475Y-13658477D01*
X12469999Y-13639430D01*
X12479522Y-13629906D01*
X12498570Y-13620382D01*
X12650951Y-13801335D02*
X12660475Y-13810858D01*
X12650951Y-13820382D01*
X12641427Y-13810858D01*
X12650951Y-13801335D01*
X12650951Y-13820382D01*
X12850951Y-13820382D02*
X12736665Y-13820382D01*
X12793808Y-13820382D02*
X12793808Y-13620382D01*
X12774760Y-13648954D01*
X12755713Y-13668001D01*
X12736665Y-13677525D01*
X13031903Y-13620382D02*
X12936665Y-13620382D01*
X12927141Y-13715620D01*
X12936665Y-13706096D01*
X12955713Y-13696573D01*
X13003332Y-13696573D01*
X13022380Y-13706096D01*
X13031903Y-13715620D01*
X13041427Y-13734668D01*
X13041427Y-13782287D01*
X13031903Y-13801335D01*
X13022380Y-13810858D01*
X13003332Y-13820382D01*
X12955713Y-13820382D01*
X12936665Y-13810858D01*
X12927141Y-13801335D01*
X13212856Y-13620382D02*
X13174760Y-13620382D01*
X13155713Y-13629906D01*
X13146189Y-13639430D01*
X13127141Y-13668001D01*
X13117618Y-13706096D01*
X13117618Y-13782287D01*
X13127141Y-13801335D01*
X13136665Y-13810858D01*
X13155713Y-13820382D01*
X13193808Y-13820382D01*
X13212856Y-13810858D01*
X13222380Y-13801335D01*
X13231903Y-13782287D01*
X13231903Y-13734668D01*
X13222380Y-13715620D01*
X13212856Y-13706096D01*
X13193808Y-13696573D01*
X13155713Y-13696573D01*
X13136665Y-13706096D01*
X13127141Y-13715620D01*
X13117618Y-13734668D01*
X13298570Y-13620382D02*
X13431903Y-13620382D01*
X13346189Y-13820382D01*
X13498570Y-13620382D02*
X13498570Y-13658477D01*
X13574760Y-13620382D02*
X13574760Y-13658477D01*
X13869999Y-13896573D02*
X13860475Y-13887049D01*
X13841427Y-13858477D01*
X13831903Y-13839430D01*
X13822380Y-13810858D01*
X13812856Y-13763239D01*
X13812856Y-13725144D01*
X13822380Y-13677525D01*
X13831903Y-13648954D01*
X13841427Y-13629906D01*
X13860475Y-13601335D01*
X13869999Y-13591811D01*
X14050951Y-13820382D02*
X13936665Y-13820382D01*
X13993808Y-13820382D02*
X13993808Y-13620382D01*
X13974760Y-13648954D01*
X13955713Y-13668001D01*
X13936665Y-13677525D01*
X14289046Y-13820382D02*
X14289046Y-13620382D01*
X14374760Y-13820382D02*
X14374760Y-13715620D01*
X14365237Y-13696573D01*
X14346189Y-13687049D01*
X14317618Y-13687049D01*
X14298570Y-13696573D01*
X14289046Y-13706096D01*
X14498570Y-13820382D02*
X14479522Y-13810858D01*
X14469999Y-13801335D01*
X14460475Y-13782287D01*
X14460475Y-13725144D01*
X14469999Y-13706096D01*
X14479522Y-13696573D01*
X14498570Y-13687049D01*
X14527141Y-13687049D01*
X14546189Y-13696573D01*
X14555713Y-13706096D01*
X14565237Y-13725144D01*
X14565237Y-13782287D01*
X14555713Y-13801335D01*
X14546189Y-13810858D01*
X14527141Y-13820382D01*
X14498570Y-13820382D01*
X14679522Y-13820382D02*
X14660475Y-13810858D01*
X14650951Y-13791811D01*
X14650951Y-13620382D01*
X14831903Y-13810858D02*
X14812856Y-13820382D01*
X14774760Y-13820382D01*
X14755713Y-13810858D01*
X14746189Y-13791811D01*
X14746189Y-13715620D01*
X14755713Y-13696573D01*
X14774760Y-13687049D01*
X14812856Y-13687049D01*
X14831903Y-13696573D01*
X14841427Y-13715620D01*
X14841427Y-13734668D01*
X14746189Y-13753716D01*
X14908094Y-13896573D02*
X14917618Y-13887049D01*
X14936665Y-13858477D01*
X14946189Y-13839430D01*
X14955713Y-13810858D01*
X14965237Y-13763239D01*
X14965237Y-13725144D01*
X14955713Y-13677525D01*
X14946189Y-13648954D01*
X14936665Y-13629906D01*
X14917618Y-13601335D01*
X14908094Y-13591811D01*
X15269999Y-13896573D02*
X15260475Y-13887049D01*
X15241427Y-13858477D01*
X15231903Y-13839430D01*
X15222380Y-13810858D01*
X15212856Y-13763239D01*
X15212856Y-13725144D01*
X15222380Y-13677525D01*
X15231903Y-13648954D01*
X15241427Y-13629906D01*
X15260475Y-13601335D01*
X15269999Y-13591811D01*
X15346189Y-13687049D02*
X15346189Y-13820382D01*
X15346189Y-13706096D02*
X15355713Y-13696573D01*
X15374760Y-13687049D01*
X15403332Y-13687049D01*
X15422380Y-13696573D01*
X15431903Y-13715620D01*
X15431903Y-13820382D01*
X15555713Y-13820382D02*
X15536665Y-13810858D01*
X15527141Y-13801335D01*
X15517618Y-13782287D01*
X15517618Y-13725144D01*
X15527141Y-13706096D01*
X15536665Y-13696573D01*
X15555713Y-13687049D01*
X15584284Y-13687049D01*
X15603332Y-13696573D01*
X15612856Y-13706096D01*
X15622380Y-13725144D01*
X15622380Y-13782287D01*
X15612856Y-13801335D01*
X15603332Y-13810858D01*
X15584284Y-13820382D01*
X15555713Y-13820382D01*
X15679522Y-13687049D02*
X15755713Y-13687049D01*
X15708094Y-13620382D02*
X15708094Y-13791811D01*
X15717618Y-13810858D01*
X15736665Y-13820382D01*
X15755713Y-13820382D01*
X15974760Y-13687049D02*
X15974760Y-13887049D01*
X15974760Y-13696573D02*
X15993808Y-13687049D01*
X16031903Y-13687049D01*
X16050951Y-13696573D01*
X16060475Y-13706096D01*
X16069999Y-13725144D01*
X16069999Y-13782287D01*
X16060475Y-13801335D01*
X16050951Y-13810858D01*
X16031903Y-13820382D01*
X15993808Y-13820382D01*
X15974760Y-13810858D01*
X16184284Y-13820382D02*
X16165237Y-13810858D01*
X16155713Y-13791811D01*
X16155713Y-13620382D01*
X16346189Y-13820382D02*
X16346189Y-13715620D01*
X16336665Y-13696573D01*
X16317618Y-13687049D01*
X16279522Y-13687049D01*
X16260475Y-13696573D01*
X16346189Y-13810858D02*
X16327141Y-13820382D01*
X16279522Y-13820382D01*
X16260475Y-13810858D01*
X16250951Y-13791811D01*
X16250951Y-13772763D01*
X16260475Y-13753716D01*
X16279522Y-13744192D01*
X16327141Y-13744192D01*
X16346189Y-13734668D01*
X16412856Y-13687049D02*
X16489046Y-13687049D01*
X16441427Y-13620382D02*
X16441427Y-13791811D01*
X16450951Y-13810858D01*
X16469999Y-13820382D01*
X16489046Y-13820382D01*
X16631903Y-13810858D02*
X16612856Y-13820382D01*
X16574760Y-13820382D01*
X16555713Y-13810858D01*
X16546189Y-13791811D01*
X16546189Y-13715620D01*
X16555713Y-13696573D01*
X16574760Y-13687049D01*
X16612856Y-13687049D01*
X16631903Y-13696573D01*
X16641427Y-13715620D01*
X16641427Y-13734668D01*
X16546189Y-13753716D01*
X16812856Y-13820382D02*
X16812856Y-13620382D01*
X16812856Y-13810858D02*
X16793808Y-13820382D01*
X16755713Y-13820382D01*
X16736665Y-13810858D01*
X16727141Y-13801335D01*
X16717618Y-13782287D01*
X16717618Y-13725144D01*
X16727141Y-13706096D01*
X16736665Y-13696573D01*
X16755713Y-13687049D01*
X16793808Y-13687049D01*
X16812856Y-13696573D01*
X16889046Y-13896573D02*
X16898570Y-13887049D01*
X16917618Y-13858477D01*
X16927142Y-13839430D01*
X16936665Y-13810858D01*
X16946189Y-13763239D01*
X16946189Y-13725144D01*
X16936665Y-13677525D01*
X16927142Y-13648954D01*
X16917618Y-13629906D01*
X16898570Y-13601335D01*
X16889046Y-13591811D01*
M02*
