G04 #@! TF.GenerationSoftware,KiCad,Pcbnew,(6.0.5)*
G04 #@! TF.CreationDate,2022-08-26T20:17:22-07:00*
G04 #@! TF.ProjectId,single_switch,73696e67-6c65-45f7-9377-697463682e6b,1*
G04 #@! TF.SameCoordinates,Original*
G04 #@! TF.FileFunction,Legend,Top*
G04 #@! TF.FilePolarity,Positive*
%FSLAX46Y46*%
G04 Gerber Fmt 4.6, Leading zero omitted, Abs format (unit mm)*
G04 Created by KiCad (PCBNEW (6.0.5)) date 2022-08-26 20:17:22*
%MOMM*%
%LPD*%
G01*
G04 APERTURE LIST*
G04 Aperture macros list*
%AMRoundRect*
0 Rectangle with rounded corners*
0 $1 Rounding radius*
0 $2 $3 $4 $5 $6 $7 $8 $9 X,Y pos of 4 corners*
0 Add a 4 corners polygon primitive as box body*
4,1,4,$2,$3,$4,$5,$6,$7,$8,$9,$2,$3,0*
0 Add four circle primitives for the rounded corners*
1,1,$1+$1,$2,$3*
1,1,$1+$1,$4,$5*
1,1,$1+$1,$6,$7*
1,1,$1+$1,$8,$9*
0 Add four rect primitives between the rounded corners*
20,1,$1+$1,$2,$3,$4,$5,0*
20,1,$1+$1,$4,$5,$6,$7,0*
20,1,$1+$1,$6,$7,$8,$9,0*
20,1,$1+$1,$8,$9,$2,$3,0*%
G04 Aperture macros list end*
%ADD10C,0.101600*%
%ADD11C,0.120000*%
%ADD12C,0.150000*%
%ADD13C,0.100000*%
%ADD14R,1.200000X0.900000*%
%ADD15RoundRect,0.375000X-0.375000X-0.375000X0.375000X-0.375000X0.375000X0.375000X-0.375000X0.375000X0*%
%ADD16C,3.980180*%
%ADD17C,2.950000*%
%ADD18C,1.700000*%
%ADD19R,2.550000X2.500000*%
%ADD20RoundRect,0.225000X0.250000X-0.225000X0.250000X0.225000X-0.250000X0.225000X-0.250000X-0.225000X0*%
%ADD21RoundRect,0.082000X0.718000X-0.328000X0.718000X0.328000X-0.718000X0.328000X-0.718000X-0.328000X0*%
G04 APERTURE END LIST*
D10*
X105137225Y-122831446D02*
X104672768Y-122831446D01*
X105347682Y-116927771D02*
X105144482Y-116637485D01*
X104999339Y-116927771D02*
X104999339Y-116318171D01*
X105231568Y-116318171D01*
X105289625Y-116347200D01*
X105318654Y-116376228D01*
X105347682Y-116434285D01*
X105347682Y-116521371D01*
X105318654Y-116579428D01*
X105289625Y-116608457D01*
X105231568Y-116637485D01*
X104999339Y-116637485D01*
X108584371Y-116760857D02*
X108990771Y-116615714D01*
X108584371Y-116470571D01*
X108381171Y-116122228D02*
X108381171Y-116064171D01*
X108410200Y-116006114D01*
X108439228Y-115977085D01*
X108497285Y-115948057D01*
X108613400Y-115919028D01*
X108758542Y-115919028D01*
X108874657Y-115948057D01*
X108932714Y-115977085D01*
X108961742Y-116006114D01*
X108990771Y-116064171D01*
X108990771Y-116122228D01*
X108961742Y-116180285D01*
X108932714Y-116209314D01*
X108874657Y-116238342D01*
X108758542Y-116267371D01*
X108613400Y-116267371D01*
X108497285Y-116238342D01*
X108439228Y-116209314D01*
X108410200Y-116180285D01*
X108381171Y-116122228D01*
X108932714Y-115657771D02*
X108961742Y-115628742D01*
X108990771Y-115657771D01*
X108961742Y-115686800D01*
X108932714Y-115657771D01*
X108990771Y-115657771D01*
X108990771Y-115048171D02*
X108990771Y-115396514D01*
X108990771Y-115222342D02*
X108381171Y-115222342D01*
X108468257Y-115280400D01*
X108526314Y-115338457D01*
X108555342Y-115396514D01*
X118726228Y-108988457D02*
X118261771Y-108988457D01*
X118809685Y-115530771D02*
X118606485Y-115240485D01*
X118461342Y-115530771D02*
X118461342Y-114921171D01*
X118693571Y-114921171D01*
X118751628Y-114950200D01*
X118780657Y-114979228D01*
X118809685Y-115037285D01*
X118809685Y-115124371D01*
X118780657Y-115182428D01*
X118751628Y-115211457D01*
X118693571Y-115240485D01*
X118461342Y-115240485D01*
X118435942Y-118858171D02*
X118552057Y-118858171D01*
X118610114Y-118887200D01*
X118668171Y-118945257D01*
X118697200Y-119061371D01*
X118697200Y-119264571D01*
X118668171Y-119380685D01*
X118610114Y-119438742D01*
X118552057Y-119467771D01*
X118435942Y-119467771D01*
X118377885Y-119438742D01*
X118319828Y-119380685D01*
X118290800Y-119264571D01*
X118290800Y-119061371D01*
X118319828Y-118945257D01*
X118377885Y-118887200D01*
X118435942Y-118858171D01*
X105227942Y-113778171D02*
X105344057Y-113778171D01*
X105402114Y-113807200D01*
X105460171Y-113865257D01*
X105489200Y-113981371D01*
X105489200Y-114184571D01*
X105460171Y-114300685D01*
X105402114Y-114358742D01*
X105344057Y-114387771D01*
X105227942Y-114387771D01*
X105169885Y-114358742D01*
X105111828Y-114300685D01*
X105082800Y-114184571D01*
X105082800Y-113981371D01*
X105111828Y-113865257D01*
X105169885Y-113807200D01*
X105227942Y-113778171D01*
X111062682Y-108995703D02*
X111033654Y-109024731D01*
X110946568Y-109053760D01*
X110888511Y-109053760D01*
X110801425Y-109024731D01*
X110743368Y-108966674D01*
X110714339Y-108908617D01*
X110685311Y-108792503D01*
X110685311Y-108705417D01*
X110714339Y-108589303D01*
X110743368Y-108531246D01*
X110801425Y-108473189D01*
X110888511Y-108444160D01*
X110946568Y-108444160D01*
X111033654Y-108473189D01*
X111062682Y-108502217D01*
X115395200Y-123150760D02*
X115395200Y-122541160D01*
X115540342Y-122541160D01*
X115627428Y-122570189D01*
X115685485Y-122628246D01*
X115714514Y-122686303D01*
X115743542Y-122802417D01*
X115743542Y-122889503D01*
X115714514Y-123005617D01*
X115685485Y-123063674D01*
X115627428Y-123121731D01*
X115540342Y-123150760D01*
X115395200Y-123150760D01*
X116004800Y-123150760D02*
X116004800Y-122541160D01*
X109672942Y-122160171D02*
X109789057Y-122160171D01*
X109847114Y-122189200D01*
X109905171Y-122247257D01*
X109934200Y-122363371D01*
X109934200Y-122566571D01*
X109905171Y-122682685D01*
X109847114Y-122740742D01*
X109789057Y-122769771D01*
X109672942Y-122769771D01*
X109614885Y-122740742D01*
X109556828Y-122682685D01*
X109527800Y-122566571D01*
X109527800Y-122363371D01*
X109556828Y-122247257D01*
X109614885Y-122189200D01*
X109672942Y-122160171D01*
X107775200Y-108164771D02*
X107775200Y-107555171D01*
X107920342Y-107555171D01*
X108007428Y-107584200D01*
X108065485Y-107642257D01*
X108094514Y-107700314D01*
X108123542Y-107816428D01*
X108123542Y-107903514D01*
X108094514Y-108019628D01*
X108065485Y-108077685D01*
X108007428Y-108135742D01*
X107920342Y-108164771D01*
X107775200Y-108164771D01*
X108384800Y-108164771D02*
X108384800Y-107555171D01*
X118726228Y-120418457D02*
X118261771Y-120418457D01*
X118494000Y-120186228D02*
X118494000Y-120650685D01*
X112967685Y-122965714D02*
X112938657Y-122994742D01*
X112851571Y-123023771D01*
X112793514Y-123023771D01*
X112706428Y-122994742D01*
X112648371Y-122936685D01*
X112619342Y-122878628D01*
X112590314Y-122762514D01*
X112590314Y-122675428D01*
X112619342Y-122559314D01*
X112648371Y-122501257D01*
X112706428Y-122443200D01*
X112793514Y-122414171D01*
X112851571Y-122414171D01*
X112938657Y-122443200D01*
X112967685Y-122472228D01*
X118853228Y-122704457D02*
X118388771Y-122704457D01*
X106153228Y-122831457D02*
X105688771Y-122831457D01*
X105921000Y-122599228D02*
X105921000Y-123063685D01*
X107804228Y-108734457D02*
X107339771Y-108734457D01*
X107572000Y-108502228D02*
X107572000Y-108966685D01*
X105137228Y-108988457D02*
X104672771Y-108988457D01*
X115641942Y-108317171D02*
X115758057Y-108317171D01*
X115816114Y-108346200D01*
X115874171Y-108404257D01*
X115903200Y-108520371D01*
X115903200Y-108723571D01*
X115874171Y-108839685D01*
X115816114Y-108897742D01*
X115758057Y-108926771D01*
X115641942Y-108926771D01*
X115583885Y-108897742D01*
X115525828Y-108839685D01*
X115496800Y-108723571D01*
X115496800Y-108520371D01*
X115525828Y-108404257D01*
X115583885Y-108346200D01*
X115641942Y-108317171D01*
X105108200Y-119340771D02*
X105108200Y-118731171D01*
X105253342Y-118731171D01*
X105340428Y-118760200D01*
X105398485Y-118818257D01*
X105427514Y-118876314D01*
X105456542Y-118992428D01*
X105456542Y-119079514D01*
X105427514Y-119195628D01*
X105398485Y-119253685D01*
X105340428Y-119311742D01*
X105253342Y-119340771D01*
X105108200Y-119340771D01*
X105717800Y-119340771D02*
X105717800Y-118731171D01*
X105264228Y-121942457D02*
X104799771Y-121942457D01*
X105032000Y-121710228D02*
X105032000Y-122174685D01*
X109059711Y-118705760D02*
X109059711Y-118096160D01*
X109059711Y-118386446D02*
X109408054Y-118386446D01*
X109408054Y-118705760D02*
X109408054Y-118096160D01*
X109785425Y-118705760D02*
X109727368Y-118676731D01*
X109698339Y-118647703D01*
X109669311Y-118589646D01*
X109669311Y-118415474D01*
X109698339Y-118357417D01*
X109727368Y-118328389D01*
X109785425Y-118299360D01*
X109872511Y-118299360D01*
X109930568Y-118328389D01*
X109959597Y-118357417D01*
X109988625Y-118415474D01*
X109988625Y-118589646D01*
X109959597Y-118647703D01*
X109930568Y-118676731D01*
X109872511Y-118705760D01*
X109785425Y-118705760D01*
X110249882Y-118705760D02*
X110249882Y-118299360D01*
X110249882Y-118415474D02*
X110278911Y-118357417D01*
X110307939Y-118328389D01*
X110365997Y-118299360D01*
X110424054Y-118299360D01*
X110627254Y-118705760D02*
X110627254Y-118299360D01*
X110627254Y-118096160D02*
X110598225Y-118125189D01*
X110627254Y-118154217D01*
X110656282Y-118125189D01*
X110627254Y-118096160D01*
X110627254Y-118154217D01*
X110859482Y-118299360D02*
X111178797Y-118299360D01*
X110859482Y-118705760D01*
X111178797Y-118705760D01*
X111498111Y-118705760D02*
X111440054Y-118676731D01*
X111411025Y-118647703D01*
X111381997Y-118589646D01*
X111381997Y-118415474D01*
X111411025Y-118357417D01*
X111440054Y-118328389D01*
X111498111Y-118299360D01*
X111585197Y-118299360D01*
X111643254Y-118328389D01*
X111672282Y-118357417D01*
X111701311Y-118415474D01*
X111701311Y-118589646D01*
X111672282Y-118647703D01*
X111643254Y-118676731D01*
X111585197Y-118705760D01*
X111498111Y-118705760D01*
X111962568Y-118299360D02*
X111962568Y-118705760D01*
X111962568Y-118357417D02*
X111991597Y-118328389D01*
X112049654Y-118299360D01*
X112136739Y-118299360D01*
X112194797Y-118328389D01*
X112223825Y-118386446D01*
X112223825Y-118705760D01*
X113007597Y-118705760D02*
X112978568Y-118705760D01*
X112920511Y-118676731D01*
X112833425Y-118589646D01*
X112688282Y-118415474D01*
X112630225Y-118328389D01*
X112601197Y-118241303D01*
X112601197Y-118183246D01*
X112630225Y-118125189D01*
X112688282Y-118096160D01*
X112717311Y-118096160D01*
X112775368Y-118125189D01*
X112804397Y-118183246D01*
X112804397Y-118212274D01*
X112775368Y-118270331D01*
X112746339Y-118299360D01*
X112572168Y-118415474D01*
X112543139Y-118444503D01*
X112514111Y-118502560D01*
X112514111Y-118589646D01*
X112543139Y-118647703D01*
X112572168Y-118676731D01*
X112630225Y-118705760D01*
X112717311Y-118705760D01*
X112775368Y-118676731D01*
X112804397Y-118647703D01*
X112891482Y-118531589D01*
X112920511Y-118444503D01*
X112920511Y-118386446D01*
X113617197Y-118705760D02*
X113413997Y-118415474D01*
X113268854Y-118705760D02*
X113268854Y-118096160D01*
X113501082Y-118096160D01*
X113559139Y-118125189D01*
X113588168Y-118154217D01*
X113617197Y-118212274D01*
X113617197Y-118299360D01*
X113588168Y-118357417D01*
X113559139Y-118386446D01*
X113501082Y-118415474D01*
X113268854Y-118415474D01*
X113878454Y-118705760D02*
X113878454Y-118299360D01*
X113878454Y-118096160D02*
X113849425Y-118125189D01*
X113878454Y-118154217D01*
X113907482Y-118125189D01*
X113878454Y-118096160D01*
X113878454Y-118154217D01*
X114168739Y-118299360D02*
X114168739Y-118821874D01*
X114139711Y-118879931D01*
X114081654Y-118908960D01*
X114052625Y-118908960D01*
X114168739Y-118096160D02*
X114139711Y-118125189D01*
X114168739Y-118154217D01*
X114197768Y-118125189D01*
X114168739Y-118096160D01*
X114168739Y-118154217D01*
X114459025Y-118299360D02*
X114459025Y-118705760D01*
X114459025Y-118357417D02*
X114488054Y-118328389D01*
X114546111Y-118299360D01*
X114633197Y-118299360D01*
X114691254Y-118328389D01*
X114720282Y-118386446D01*
X114720282Y-118705760D01*
X118189200Y-111720771D02*
X118189200Y-111111171D01*
X118334342Y-111111171D01*
X118421428Y-111140200D01*
X118479485Y-111198257D01*
X118508514Y-111256314D01*
X118537542Y-111372428D01*
X118537542Y-111459514D01*
X118508514Y-111575628D01*
X118479485Y-111633685D01*
X118421428Y-111691742D01*
X118334342Y-111720771D01*
X118189200Y-111720771D01*
X118798800Y-111720771D02*
X118798800Y-111111171D01*
D11*
X115970000Y-117196000D02*
X115970000Y-121096000D01*
X117970000Y-117196000D02*
X115970000Y-117196000D01*
X117970000Y-117196000D02*
X117970000Y-121096000D01*
D12*
X112754997Y-113349989D02*
X107024997Y-113349989D01*
X107024997Y-109139989D02*
X107024997Y-113349989D01*
X118024997Y-110809989D02*
X118024997Y-115024989D01*
X118024997Y-115024989D02*
X114429997Y-115024989D01*
X116349997Y-109134989D02*
X107024997Y-109134989D01*
X114429997Y-115024989D02*
G75*
G03*
X112754997Y-113349989I-1675000J0D01*
G01*
X118024997Y-110809989D02*
G75*
G03*
X116349997Y-109134989I-1675000J0D01*
G01*
D11*
X107828000Y-121110580D02*
X107828000Y-120829420D01*
X106808000Y-121110580D02*
X106808000Y-120829420D01*
G36*
X116100000Y-119750000D02*
G01*
X115200000Y-118850000D01*
X116100000Y-118850000D01*
X116100000Y-119750000D01*
G37*
D13*
X116100000Y-119750000D02*
X115200000Y-118850000D01*
X116100000Y-118850000D01*
X116100000Y-119750000D01*
%LPC*%
D14*
X116970000Y-117796000D03*
X116970000Y-121096000D03*
D15*
X106810000Y-123764000D03*
X119764000Y-121224000D03*
X104016000Y-120970000D03*
X114430000Y-108016000D03*
X119764000Y-123764000D03*
X119764000Y-108016000D03*
X104016000Y-123764000D03*
X109350000Y-108016000D03*
D16*
X111889997Y-115889989D03*
D17*
X115699997Y-113349989D03*
X109349997Y-110809989D03*
D18*
X116969997Y-115889989D03*
X106809997Y-115889989D03*
D19*
X119249997Y-113349989D03*
X105799997Y-110809989D03*
D20*
X107318000Y-121745000D03*
X107318000Y-120195000D03*
D15*
X104016000Y-113350000D03*
X106556000Y-108016000D03*
X104016000Y-108016000D03*
X119764000Y-118430000D03*
X119764000Y-115890000D03*
X104016000Y-115890000D03*
X109350000Y-123764000D03*
X111890000Y-108016000D03*
X114430000Y-123764000D03*
X119764000Y-110556000D03*
X111890000Y-123764000D03*
X104016000Y-118430000D03*
D21*
X109300000Y-121500000D03*
X109300000Y-120000000D03*
X114500000Y-120000000D03*
X114500000Y-121500000D03*
M02*
