M48
; DRILL file {KiCad (6.0.5)} date Fri Aug 26 20:17:27 2022
; FORMAT={-:-/ absolute / metric / decimal}
; #@! TF.CreationDate,2022-08-26T20:17:27-07:00
; #@! TF.GenerationSoftware,Kicad,Pcbnew,(6.0.5)
; #@! TF.FileFunction,Plated,1,4,PTH
FMAT,2
METRIC
; #@! TA.AperFunction,Plated,PTH,ViaDrill
T1C0.300
; #@! TA.AperFunction,Plated,PTH,ComponentDrill
T2C0.900
%
G90
G05
T1
X103.762Y-109.794
X103.762Y-110.683
X103.762Y-111.699
X105.286Y-122.367
X105.413Y-115.763
X105.667Y-113.35
X105.667Y-118.176
X105.667Y-121.097
X106.302Y-114.493
X106.556Y-122.367
X107.953Y-109.159
X108.08Y-119.3
X108.194Y-117.274
X108.842Y-112.842
X109.096Y-113.731
X109.096Y-119.065
X109.757Y-117.769
X111.89Y-112.08
X112.906Y-112.969
X113.033Y-109.667
X113.922Y-111.445
X114.43Y-117.668
X114.9Y-119.2
X115.192Y-115.763
X116.335Y-108.016
X116.335Y-109.413
X116.4Y-123.8
X116.462Y-122.367
X116.9Y-119.6
X116.97Y-110.556
X117.224Y-111.699
X117.605Y-108.016
X117.605Y-109.413
X117.859Y-122.367
X117.9Y-123.8
X118.367Y-118.176
X119.764Y-117.16
T2
X104.016Y-108.016
X104.016Y-113.35
X104.016Y-115.89
X104.016Y-118.43
X104.016Y-120.97
X104.016Y-123.764
X106.556Y-108.016
X106.81Y-123.764
X109.35Y-108.016
X109.35Y-123.764
X111.89Y-108.016
X111.89Y-123.764
X114.43Y-108.016
X114.43Y-123.764
X119.764Y-108.016
X119.764Y-110.556
X119.764Y-115.89
X119.764Y-118.43
X119.764Y-121.224
X119.764Y-123.764
T0
M30
