G04 #@! TF.GenerationSoftware,KiCad,Pcbnew,(6.0.5)*
G04 #@! TF.CreationDate,2022-08-26T20:17:22-07:00*
G04 #@! TF.ProjectId,single_switch,73696e67-6c65-45f7-9377-697463682e6b,1*
G04 #@! TF.SameCoordinates,Original*
G04 #@! TF.FileFunction,Profile,NP*
%FSLAX46Y46*%
G04 Gerber Fmt 4.6, Leading zero omitted, Abs format (unit mm)*
G04 Created by KiCad (PCBNEW (6.0.5)) date 2022-08-26 20:17:22*
%MOMM*%
%LPD*%
G01*
G04 APERTURE LIST*
G04 #@! TA.AperFunction,Profile*
%ADD10C,0.038100*%
G04 #@! TD*
G04 #@! TA.AperFunction,Profile*
%ADD11C,0.100000*%
G04 #@! TD*
G04 APERTURE END LIST*
D10*
X120780000Y-124526000D02*
X120780011Y-107254000D01*
X120526000Y-106999989D02*
X103254000Y-107000000D01*
X103000000Y-124525989D02*
G75*
G03*
X103254000Y-124780000I254000J-11D01*
G01*
X103254000Y-106999989D02*
G75*
G03*
X102999989Y-107254011I0J-254011D01*
G01*
X120525989Y-124780000D02*
G75*
G03*
X120780000Y-124526000I11J254000D01*
G01*
X102999989Y-107254011D02*
X102999989Y-124525989D01*
X103254000Y-124780000D02*
X120525989Y-124780011D01*
X120780011Y-107254000D02*
G75*
G03*
X120526000Y-106999989I-254011J0D01*
G01*
D11*
X113599999Y-121452842D02*
X113599999Y-120047158D01*
X112694452Y-119250000D02*
X111105548Y-119250000D01*
X111105548Y-122249999D02*
X112694453Y-122249999D01*
X110200001Y-120047158D02*
X110200001Y-121452842D01*
X110853291Y-119181700D02*
G75*
G03*
X110150516Y-119830280I-252261J-431700D01*
G01*
X113649484Y-119830280D02*
G75*
G03*
X113599999Y-120047158I450505J-216876D01*
G01*
X110150517Y-121669720D02*
G75*
G03*
X110853289Y-122318299I450513J-216880D01*
G01*
X110199985Y-120047157D02*
G75*
G03*
X110150516Y-119830280I-499885J57D01*
G01*
X113599999Y-121452843D02*
G75*
G03*
X113649484Y-121669720I499990J-1D01*
G01*
X113649483Y-119830281D02*
G75*
G03*
X112946711Y-119181701I-450513J216880D01*
G01*
X110853290Y-119181701D02*
G75*
G03*
X111105548Y-119250000I252260J431711D01*
G01*
X112946711Y-122318298D02*
G75*
G03*
X112694453Y-122249999I-252261J-431710D01*
G01*
X112694452Y-119250000D02*
G75*
G03*
X112946711Y-119181701I-2J500009D01*
G01*
X111105547Y-122250000D02*
G75*
G03*
X110853289Y-122318299I3J-500010D01*
G01*
X112946711Y-122318298D02*
G75*
G03*
X113649484Y-121669720I252259J431700D01*
G01*
X110150516Y-121669720D02*
G75*
G03*
X110200001Y-121452842I-450876J216960D01*
G01*
M02*
