G04 #@! TF.GenerationSoftware,KiCad,Pcbnew,(6.0.5)*
G04 #@! TF.CreationDate,2022-08-26T20:17:22-07:00*
G04 #@! TF.ProjectId,single_switch,73696e67-6c65-45f7-9377-697463682e6b,1*
G04 #@! TF.SameCoordinates,Original*
G04 #@! TF.FileFunction,Copper,L1,Top*
G04 #@! TF.FilePolarity,Positive*
%FSLAX46Y46*%
G04 Gerber Fmt 4.6, Leading zero omitted, Abs format (unit mm)*
G04 Created by KiCad (PCBNEW (6.0.5)) date 2022-08-26 20:17:22*
%MOMM*%
%LPD*%
G01*
G04 APERTURE LIST*
G04 Aperture macros list*
%AMRoundRect*
0 Rectangle with rounded corners*
0 $1 Rounding radius*
0 $2 $3 $4 $5 $6 $7 $8 $9 X,Y pos of 4 corners*
0 Add a 4 corners polygon primitive as box body*
4,1,4,$2,$3,$4,$5,$6,$7,$8,$9,$2,$3,0*
0 Add four circle primitives for the rounded corners*
1,1,$1+$1,$2,$3*
1,1,$1+$1,$4,$5*
1,1,$1+$1,$6,$7*
1,1,$1+$1,$8,$9*
0 Add four rect primitives between the rounded corners*
20,1,$1+$1,$2,$3,$4,$5,0*
20,1,$1+$1,$4,$5,$6,$7,0*
20,1,$1+$1,$6,$7,$8,$9,0*
20,1,$1+$1,$8,$9,$2,$3,0*%
G04 Aperture macros list end*
G04 #@! TA.AperFunction,SMDPad,CuDef*
%ADD10R,1.200000X0.900000*%
G04 #@! TD*
G04 #@! TA.AperFunction,ComponentPad*
%ADD11RoundRect,0.375000X-0.375000X-0.375000X0.375000X-0.375000X0.375000X0.375000X-0.375000X0.375000X0*%
G04 #@! TD*
G04 #@! TA.AperFunction,SMDPad,CuDef*
%ADD12R,2.550000X2.500000*%
G04 #@! TD*
G04 #@! TA.AperFunction,SMDPad,CuDef*
%ADD13RoundRect,0.225000X0.250000X-0.225000X0.250000X0.225000X-0.250000X0.225000X-0.250000X-0.225000X0*%
G04 #@! TD*
G04 #@! TA.AperFunction,SMDPad,CuDef*
%ADD14RoundRect,0.082000X0.718000X-0.328000X0.718000X0.328000X-0.718000X0.328000X-0.718000X-0.328000X0*%
G04 #@! TD*
G04 #@! TA.AperFunction,ViaPad*
%ADD15C,0.600000*%
G04 #@! TD*
G04 #@! TA.AperFunction,Conductor*
%ADD16C,0.152400*%
G04 #@! TD*
G04 #@! TA.AperFunction,Conductor*
%ADD17C,0.600000*%
G04 #@! TD*
G04 #@! TA.AperFunction,Conductor*
%ADD18C,0.150000*%
G04 #@! TD*
G04 APERTURE END LIST*
D10*
X116970000Y-117796000D03*
X116970000Y-121096000D03*
D11*
X106810000Y-123764000D03*
X119764000Y-121224000D03*
X104016000Y-120970000D03*
X114430000Y-108016000D03*
X119764000Y-123764000D03*
X119764000Y-108016000D03*
X104016000Y-123764000D03*
X109350000Y-108016000D03*
D12*
X119249997Y-113349989D03*
X105799997Y-110809989D03*
D13*
X107318000Y-121745000D03*
X107318000Y-120195000D03*
D11*
X104016000Y-113350000D03*
X106556000Y-108016000D03*
X104016000Y-108016000D03*
X119764000Y-118430000D03*
X119764000Y-115890000D03*
X104016000Y-115890000D03*
X109350000Y-123764000D03*
X111890000Y-108016000D03*
X114430000Y-123764000D03*
X119764000Y-110556000D03*
X111890000Y-123764000D03*
X104016000Y-118430000D03*
D14*
X109300000Y-121500000D03*
X109300000Y-120000000D03*
X114500000Y-120000000D03*
X114500000Y-121500000D03*
D15*
X117900000Y-123800000D03*
X116400000Y-123800000D03*
X106556000Y-122367000D03*
X108842000Y-112842000D03*
X117605000Y-109413000D03*
X103762000Y-110683000D03*
X105667000Y-118176000D03*
X117859000Y-122367000D03*
X113922000Y-111445000D03*
X105413000Y-115763000D03*
X116335000Y-108016000D03*
X107953000Y-109159000D03*
X119764000Y-117160000D03*
X114900000Y-119200000D03*
X103762000Y-111699000D03*
X105667000Y-113350000D03*
X116335000Y-109413000D03*
X113033000Y-109667000D03*
X111890000Y-112080000D03*
X105286000Y-122367000D03*
X103762000Y-109794000D03*
X118367000Y-118176000D03*
X105667000Y-121097000D03*
X116900000Y-119600000D03*
X117224000Y-111699000D03*
X117605000Y-108016000D03*
X116462000Y-122367000D03*
X115192000Y-115763000D03*
X108194043Y-117274043D03*
X108080000Y-119300000D03*
X112906000Y-112969000D03*
X106302000Y-114493000D03*
X116970000Y-110556000D03*
X114430000Y-117668000D03*
X109756537Y-117769463D03*
X109096000Y-113731000D03*
X109096000Y-119065000D03*
D16*
X107178000Y-121745000D02*
X106556000Y-122367000D01*
D17*
X107533000Y-121530000D02*
X109300000Y-121530000D01*
D16*
X109350000Y-121526000D02*
X109290000Y-121466000D01*
X107318000Y-121745000D02*
X107178000Y-121745000D01*
D17*
X107318000Y-121745000D02*
X107533000Y-121530000D01*
D16*
X114430000Y-119906000D02*
X114490000Y-119966000D01*
D18*
X119249997Y-113349989D02*
X118144518Y-114455468D01*
X118144518Y-114455468D02*
X118144518Y-116621482D01*
X118144518Y-116621482D02*
X116970000Y-117796000D01*
D16*
X117772711Y-120293289D02*
X117772711Y-118470711D01*
X106322996Y-117065710D02*
X107296998Y-117065710D01*
X105782286Y-116525000D02*
X106322996Y-117065710D01*
X110788530Y-113574178D02*
X112849238Y-113574178D01*
X104651000Y-116525000D02*
X105782286Y-116525000D01*
X116248711Y-118470711D02*
X117772711Y-118470711D01*
X114689289Y-115414229D02*
X114689289Y-116911289D01*
X116970000Y-121096000D02*
X117772711Y-120293289D01*
X112849238Y-113574178D02*
X114689289Y-115414229D01*
X107296998Y-117065710D02*
X110788530Y-113574178D01*
X117772711Y-118470711D02*
X117772711Y-117881289D01*
X104016000Y-115890000D02*
X104651000Y-116525000D01*
X117772711Y-117881289D02*
X119764000Y-115890000D01*
X114689289Y-116911289D02*
X116248711Y-118470711D01*
X114960710Y-115150710D02*
X115192000Y-115382000D01*
X108194043Y-119185957D02*
X108194043Y-117274043D01*
X112906000Y-112969000D02*
X112906000Y-113096000D01*
X115192000Y-115774714D02*
X115192000Y-115763000D01*
X110874000Y-112969000D02*
X112906000Y-112969000D01*
X108080000Y-119300000D02*
X108810000Y-120030000D01*
X114954113Y-115150710D02*
X114960710Y-115150710D01*
X112906000Y-113096000D02*
X113899276Y-114089276D01*
X113899276Y-114089276D02*
X113899276Y-114095873D01*
X108080000Y-119300000D02*
X108194043Y-119185957D01*
X113899276Y-114095873D02*
X114954113Y-115150710D01*
X108810000Y-120030000D02*
X109300000Y-120030000D01*
X109350000Y-114493000D02*
X110874000Y-112969000D01*
X106302000Y-114493000D02*
X109350000Y-114493000D01*
X115192000Y-115382000D02*
X115192000Y-115774714D01*
X119764000Y-110556000D02*
X116970000Y-110556000D01*
X115900000Y-120400000D02*
X115900000Y-121530000D01*
X109574226Y-116849254D02*
X109574226Y-116876226D01*
X108486160Y-116271000D02*
X108995972Y-116271000D01*
X115900000Y-122294000D02*
X114430000Y-123764000D01*
X113892200Y-118205800D02*
X114430000Y-117668000D01*
X106207464Y-117344630D02*
X107412530Y-117344630D01*
X111890000Y-110556000D02*
X116970000Y-110556000D01*
X104016000Y-118176000D02*
X104905000Y-117287000D01*
X110903800Y-118205800D02*
X113892200Y-118205800D01*
X115900000Y-119138000D02*
X115900000Y-120400000D01*
X115900000Y-120400000D02*
X115900000Y-122294000D01*
X106149834Y-117287000D02*
X106207464Y-117344630D01*
X114430000Y-117668000D02*
X115900000Y-119138000D01*
X109350000Y-108016000D02*
X111890000Y-110556000D01*
X109574226Y-116876226D02*
X110903800Y-118205800D01*
X107412530Y-117344630D02*
X108486160Y-116271000D01*
X104905000Y-117287000D02*
X106149834Y-117287000D01*
X104016000Y-118430000D02*
X104016000Y-118176000D01*
X115900000Y-121530000D02*
X114500000Y-121530000D01*
X108995972Y-116271000D02*
X109574226Y-116849254D01*
X109756537Y-117769463D02*
X109096000Y-118430000D01*
X108721008Y-113731000D02*
X105799997Y-110809989D01*
X109096000Y-113731000D02*
X108721008Y-113731000D01*
X109096000Y-118430000D02*
X109096000Y-119065000D01*
G04 #@! TA.AperFunction,Conductor*
G36*
X119051277Y-107019296D02*
G01*
X119069583Y-107063490D01*
X119051277Y-107107684D01*
X119038898Y-107117286D01*
X119003804Y-107138041D01*
X118997637Y-107142824D01*
X118890824Y-107249637D01*
X118886041Y-107255804D01*
X118809149Y-107385819D01*
X118806045Y-107392991D01*
X118763699Y-107538751D01*
X118762556Y-107545008D01*
X118760097Y-107576247D01*
X118760000Y-107578723D01*
X118760000Y-107876569D01*
X118763641Y-107885359D01*
X118772431Y-107889000D01*
X119828500Y-107889000D01*
X119872694Y-107907306D01*
X119891000Y-107951500D01*
X119891000Y-109007568D01*
X119894641Y-109016358D01*
X119903431Y-109019999D01*
X120201274Y-109019999D01*
X120203756Y-109019901D01*
X120234994Y-109017444D01*
X120241246Y-109016302D01*
X120387009Y-108973955D01*
X120394181Y-108970851D01*
X120524196Y-108893959D01*
X120530363Y-108889176D01*
X120637176Y-108782363D01*
X120641959Y-108776196D01*
X120662714Y-108741102D01*
X120700967Y-108712381D01*
X120748325Y-108719121D01*
X120777046Y-108757374D01*
X120779010Y-108772917D01*
X120779007Y-112761404D01*
X120779002Y-122209625D01*
X120779001Y-123007067D01*
X120760695Y-123051261D01*
X120716501Y-123069567D01*
X120672307Y-123051261D01*
X120662705Y-123038883D01*
X120641957Y-123003801D01*
X120637176Y-122997637D01*
X120530363Y-122890824D01*
X120524196Y-122886041D01*
X120394181Y-122809149D01*
X120387009Y-122806045D01*
X120241249Y-122763699D01*
X120234992Y-122762556D01*
X120203753Y-122760097D01*
X120201277Y-122760000D01*
X119903431Y-122760000D01*
X119894641Y-122763641D01*
X119891000Y-122772431D01*
X119891000Y-123828500D01*
X119872694Y-123872694D01*
X119828500Y-123891000D01*
X118772432Y-123891000D01*
X118763642Y-123894641D01*
X118760001Y-123903431D01*
X118760001Y-124201274D01*
X118760099Y-124203756D01*
X118762556Y-124234994D01*
X118763698Y-124241246D01*
X118806045Y-124387009D01*
X118809149Y-124394181D01*
X118886041Y-124524196D01*
X118890824Y-124530363D01*
X118997637Y-124637176D01*
X119003804Y-124641959D01*
X119038898Y-124662714D01*
X119067619Y-124700967D01*
X119060879Y-124748325D01*
X119022626Y-124777046D01*
X119007083Y-124779010D01*
X111888140Y-124779005D01*
X104772933Y-124779001D01*
X104728739Y-124760695D01*
X104710433Y-124716501D01*
X104728739Y-124672307D01*
X104741117Y-124662705D01*
X104776199Y-124641957D01*
X104782363Y-124637176D01*
X104889176Y-124530363D01*
X104893959Y-124524196D01*
X104970851Y-124394181D01*
X104973955Y-124387009D01*
X105016301Y-124241249D01*
X105017444Y-124234992D01*
X105019903Y-124203753D01*
X105020000Y-124201277D01*
X105020000Y-123903431D01*
X105016359Y-123894641D01*
X105007569Y-123891000D01*
X103951500Y-123891000D01*
X103907306Y-123872694D01*
X103889000Y-123828500D01*
X103889000Y-123624569D01*
X104143000Y-123624569D01*
X104146641Y-123633359D01*
X104155431Y-123637000D01*
X105007568Y-123637000D01*
X105016358Y-123633359D01*
X105019999Y-123624569D01*
X105019999Y-123326726D01*
X105019901Y-123324244D01*
X105017444Y-123293006D01*
X105016302Y-123286754D01*
X104973955Y-123140991D01*
X104970851Y-123133819D01*
X104893959Y-123003804D01*
X104889176Y-122997637D01*
X104782363Y-122890824D01*
X104776196Y-122886041D01*
X104646181Y-122809149D01*
X104639009Y-122806045D01*
X104493249Y-122763699D01*
X104486992Y-122762556D01*
X104455753Y-122760097D01*
X104453277Y-122760000D01*
X104155431Y-122760000D01*
X104146641Y-122763641D01*
X104143000Y-122772431D01*
X104143000Y-123624569D01*
X103889000Y-123624569D01*
X103889000Y-122772432D01*
X103885359Y-122763642D01*
X103876569Y-122760001D01*
X103578726Y-122760001D01*
X103576244Y-122760099D01*
X103545006Y-122762556D01*
X103538754Y-122763698D01*
X103392991Y-122806045D01*
X103385819Y-122809149D01*
X103255804Y-122886041D01*
X103249637Y-122890824D01*
X103142824Y-122997637D01*
X103138043Y-123003801D01*
X103117285Y-123038900D01*
X103079032Y-123067621D01*
X103031673Y-123060880D01*
X103002952Y-123022627D01*
X103000989Y-123007084D01*
X103000989Y-121392562D01*
X103138500Y-121392562D01*
X103145176Y-121454014D01*
X103195702Y-121588794D01*
X103282025Y-121703975D01*
X103397206Y-121790298D01*
X103401375Y-121791861D01*
X103401377Y-121791862D01*
X103526115Y-121838623D01*
X103531986Y-121840824D01*
X103593438Y-121847500D01*
X104438562Y-121847500D01*
X104500014Y-121840824D01*
X104505885Y-121838623D01*
X104630623Y-121791862D01*
X104630625Y-121791861D01*
X104634794Y-121790298D01*
X104749975Y-121703975D01*
X104836298Y-121588794D01*
X104886824Y-121454014D01*
X104893500Y-121392562D01*
X104893500Y-120547438D01*
X104886824Y-120485986D01*
X104885449Y-120482318D01*
X104878453Y-120463657D01*
X106589000Y-120463657D01*
X106589183Y-120467025D01*
X106594940Y-120520020D01*
X106596738Y-120527584D01*
X106641962Y-120648222D01*
X106646197Y-120655957D01*
X106723145Y-120758627D01*
X106729373Y-120764855D01*
X106832043Y-120841803D01*
X106839778Y-120846038D01*
X106960416Y-120891262D01*
X106967980Y-120893060D01*
X107020975Y-120898817D01*
X107024343Y-120899000D01*
X107178569Y-120899000D01*
X107187359Y-120895359D01*
X107191000Y-120886569D01*
X107445000Y-120886569D01*
X107448641Y-120895359D01*
X107457431Y-120899000D01*
X107611657Y-120899000D01*
X107615025Y-120898817D01*
X107668020Y-120893060D01*
X107675584Y-120891262D01*
X107796222Y-120846038D01*
X107803957Y-120841803D01*
X107906627Y-120764855D01*
X107912855Y-120758627D01*
X107989803Y-120655957D01*
X107994038Y-120648222D01*
X108039262Y-120527584D01*
X108041060Y-120520020D01*
X108046817Y-120467025D01*
X108047000Y-120463657D01*
X108047000Y-120334431D01*
X108043359Y-120325641D01*
X108034569Y-120322000D01*
X107457431Y-120322000D01*
X107448641Y-120325641D01*
X107445000Y-120334431D01*
X107445000Y-120886569D01*
X107191000Y-120886569D01*
X107191000Y-120334431D01*
X107187359Y-120325641D01*
X107178569Y-120322000D01*
X106601431Y-120322000D01*
X106592641Y-120325641D01*
X106589000Y-120334431D01*
X106589000Y-120463657D01*
X104878453Y-120463657D01*
X104837862Y-120355377D01*
X104837861Y-120355375D01*
X104836298Y-120351206D01*
X104749975Y-120236025D01*
X104634794Y-120149702D01*
X104630625Y-120148139D01*
X104630623Y-120148138D01*
X104503682Y-120100551D01*
X104500014Y-120099176D01*
X104438562Y-120092500D01*
X103593438Y-120092500D01*
X103531986Y-120099176D01*
X103528318Y-120100551D01*
X103401377Y-120148138D01*
X103401375Y-120148139D01*
X103397206Y-120149702D01*
X103282025Y-120236025D01*
X103195702Y-120351206D01*
X103194139Y-120355375D01*
X103194138Y-120355377D01*
X103146551Y-120482318D01*
X103145176Y-120485986D01*
X103138500Y-120547438D01*
X103138500Y-121392562D01*
X103000989Y-121392562D01*
X103000989Y-120055569D01*
X106589000Y-120055569D01*
X106592641Y-120064359D01*
X106601431Y-120068000D01*
X107178569Y-120068000D01*
X107187359Y-120064359D01*
X107191000Y-120055569D01*
X107191000Y-119503431D01*
X107187359Y-119494641D01*
X107178569Y-119491000D01*
X107024343Y-119491000D01*
X107020975Y-119491183D01*
X106967980Y-119496940D01*
X106960416Y-119498738D01*
X106839778Y-119543962D01*
X106832043Y-119548197D01*
X106729373Y-119625145D01*
X106723145Y-119631373D01*
X106646197Y-119734043D01*
X106641962Y-119741778D01*
X106596738Y-119862416D01*
X106594940Y-119869980D01*
X106589183Y-119922975D01*
X106589000Y-119926343D01*
X106589000Y-120055569D01*
X103000989Y-120055569D01*
X103000989Y-118852562D01*
X103138500Y-118852562D01*
X103145176Y-118914014D01*
X103146551Y-118917682D01*
X103193113Y-119041887D01*
X103195702Y-119048794D01*
X103198373Y-119052358D01*
X103206059Y-119062613D01*
X103282025Y-119163975D01*
X103285585Y-119166643D01*
X103390631Y-119245370D01*
X103397206Y-119250298D01*
X103401375Y-119251861D01*
X103401377Y-119251862D01*
X103528318Y-119299449D01*
X103531986Y-119300824D01*
X103593438Y-119307500D01*
X104438562Y-119307500D01*
X104500014Y-119300824D01*
X104503682Y-119299449D01*
X104630623Y-119251862D01*
X104630625Y-119251861D01*
X104634794Y-119250298D01*
X104641370Y-119245370D01*
X104746415Y-119166643D01*
X104749975Y-119163975D01*
X104825941Y-119062613D01*
X104833627Y-119052358D01*
X104836298Y-119048794D01*
X104838888Y-119041887D01*
X104885449Y-118917682D01*
X104886824Y-118914014D01*
X104893500Y-118852562D01*
X104893500Y-118007438D01*
X104886824Y-117945986D01*
X104876251Y-117917783D01*
X104837862Y-117815377D01*
X104837861Y-117815375D01*
X104836298Y-117811206D01*
X104797070Y-117758864D01*
X104785214Y-117712521D01*
X104802889Y-117677187D01*
X104971069Y-117509006D01*
X105015263Y-117490700D01*
X106040610Y-117490700D01*
X106078836Y-117504078D01*
X106079666Y-117504908D01*
X106086273Y-117509061D01*
X106092029Y-117513151D01*
X106116527Y-117532742D01*
X106123388Y-117534320D01*
X106127806Y-117536456D01*
X106132448Y-117538081D01*
X106138406Y-117541826D01*
X106145400Y-117542617D01*
X106145401Y-117542617D01*
X106169549Y-117545347D01*
X106176534Y-117546541D01*
X106180867Y-117547537D01*
X106180869Y-117547537D01*
X106184316Y-117548330D01*
X106192413Y-117548330D01*
X106199434Y-117548726D01*
X106230754Y-117552267D01*
X106237399Y-117549946D01*
X106244394Y-117549162D01*
X106244456Y-117549715D01*
X106252628Y-117548330D01*
X107367130Y-117548330D01*
X107375177Y-117549702D01*
X107375246Y-117549097D01*
X107382237Y-117549894D01*
X107388878Y-117552226D01*
X107395871Y-117551448D01*
X107395872Y-117551448D01*
X107417496Y-117549041D01*
X107420446Y-117548713D01*
X107427358Y-117548330D01*
X107435497Y-117548330D01*
X107438917Y-117547550D01*
X107438924Y-117547549D01*
X107443097Y-117546597D01*
X107450082Y-117545416D01*
X107474248Y-117542726D01*
X107474250Y-117542725D01*
X107481243Y-117541947D01*
X107487205Y-117538215D01*
X107491842Y-117536600D01*
X107496278Y-117534465D01*
X107503138Y-117532900D01*
X107527652Y-117513365D01*
X107533438Y-117509269D01*
X107537198Y-117506915D01*
X107540200Y-117505036D01*
X107545924Y-117499312D01*
X107551168Y-117494627D01*
X107556096Y-117490700D01*
X107575820Y-117474983D01*
X107578879Y-117468641D01*
X107583268Y-117463143D01*
X107583705Y-117463492D01*
X107588502Y-117456734D01*
X107676092Y-117369144D01*
X107720286Y-117350838D01*
X107764480Y-117369144D01*
X107777036Y-117390637D01*
X107778057Y-117390188D01*
X107824977Y-117496820D01*
X107827376Y-117502273D01*
X107857151Y-117537695D01*
X107868495Y-117551190D01*
X107906170Y-117596011D01*
X107960789Y-117632368D01*
X107962476Y-117633491D01*
X107989121Y-117673218D01*
X107990343Y-117685518D01*
X107990343Y-118833832D01*
X107972037Y-118878026D01*
X107945018Y-118893926D01*
X107903644Y-118905751D01*
X107800080Y-118971095D01*
X107797137Y-118974427D01*
X107797135Y-118974429D01*
X107728310Y-119052358D01*
X107719018Y-119062879D01*
X107715037Y-119071359D01*
X107668868Y-119169695D01*
X107668867Y-119169698D01*
X107666976Y-119173726D01*
X107648136Y-119294724D01*
X107648713Y-119299137D01*
X107648713Y-119299138D01*
X107664014Y-119416145D01*
X107662869Y-119416295D01*
X107657681Y-119459180D01*
X107620038Y-119488697D01*
X107603229Y-119491000D01*
X107457431Y-119491000D01*
X107448641Y-119494641D01*
X107445000Y-119503431D01*
X107445000Y-120055569D01*
X107448641Y-120064359D01*
X107457431Y-120068000D01*
X108034569Y-120068000D01*
X108043359Y-120064359D01*
X108047000Y-120055569D01*
X108047000Y-119926343D01*
X108046817Y-119922975D01*
X108041060Y-119869980D01*
X108039262Y-119862416D01*
X108020375Y-119812035D01*
X108022003Y-119764227D01*
X108056959Y-119731573D01*
X108080044Y-119727607D01*
X108128929Y-119728503D01*
X108128933Y-119728502D01*
X108133383Y-119728584D01*
X108155907Y-119722444D01*
X108166855Y-119719459D01*
X108214308Y-119725496D01*
X108227488Y-119735564D01*
X108354194Y-119862269D01*
X108372500Y-119906463D01*
X108372500Y-120348632D01*
X108373099Y-120351643D01*
X108373099Y-120351644D01*
X108376631Y-120369398D01*
X108384656Y-120409743D01*
X108430959Y-120479041D01*
X108500257Y-120525344D01*
X108540289Y-120533307D01*
X108558356Y-120536901D01*
X108558357Y-120536901D01*
X108561368Y-120537500D01*
X110038632Y-120537500D01*
X110041643Y-120536901D01*
X110041644Y-120536901D01*
X110059711Y-120533307D01*
X110099743Y-120525344D01*
X110104863Y-120521923D01*
X110110549Y-120519568D01*
X110111572Y-120522037D01*
X110148689Y-120514651D01*
X110188465Y-120541223D01*
X110199001Y-120575951D01*
X110199001Y-120924049D01*
X110180695Y-120968243D01*
X110136501Y-120986549D01*
X110111195Y-120978872D01*
X110110549Y-120980432D01*
X110104863Y-120978077D01*
X110099743Y-120974656D01*
X110059711Y-120966693D01*
X110041644Y-120963099D01*
X110041643Y-120963099D01*
X110038632Y-120962500D01*
X108561368Y-120962500D01*
X108558357Y-120963099D01*
X108558356Y-120963099D01*
X108540289Y-120966693D01*
X108500257Y-120974656D01*
X108430959Y-121020959D01*
X108427540Y-121026076D01*
X108395035Y-121074723D01*
X108355261Y-121101299D01*
X108343068Y-121102500D01*
X107562108Y-121102500D01*
X107554762Y-121102067D01*
X107524059Y-121098433D01*
X107519421Y-121097884D01*
X107514828Y-121098723D01*
X107514826Y-121098723D01*
X107463749Y-121108052D01*
X107461816Y-121108373D01*
X107405878Y-121116783D01*
X107401662Y-121118807D01*
X107400516Y-121119160D01*
X107400115Y-121119258D01*
X107399087Y-121119591D01*
X107398707Y-121119747D01*
X107397558Y-121120140D01*
X107392961Y-121120980D01*
X107388813Y-121123135D01*
X107388812Y-121123135D01*
X107342778Y-121147048D01*
X107341023Y-121147925D01*
X107313086Y-121161341D01*
X107286030Y-121167501D01*
X107034590Y-121167501D01*
X106965305Y-121177699D01*
X106859964Y-121229419D01*
X106856318Y-121233071D01*
X106856317Y-121233072D01*
X106780704Y-121308817D01*
X106780702Y-121308819D01*
X106777056Y-121312472D01*
X106725520Y-121417902D01*
X106715500Y-121486589D01*
X106715501Y-121700415D01*
X106715501Y-121884530D01*
X106697195Y-121928724D01*
X106653001Y-121947030D01*
X106635094Y-121944410D01*
X106624106Y-121941124D01*
X106624103Y-121941124D01*
X106619838Y-121939848D01*
X106558611Y-121939474D01*
X106501838Y-121939127D01*
X106501837Y-121939127D01*
X106497385Y-121939100D01*
X106379644Y-121972751D01*
X106276080Y-122038095D01*
X106273137Y-122041427D01*
X106273135Y-122041429D01*
X106250292Y-122067294D01*
X106195018Y-122129879D01*
X106193126Y-122133909D01*
X106144868Y-122236695D01*
X106144867Y-122236698D01*
X106142976Y-122240726D01*
X106124136Y-122361724D01*
X106124713Y-122366137D01*
X106124713Y-122366138D01*
X106127954Y-122390920D01*
X106140014Y-122483145D01*
X106189333Y-122595230D01*
X106268127Y-122688968D01*
X106271832Y-122691434D01*
X106271834Y-122691436D01*
X106283650Y-122699301D01*
X106370064Y-122756823D01*
X106387695Y-122762331D01*
X106396345Y-122765034D01*
X106433070Y-122795686D01*
X106437363Y-122843328D01*
X106406711Y-122880053D01*
X106384458Y-122886824D01*
X106325986Y-122893176D01*
X106322318Y-122894551D01*
X106195377Y-122942138D01*
X106195375Y-122942139D01*
X106191206Y-122943702D01*
X106076025Y-123030025D01*
X105989702Y-123145206D01*
X105939176Y-123279986D01*
X105932500Y-123341438D01*
X105932500Y-124186562D01*
X105939176Y-124248014D01*
X105989702Y-124382794D01*
X106076025Y-124497975D01*
X106191206Y-124584298D01*
X106195375Y-124585861D01*
X106195377Y-124585862D01*
X106283372Y-124618849D01*
X106325986Y-124634824D01*
X106387438Y-124641500D01*
X107232562Y-124641500D01*
X107294014Y-124634824D01*
X107336628Y-124618849D01*
X107424623Y-124585862D01*
X107424625Y-124585861D01*
X107428794Y-124584298D01*
X107543975Y-124497975D01*
X107630298Y-124382794D01*
X107680824Y-124248014D01*
X107687500Y-124186562D01*
X108472500Y-124186562D01*
X108479176Y-124248014D01*
X108529702Y-124382794D01*
X108616025Y-124497975D01*
X108731206Y-124584298D01*
X108735375Y-124585861D01*
X108735377Y-124585862D01*
X108823372Y-124618849D01*
X108865986Y-124634824D01*
X108927438Y-124641500D01*
X109772562Y-124641500D01*
X109834014Y-124634824D01*
X109876628Y-124618849D01*
X109964623Y-124585862D01*
X109964625Y-124585861D01*
X109968794Y-124584298D01*
X110083975Y-124497975D01*
X110170298Y-124382794D01*
X110220824Y-124248014D01*
X110227500Y-124186562D01*
X111012500Y-124186562D01*
X111019176Y-124248014D01*
X111069702Y-124382794D01*
X111156025Y-124497975D01*
X111271206Y-124584298D01*
X111275375Y-124585861D01*
X111275377Y-124585862D01*
X111363372Y-124618849D01*
X111405986Y-124634824D01*
X111467438Y-124641500D01*
X112312562Y-124641500D01*
X112374014Y-124634824D01*
X112416628Y-124618849D01*
X112504623Y-124585862D01*
X112504625Y-124585861D01*
X112508794Y-124584298D01*
X112623975Y-124497975D01*
X112710298Y-124382794D01*
X112760824Y-124248014D01*
X112767500Y-124186562D01*
X112767500Y-123341438D01*
X112760824Y-123279986D01*
X112710298Y-123145206D01*
X112623975Y-123030025D01*
X112508794Y-122943702D01*
X112504625Y-122942139D01*
X112504623Y-122942138D01*
X112377682Y-122894551D01*
X112374014Y-122893176D01*
X112312562Y-122886500D01*
X111467438Y-122886500D01*
X111405986Y-122893176D01*
X111402318Y-122894551D01*
X111275377Y-122942138D01*
X111275375Y-122942139D01*
X111271206Y-122943702D01*
X111156025Y-123030025D01*
X111069702Y-123145206D01*
X111019176Y-123279986D01*
X111012500Y-123341438D01*
X111012500Y-124186562D01*
X110227500Y-124186562D01*
X110227500Y-123341438D01*
X110220824Y-123279986D01*
X110170298Y-123145206D01*
X110083975Y-123030025D01*
X109968794Y-122943702D01*
X109964625Y-122942139D01*
X109964623Y-122942138D01*
X109837682Y-122894551D01*
X109834014Y-122893176D01*
X109772562Y-122886500D01*
X108927438Y-122886500D01*
X108865986Y-122893176D01*
X108862318Y-122894551D01*
X108735377Y-122942138D01*
X108735375Y-122942139D01*
X108731206Y-122943702D01*
X108616025Y-123030025D01*
X108529702Y-123145206D01*
X108479176Y-123279986D01*
X108472500Y-123341438D01*
X108472500Y-124186562D01*
X107687500Y-124186562D01*
X107687500Y-123341438D01*
X107680824Y-123279986D01*
X107630298Y-123145206D01*
X107543975Y-123030025D01*
X107428794Y-122943702D01*
X107424625Y-122942139D01*
X107424623Y-122942138D01*
X107297682Y-122894551D01*
X107294014Y-122893176D01*
X107232562Y-122886500D01*
X106742770Y-122886500D01*
X106698576Y-122868194D01*
X106680270Y-122824000D01*
X106698576Y-122779806D01*
X106719683Y-122767559D01*
X106719144Y-122766314D01*
X106723227Y-122764547D01*
X106727527Y-122763375D01*
X106731323Y-122761044D01*
X106731326Y-122761043D01*
X106828083Y-122701633D01*
X106831881Y-122699301D01*
X106914058Y-122608513D01*
X106967451Y-122498311D01*
X106970003Y-122483145D01*
X106987367Y-122379930D01*
X106987367Y-122379929D01*
X106987767Y-122377552D01*
X106988338Y-122377648D01*
X107009594Y-122337034D01*
X107049663Y-122322500D01*
X107526968Y-122322499D01*
X107601410Y-122322499D01*
X107670695Y-122312301D01*
X107677311Y-122309053D01*
X107694223Y-122300749D01*
X107776036Y-122260581D01*
X107781977Y-122254630D01*
X107855296Y-122181183D01*
X107855298Y-122181181D01*
X107858944Y-122177528D01*
X107910480Y-122072098D01*
X107911218Y-122067043D01*
X107919396Y-122010978D01*
X107943889Y-121969889D01*
X107981241Y-121957500D01*
X108385228Y-121957500D01*
X108428558Y-121975448D01*
X108430959Y-121979041D01*
X108500257Y-122025344D01*
X108536428Y-122032539D01*
X108558356Y-122036901D01*
X108558357Y-122036901D01*
X108561368Y-122037500D01*
X110038632Y-122037500D01*
X110041642Y-122036901D01*
X110041645Y-122036901D01*
X110063528Y-122032548D01*
X110110444Y-122041880D01*
X110132181Y-122067043D01*
X110145370Y-122094824D01*
X110176023Y-122159391D01*
X110178582Y-122162442D01*
X110178584Y-122162444D01*
X110255929Y-122254630D01*
X110258515Y-122257712D01*
X110261764Y-122260021D01*
X110359880Y-122329755D01*
X110359882Y-122329756D01*
X110363128Y-122332063D01*
X110426310Y-122356065D01*
X110479377Y-122376225D01*
X110479379Y-122376225D01*
X110483105Y-122377641D01*
X110487068Y-122378072D01*
X110487070Y-122378072D01*
X110529472Y-122382678D01*
X110610698Y-122391502D01*
X110614638Y-122390920D01*
X110614642Y-122390920D01*
X110697103Y-122378741D01*
X110737664Y-122372751D01*
X110855802Y-122322600D01*
X110854553Y-122320462D01*
X110861497Y-122315531D01*
X110872977Y-122310118D01*
X110875433Y-122309025D01*
X110950445Y-122277609D01*
X110958255Y-122274931D01*
X110993071Y-122265508D01*
X111001160Y-122263882D01*
X111081270Y-122253228D01*
X111084013Y-122252925D01*
X111103089Y-122251241D01*
X111108585Y-122250999D01*
X112691701Y-122250999D01*
X112697196Y-122251241D01*
X112715436Y-122252851D01*
X112718166Y-122253152D01*
X112799028Y-122263906D01*
X112807107Y-122265530D01*
X112816239Y-122268001D01*
X112841575Y-122274859D01*
X112849389Y-122277540D01*
X112925038Y-122309222D01*
X112927553Y-122310340D01*
X112934500Y-122313616D01*
X112944643Y-122321836D01*
X112944218Y-122322564D01*
X113062347Y-122372712D01*
X113101751Y-122378531D01*
X113185359Y-122390879D01*
X113185363Y-122390879D01*
X113189303Y-122391461D01*
X113270810Y-122382606D01*
X113312920Y-122378032D01*
X113312922Y-122378032D01*
X113316885Y-122377601D01*
X113320611Y-122376185D01*
X113320613Y-122376185D01*
X113373575Y-122356065D01*
X113436852Y-122332027D01*
X113440098Y-122329720D01*
X113440100Y-122329719D01*
X113538208Y-122259991D01*
X113541457Y-122257682D01*
X113545120Y-122253316D01*
X113621381Y-122162422D01*
X113621383Y-122162420D01*
X113623942Y-122159369D01*
X113667779Y-122067032D01*
X113703267Y-122034961D01*
X113736429Y-122032539D01*
X113761368Y-122037500D01*
X115238632Y-122037500D01*
X115241643Y-122036901D01*
X115241644Y-122036901D01*
X115263572Y-122032539D01*
X115299743Y-122025344D01*
X115369041Y-121979041D01*
X115415344Y-121909743D01*
X115427500Y-121848632D01*
X115427500Y-121796200D01*
X115445806Y-121752006D01*
X115490000Y-121733700D01*
X115633800Y-121733700D01*
X115677994Y-121752006D01*
X115696300Y-121796200D01*
X115696300Y-122183737D01*
X115677994Y-122227931D01*
X115014281Y-122891643D01*
X114970087Y-122909949D01*
X114948148Y-122905972D01*
X114917682Y-122894551D01*
X114914014Y-122893176D01*
X114852562Y-122886500D01*
X114007438Y-122886500D01*
X113945986Y-122893176D01*
X113942318Y-122894551D01*
X113815377Y-122942138D01*
X113815375Y-122942139D01*
X113811206Y-122943702D01*
X113696025Y-123030025D01*
X113609702Y-123145206D01*
X113559176Y-123279986D01*
X113552500Y-123341438D01*
X113552500Y-124186562D01*
X113559176Y-124248014D01*
X113609702Y-124382794D01*
X113696025Y-124497975D01*
X113811206Y-124584298D01*
X113815375Y-124585861D01*
X113815377Y-124585862D01*
X113903372Y-124618849D01*
X113945986Y-124634824D01*
X114007438Y-124641500D01*
X114852562Y-124641500D01*
X114914014Y-124634824D01*
X114956628Y-124618849D01*
X115044623Y-124585862D01*
X115044625Y-124585861D01*
X115048794Y-124584298D01*
X115163975Y-124497975D01*
X115250298Y-124382794D01*
X115300824Y-124248014D01*
X115307500Y-124186562D01*
X115307500Y-123624569D01*
X118760000Y-123624569D01*
X118763641Y-123633359D01*
X118772431Y-123637000D01*
X119624569Y-123637000D01*
X119633359Y-123633359D01*
X119637000Y-123624569D01*
X119637000Y-122772432D01*
X119633359Y-122763642D01*
X119624569Y-122760001D01*
X119326726Y-122760001D01*
X119324244Y-122760099D01*
X119293006Y-122762556D01*
X119286754Y-122763698D01*
X119140991Y-122806045D01*
X119133819Y-122809149D01*
X119003804Y-122886041D01*
X118997637Y-122890824D01*
X118890824Y-122997637D01*
X118886041Y-123003804D01*
X118809149Y-123133819D01*
X118806045Y-123140991D01*
X118763699Y-123286751D01*
X118762556Y-123293008D01*
X118760097Y-123324247D01*
X118760000Y-123326723D01*
X118760000Y-123624569D01*
X115307500Y-123624569D01*
X115307500Y-123341438D01*
X115300824Y-123279986D01*
X115288028Y-123245852D01*
X115289656Y-123198044D01*
X115302357Y-123179719D01*
X116011933Y-122470142D01*
X116018594Y-122465421D01*
X116018215Y-122464945D01*
X116023723Y-122460564D01*
X116030068Y-122457517D01*
X116049906Y-122432711D01*
X116054523Y-122427552D01*
X116060278Y-122421797D01*
X116062143Y-122418830D01*
X116062147Y-122418825D01*
X116064431Y-122415191D01*
X116068527Y-122409428D01*
X116088112Y-122384937D01*
X116089690Y-122378078D01*
X116091828Y-122373655D01*
X116093452Y-122369016D01*
X116097197Y-122363057D01*
X116100720Y-122331893D01*
X116101912Y-122324923D01*
X116102908Y-122320593D01*
X116102908Y-122320590D01*
X116103700Y-122317148D01*
X116103700Y-122309053D01*
X116104096Y-122302032D01*
X116106846Y-122277706D01*
X116107637Y-122270710D01*
X116105316Y-122264065D01*
X116104532Y-122257070D01*
X116105085Y-122257008D01*
X116103700Y-122248836D01*
X116103700Y-121537404D01*
X116103747Y-121483975D01*
X116103747Y-121483710D01*
X116103708Y-121483629D01*
X116103700Y-121483558D01*
X116103700Y-119183400D01*
X116105072Y-119175353D01*
X116104467Y-119175284D01*
X116105264Y-119168293D01*
X116107596Y-119161652D01*
X116104083Y-119130084D01*
X116103700Y-119123172D01*
X116103700Y-119115033D01*
X116102920Y-119111613D01*
X116102919Y-119111606D01*
X116101967Y-119107433D01*
X116100786Y-119100448D01*
X116098096Y-119076282D01*
X116098095Y-119076280D01*
X116097317Y-119069287D01*
X116093584Y-119063325D01*
X116091971Y-119058691D01*
X116089835Y-119054253D01*
X116088270Y-119047392D01*
X116083885Y-119041889D01*
X116083884Y-119041887D01*
X116068732Y-119022872D01*
X116064640Y-119017093D01*
X116064138Y-119016292D01*
X116060406Y-119010331D01*
X116054686Y-119004611D01*
X116050001Y-118999367D01*
X116030353Y-118974710D01*
X116024011Y-118971651D01*
X116018513Y-118967262D01*
X116018861Y-118966826D01*
X116012102Y-118962027D01*
X114865380Y-117815304D01*
X114847074Y-117771110D01*
X114847940Y-117760741D01*
X114848675Y-117756373D01*
X114861767Y-117678552D01*
X114861896Y-117668000D01*
X114844536Y-117546781D01*
X114827013Y-117508241D01*
X114825385Y-117460433D01*
X114858039Y-117425477D01*
X114905847Y-117423849D01*
X114928102Y-117438178D01*
X116072569Y-118582644D01*
X116077290Y-118589305D01*
X116077766Y-118588926D01*
X116082147Y-118594434D01*
X116085194Y-118600779D01*
X116090691Y-118605175D01*
X116110000Y-118620617D01*
X116115159Y-118625234D01*
X116120914Y-118630989D01*
X116123881Y-118632854D01*
X116123886Y-118632858D01*
X116127520Y-118635142D01*
X116133283Y-118639238D01*
X116157774Y-118658823D01*
X116164633Y-118660401D01*
X116169056Y-118662539D01*
X116173695Y-118664163D01*
X116179654Y-118667908D01*
X116210818Y-118671431D01*
X116217788Y-118672623D01*
X116222118Y-118673619D01*
X116222121Y-118673619D01*
X116225563Y-118674411D01*
X116233658Y-118674411D01*
X116240679Y-118674807D01*
X116272001Y-118678348D01*
X116278646Y-118676027D01*
X116285641Y-118675243D01*
X116285703Y-118675796D01*
X116293875Y-118674411D01*
X117506511Y-118674411D01*
X117550705Y-118692717D01*
X117569011Y-118736911D01*
X117569011Y-120183026D01*
X117550705Y-120227220D01*
X117277731Y-120500194D01*
X117233537Y-120518500D01*
X116357442Y-120518500D01*
X116354431Y-120519099D01*
X116326287Y-120524697D01*
X116326285Y-120524698D01*
X116320252Y-120525898D01*
X116278078Y-120554078D01*
X116249898Y-120596252D01*
X116248698Y-120602285D01*
X116248697Y-120602287D01*
X116247287Y-120609377D01*
X116242500Y-120633442D01*
X116242500Y-121558558D01*
X116243099Y-121561569D01*
X116248515Y-121588794D01*
X116249898Y-121595748D01*
X116278078Y-121637922D01*
X116320252Y-121666102D01*
X116326285Y-121667302D01*
X116326287Y-121667303D01*
X116352384Y-121672494D01*
X116357442Y-121673500D01*
X117582558Y-121673500D01*
X117587616Y-121672494D01*
X117613713Y-121667303D01*
X117613715Y-121667302D01*
X117619748Y-121666102D01*
X117648991Y-121646562D01*
X118886500Y-121646562D01*
X118893176Y-121708014D01*
X118894551Y-121711682D01*
X118924609Y-121791862D01*
X118943702Y-121842794D01*
X119030025Y-121957975D01*
X119145206Y-122044298D01*
X119149375Y-122045861D01*
X119149377Y-122045862D01*
X119230994Y-122076458D01*
X119279986Y-122094824D01*
X119341438Y-122101500D01*
X120186562Y-122101500D01*
X120248014Y-122094824D01*
X120297006Y-122076458D01*
X120378623Y-122045862D01*
X120378625Y-122045861D01*
X120382794Y-122044298D01*
X120497975Y-121957975D01*
X120584298Y-121842794D01*
X120603392Y-121791862D01*
X120633449Y-121711682D01*
X120634824Y-121708014D01*
X120641500Y-121646562D01*
X120641500Y-120801438D01*
X120634824Y-120739986D01*
X120633449Y-120736318D01*
X120585862Y-120609377D01*
X120585861Y-120609375D01*
X120584298Y-120605206D01*
X120497975Y-120490025D01*
X120419497Y-120431209D01*
X120386358Y-120406373D01*
X120382794Y-120403702D01*
X120378625Y-120402139D01*
X120378623Y-120402138D01*
X120251682Y-120354551D01*
X120248014Y-120353176D01*
X120186562Y-120346500D01*
X119341438Y-120346500D01*
X119279986Y-120353176D01*
X119276318Y-120354551D01*
X119149377Y-120402138D01*
X119149375Y-120402139D01*
X119145206Y-120403702D01*
X119141642Y-120406373D01*
X119108503Y-120431209D01*
X119030025Y-120490025D01*
X118943702Y-120605206D01*
X118942139Y-120609375D01*
X118942138Y-120609377D01*
X118894551Y-120736318D01*
X118893176Y-120739986D01*
X118886500Y-120801438D01*
X118886500Y-121646562D01*
X117648991Y-121646562D01*
X117661922Y-121637922D01*
X117690102Y-121595748D01*
X117691486Y-121588794D01*
X117696901Y-121561569D01*
X117697500Y-121558558D01*
X117697500Y-120682463D01*
X117715806Y-120638269D01*
X117884644Y-120469431D01*
X117891305Y-120464710D01*
X117890926Y-120464234D01*
X117896434Y-120459853D01*
X117902779Y-120456806D01*
X117922617Y-120432000D01*
X117927234Y-120426841D01*
X117932989Y-120421086D01*
X117934854Y-120418119D01*
X117934858Y-120418114D01*
X117937142Y-120414480D01*
X117941238Y-120408717D01*
X117960823Y-120384226D01*
X117962401Y-120377367D01*
X117964539Y-120372944D01*
X117966163Y-120368305D01*
X117969908Y-120362346D01*
X117973431Y-120331182D01*
X117974623Y-120324212D01*
X117975619Y-120319882D01*
X117975619Y-120319879D01*
X117976411Y-120316437D01*
X117976411Y-120308342D01*
X117976807Y-120301321D01*
X117979557Y-120276995D01*
X117980348Y-120269999D01*
X117978027Y-120263354D01*
X117977243Y-120256359D01*
X117977796Y-120256297D01*
X117976411Y-120248125D01*
X117976411Y-118852562D01*
X118886500Y-118852562D01*
X118893176Y-118914014D01*
X118894551Y-118917682D01*
X118941113Y-119041887D01*
X118943702Y-119048794D01*
X118946373Y-119052358D01*
X118954059Y-119062613D01*
X119030025Y-119163975D01*
X119033585Y-119166643D01*
X119138631Y-119245370D01*
X119145206Y-119250298D01*
X119149375Y-119251861D01*
X119149377Y-119251862D01*
X119276318Y-119299449D01*
X119279986Y-119300824D01*
X119341438Y-119307500D01*
X120186562Y-119307500D01*
X120248014Y-119300824D01*
X120251682Y-119299449D01*
X120378623Y-119251862D01*
X120378625Y-119251861D01*
X120382794Y-119250298D01*
X120389370Y-119245370D01*
X120494415Y-119166643D01*
X120497975Y-119163975D01*
X120573941Y-119062613D01*
X120581627Y-119052358D01*
X120584298Y-119048794D01*
X120586888Y-119041887D01*
X120633449Y-118917682D01*
X120634824Y-118914014D01*
X120641500Y-118852562D01*
X120641500Y-118007438D01*
X120634824Y-117945986D01*
X120624251Y-117917783D01*
X120585862Y-117815377D01*
X120585861Y-117815375D01*
X120584298Y-117811206D01*
X120497975Y-117696025D01*
X120382794Y-117609702D01*
X120378625Y-117608139D01*
X120378623Y-117608138D01*
X120251682Y-117560551D01*
X120248014Y-117559176D01*
X120186562Y-117552500D01*
X119341438Y-117552500D01*
X119279986Y-117559176D01*
X119276318Y-117560551D01*
X119149377Y-117608138D01*
X119149375Y-117608139D01*
X119145206Y-117609702D01*
X119030025Y-117696025D01*
X118943702Y-117811206D01*
X118942139Y-117815375D01*
X118942138Y-117815377D01*
X118903749Y-117917783D01*
X118893176Y-117945986D01*
X118886500Y-118007438D01*
X118886500Y-118852562D01*
X117976411Y-118852562D01*
X117976411Y-118478347D01*
X117976458Y-118424685D01*
X117976458Y-118424421D01*
X117976419Y-118424340D01*
X117976411Y-118424268D01*
X117976411Y-117991553D01*
X117994717Y-117947359D01*
X119179719Y-116762357D01*
X119223913Y-116744051D01*
X119245852Y-116748028D01*
X119275593Y-116759177D01*
X119279986Y-116760824D01*
X119341438Y-116767500D01*
X120186562Y-116767500D01*
X120248014Y-116760824D01*
X120251823Y-116759396D01*
X120378623Y-116711862D01*
X120378625Y-116711861D01*
X120382794Y-116710298D01*
X120497975Y-116623975D01*
X120584298Y-116508794D01*
X120634824Y-116374014D01*
X120641500Y-116312562D01*
X120641500Y-115467438D01*
X120634824Y-115405986D01*
X120619098Y-115364035D01*
X120585862Y-115275377D01*
X120585861Y-115275375D01*
X120584298Y-115271206D01*
X120497975Y-115156025D01*
X120382794Y-115069702D01*
X120378625Y-115068139D01*
X120378623Y-115068138D01*
X120251682Y-115020551D01*
X120248014Y-115019176D01*
X120186562Y-115012500D01*
X119341438Y-115012500D01*
X119279986Y-115019176D01*
X119276318Y-115020551D01*
X119149377Y-115068138D01*
X119149375Y-115068139D01*
X119145206Y-115069702D01*
X119030025Y-115156025D01*
X118943702Y-115271206D01*
X118942139Y-115275375D01*
X118942138Y-115275377D01*
X118908902Y-115364035D01*
X118893176Y-115405986D01*
X118886500Y-115467438D01*
X118886500Y-116312562D01*
X118893176Y-116374014D01*
X118894551Y-116377682D01*
X118905972Y-116408148D01*
X118904344Y-116455956D01*
X118891643Y-116474281D01*
X117804194Y-117561730D01*
X117760000Y-117580036D01*
X117715806Y-117561730D01*
X117697500Y-117517536D01*
X117697500Y-117380766D01*
X117715806Y-117336572D01*
X118255747Y-116796631D01*
X118262352Y-116791950D01*
X118261966Y-116791465D01*
X118267477Y-116787082D01*
X118273819Y-116784036D01*
X118278212Y-116778542D01*
X118278214Y-116778541D01*
X118293524Y-116759396D01*
X118298141Y-116754237D01*
X118303851Y-116748527D01*
X118307962Y-116741986D01*
X118312067Y-116736210D01*
X118327125Y-116717381D01*
X118327126Y-116717378D01*
X118331521Y-116711883D01*
X118333098Y-116705025D01*
X118335206Y-116700664D01*
X118336807Y-116696092D01*
X118340553Y-116690133D01*
X118344051Y-116659188D01*
X118345243Y-116652211D01*
X118347018Y-116644493D01*
X118347018Y-116636461D01*
X118347414Y-116629440D01*
X118350140Y-116605325D01*
X118350931Y-116598329D01*
X118348610Y-116591684D01*
X118347826Y-116584688D01*
X118348392Y-116584625D01*
X118347018Y-116576523D01*
X118347018Y-114789989D01*
X118365324Y-114745795D01*
X118409518Y-114727489D01*
X120537555Y-114727489D01*
X120542613Y-114726483D01*
X120568710Y-114721292D01*
X120568712Y-114721291D01*
X120574745Y-114720091D01*
X120616919Y-114691911D01*
X120645099Y-114649737D01*
X120652497Y-114612547D01*
X120652497Y-112087431D01*
X120645099Y-112050241D01*
X120616919Y-112008067D01*
X120574745Y-111979887D01*
X120568712Y-111978687D01*
X120568710Y-111978686D01*
X120540566Y-111973088D01*
X120537555Y-111972489D01*
X117962439Y-111972489D01*
X117959428Y-111973088D01*
X117931284Y-111978686D01*
X117931282Y-111978687D01*
X117925249Y-111979887D01*
X117883075Y-112008067D01*
X117854895Y-112050241D01*
X117847497Y-112087431D01*
X117847497Y-114612547D01*
X117854895Y-114649737D01*
X117883075Y-114691911D01*
X117888192Y-114695330D01*
X117888193Y-114695331D01*
X117914242Y-114712737D01*
X117940817Y-114752511D01*
X117942018Y-114764703D01*
X117942018Y-115162033D01*
X117923712Y-115206227D01*
X117879518Y-115224533D01*
X117835324Y-115206227D01*
X117828541Y-115198193D01*
X117808584Y-115170058D01*
X117808578Y-115170052D01*
X117806860Y-115167629D01*
X117804717Y-115165578D01*
X117804714Y-115165574D01*
X117706120Y-115071192D01*
X117655166Y-115022414D01*
X117478751Y-114908504D01*
X117283978Y-114830008D01*
X117077875Y-114789759D01*
X117072354Y-114789489D01*
X116917528Y-114789489D01*
X116836919Y-114797180D01*
X116791186Y-114783155D01*
X116768766Y-114740899D01*
X116782791Y-114695166D01*
X116791523Y-114686495D01*
X116889407Y-114606805D01*
X116889408Y-114606804D01*
X116891248Y-114605306D01*
X117067422Y-114410672D01*
X117093548Y-114371126D01*
X117210820Y-114193610D01*
X117212128Y-114191630D01*
X117318171Y-113961606D01*
X117321045Y-113955372D01*
X117321045Y-113955371D01*
X117322037Y-113953220D01*
X117322690Y-113950951D01*
X117322692Y-113950945D01*
X117393963Y-113703204D01*
X117394618Y-113700928D01*
X117405807Y-113614190D01*
X117427899Y-113442916D01*
X117428203Y-113440560D01*
X117422018Y-113178108D01*
X117420184Y-113167758D01*
X117376620Y-112921946D01*
X117376619Y-112921942D01*
X117376206Y-112919612D01*
X117358003Y-112865986D01*
X117292582Y-112673263D01*
X117292581Y-112673260D01*
X117291820Y-112671019D01*
X117225384Y-112543124D01*
X117171900Y-112440162D01*
X117171897Y-112440158D01*
X117170803Y-112438051D01*
X117015939Y-112226068D01*
X116900215Y-112109737D01*
X116832467Y-112041633D01*
X116832461Y-112041628D01*
X116830792Y-112039950D01*
X116619624Y-111883978D01*
X116387292Y-111761743D01*
X116385056Y-111760971D01*
X116385054Y-111760970D01*
X116202889Y-111698068D01*
X116139145Y-111676057D01*
X116016239Y-111653610D01*
X115882871Y-111629252D01*
X115882864Y-111629251D01*
X115880892Y-111628891D01*
X115796894Y-111624489D01*
X115633240Y-111624489D01*
X115632057Y-111624579D01*
X115440593Y-111639143D01*
X115440592Y-111639143D01*
X115438228Y-111639323D01*
X115182484Y-111698602D01*
X114938648Y-111795882D01*
X114936604Y-111797083D01*
X114936597Y-111797087D01*
X114714384Y-111927720D01*
X114712333Y-111928926D01*
X114710491Y-111930426D01*
X114710489Y-111930427D01*
X114517640Y-112087431D01*
X114508746Y-112094672D01*
X114332572Y-112289306D01*
X114331271Y-112291276D01*
X114331269Y-112291278D01*
X114204003Y-112483921D01*
X114187866Y-112508348D01*
X114125593Y-112643429D01*
X114082403Y-112737115D01*
X114077957Y-112746758D01*
X114077304Y-112749027D01*
X114077302Y-112749033D01*
X114046271Y-112856898D01*
X114005376Y-112999050D01*
X114005073Y-113001397D01*
X114005072Y-113001403D01*
X113992314Y-113100311D01*
X113971791Y-113259418D01*
X113973722Y-113341356D01*
X113976175Y-113445426D01*
X113977976Y-113521870D01*
X113978390Y-113524203D01*
X113978390Y-113524208D01*
X114020452Y-113761541D01*
X114010139Y-113808252D01*
X113969818Y-113833989D01*
X113923107Y-113823676D01*
X113914717Y-113816642D01*
X113622284Y-113524208D01*
X113310028Y-113211952D01*
X113291722Y-113167758D01*
X113297976Y-113140507D01*
X113317451Y-113100311D01*
X113337767Y-112979552D01*
X113337896Y-112969000D01*
X113320536Y-112847781D01*
X113288368Y-112777030D01*
X113271696Y-112740362D01*
X113271695Y-112740360D01*
X113269852Y-112736307D01*
X113189918Y-112643539D01*
X113087160Y-112576935D01*
X112969838Y-112541848D01*
X112908611Y-112541474D01*
X112851838Y-112541127D01*
X112851837Y-112541127D01*
X112847385Y-112541100D01*
X112729644Y-112574751D01*
X112626080Y-112640095D01*
X112623137Y-112643427D01*
X112623135Y-112643429D01*
X112548760Y-112727642D01*
X112545018Y-112731879D01*
X112543128Y-112735905D01*
X112542333Y-112737115D01*
X112502769Y-112764002D01*
X112490096Y-112765300D01*
X110919400Y-112765300D01*
X110911353Y-112763928D01*
X110911284Y-112764533D01*
X110904293Y-112763736D01*
X110897652Y-112761404D01*
X110890659Y-112762182D01*
X110890658Y-112762182D01*
X110866085Y-112764917D01*
X110859172Y-112765300D01*
X110851033Y-112765300D01*
X110847613Y-112766080D01*
X110847606Y-112766081D01*
X110843433Y-112767033D01*
X110836448Y-112768214D01*
X110812282Y-112770904D01*
X110812280Y-112770905D01*
X110805287Y-112771683D01*
X110799325Y-112775415D01*
X110794688Y-112777030D01*
X110790252Y-112779165D01*
X110783392Y-112780730D01*
X110777890Y-112785115D01*
X110777889Y-112785115D01*
X110758877Y-112800265D01*
X110753093Y-112804360D01*
X110749332Y-112806715D01*
X110749328Y-112806718D01*
X110746330Y-112808595D01*
X110740611Y-112814314D01*
X110735368Y-112818998D01*
X110710710Y-112838647D01*
X110707651Y-112844989D01*
X110703262Y-112850487D01*
X110702826Y-112850139D01*
X110698027Y-112856898D01*
X109595412Y-113959512D01*
X109551218Y-113977818D01*
X109507024Y-113959512D01*
X109488718Y-113915318D01*
X109494971Y-113888069D01*
X109507451Y-113862311D01*
X109509591Y-113849594D01*
X109527367Y-113743928D01*
X109527767Y-113741552D01*
X109527896Y-113731000D01*
X109510536Y-113609781D01*
X109485194Y-113554044D01*
X109461696Y-113502362D01*
X109461695Y-113502360D01*
X109459852Y-113498307D01*
X109379918Y-113405539D01*
X109277160Y-113338935D01*
X109159838Y-113303848D01*
X109098612Y-113303474D01*
X109041838Y-113303127D01*
X109041837Y-113303127D01*
X109037385Y-113303100D01*
X108919644Y-113336751D01*
X108816080Y-113402095D01*
X108813136Y-113405428D01*
X108813134Y-113405430D01*
X108796362Y-113424420D01*
X108753385Y-113445426D01*
X108705323Y-113427240D01*
X107220803Y-111942719D01*
X107202497Y-111898525D01*
X107202497Y-110719418D01*
X107621791Y-110719418D01*
X107622822Y-110763160D01*
X107627309Y-110953548D01*
X107627976Y-110981870D01*
X107628390Y-110984203D01*
X107628390Y-110984208D01*
X107662799Y-111178358D01*
X107673788Y-111240366D01*
X107674549Y-111242607D01*
X107674550Y-111242612D01*
X107739286Y-111433317D01*
X107758174Y-111488959D01*
X107759267Y-111491063D01*
X107867530Y-111699478D01*
X107879191Y-111721927D01*
X108034055Y-111933910D01*
X108126932Y-112027274D01*
X108217527Y-112118345D01*
X108217533Y-112118350D01*
X108219202Y-112120028D01*
X108430370Y-112276000D01*
X108662702Y-112398235D01*
X108664938Y-112399007D01*
X108664940Y-112399008D01*
X108772449Y-112436131D01*
X108910849Y-112483921D01*
X108913183Y-112484347D01*
X108913182Y-112484347D01*
X109167123Y-112530726D01*
X109167130Y-112530727D01*
X109169102Y-112531087D01*
X109253100Y-112535489D01*
X109416754Y-112535489D01*
X109492832Y-112529702D01*
X109609401Y-112520835D01*
X109609402Y-112520835D01*
X109611766Y-112520655D01*
X109867510Y-112461376D01*
X110111346Y-112364096D01*
X110113390Y-112362895D01*
X110113397Y-112362891D01*
X110335610Y-112232258D01*
X110335613Y-112232256D01*
X110337661Y-112231052D01*
X110345852Y-112224384D01*
X110539407Y-112066805D01*
X110539408Y-112066804D01*
X110541248Y-112065306D01*
X110717422Y-111870672D01*
X110845480Y-111676831D01*
X110860820Y-111653610D01*
X110862128Y-111651630D01*
X110962772Y-111433317D01*
X110971045Y-111415372D01*
X110971045Y-111415371D01*
X110972037Y-111413220D01*
X110972690Y-111410951D01*
X110972692Y-111410945D01*
X111022436Y-111238032D01*
X111044618Y-111160928D01*
X111060718Y-111036118D01*
X111077899Y-110902916D01*
X111078203Y-110900560D01*
X111073148Y-110686068D01*
X111072074Y-110640480D01*
X111072074Y-110640479D01*
X111072018Y-110638108D01*
X111071604Y-110635770D01*
X111026620Y-110381946D01*
X111026619Y-110381942D01*
X111026206Y-110379612D01*
X111016495Y-110351002D01*
X110942582Y-110133263D01*
X110942581Y-110133260D01*
X110941820Y-110131019D01*
X110874300Y-110001037D01*
X110870172Y-109953381D01*
X110900952Y-109916764D01*
X110948609Y-109912636D01*
X110973957Y-109928033D01*
X111713858Y-110667933D01*
X111718579Y-110674594D01*
X111719055Y-110674215D01*
X111723436Y-110679723D01*
X111726483Y-110686068D01*
X111731980Y-110690464D01*
X111751289Y-110705906D01*
X111756448Y-110710523D01*
X111762202Y-110716277D01*
X111765171Y-110718143D01*
X111765172Y-110718144D01*
X111768795Y-110720421D01*
X111774570Y-110724524D01*
X111799063Y-110744112D01*
X111805923Y-110745690D01*
X111810342Y-110747826D01*
X111814984Y-110749451D01*
X111820942Y-110753196D01*
X111827936Y-110753987D01*
X111827937Y-110753987D01*
X111852085Y-110756717D01*
X111859070Y-110757911D01*
X111863403Y-110758907D01*
X111863405Y-110758907D01*
X111866852Y-110759700D01*
X111874949Y-110759700D01*
X111881970Y-110760096D01*
X111913290Y-110763637D01*
X111919935Y-110761316D01*
X111926930Y-110760532D01*
X111926992Y-110761085D01*
X111935164Y-110759700D01*
X116554092Y-110759700D01*
X116598286Y-110778006D01*
X116603270Y-110784283D01*
X116603333Y-110784230D01*
X116682127Y-110877968D01*
X116685832Y-110880434D01*
X116685834Y-110880436D01*
X116764834Y-110933022D01*
X116784064Y-110945823D01*
X116900948Y-110982340D01*
X116905398Y-110982422D01*
X116905401Y-110982422D01*
X116955074Y-110983332D01*
X117023383Y-110984584D01*
X117076088Y-110970215D01*
X117137226Y-110953548D01*
X117137229Y-110953547D01*
X117141527Y-110952375D01*
X117145323Y-110950044D01*
X117145326Y-110950043D01*
X117242083Y-110890633D01*
X117245881Y-110888301D01*
X117328058Y-110797513D01*
X117329999Y-110793507D01*
X117332489Y-110789815D01*
X117333959Y-110790807D01*
X117365039Y-110763160D01*
X117385546Y-110759700D01*
X118824000Y-110759700D01*
X118868194Y-110778006D01*
X118886500Y-110822200D01*
X118886500Y-110978562D01*
X118893176Y-111040014D01*
X118943702Y-111174794D01*
X119030025Y-111289975D01*
X119145206Y-111376298D01*
X119149375Y-111377861D01*
X119149377Y-111377862D01*
X119249437Y-111415372D01*
X119279986Y-111426824D01*
X119341438Y-111433500D01*
X120186562Y-111433500D01*
X120248014Y-111426824D01*
X120278563Y-111415372D01*
X120378623Y-111377862D01*
X120378625Y-111377861D01*
X120382794Y-111376298D01*
X120497975Y-111289975D01*
X120584298Y-111174794D01*
X120634824Y-111040014D01*
X120641500Y-110978562D01*
X120641500Y-110133438D01*
X120634824Y-110071986D01*
X120596781Y-109970505D01*
X120585862Y-109941377D01*
X120585861Y-109941375D01*
X120584298Y-109937206D01*
X120497975Y-109822025D01*
X120400946Y-109749306D01*
X120386358Y-109738373D01*
X120382794Y-109735702D01*
X120378625Y-109734139D01*
X120378623Y-109734138D01*
X120251682Y-109686551D01*
X120248014Y-109685176D01*
X120186562Y-109678500D01*
X119341438Y-109678500D01*
X119279986Y-109685176D01*
X119276318Y-109686551D01*
X119149377Y-109734138D01*
X119149375Y-109734139D01*
X119145206Y-109735702D01*
X119141642Y-109738373D01*
X119127054Y-109749306D01*
X119030025Y-109822025D01*
X118943702Y-109937206D01*
X118942139Y-109941375D01*
X118942138Y-109941377D01*
X118931219Y-109970505D01*
X118893176Y-110071986D01*
X118886500Y-110133438D01*
X118886500Y-110289800D01*
X118868194Y-110333994D01*
X118824000Y-110352300D01*
X117385862Y-110352300D01*
X117341668Y-110333994D01*
X117334863Y-110325530D01*
X117333852Y-110323307D01*
X117253918Y-110230539D01*
X117151160Y-110163935D01*
X117033838Y-110128848D01*
X116972611Y-110128474D01*
X116915838Y-110128127D01*
X116915837Y-110128127D01*
X116911385Y-110128100D01*
X116793644Y-110161751D01*
X116690080Y-110227095D01*
X116687137Y-110230427D01*
X116687135Y-110230429D01*
X116634700Y-110289800D01*
X116609018Y-110318879D01*
X116607128Y-110322905D01*
X116606333Y-110324115D01*
X116566769Y-110351002D01*
X116554096Y-110352300D01*
X112000263Y-110352300D01*
X111956069Y-110333994D01*
X110222357Y-108600281D01*
X110204051Y-108556087D01*
X110208028Y-108534148D01*
X110219449Y-108503682D01*
X110220824Y-108500014D01*
X110227500Y-108438562D01*
X111012500Y-108438562D01*
X111019176Y-108500014D01*
X111020551Y-108503682D01*
X111040197Y-108556087D01*
X111069702Y-108634794D01*
X111156025Y-108749975D01*
X111271206Y-108836298D01*
X111275375Y-108837861D01*
X111275377Y-108837862D01*
X111334173Y-108859903D01*
X111405986Y-108886824D01*
X111467438Y-108893500D01*
X112312562Y-108893500D01*
X112374014Y-108886824D01*
X112445827Y-108859903D01*
X112504623Y-108837862D01*
X112504625Y-108837861D01*
X112508794Y-108836298D01*
X112623975Y-108749975D01*
X112710298Y-108634794D01*
X112739804Y-108556087D01*
X112759449Y-108503682D01*
X112760824Y-108500014D01*
X112767500Y-108438562D01*
X113552500Y-108438562D01*
X113559176Y-108500014D01*
X113560551Y-108503682D01*
X113580197Y-108556087D01*
X113609702Y-108634794D01*
X113696025Y-108749975D01*
X113811206Y-108836298D01*
X113815375Y-108837861D01*
X113815377Y-108837862D01*
X113874173Y-108859903D01*
X113945986Y-108886824D01*
X114007438Y-108893500D01*
X114852562Y-108893500D01*
X114914014Y-108886824D01*
X114985827Y-108859903D01*
X115044623Y-108837862D01*
X115044625Y-108837861D01*
X115048794Y-108836298D01*
X115163975Y-108749975D01*
X115250298Y-108634794D01*
X115279804Y-108556087D01*
X115299449Y-108503682D01*
X115300824Y-108500014D01*
X115305902Y-108453274D01*
X118760001Y-108453274D01*
X118760099Y-108455756D01*
X118762556Y-108486994D01*
X118763698Y-108493246D01*
X118806045Y-108639009D01*
X118809149Y-108646181D01*
X118886041Y-108776196D01*
X118890824Y-108782363D01*
X118997637Y-108889176D01*
X119003804Y-108893959D01*
X119133819Y-108970851D01*
X119140991Y-108973955D01*
X119286751Y-109016301D01*
X119293008Y-109017444D01*
X119324247Y-109019903D01*
X119326723Y-109020000D01*
X119624569Y-109020000D01*
X119633359Y-109016359D01*
X119637000Y-109007569D01*
X119637000Y-108155431D01*
X119633359Y-108146641D01*
X119624569Y-108143000D01*
X118772432Y-108143000D01*
X118763642Y-108146641D01*
X118760001Y-108155431D01*
X118760001Y-108453274D01*
X115305902Y-108453274D01*
X115307500Y-108438562D01*
X115307500Y-107593438D01*
X115300824Y-107531986D01*
X115250298Y-107397206D01*
X115163975Y-107282025D01*
X115048794Y-107195702D01*
X115044625Y-107194139D01*
X115044623Y-107194138D01*
X114917682Y-107146551D01*
X114914014Y-107145176D01*
X114852562Y-107138500D01*
X114007438Y-107138500D01*
X113945986Y-107145176D01*
X113942318Y-107146551D01*
X113815377Y-107194138D01*
X113815375Y-107194139D01*
X113811206Y-107195702D01*
X113696025Y-107282025D01*
X113609702Y-107397206D01*
X113559176Y-107531986D01*
X113552500Y-107593438D01*
X113552500Y-108438562D01*
X112767500Y-108438562D01*
X112767500Y-107593438D01*
X112760824Y-107531986D01*
X112710298Y-107397206D01*
X112623975Y-107282025D01*
X112508794Y-107195702D01*
X112504625Y-107194139D01*
X112504623Y-107194138D01*
X112377682Y-107146551D01*
X112374014Y-107145176D01*
X112312562Y-107138500D01*
X111467438Y-107138500D01*
X111405986Y-107145176D01*
X111402318Y-107146551D01*
X111275377Y-107194138D01*
X111275375Y-107194139D01*
X111271206Y-107195702D01*
X111156025Y-107282025D01*
X111069702Y-107397206D01*
X111019176Y-107531986D01*
X111012500Y-107593438D01*
X111012500Y-108438562D01*
X110227500Y-108438562D01*
X110227500Y-107593438D01*
X110220824Y-107531986D01*
X110170298Y-107397206D01*
X110083975Y-107282025D01*
X109968794Y-107195702D01*
X109964625Y-107194139D01*
X109964623Y-107194138D01*
X109837682Y-107146551D01*
X109834014Y-107145176D01*
X109772562Y-107138500D01*
X108927438Y-107138500D01*
X108865986Y-107145176D01*
X108862318Y-107146551D01*
X108735377Y-107194138D01*
X108735375Y-107194139D01*
X108731206Y-107195702D01*
X108616025Y-107282025D01*
X108529702Y-107397206D01*
X108479176Y-107531986D01*
X108472500Y-107593438D01*
X108472500Y-108438562D01*
X108479176Y-108500014D01*
X108480551Y-108503682D01*
X108500197Y-108556087D01*
X108529702Y-108634794D01*
X108616025Y-108749975D01*
X108731206Y-108836298D01*
X108735375Y-108837861D01*
X108735377Y-108837862D01*
X108794173Y-108859903D01*
X108865986Y-108886824D01*
X108927438Y-108893500D01*
X109772562Y-108893500D01*
X109834014Y-108886824D01*
X109868148Y-108874028D01*
X109915956Y-108875656D01*
X109934281Y-108888357D01*
X110232083Y-109186159D01*
X110250389Y-109230353D01*
X110232083Y-109274547D01*
X110187889Y-109292853D01*
X110158789Y-109285665D01*
X110125612Y-109268210D01*
X110039386Y-109222844D01*
X110039379Y-109222841D01*
X110037292Y-109221743D01*
X110035056Y-109220971D01*
X110035054Y-109220970D01*
X109852889Y-109158068D01*
X109789145Y-109136057D01*
X109744388Y-109127883D01*
X109532871Y-109089252D01*
X109532864Y-109089251D01*
X109530892Y-109088891D01*
X109446894Y-109084489D01*
X109283240Y-109084489D01*
X109282057Y-109084579D01*
X109090593Y-109099143D01*
X109090592Y-109099143D01*
X109088228Y-109099323D01*
X108832484Y-109158602D01*
X108588648Y-109255882D01*
X108586604Y-109257083D01*
X108586597Y-109257087D01*
X108364384Y-109387720D01*
X108362333Y-109388926D01*
X108360491Y-109390426D01*
X108360489Y-109390427D01*
X108167640Y-109547431D01*
X108158746Y-109554672D01*
X107982572Y-109749306D01*
X107981271Y-109751276D01*
X107981269Y-109751278D01*
X107932180Y-109825585D01*
X107837866Y-109968348D01*
X107727957Y-110206758D01*
X107727304Y-110209027D01*
X107727302Y-110209033D01*
X107678875Y-110377366D01*
X107655376Y-110459050D01*
X107621791Y-110719418D01*
X107202497Y-110719418D01*
X107202497Y-109547431D01*
X107195099Y-109510241D01*
X107166919Y-109468067D01*
X107124745Y-109439887D01*
X107118712Y-109438687D01*
X107118710Y-109438686D01*
X107090566Y-109433088D01*
X107087555Y-109432489D01*
X104512439Y-109432489D01*
X104509428Y-109433088D01*
X104481284Y-109438686D01*
X104481282Y-109438687D01*
X104475249Y-109439887D01*
X104433075Y-109468067D01*
X104404895Y-109510241D01*
X104397497Y-109547431D01*
X104397497Y-112072547D01*
X104404895Y-112109737D01*
X104433075Y-112151911D01*
X104475249Y-112180091D01*
X104481282Y-112181291D01*
X104481284Y-112181292D01*
X104507381Y-112186483D01*
X104512439Y-112187489D01*
X106863533Y-112187489D01*
X106907727Y-112205795D01*
X108544867Y-113842935D01*
X108549587Y-113849594D01*
X108550063Y-113849215D01*
X108554444Y-113854723D01*
X108557491Y-113861068D01*
X108562988Y-113865464D01*
X108582292Y-113880902D01*
X108587451Y-113885519D01*
X108593210Y-113891278D01*
X108599817Y-113895431D01*
X108605573Y-113899521D01*
X108630071Y-113919112D01*
X108636932Y-113920690D01*
X108641350Y-113922826D01*
X108645992Y-113924451D01*
X108651950Y-113928196D01*
X108658944Y-113928987D01*
X108658945Y-113928987D01*
X108683093Y-113931717D01*
X108690067Y-113932908D01*
X108692306Y-113933423D01*
X108728931Y-113959568D01*
X108729333Y-113959230D01*
X108808127Y-114052968D01*
X108811832Y-114055434D01*
X108811834Y-114055436D01*
X108827476Y-114065848D01*
X108910064Y-114120823D01*
X109026948Y-114157340D01*
X109031398Y-114157422D01*
X109031401Y-114157422D01*
X109081074Y-114158332D01*
X109149383Y-114159584D01*
X109260510Y-114129288D01*
X109307963Y-114135325D01*
X109337248Y-114173148D01*
X109331211Y-114220601D01*
X109321143Y-114233781D01*
X109283930Y-114270994D01*
X109239736Y-114289300D01*
X106717862Y-114289300D01*
X106673668Y-114270994D01*
X106666863Y-114262530D01*
X106665852Y-114260307D01*
X106585918Y-114167539D01*
X106483160Y-114100935D01*
X106365838Y-114065848D01*
X106304612Y-114065474D01*
X106247838Y-114065127D01*
X106247837Y-114065127D01*
X106243385Y-114065100D01*
X106125644Y-114098751D01*
X106022080Y-114164095D01*
X106019137Y-114167427D01*
X106019135Y-114167429D01*
X105943965Y-114252542D01*
X105941018Y-114255879D01*
X105939126Y-114259909D01*
X105890868Y-114362695D01*
X105890867Y-114362698D01*
X105888976Y-114366726D01*
X105870136Y-114487724D01*
X105886014Y-114609145D01*
X105887807Y-114613220D01*
X105929228Y-114707355D01*
X105935333Y-114721230D01*
X106014127Y-114814968D01*
X106017832Y-114817434D01*
X106017834Y-114817436D01*
X106087099Y-114863542D01*
X106116064Y-114882823D01*
X106141869Y-114890885D01*
X106178593Y-114921537D01*
X106182887Y-114969179D01*
X106161839Y-114999691D01*
X106080827Y-115063327D01*
X106047618Y-115089413D01*
X106045674Y-115091653D01*
X106045670Y-115091657D01*
X105959215Y-115191288D01*
X105909987Y-115248018D01*
X105908496Y-115250595D01*
X105908494Y-115250598D01*
X105812173Y-115417096D01*
X105804831Y-115429788D01*
X105803856Y-115432595D01*
X105803854Y-115432600D01*
X105763602Y-115548515D01*
X105735944Y-115628163D01*
X105705811Y-115835985D01*
X105705948Y-115838950D01*
X105705948Y-115838955D01*
X105713909Y-116010948D01*
X105715520Y-116045756D01*
X105716217Y-116048647D01*
X105716217Y-116048649D01*
X105763335Y-116244157D01*
X105755893Y-116291410D01*
X105717218Y-116319560D01*
X105702575Y-116321300D01*
X104956000Y-116321300D01*
X104911806Y-116302994D01*
X104893500Y-116258800D01*
X104893500Y-115467438D01*
X104886824Y-115405986D01*
X104871098Y-115364035D01*
X104837862Y-115275377D01*
X104837861Y-115275375D01*
X104836298Y-115271206D01*
X104749975Y-115156025D01*
X104634794Y-115069702D01*
X104630625Y-115068139D01*
X104630623Y-115068138D01*
X104503682Y-115020551D01*
X104500014Y-115019176D01*
X104438562Y-115012500D01*
X103593438Y-115012500D01*
X103531986Y-115019176D01*
X103528318Y-115020551D01*
X103401377Y-115068138D01*
X103401375Y-115068139D01*
X103397206Y-115069702D01*
X103282025Y-115156025D01*
X103195702Y-115271206D01*
X103194139Y-115275375D01*
X103194138Y-115275377D01*
X103160902Y-115364035D01*
X103145176Y-115405986D01*
X103138500Y-115467438D01*
X103138500Y-116312562D01*
X103145176Y-116374014D01*
X103195702Y-116508794D01*
X103282025Y-116623975D01*
X103397206Y-116710298D01*
X103401375Y-116711861D01*
X103401377Y-116711862D01*
X103528177Y-116759396D01*
X103531986Y-116760824D01*
X103593438Y-116767500D01*
X104438562Y-116767500D01*
X104500014Y-116760824D01*
X104503685Y-116759448D01*
X104584114Y-116729298D01*
X104611710Y-116725578D01*
X104611732Y-116725580D01*
X104620084Y-116726914D01*
X104624404Y-116727908D01*
X104624413Y-116727909D01*
X104627852Y-116728700D01*
X104635947Y-116728700D01*
X104642968Y-116729096D01*
X104674290Y-116732637D01*
X104680935Y-116730316D01*
X104687930Y-116729532D01*
X104687992Y-116730085D01*
X104696164Y-116728700D01*
X105672022Y-116728700D01*
X105716216Y-116747006D01*
X105874952Y-116905741D01*
X105945817Y-116976606D01*
X105964123Y-117020800D01*
X105945817Y-117064994D01*
X105901623Y-117083300D01*
X104950400Y-117083300D01*
X104942353Y-117081928D01*
X104942284Y-117082533D01*
X104935293Y-117081736D01*
X104928652Y-117079404D01*
X104921659Y-117080182D01*
X104921658Y-117080182D01*
X104897082Y-117082917D01*
X104890170Y-117083300D01*
X104882033Y-117083300D01*
X104874435Y-117085034D01*
X104867455Y-117086214D01*
X104862808Y-117086731D01*
X104836287Y-117089682D01*
X104830318Y-117093419D01*
X104825684Y-117095033D01*
X104821254Y-117097165D01*
X104814392Y-117098730D01*
X104808889Y-117103115D01*
X104789870Y-117118270D01*
X104784097Y-117122358D01*
X104777331Y-117126594D01*
X104771611Y-117132314D01*
X104766368Y-117136998D01*
X104741710Y-117156647D01*
X104738651Y-117162989D01*
X104734262Y-117168487D01*
X104733826Y-117168139D01*
X104729027Y-117174898D01*
X104369731Y-117534194D01*
X104325537Y-117552500D01*
X103593438Y-117552500D01*
X103531986Y-117559176D01*
X103528318Y-117560551D01*
X103401377Y-117608138D01*
X103401375Y-117608139D01*
X103397206Y-117609702D01*
X103282025Y-117696025D01*
X103195702Y-117811206D01*
X103194139Y-117815375D01*
X103194138Y-117815377D01*
X103155749Y-117917783D01*
X103145176Y-117945986D01*
X103138500Y-118007438D01*
X103138500Y-118852562D01*
X103000989Y-118852562D01*
X103000989Y-113772562D01*
X103138500Y-113772562D01*
X103145176Y-113834014D01*
X103146551Y-113837682D01*
X103193394Y-113962637D01*
X103195702Y-113968794D01*
X103282025Y-114083975D01*
X103285585Y-114086643D01*
X103380026Y-114157422D01*
X103397206Y-114170298D01*
X103401375Y-114171861D01*
X103401377Y-114171862D01*
X103528318Y-114219449D01*
X103531986Y-114220824D01*
X103593438Y-114227500D01*
X104438562Y-114227500D01*
X104500014Y-114220824D01*
X104503682Y-114219449D01*
X104630623Y-114171862D01*
X104630625Y-114171861D01*
X104634794Y-114170298D01*
X104651975Y-114157422D01*
X104746415Y-114086643D01*
X104749975Y-114083975D01*
X104836298Y-113968794D01*
X104838607Y-113962637D01*
X104885449Y-113837682D01*
X104886824Y-113834014D01*
X104893500Y-113772562D01*
X104893500Y-112927438D01*
X104886824Y-112865986D01*
X104868388Y-112816806D01*
X104837862Y-112735377D01*
X104837861Y-112735375D01*
X104836298Y-112731206D01*
X104749975Y-112616025D01*
X104634794Y-112529702D01*
X104630625Y-112528139D01*
X104630623Y-112528138D01*
X104503682Y-112480551D01*
X104500014Y-112479176D01*
X104438562Y-112472500D01*
X103593438Y-112472500D01*
X103531986Y-112479176D01*
X103528318Y-112480551D01*
X103401377Y-112528138D01*
X103401375Y-112528139D01*
X103397206Y-112529702D01*
X103282025Y-112616025D01*
X103195702Y-112731206D01*
X103194139Y-112735375D01*
X103194138Y-112735377D01*
X103163612Y-112816806D01*
X103145176Y-112865986D01*
X103138500Y-112927438D01*
X103138500Y-113772562D01*
X103000989Y-113772562D01*
X103000989Y-108772916D01*
X103019295Y-108728722D01*
X103063489Y-108710416D01*
X103107683Y-108728722D01*
X103117285Y-108741100D01*
X103138043Y-108776199D01*
X103142824Y-108782363D01*
X103249637Y-108889176D01*
X103255804Y-108893959D01*
X103385819Y-108970851D01*
X103392991Y-108973955D01*
X103538751Y-109016301D01*
X103545008Y-109017444D01*
X103576247Y-109019903D01*
X103578723Y-109020000D01*
X103876569Y-109020000D01*
X103885359Y-109016359D01*
X103889000Y-109007569D01*
X103889000Y-109007568D01*
X104143000Y-109007568D01*
X104146641Y-109016358D01*
X104155431Y-109019999D01*
X104453274Y-109019999D01*
X104455756Y-109019901D01*
X104486994Y-109017444D01*
X104493246Y-109016302D01*
X104639009Y-108973955D01*
X104646181Y-108970851D01*
X104776196Y-108893959D01*
X104782363Y-108889176D01*
X104889176Y-108782363D01*
X104893959Y-108776196D01*
X104970851Y-108646181D01*
X104973955Y-108639009D01*
X105016301Y-108493249D01*
X105017444Y-108486992D01*
X105019903Y-108455753D01*
X105020000Y-108453277D01*
X105020000Y-108438562D01*
X105678500Y-108438562D01*
X105685176Y-108500014D01*
X105686551Y-108503682D01*
X105706197Y-108556087D01*
X105735702Y-108634794D01*
X105822025Y-108749975D01*
X105937206Y-108836298D01*
X105941375Y-108837861D01*
X105941377Y-108837862D01*
X106000173Y-108859903D01*
X106071986Y-108886824D01*
X106133438Y-108893500D01*
X106978562Y-108893500D01*
X107040014Y-108886824D01*
X107111827Y-108859903D01*
X107170623Y-108837862D01*
X107170625Y-108837861D01*
X107174794Y-108836298D01*
X107289975Y-108749975D01*
X107376298Y-108634794D01*
X107405804Y-108556087D01*
X107425449Y-108503682D01*
X107426824Y-108500014D01*
X107433500Y-108438562D01*
X107433500Y-107593438D01*
X107426824Y-107531986D01*
X107376298Y-107397206D01*
X107289975Y-107282025D01*
X107174794Y-107195702D01*
X107170625Y-107194139D01*
X107170623Y-107194138D01*
X107043682Y-107146551D01*
X107040014Y-107145176D01*
X106978562Y-107138500D01*
X106133438Y-107138500D01*
X106071986Y-107145176D01*
X106068318Y-107146551D01*
X105941377Y-107194138D01*
X105941375Y-107194139D01*
X105937206Y-107195702D01*
X105822025Y-107282025D01*
X105735702Y-107397206D01*
X105685176Y-107531986D01*
X105678500Y-107593438D01*
X105678500Y-108438562D01*
X105020000Y-108438562D01*
X105020000Y-108155431D01*
X105016359Y-108146641D01*
X105007569Y-108143000D01*
X104155431Y-108143000D01*
X104146641Y-108146641D01*
X104143000Y-108155431D01*
X104143000Y-109007568D01*
X103889000Y-109007568D01*
X103889000Y-107951500D01*
X103907306Y-107907306D01*
X103951500Y-107889000D01*
X105007568Y-107889000D01*
X105016358Y-107885359D01*
X105019999Y-107876569D01*
X105019999Y-107578726D01*
X105019901Y-107576244D01*
X105017444Y-107545006D01*
X105016302Y-107538754D01*
X104973955Y-107392991D01*
X104970851Y-107385819D01*
X104893959Y-107255804D01*
X104889176Y-107249637D01*
X104782363Y-107142824D01*
X104776199Y-107138043D01*
X104741117Y-107117295D01*
X104712396Y-107079042D01*
X104719137Y-107031683D01*
X104757390Y-107002962D01*
X104772933Y-107000999D01*
X111888900Y-107000995D01*
X119007083Y-107000990D01*
X119051277Y-107019296D01*
G37*
G04 #@! TD.AperFunction*
G04 #@! TA.AperFunction,Conductor*
G36*
X110274256Y-117864331D02*
G01*
X110727658Y-118317733D01*
X110732379Y-118324394D01*
X110732855Y-118324015D01*
X110737236Y-118329523D01*
X110740283Y-118335868D01*
X110745780Y-118340264D01*
X110765089Y-118355706D01*
X110770248Y-118360323D01*
X110776003Y-118366078D01*
X110778970Y-118367943D01*
X110778975Y-118367947D01*
X110782609Y-118370231D01*
X110788372Y-118374327D01*
X110812863Y-118393912D01*
X110819722Y-118395490D01*
X110824145Y-118397628D01*
X110828784Y-118399252D01*
X110834743Y-118402997D01*
X110865907Y-118406520D01*
X110872877Y-118407712D01*
X110877207Y-118408708D01*
X110877210Y-118408708D01*
X110880652Y-118409500D01*
X110888747Y-118409500D01*
X110895768Y-118409896D01*
X110927090Y-118413437D01*
X110933735Y-118411116D01*
X110940730Y-118410332D01*
X110940792Y-118410885D01*
X110948964Y-118409500D01*
X113846800Y-118409500D01*
X113854847Y-118410872D01*
X113854916Y-118410267D01*
X113861907Y-118411064D01*
X113868548Y-118413396D01*
X113875541Y-118412618D01*
X113875542Y-118412618D01*
X113897166Y-118410211D01*
X113900116Y-118409883D01*
X113907028Y-118409500D01*
X113915167Y-118409500D01*
X113918587Y-118408720D01*
X113918594Y-118408719D01*
X113922767Y-118407767D01*
X113929752Y-118406586D01*
X113953918Y-118403896D01*
X113953920Y-118403895D01*
X113960913Y-118403117D01*
X113966875Y-118399385D01*
X113971512Y-118397770D01*
X113975948Y-118395635D01*
X113982808Y-118394070D01*
X114007322Y-118374535D01*
X114013108Y-118370439D01*
X114016868Y-118368085D01*
X114019870Y-118366206D01*
X114025594Y-118360482D01*
X114030838Y-118355797D01*
X114037691Y-118350336D01*
X114055490Y-118336153D01*
X114058549Y-118329811D01*
X114062938Y-118324313D01*
X114063375Y-118324662D01*
X114068172Y-118317904D01*
X114281474Y-118104602D01*
X114325668Y-118086296D01*
X114344300Y-118089139D01*
X114360948Y-118094340D01*
X114365398Y-118094422D01*
X114365401Y-118094422D01*
X114415074Y-118095332D01*
X114483383Y-118096584D01*
X114505907Y-118090444D01*
X114516855Y-118087459D01*
X114564308Y-118093496D01*
X114577488Y-118103564D01*
X115677994Y-119204069D01*
X115696300Y-119248263D01*
X115696300Y-121263800D01*
X115677994Y-121307994D01*
X115633800Y-121326300D01*
X115490000Y-121326300D01*
X115445806Y-121307994D01*
X115427500Y-121263800D01*
X115427500Y-121151368D01*
X115415344Y-121090257D01*
X115369041Y-121020959D01*
X115299743Y-120974656D01*
X115259711Y-120966693D01*
X115241644Y-120963099D01*
X115241643Y-120963099D01*
X115238632Y-120962500D01*
X113761368Y-120962500D01*
X113758357Y-120963099D01*
X113758356Y-120963099D01*
X113740289Y-120966693D01*
X113700257Y-120974656D01*
X113695137Y-120978077D01*
X113689451Y-120980432D01*
X113688428Y-120977963D01*
X113651311Y-120985349D01*
X113611535Y-120958777D01*
X113600999Y-120924049D01*
X113600999Y-120712437D01*
X113619305Y-120668243D01*
X113663499Y-120649937D01*
X113684647Y-120654626D01*
X113684772Y-120654198D01*
X113698438Y-120658181D01*
X113740602Y-120663733D01*
X113744680Y-120664000D01*
X114360569Y-120664000D01*
X114369359Y-120660359D01*
X114373000Y-120651569D01*
X114373000Y-120651568D01*
X114627000Y-120651568D01*
X114630641Y-120660358D01*
X114639431Y-120663999D01*
X115255319Y-120663999D01*
X115259399Y-120663731D01*
X115301563Y-120658181D01*
X115310640Y-120655535D01*
X115408734Y-120609794D01*
X115417565Y-120603611D01*
X115493611Y-120527565D01*
X115499794Y-120518734D01*
X115545535Y-120420642D01*
X115548181Y-120411562D01*
X115553733Y-120369398D01*
X115554000Y-120365320D01*
X115554000Y-120139431D01*
X115550359Y-120130641D01*
X115541569Y-120127000D01*
X114639431Y-120127000D01*
X114630641Y-120130641D01*
X114627000Y-120139431D01*
X114627000Y-120651568D01*
X114373000Y-120651568D01*
X114373000Y-119860569D01*
X114627000Y-119860569D01*
X114630641Y-119869359D01*
X114639431Y-119873000D01*
X115541568Y-119873000D01*
X115550358Y-119869359D01*
X115553999Y-119860569D01*
X115553999Y-119634681D01*
X115553731Y-119630601D01*
X115548181Y-119588437D01*
X115545535Y-119579360D01*
X115499794Y-119481266D01*
X115493611Y-119472435D01*
X115417565Y-119396389D01*
X115408734Y-119390206D01*
X115310642Y-119344465D01*
X115301562Y-119341819D01*
X115259398Y-119336267D01*
X115255320Y-119336000D01*
X114639431Y-119336000D01*
X114630641Y-119339641D01*
X114627000Y-119348431D01*
X114627000Y-119860569D01*
X114373000Y-119860569D01*
X114373000Y-119348432D01*
X114369359Y-119339642D01*
X114360569Y-119336001D01*
X113744681Y-119336001D01*
X113740601Y-119336269D01*
X113698437Y-119341819D01*
X113689364Y-119344463D01*
X113688153Y-119345028D01*
X113687299Y-119345065D01*
X113684771Y-119345802D01*
X113684591Y-119345183D01*
X113640363Y-119347112D01*
X113613862Y-119328554D01*
X113544046Y-119245341D01*
X113544044Y-119245340D01*
X113541485Y-119242289D01*
X113482431Y-119200318D01*
X113440120Y-119170246D01*
X113440118Y-119170245D01*
X113436872Y-119167938D01*
X113333971Y-119128847D01*
X113320623Y-119123776D01*
X113320621Y-119123776D01*
X113316895Y-119122360D01*
X113312930Y-119121929D01*
X113312929Y-119121929D01*
X113287011Y-119119113D01*
X113189302Y-119108498D01*
X113185362Y-119109080D01*
X113185358Y-119109080D01*
X113102897Y-119121259D01*
X113062336Y-119127249D01*
X112944198Y-119177400D01*
X112945447Y-119179539D01*
X112938506Y-119184467D01*
X112927011Y-119189888D01*
X112924563Y-119190977D01*
X112849590Y-119222376D01*
X112849552Y-119222392D01*
X112841743Y-119225070D01*
X112812228Y-119233059D01*
X112806933Y-119234492D01*
X112798845Y-119236117D01*
X112718711Y-119246774D01*
X112715972Y-119247077D01*
X112696922Y-119248758D01*
X112691429Y-119249000D01*
X111108303Y-119249000D01*
X111102797Y-119248757D01*
X111084449Y-119247134D01*
X111081758Y-119246836D01*
X111001143Y-119236116D01*
X110993044Y-119234487D01*
X110958213Y-119225053D01*
X110950413Y-119222377D01*
X110875939Y-119191189D01*
X110873437Y-119190074D01*
X110865434Y-119186299D01*
X110855371Y-119178141D01*
X110855783Y-119177436D01*
X110737653Y-119127289D01*
X110733713Y-119126707D01*
X110733709Y-119126706D01*
X110614641Y-119109121D01*
X110614638Y-119109121D01*
X110610698Y-119108539D01*
X110529191Y-119117394D01*
X110487081Y-119121968D01*
X110487079Y-119121968D01*
X110483116Y-119122399D01*
X110479390Y-119123815D01*
X110479388Y-119123815D01*
X110455189Y-119133008D01*
X110363148Y-119167973D01*
X110359902Y-119170280D01*
X110359900Y-119170281D01*
X110323276Y-119196311D01*
X110258543Y-119242318D01*
X110255984Y-119245369D01*
X110255982Y-119245370D01*
X110179718Y-119336269D01*
X110176058Y-119340631D01*
X110132221Y-119432968D01*
X110096733Y-119465039D01*
X110063571Y-119467461D01*
X110038632Y-119462500D01*
X109453739Y-119462500D01*
X109409545Y-119444194D01*
X109391239Y-119400000D01*
X109407402Y-119358058D01*
X109451071Y-119309813D01*
X109454058Y-119306513D01*
X109507451Y-119196311D01*
X109508349Y-119190977D01*
X109522403Y-119107433D01*
X109527767Y-119075552D01*
X109527896Y-119065000D01*
X109510536Y-118943781D01*
X109469826Y-118854243D01*
X109461696Y-118836362D01*
X109461695Y-118836360D01*
X109459852Y-118832307D01*
X109379918Y-118739539D01*
X109362251Y-118728088D01*
X109328206Y-118706021D01*
X109301077Y-118666622D01*
X109299700Y-118653574D01*
X109299700Y-118540264D01*
X109318006Y-118496070D01*
X109608011Y-118206065D01*
X109652205Y-118187759D01*
X109670837Y-118190602D01*
X109687485Y-118195803D01*
X109691935Y-118195885D01*
X109691938Y-118195885D01*
X109741611Y-118196795D01*
X109809920Y-118198047D01*
X109878586Y-118179327D01*
X109923763Y-118167011D01*
X109923766Y-118167010D01*
X109928064Y-118165838D01*
X109931860Y-118163507D01*
X109931863Y-118163506D01*
X110028620Y-118104096D01*
X110032418Y-118101764D01*
X110114595Y-118010976D01*
X110167988Y-117900774D01*
X110168727Y-117896382D01*
X110170081Y-117892140D01*
X110171845Y-117892703D01*
X110193804Y-117857617D01*
X110240421Y-117846889D01*
X110274256Y-117864331D01*
G37*
G04 #@! TD.AperFunction*
M02*
