G04 #@! TF.GenerationSoftware,KiCad,Pcbnew,(6.0.5)*
G04 #@! TF.CreationDate,2022-07-09T20:48:00-07:00*
G04 #@! TF.ProjectId,track_ball,74726163-6b5f-4626-916c-6c2e6b696361,1*
G04 #@! TF.SameCoordinates,Original*
G04 #@! TF.FileFunction,Copper,L4,Bot*
G04 #@! TF.FilePolarity,Positive*
%FSLAX46Y46*%
G04 Gerber Fmt 4.6, Leading zero omitted, Abs format (unit mm)*
G04 Created by KiCad (PCBNEW (6.0.5)) date 2022-07-09 20:48:00*
%MOMM*%
%LPD*%
G01*
G04 APERTURE LIST*
G04 Aperture macros list*
%AMRoundRect*
0 Rectangle with rounded corners*
0 $1 Rounding radius*
0 $2 $3 $4 $5 $6 $7 $8 $9 X,Y pos of 4 corners*
0 Add a 4 corners polygon primitive as box body*
4,1,4,$2,$3,$4,$5,$6,$7,$8,$9,$2,$3,0*
0 Add four circle primitives for the rounded corners*
1,1,$1+$1,$2,$3*
1,1,$1+$1,$4,$5*
1,1,$1+$1,$6,$7*
1,1,$1+$1,$8,$9*
0 Add four rect primitives between the rounded corners*
20,1,$1+$1,$2,$3,$4,$5,0*
20,1,$1+$1,$4,$5,$6,$7,0*
20,1,$1+$1,$6,$7,$8,$9,0*
20,1,$1+$1,$8,$9,$2,$3,0*%
G04 Aperture macros list end*
G04 #@! TA.AperFunction,ComponentPad*
%ADD10R,1.200000X1.200000*%
G04 #@! TD*
G04 #@! TA.AperFunction,ComponentPad*
%ADD11C,1.200000*%
G04 #@! TD*
G04 #@! TA.AperFunction,ComponentPad*
%ADD12RoundRect,0.250000X-0.625000X0.350000X-0.625000X-0.350000X0.625000X-0.350000X0.625000X0.350000X0*%
G04 #@! TD*
G04 #@! TA.AperFunction,ComponentPad*
%ADD13O,1.750000X1.200000*%
G04 #@! TD*
G04 #@! TA.AperFunction,ComponentPad*
%ADD14C,0.700000*%
G04 #@! TD*
G04 #@! TA.AperFunction,ComponentPad*
%ADD15C,4.400000*%
G04 #@! TD*
G04 #@! TA.AperFunction,ViaPad*
%ADD16C,0.600000*%
G04 #@! TD*
G04 #@! TA.AperFunction,Conductor*
%ADD17C,0.200000*%
G04 #@! TD*
G04 APERTURE END LIST*
D10*
X162100000Y-81150000D03*
D11*
X162100000Y-82930000D03*
X162100000Y-84710000D03*
X162100000Y-86490000D03*
X162100000Y-88270000D03*
X162100000Y-90050000D03*
X162100000Y-91830000D03*
X162100000Y-93610000D03*
X172800000Y-94500000D03*
X172800000Y-92720000D03*
X172800000Y-90940000D03*
X172800000Y-89160000D03*
X172800000Y-87380000D03*
X172800000Y-85600000D03*
X172800000Y-83820000D03*
X172800000Y-82040000D03*
D12*
X179600000Y-80800000D03*
D13*
X179600000Y-82800000D03*
X179600000Y-84800000D03*
X179600000Y-86800000D03*
X179600000Y-88800000D03*
X179600000Y-90800000D03*
X179600000Y-92800000D03*
D14*
X167450000Y-73000000D03*
X166283274Y-75816726D03*
X165800000Y-74650000D03*
D15*
X167450000Y-74650000D03*
D14*
X168616726Y-75816726D03*
X169100000Y-74650000D03*
X166283274Y-73483274D03*
X167450000Y-76300000D03*
X168616726Y-73483274D03*
D15*
X167450000Y-99150000D03*
D14*
X166283274Y-97983274D03*
X166283274Y-100316726D03*
X168616726Y-100316726D03*
X167450000Y-97500000D03*
X169100000Y-99150000D03*
X168616726Y-97983274D03*
X167450000Y-100800000D03*
X165800000Y-99150000D03*
D16*
X160800000Y-87700000D03*
X178100000Y-95900000D03*
X178100000Y-85900000D03*
X178100000Y-90200000D03*
X162800000Y-99200000D03*
X178100000Y-91900000D03*
X171000000Y-98700000D03*
X180200000Y-77400000D03*
X176700000Y-86600000D03*
X178100000Y-88200000D03*
X177100000Y-83200000D03*
X177100000Y-80900000D03*
X178100000Y-93600000D03*
X174900000Y-85300000D03*
X163700000Y-75700000D03*
X171000000Y-75700000D03*
X161200000Y-90900000D03*
X176500000Y-91500000D03*
X176500000Y-95500000D03*
X176500000Y-87500000D03*
X176500000Y-93500000D03*
X176500000Y-89500000D03*
X173800000Y-83000000D03*
X173800000Y-96000000D03*
X173800000Y-77600000D03*
X173800000Y-93900000D03*
X173800000Y-89900000D03*
X173800000Y-88000000D03*
X173800000Y-91900000D03*
D17*
X176500000Y-91500000D02*
X176500000Y-89500000D01*
X179600000Y-92800000D02*
X176500000Y-92800000D01*
X176500000Y-93500000D02*
X176500000Y-92800000D01*
X176500000Y-95500000D02*
X176500000Y-93500000D01*
X176500000Y-92800000D02*
X176500000Y-91500000D01*
X176500000Y-89500000D02*
X176500000Y-87500000D01*
X173800000Y-93900000D02*
X173800000Y-91900000D01*
X173800000Y-96000000D02*
X173800000Y-93900000D01*
X173800000Y-83000000D02*
X173800000Y-88000000D01*
X173800000Y-91900000D02*
X173800000Y-89900000D01*
X173800000Y-89900000D02*
X173800000Y-88000000D01*
X173800000Y-77600000D02*
X173800000Y-83000000D01*
G04 #@! TA.AperFunction,Conductor*
G36*
X170017892Y-71019306D02*
G01*
X174999153Y-76000567D01*
X174999235Y-76000765D01*
X174999433Y-76000847D01*
X175000000Y-76001082D01*
X175000198Y-76001000D01*
X181936500Y-76001000D01*
X181980694Y-76019306D01*
X181999000Y-76063500D01*
X181999000Y-97936500D01*
X181980694Y-97980694D01*
X181936500Y-97999000D01*
X175000198Y-97999000D01*
X175000000Y-97998918D01*
X174999802Y-97999000D01*
X174999235Y-97999235D01*
X174999153Y-97999433D01*
X170017892Y-102980694D01*
X169973698Y-102999000D01*
X165026302Y-102999000D01*
X164982108Y-102980694D01*
X162973957Y-100972543D01*
X165811898Y-100972543D01*
X165815964Y-100981938D01*
X165881245Y-101043241D01*
X165884247Y-101045725D01*
X166130893Y-101224923D01*
X166134205Y-101227025D01*
X166401343Y-101373885D01*
X166404907Y-101375562D01*
X166688348Y-101487784D01*
X166692078Y-101488996D01*
X166987343Y-101564808D01*
X166991216Y-101565546D01*
X167293649Y-101603753D01*
X167297579Y-101604000D01*
X167602421Y-101604000D01*
X167606351Y-101603753D01*
X167908784Y-101565546D01*
X167912657Y-101564808D01*
X168207922Y-101488996D01*
X168211652Y-101487784D01*
X168495093Y-101375562D01*
X168498657Y-101373885D01*
X168765795Y-101227025D01*
X168769107Y-101224923D01*
X169015753Y-101045725D01*
X169018755Y-101043241D01*
X169084409Y-100981587D01*
X169088087Y-100973441D01*
X169084319Y-100963924D01*
X167458790Y-99338395D01*
X167450000Y-99334754D01*
X167441210Y-99338395D01*
X165815318Y-100964287D01*
X165811898Y-100972543D01*
X162973957Y-100972543D01*
X161153369Y-99151955D01*
X164991271Y-99151955D01*
X165010414Y-99456218D01*
X165010905Y-99460105D01*
X165068028Y-99759559D01*
X165069005Y-99763363D01*
X165163212Y-100053303D01*
X165164650Y-100056934D01*
X165294457Y-100332788D01*
X165296341Y-100336215D01*
X165459695Y-100593619D01*
X165462000Y-100596792D01*
X165617787Y-100785105D01*
X165626195Y-100789557D01*
X165632900Y-100787495D01*
X167261605Y-99158790D01*
X167265246Y-99150000D01*
X167634754Y-99150000D01*
X167638395Y-99158790D01*
X169265499Y-100785894D01*
X169274289Y-100789535D01*
X169280770Y-100786850D01*
X169438000Y-100596792D01*
X169440305Y-100593619D01*
X169603659Y-100336215D01*
X169605543Y-100332788D01*
X169735350Y-100056934D01*
X169736788Y-100053303D01*
X169830995Y-99763363D01*
X169831972Y-99759559D01*
X169889095Y-99460105D01*
X169889586Y-99456218D01*
X169908729Y-99151955D01*
X169908729Y-99148045D01*
X169889586Y-98843782D01*
X169889095Y-98839895D01*
X169831972Y-98540441D01*
X169830995Y-98536637D01*
X169736788Y-98246697D01*
X169735350Y-98243066D01*
X169605543Y-97967212D01*
X169603659Y-97963785D01*
X169440305Y-97706381D01*
X169438000Y-97703208D01*
X169282213Y-97514895D01*
X169273805Y-97510443D01*
X169267100Y-97512505D01*
X167638395Y-99141210D01*
X167634754Y-99150000D01*
X167265246Y-99150000D01*
X167261605Y-99141210D01*
X165634501Y-97514106D01*
X165625711Y-97510465D01*
X165619230Y-97513150D01*
X165462000Y-97703208D01*
X165459695Y-97706381D01*
X165296341Y-97963785D01*
X165294457Y-97967212D01*
X165164650Y-98243066D01*
X165163212Y-98246697D01*
X165069005Y-98536637D01*
X165068028Y-98540441D01*
X165010905Y-98839895D01*
X165010414Y-98843782D01*
X164991271Y-99148045D01*
X164991271Y-99151955D01*
X161153369Y-99151955D01*
X160019306Y-98017892D01*
X160001000Y-97973698D01*
X160001000Y-97326559D01*
X165811913Y-97326559D01*
X165815681Y-97336076D01*
X167441210Y-98961605D01*
X167450000Y-98965246D01*
X167458790Y-98961605D01*
X169084682Y-97335713D01*
X169088102Y-97327457D01*
X169084036Y-97318062D01*
X169018755Y-97256759D01*
X169015753Y-97254275D01*
X168769107Y-97075077D01*
X168765795Y-97072975D01*
X168498657Y-96926115D01*
X168495093Y-96924438D01*
X168211652Y-96812216D01*
X168207922Y-96811004D01*
X167912657Y-96735192D01*
X167908784Y-96734454D01*
X167606351Y-96696247D01*
X167602421Y-96696000D01*
X167297579Y-96696000D01*
X167293649Y-96696247D01*
X166991216Y-96734454D01*
X166987343Y-96735192D01*
X166692078Y-96811004D01*
X166688348Y-96812216D01*
X166404907Y-96924438D01*
X166401343Y-96926115D01*
X166134205Y-97072975D01*
X166130893Y-97075077D01*
X165884247Y-97254275D01*
X165881245Y-97256759D01*
X165815591Y-97318413D01*
X165811913Y-97326559D01*
X160001000Y-97326559D01*
X160001000Y-95630000D01*
X163148918Y-95630000D01*
X163149000Y-95630198D01*
X163149235Y-95630765D01*
X163150000Y-95631082D01*
X163150198Y-95631000D01*
X171749802Y-95631000D01*
X171750000Y-95631082D01*
X171750765Y-95630765D01*
X171751000Y-95630198D01*
X171751082Y-95630000D01*
X171751000Y-95629802D01*
X171751000Y-94489778D01*
X172067968Y-94489778D01*
X172083895Y-94652213D01*
X172084997Y-94655525D01*
X172084997Y-94655526D01*
X172132154Y-94797284D01*
X172135413Y-94807082D01*
X172137223Y-94810071D01*
X172137225Y-94810075D01*
X172153866Y-94837552D01*
X172219962Y-94946689D01*
X172333340Y-95064095D01*
X172469911Y-95153465D01*
X172622888Y-95210356D01*
X172626343Y-95210817D01*
X172626347Y-95210818D01*
X172716518Y-95222849D01*
X172784668Y-95231942D01*
X172788141Y-95231626D01*
X172788144Y-95231626D01*
X172865939Y-95224546D01*
X172947210Y-95217150D01*
X173102435Y-95166714D01*
X173207638Y-95104001D01*
X173239627Y-95084932D01*
X173239630Y-95084930D01*
X173242629Y-95083142D01*
X173305552Y-95023221D01*
X173358294Y-94972996D01*
X173358297Y-94972993D01*
X173360823Y-94970587D01*
X173451144Y-94834643D01*
X173452385Y-94831377D01*
X173453982Y-94828269D01*
X173455688Y-94829146D01*
X173484386Y-94798698D01*
X173532200Y-94797284D01*
X173567010Y-94830094D01*
X173572500Y-94855708D01*
X173572500Y-95603554D01*
X173554194Y-95647748D01*
X173543352Y-95656412D01*
X173520080Y-95671095D01*
X173517137Y-95674427D01*
X173517135Y-95674429D01*
X173441965Y-95759542D01*
X173439018Y-95762879D01*
X173437126Y-95766909D01*
X173388868Y-95869695D01*
X173388867Y-95869698D01*
X173386976Y-95873726D01*
X173368136Y-95994724D01*
X173368713Y-95999137D01*
X173368713Y-95999138D01*
X173373255Y-96033870D01*
X173384014Y-96116145D01*
X173433333Y-96228230D01*
X173512127Y-96321968D01*
X173515832Y-96324434D01*
X173515834Y-96324436D01*
X173527650Y-96332301D01*
X173614064Y-96389823D01*
X173730948Y-96426340D01*
X173735398Y-96426422D01*
X173735401Y-96426422D01*
X173785074Y-96427332D01*
X173853383Y-96428584D01*
X173906088Y-96414215D01*
X173967226Y-96397548D01*
X173967229Y-96397547D01*
X173971527Y-96396375D01*
X173975323Y-96394044D01*
X173975326Y-96394043D01*
X174072083Y-96334633D01*
X174075881Y-96332301D01*
X174158058Y-96241513D01*
X174211451Y-96131311D01*
X174214003Y-96116145D01*
X174231367Y-96012928D01*
X174231767Y-96010552D01*
X174231896Y-96000000D01*
X174214536Y-95878781D01*
X174163852Y-95767307D01*
X174141627Y-95741513D01*
X174086826Y-95677914D01*
X174083918Y-95674539D01*
X174080181Y-95672117D01*
X174080179Y-95672115D01*
X174056007Y-95656448D01*
X174028877Y-95617050D01*
X174027500Y-95604001D01*
X174027500Y-95494724D01*
X176068136Y-95494724D01*
X176068713Y-95499137D01*
X176068713Y-95499138D01*
X176073255Y-95533870D01*
X176084014Y-95616145D01*
X176085807Y-95620220D01*
X176108642Y-95672115D01*
X176133333Y-95728230D01*
X176212127Y-95821968D01*
X176215832Y-95824434D01*
X176215834Y-95824436D01*
X176227650Y-95832301D01*
X176314064Y-95889823D01*
X176430948Y-95926340D01*
X176435398Y-95926422D01*
X176435401Y-95926422D01*
X176485074Y-95927332D01*
X176553383Y-95928584D01*
X176606088Y-95914215D01*
X176667226Y-95897548D01*
X176667229Y-95897547D01*
X176671527Y-95896375D01*
X176675323Y-95894044D01*
X176675326Y-95894043D01*
X176772083Y-95834633D01*
X176775881Y-95832301D01*
X176858058Y-95741513D01*
X176911451Y-95631311D01*
X176913198Y-95620932D01*
X176931367Y-95512928D01*
X176931767Y-95510552D01*
X176931896Y-95500000D01*
X176914536Y-95378781D01*
X176863852Y-95267307D01*
X176832982Y-95231480D01*
X176786826Y-95177914D01*
X176783918Y-95174539D01*
X176780181Y-95172117D01*
X176780179Y-95172115D01*
X176756007Y-95156448D01*
X176728877Y-95117050D01*
X176727500Y-95104001D01*
X176727500Y-93896974D01*
X176745806Y-93852780D01*
X176757297Y-93843713D01*
X176772083Y-93834634D01*
X176772088Y-93834630D01*
X176775881Y-93832301D01*
X176858058Y-93741513D01*
X176911451Y-93631311D01*
X176913558Y-93618790D01*
X176931367Y-93512928D01*
X176931767Y-93510552D01*
X176931896Y-93500000D01*
X176914536Y-93378781D01*
X176863852Y-93267307D01*
X176783918Y-93174539D01*
X176780181Y-93172117D01*
X176780179Y-93172115D01*
X176756007Y-93156448D01*
X176728877Y-93117050D01*
X176727500Y-93104001D01*
X176727500Y-93090000D01*
X176745806Y-93045806D01*
X176790000Y-93027500D01*
X178589826Y-93027500D01*
X178634020Y-93045806D01*
X178647336Y-93065529D01*
X178663516Y-93103554D01*
X178688768Y-93162900D01*
X178789318Y-93299532D01*
X178918603Y-93409367D01*
X178970899Y-93436071D01*
X179066453Y-93484864D01*
X179066456Y-93484865D01*
X179069687Y-93486515D01*
X179234468Y-93526837D01*
X179241746Y-93527288D01*
X179244187Y-93527440D01*
X179244191Y-93527440D01*
X179245156Y-93527500D01*
X179917483Y-93527500D01*
X179919273Y-93527291D01*
X179919278Y-93527291D01*
X179967399Y-93521680D01*
X180043501Y-93512808D01*
X180113559Y-93487378D01*
X180199547Y-93456166D01*
X180199550Y-93456165D01*
X180202962Y-93454926D01*
X180205999Y-93452935D01*
X180341797Y-93363902D01*
X180341798Y-93363901D01*
X180344832Y-93361912D01*
X180461498Y-93238757D01*
X180546703Y-93092065D01*
X180595877Y-92929706D01*
X180606381Y-92760390D01*
X180577652Y-92593198D01*
X180511232Y-92437100D01*
X180410682Y-92300468D01*
X180281397Y-92190633D01*
X180191665Y-92144813D01*
X180133547Y-92115136D01*
X180133544Y-92115135D01*
X180130313Y-92113485D01*
X179965532Y-92073163D01*
X179958213Y-92072709D01*
X179955813Y-92072560D01*
X179955809Y-92072560D01*
X179954844Y-92072500D01*
X179282517Y-92072500D01*
X179280727Y-92072709D01*
X179280722Y-92072709D01*
X179232601Y-92078320D01*
X179156499Y-92087192D01*
X179153083Y-92088432D01*
X179000453Y-92143834D01*
X179000450Y-92143835D01*
X178997038Y-92145074D01*
X178994002Y-92147065D01*
X178994001Y-92147065D01*
X178863995Y-92232301D01*
X178855168Y-92238088D01*
X178738502Y-92361243D01*
X178653297Y-92507935D01*
X178652245Y-92511407D01*
X178652242Y-92511415D01*
X178647183Y-92528118D01*
X178616852Y-92565108D01*
X178587367Y-92572500D01*
X176790000Y-92572500D01*
X176745806Y-92554194D01*
X176727500Y-92510000D01*
X176727500Y-91896974D01*
X176745806Y-91852780D01*
X176757297Y-91843713D01*
X176772083Y-91834634D01*
X176772088Y-91834630D01*
X176775881Y-91832301D01*
X176858058Y-91741513D01*
X176911451Y-91631311D01*
X176914003Y-91616145D01*
X176929649Y-91523142D01*
X176931767Y-91510552D01*
X176931896Y-91500000D01*
X176914536Y-91378781D01*
X176868510Y-91277552D01*
X176865696Y-91271362D01*
X176865695Y-91271360D01*
X176863852Y-91267307D01*
X176859216Y-91261926D01*
X176786826Y-91177914D01*
X176783918Y-91174539D01*
X176780181Y-91172117D01*
X176780179Y-91172115D01*
X176756007Y-91156448D01*
X176728877Y-91117050D01*
X176727500Y-91104001D01*
X176727500Y-90839610D01*
X178593619Y-90839610D01*
X178622348Y-91006802D01*
X178688768Y-91162900D01*
X178789318Y-91299532D01*
X178918603Y-91409367D01*
X178992046Y-91446869D01*
X179066453Y-91484864D01*
X179066456Y-91484865D01*
X179069687Y-91486515D01*
X179234468Y-91526837D01*
X179241746Y-91527288D01*
X179244187Y-91527440D01*
X179244191Y-91527440D01*
X179245156Y-91527500D01*
X179917483Y-91527500D01*
X179919273Y-91527291D01*
X179919278Y-91527291D01*
X179967399Y-91521680D01*
X180043501Y-91512808D01*
X180113559Y-91487378D01*
X180199547Y-91456166D01*
X180199550Y-91456165D01*
X180202962Y-91454926D01*
X180266916Y-91412996D01*
X180341797Y-91363902D01*
X180341798Y-91363901D01*
X180344832Y-91361912D01*
X180461498Y-91238757D01*
X180546703Y-91092065D01*
X180595877Y-90929706D01*
X180606381Y-90760390D01*
X180577652Y-90593198D01*
X180511232Y-90437100D01*
X180410682Y-90300468D01*
X180281397Y-90190633D01*
X180191665Y-90144813D01*
X180133547Y-90115136D01*
X180133544Y-90115135D01*
X180130313Y-90113485D01*
X179965532Y-90073163D01*
X179958213Y-90072709D01*
X179955813Y-90072560D01*
X179955809Y-90072560D01*
X179954844Y-90072500D01*
X179282517Y-90072500D01*
X179280727Y-90072709D01*
X179280722Y-90072709D01*
X179232601Y-90078320D01*
X179156499Y-90087192D01*
X179153083Y-90088432D01*
X179000453Y-90143834D01*
X179000450Y-90143835D01*
X178997038Y-90145074D01*
X178994002Y-90147065D01*
X178994001Y-90147065D01*
X178863995Y-90232301D01*
X178855168Y-90238088D01*
X178738502Y-90361243D01*
X178653297Y-90507935D01*
X178604123Y-90670294D01*
X178593619Y-90839610D01*
X176727500Y-90839610D01*
X176727500Y-89896974D01*
X176745806Y-89852780D01*
X176757297Y-89843713D01*
X176772083Y-89834634D01*
X176772088Y-89834630D01*
X176775881Y-89832301D01*
X176792931Y-89813465D01*
X176855071Y-89744813D01*
X176858058Y-89741513D01*
X176911451Y-89631311D01*
X176914003Y-89616145D01*
X176931367Y-89512928D01*
X176931767Y-89510552D01*
X176931896Y-89500000D01*
X176914536Y-89378781D01*
X176885776Y-89315526D01*
X176865696Y-89271362D01*
X176865695Y-89271360D01*
X176863852Y-89267307D01*
X176783918Y-89174539D01*
X176780181Y-89172117D01*
X176780179Y-89172115D01*
X176756007Y-89156448D01*
X176728877Y-89117050D01*
X176727500Y-89104001D01*
X176727500Y-88839610D01*
X178593619Y-88839610D01*
X178622348Y-89006802D01*
X178688768Y-89162900D01*
X178789318Y-89299532D01*
X178918603Y-89409367D01*
X178992046Y-89446869D01*
X179066453Y-89484864D01*
X179066456Y-89484865D01*
X179069687Y-89486515D01*
X179234468Y-89526837D01*
X179241746Y-89527288D01*
X179244187Y-89527440D01*
X179244191Y-89527440D01*
X179245156Y-89527500D01*
X179917483Y-89527500D01*
X179919273Y-89527291D01*
X179919278Y-89527291D01*
X179967399Y-89521680D01*
X180043501Y-89512808D01*
X180093321Y-89494724D01*
X180199547Y-89456166D01*
X180199550Y-89456165D01*
X180202962Y-89454926D01*
X180205999Y-89452935D01*
X180341797Y-89363902D01*
X180341798Y-89363901D01*
X180344832Y-89361912D01*
X180461498Y-89238757D01*
X180546703Y-89092065D01*
X180593427Y-88937794D01*
X180594824Y-88933183D01*
X180594824Y-88933182D01*
X180595877Y-88929706D01*
X180606381Y-88760390D01*
X180577652Y-88593198D01*
X180511232Y-88437100D01*
X180410682Y-88300468D01*
X180281397Y-88190633D01*
X180192176Y-88145074D01*
X180133547Y-88115136D01*
X180133544Y-88115135D01*
X180130313Y-88113485D01*
X179965532Y-88073163D01*
X179958213Y-88072709D01*
X179955813Y-88072560D01*
X179955809Y-88072560D01*
X179954844Y-88072500D01*
X179282517Y-88072500D01*
X179280727Y-88072709D01*
X179280722Y-88072709D01*
X179232601Y-88078320D01*
X179156499Y-88087192D01*
X179153083Y-88088432D01*
X179000453Y-88143834D01*
X179000450Y-88143835D01*
X178997038Y-88145074D01*
X178994002Y-88147065D01*
X178994001Y-88147065D01*
X178923968Y-88192981D01*
X178855168Y-88238088D01*
X178738502Y-88361243D01*
X178653297Y-88507935D01*
X178604123Y-88670294D01*
X178593619Y-88839610D01*
X176727500Y-88839610D01*
X176727500Y-87896974D01*
X176745806Y-87852780D01*
X176757297Y-87843713D01*
X176772083Y-87834634D01*
X176772088Y-87834630D01*
X176775881Y-87832301D01*
X176788627Y-87818220D01*
X176855071Y-87744813D01*
X176858058Y-87741513D01*
X176911451Y-87631311D01*
X176913851Y-87617050D01*
X176927102Y-87538280D01*
X176931767Y-87510552D01*
X176931896Y-87500000D01*
X176914536Y-87378781D01*
X176863852Y-87267307D01*
X176783918Y-87174539D01*
X176681160Y-87107935D01*
X176563838Y-87072848D01*
X176502611Y-87072474D01*
X176445838Y-87072127D01*
X176445837Y-87072127D01*
X176441385Y-87072100D01*
X176323644Y-87105751D01*
X176220080Y-87171095D01*
X176217137Y-87174427D01*
X176217135Y-87174429D01*
X176187617Y-87207852D01*
X176139018Y-87262879D01*
X176137126Y-87266909D01*
X176088868Y-87369695D01*
X176088867Y-87369698D01*
X176086976Y-87373726D01*
X176068136Y-87494724D01*
X176068713Y-87499137D01*
X176068713Y-87499138D01*
X176070556Y-87513228D01*
X176084014Y-87616145D01*
X176085807Y-87620220D01*
X176127355Y-87714643D01*
X176133333Y-87728230D01*
X176212127Y-87821968D01*
X176227650Y-87832301D01*
X176244633Y-87843606D01*
X176271278Y-87883333D01*
X176272500Y-87895633D01*
X176272500Y-89103554D01*
X176254194Y-89147748D01*
X176243352Y-89156412D01*
X176220080Y-89171095D01*
X176217137Y-89174427D01*
X176217135Y-89174429D01*
X176163097Y-89235615D01*
X176139018Y-89262879D01*
X176137126Y-89266909D01*
X176088868Y-89369695D01*
X176088867Y-89369698D01*
X176086976Y-89373726D01*
X176068136Y-89494724D01*
X176068713Y-89499137D01*
X176068713Y-89499138D01*
X176072249Y-89526176D01*
X176084014Y-89616145D01*
X176085807Y-89620220D01*
X176131514Y-89724095D01*
X176133333Y-89728230D01*
X176212127Y-89821968D01*
X176227650Y-89832301D01*
X176244633Y-89843606D01*
X176271278Y-89883333D01*
X176272500Y-89895633D01*
X176272500Y-91103554D01*
X176254194Y-91147748D01*
X176243352Y-91156412D01*
X176220080Y-91171095D01*
X176217137Y-91174427D01*
X176217135Y-91174429D01*
X176150326Y-91250075D01*
X176139018Y-91262879D01*
X176137126Y-91266909D01*
X176088868Y-91369695D01*
X176088867Y-91369698D01*
X176086976Y-91373726D01*
X176068136Y-91494724D01*
X176068713Y-91499137D01*
X176068713Y-91499138D01*
X176071537Y-91520731D01*
X176084014Y-91616145D01*
X176085807Y-91620220D01*
X176106745Y-91667804D01*
X176133333Y-91728230D01*
X176212127Y-91821968D01*
X176227150Y-91831968D01*
X176244633Y-91843606D01*
X176271278Y-91883333D01*
X176272500Y-91895633D01*
X176272500Y-92784800D01*
X176272158Y-92791333D01*
X176268692Y-92824311D01*
X176270721Y-92830556D01*
X176271408Y-92837090D01*
X176271105Y-92837122D01*
X176272500Y-92845929D01*
X176272500Y-93103554D01*
X176254194Y-93147748D01*
X176243352Y-93156412D01*
X176220080Y-93171095D01*
X176217137Y-93174427D01*
X176217135Y-93174429D01*
X176205433Y-93187679D01*
X176139018Y-93262879D01*
X176137126Y-93266909D01*
X176088868Y-93369695D01*
X176088867Y-93369698D01*
X176086976Y-93373726D01*
X176068136Y-93494724D01*
X176068713Y-93499137D01*
X176068713Y-93499138D01*
X176072249Y-93526176D01*
X176084014Y-93616145D01*
X176085807Y-93620220D01*
X176104578Y-93662879D01*
X176133333Y-93728230D01*
X176212127Y-93821968D01*
X176240448Y-93840820D01*
X176244633Y-93843606D01*
X176271278Y-93883333D01*
X176272500Y-93895633D01*
X176272500Y-95103554D01*
X176254194Y-95147748D01*
X176243352Y-95156412D01*
X176220080Y-95171095D01*
X176217137Y-95174427D01*
X176217135Y-95174429D01*
X176186480Y-95209139D01*
X176139018Y-95262879D01*
X176137126Y-95266909D01*
X176088868Y-95369695D01*
X176088867Y-95369698D01*
X176086976Y-95373726D01*
X176068136Y-95494724D01*
X174027500Y-95494724D01*
X174027500Y-94296974D01*
X174045806Y-94252780D01*
X174057297Y-94243713D01*
X174072083Y-94234634D01*
X174072088Y-94234630D01*
X174075881Y-94232301D01*
X174158058Y-94141513D01*
X174211451Y-94031311D01*
X174214003Y-94016145D01*
X174224933Y-93951172D01*
X174231767Y-93910552D01*
X174231896Y-93900000D01*
X174214536Y-93778781D01*
X174163852Y-93667307D01*
X174083918Y-93574539D01*
X174080181Y-93572117D01*
X174080179Y-93572115D01*
X174056007Y-93556448D01*
X174028877Y-93517050D01*
X174027500Y-93504001D01*
X174027500Y-92296974D01*
X174045806Y-92252780D01*
X174057297Y-92243713D01*
X174072083Y-92234634D01*
X174072088Y-92234630D01*
X174075881Y-92232301D01*
X174158058Y-92141513D01*
X174211451Y-92031311D01*
X174214003Y-92016145D01*
X174231367Y-91912928D01*
X174231767Y-91910552D01*
X174231896Y-91900000D01*
X174214536Y-91778781D01*
X174189194Y-91723044D01*
X174165696Y-91671362D01*
X174165695Y-91671360D01*
X174163852Y-91667307D01*
X174155373Y-91657466D01*
X174086826Y-91577914D01*
X174083918Y-91574539D01*
X174080181Y-91572117D01*
X174080179Y-91572115D01*
X174056007Y-91556448D01*
X174028877Y-91517050D01*
X174027500Y-91504001D01*
X174027500Y-90296974D01*
X174045806Y-90252780D01*
X174057297Y-90243713D01*
X174072083Y-90234634D01*
X174072088Y-90234630D01*
X174075881Y-90232301D01*
X174100117Y-90205526D01*
X174155071Y-90144813D01*
X174158058Y-90141513D01*
X174211451Y-90031311D01*
X174214003Y-90016145D01*
X174231367Y-89912928D01*
X174231767Y-89910552D01*
X174231896Y-89900000D01*
X174214536Y-89778781D01*
X174163852Y-89667307D01*
X174083918Y-89574539D01*
X174080181Y-89572117D01*
X174080179Y-89572115D01*
X174056007Y-89556448D01*
X174028877Y-89517050D01*
X174027500Y-89504001D01*
X174027500Y-88396974D01*
X174045806Y-88352780D01*
X174057297Y-88343713D01*
X174072083Y-88334634D01*
X174072088Y-88334630D01*
X174075881Y-88332301D01*
X174158058Y-88241513D01*
X174211451Y-88131311D01*
X174214003Y-88116145D01*
X174227912Y-88033465D01*
X174231767Y-88010552D01*
X174231896Y-88000000D01*
X174214536Y-87878781D01*
X174163852Y-87767307D01*
X174141627Y-87741513D01*
X174107516Y-87701926D01*
X174083918Y-87674539D01*
X174080181Y-87672117D01*
X174080179Y-87672115D01*
X174056007Y-87656448D01*
X174028877Y-87617050D01*
X174027500Y-87604001D01*
X174027500Y-86839610D01*
X178593619Y-86839610D01*
X178622348Y-87006802D01*
X178688768Y-87162900D01*
X178789318Y-87299532D01*
X178918603Y-87409367D01*
X178992046Y-87446869D01*
X179066453Y-87484864D01*
X179066456Y-87484865D01*
X179069687Y-87486515D01*
X179234468Y-87526837D01*
X179241746Y-87527288D01*
X179244187Y-87527440D01*
X179244191Y-87527440D01*
X179245156Y-87527500D01*
X179917483Y-87527500D01*
X179919273Y-87527291D01*
X179919278Y-87527291D01*
X179967399Y-87521680D01*
X180043501Y-87512808D01*
X180113559Y-87487378D01*
X180199547Y-87456166D01*
X180199550Y-87456165D01*
X180202962Y-87454926D01*
X180205999Y-87452935D01*
X180341797Y-87363902D01*
X180341798Y-87363901D01*
X180344832Y-87361912D01*
X180461498Y-87238757D01*
X180546703Y-87092065D01*
X180595877Y-86929706D01*
X180606381Y-86760390D01*
X180577652Y-86593198D01*
X180511232Y-86437100D01*
X180410682Y-86300468D01*
X180281397Y-86190633D01*
X180192176Y-86145074D01*
X180133547Y-86115136D01*
X180133544Y-86115135D01*
X180130313Y-86113485D01*
X179965532Y-86073163D01*
X179958213Y-86072709D01*
X179955813Y-86072560D01*
X179955809Y-86072560D01*
X179954844Y-86072500D01*
X179282517Y-86072500D01*
X179280727Y-86072709D01*
X179280722Y-86072709D01*
X179232601Y-86078320D01*
X179156499Y-86087192D01*
X179153083Y-86088432D01*
X179000453Y-86143834D01*
X179000450Y-86143835D01*
X178997038Y-86145074D01*
X178994002Y-86147065D01*
X178994001Y-86147065D01*
X178923968Y-86192981D01*
X178855168Y-86238088D01*
X178738502Y-86361243D01*
X178653297Y-86507935D01*
X178652245Y-86511409D01*
X178605394Y-86666099D01*
X178604123Y-86670294D01*
X178593619Y-86839610D01*
X174027500Y-86839610D01*
X174027500Y-84839610D01*
X178593619Y-84839610D01*
X178622348Y-85006802D01*
X178688768Y-85162900D01*
X178789318Y-85299532D01*
X178918603Y-85409367D01*
X178961597Y-85431321D01*
X179066453Y-85484864D01*
X179066456Y-85484865D01*
X179069687Y-85486515D01*
X179234468Y-85526837D01*
X179241746Y-85527288D01*
X179244187Y-85527440D01*
X179244191Y-85527440D01*
X179245156Y-85527500D01*
X179917483Y-85527500D01*
X179919273Y-85527291D01*
X179919278Y-85527291D01*
X179967399Y-85521680D01*
X180043501Y-85512808D01*
X180113559Y-85487378D01*
X180199547Y-85456166D01*
X180199550Y-85456165D01*
X180202962Y-85454926D01*
X180223471Y-85441480D01*
X180341797Y-85363902D01*
X180341798Y-85363901D01*
X180344832Y-85361912D01*
X180461498Y-85238757D01*
X180546703Y-85092065D01*
X180579452Y-84983937D01*
X180594824Y-84933183D01*
X180594824Y-84933182D01*
X180595877Y-84929706D01*
X180606381Y-84760390D01*
X180577652Y-84593198D01*
X180511232Y-84437100D01*
X180410682Y-84300468D01*
X180281397Y-84190633D01*
X180192176Y-84145074D01*
X180133547Y-84115136D01*
X180133544Y-84115135D01*
X180130313Y-84113485D01*
X179965532Y-84073163D01*
X179958213Y-84072709D01*
X179955813Y-84072560D01*
X179955809Y-84072560D01*
X179954844Y-84072500D01*
X179282517Y-84072500D01*
X179280727Y-84072709D01*
X179280722Y-84072709D01*
X179232601Y-84078320D01*
X179156499Y-84087192D01*
X179153083Y-84088432D01*
X179000453Y-84143834D01*
X179000450Y-84143835D01*
X178997038Y-84145074D01*
X178994002Y-84147065D01*
X178994001Y-84147065D01*
X178923968Y-84192981D01*
X178855168Y-84238088D01*
X178738502Y-84361243D01*
X178653297Y-84507935D01*
X178604123Y-84670294D01*
X178593619Y-84839610D01*
X174027500Y-84839610D01*
X174027500Y-83396974D01*
X174045806Y-83352780D01*
X174057297Y-83343713D01*
X174072083Y-83334634D01*
X174072088Y-83334630D01*
X174075881Y-83332301D01*
X174158058Y-83241513D01*
X174211451Y-83131311D01*
X174214003Y-83116145D01*
X174231367Y-83012928D01*
X174231767Y-83010552D01*
X174231896Y-83000000D01*
X174214536Y-82878781D01*
X174196726Y-82839610D01*
X178593619Y-82839610D01*
X178622348Y-83006802D01*
X178688768Y-83162900D01*
X178789318Y-83299532D01*
X178918603Y-83409367D01*
X178992046Y-83446869D01*
X179066453Y-83484864D01*
X179066456Y-83484865D01*
X179069687Y-83486515D01*
X179234468Y-83526837D01*
X179241746Y-83527288D01*
X179244187Y-83527440D01*
X179244191Y-83527440D01*
X179245156Y-83527500D01*
X179917483Y-83527500D01*
X179919273Y-83527291D01*
X179919278Y-83527291D01*
X179967399Y-83521680D01*
X180043501Y-83512808D01*
X180084952Y-83497762D01*
X180199547Y-83456166D01*
X180199550Y-83456165D01*
X180202962Y-83454926D01*
X180205999Y-83452935D01*
X180341797Y-83363902D01*
X180341798Y-83363901D01*
X180344832Y-83361912D01*
X180461498Y-83238757D01*
X180546703Y-83092065D01*
X180589597Y-82950442D01*
X180594824Y-82933183D01*
X180594824Y-82933182D01*
X180595877Y-82929706D01*
X180606381Y-82760390D01*
X180577652Y-82593198D01*
X180511232Y-82437100D01*
X180410682Y-82300468D01*
X180281397Y-82190633D01*
X180192176Y-82145074D01*
X180133547Y-82115136D01*
X180133544Y-82115135D01*
X180130313Y-82113485D01*
X179965532Y-82073163D01*
X179958213Y-82072709D01*
X179955813Y-82072560D01*
X179955809Y-82072560D01*
X179954844Y-82072500D01*
X179282517Y-82072500D01*
X179280727Y-82072709D01*
X179280722Y-82072709D01*
X179232601Y-82078320D01*
X179156499Y-82087192D01*
X179153083Y-82088432D01*
X179000453Y-82143834D01*
X179000450Y-82143835D01*
X178997038Y-82145074D01*
X178994002Y-82147065D01*
X178994001Y-82147065D01*
X178886967Y-82217240D01*
X178855168Y-82238088D01*
X178738502Y-82361243D01*
X178653297Y-82507935D01*
X178652245Y-82511409D01*
X178608317Y-82656448D01*
X178604123Y-82670294D01*
X178593619Y-82839610D01*
X174196726Y-82839610D01*
X174189194Y-82823044D01*
X174165696Y-82771362D01*
X174165695Y-82771360D01*
X174163852Y-82767307D01*
X174155373Y-82757466D01*
X174086826Y-82677914D01*
X174083918Y-82674539D01*
X174080181Y-82672117D01*
X174080179Y-82672115D01*
X174056007Y-82656448D01*
X174028877Y-82617050D01*
X174027500Y-82604001D01*
X174027500Y-81196018D01*
X178471001Y-81196018D01*
X178471183Y-81199388D01*
X178477272Y-81255443D01*
X178479071Y-81263012D01*
X178526808Y-81390351D01*
X178531043Y-81398086D01*
X178612285Y-81506487D01*
X178618513Y-81512715D01*
X178726914Y-81593957D01*
X178734649Y-81598192D01*
X178861992Y-81645930D01*
X178869556Y-81647728D01*
X178925608Y-81653817D01*
X178928976Y-81654000D01*
X179460569Y-81654000D01*
X179469359Y-81650359D01*
X179473000Y-81641569D01*
X179473000Y-81641568D01*
X179727000Y-81641568D01*
X179730641Y-81650358D01*
X179739431Y-81653999D01*
X180271018Y-81653999D01*
X180274388Y-81653817D01*
X180330443Y-81647728D01*
X180338012Y-81645929D01*
X180465351Y-81598192D01*
X180473086Y-81593957D01*
X180581487Y-81512715D01*
X180587715Y-81506487D01*
X180668957Y-81398086D01*
X180673192Y-81390351D01*
X180720930Y-81263008D01*
X180722728Y-81255444D01*
X180728817Y-81199392D01*
X180729000Y-81196024D01*
X180729000Y-80939431D01*
X180725359Y-80930641D01*
X180716569Y-80927000D01*
X179739431Y-80927000D01*
X179730641Y-80930641D01*
X179727000Y-80939431D01*
X179727000Y-81641568D01*
X179473000Y-81641568D01*
X179473000Y-80939431D01*
X179469359Y-80930641D01*
X179460569Y-80927000D01*
X178483432Y-80927000D01*
X178474642Y-80930641D01*
X178471001Y-80939431D01*
X178471001Y-81196018D01*
X174027500Y-81196018D01*
X174027500Y-80660569D01*
X178471000Y-80660569D01*
X178474641Y-80669359D01*
X178483431Y-80673000D01*
X179460569Y-80673000D01*
X179469359Y-80669359D01*
X179473000Y-80660569D01*
X179727000Y-80660569D01*
X179730641Y-80669359D01*
X179739431Y-80673000D01*
X180716568Y-80673000D01*
X180725358Y-80669359D01*
X180728999Y-80660569D01*
X180728999Y-80403982D01*
X180728817Y-80400612D01*
X180722728Y-80344557D01*
X180720929Y-80336988D01*
X180673192Y-80209649D01*
X180668957Y-80201914D01*
X180587715Y-80093513D01*
X180581487Y-80087285D01*
X180473086Y-80006043D01*
X180465351Y-80001808D01*
X180338008Y-79954070D01*
X180330444Y-79952272D01*
X180274392Y-79946183D01*
X180271024Y-79946000D01*
X179739431Y-79946000D01*
X179730641Y-79949641D01*
X179727000Y-79958431D01*
X179727000Y-80660569D01*
X179473000Y-80660569D01*
X179473000Y-79958432D01*
X179469359Y-79949642D01*
X179460569Y-79946001D01*
X178928982Y-79946001D01*
X178925612Y-79946183D01*
X178869557Y-79952272D01*
X178861988Y-79954071D01*
X178734649Y-80001808D01*
X178726914Y-80006043D01*
X178618513Y-80087285D01*
X178612285Y-80093513D01*
X178531043Y-80201914D01*
X178526808Y-80209649D01*
X178479070Y-80336992D01*
X178477272Y-80344556D01*
X178471183Y-80400608D01*
X178471000Y-80403976D01*
X178471000Y-80660569D01*
X174027500Y-80660569D01*
X174027500Y-77996974D01*
X174045806Y-77952780D01*
X174057297Y-77943713D01*
X174072083Y-77934634D01*
X174072088Y-77934630D01*
X174075881Y-77932301D01*
X174158058Y-77841513D01*
X174211451Y-77731311D01*
X174214003Y-77716145D01*
X174231367Y-77612928D01*
X174231767Y-77610552D01*
X174231896Y-77600000D01*
X174214536Y-77478781D01*
X174163852Y-77367307D01*
X174083918Y-77274539D01*
X173981160Y-77207935D01*
X173863838Y-77172848D01*
X173802611Y-77172474D01*
X173745838Y-77172127D01*
X173745837Y-77172127D01*
X173741385Y-77172100D01*
X173623644Y-77205751D01*
X173520080Y-77271095D01*
X173517137Y-77274427D01*
X173517135Y-77274429D01*
X173441965Y-77359542D01*
X173439018Y-77362879D01*
X173437126Y-77366909D01*
X173388868Y-77469695D01*
X173388867Y-77469698D01*
X173386976Y-77473726D01*
X173368136Y-77594724D01*
X173368713Y-77599137D01*
X173368713Y-77599138D01*
X173373255Y-77633870D01*
X173384014Y-77716145D01*
X173433333Y-77828230D01*
X173512127Y-77921968D01*
X173527650Y-77932301D01*
X173544633Y-77943606D01*
X173571278Y-77983333D01*
X173572500Y-77995633D01*
X173572500Y-81685369D01*
X173554194Y-81729563D01*
X173510000Y-81747869D01*
X173465806Y-81729563D01*
X173456997Y-81718489D01*
X173436302Y-81685369D01*
X173373744Y-81585256D01*
X173258739Y-81469444D01*
X173233287Y-81453292D01*
X173123879Y-81383859D01*
X173123875Y-81383857D01*
X173120933Y-81381990D01*
X172967176Y-81327240D01*
X172890720Y-81318123D01*
X172808578Y-81308328D01*
X172808574Y-81308328D01*
X172805111Y-81307915D01*
X172712278Y-81317672D01*
X172646262Y-81324610D01*
X172646259Y-81324611D01*
X172642792Y-81324975D01*
X172639491Y-81326099D01*
X172639490Y-81326099D01*
X172632693Y-81328413D01*
X172488286Y-81377573D01*
X172349272Y-81463095D01*
X172346780Y-81465536D01*
X172346778Y-81465537D01*
X172340254Y-81471926D01*
X172232661Y-81577289D01*
X172230771Y-81580222D01*
X172230770Y-81580223D01*
X172188425Y-81645930D01*
X172144247Y-81714481D01*
X172088424Y-81867852D01*
X172067968Y-82029778D01*
X172068309Y-82033255D01*
X172076176Y-82113485D01*
X172083895Y-82192213D01*
X172084997Y-82195525D01*
X172084997Y-82195526D01*
X172132154Y-82337284D01*
X172135413Y-82347082D01*
X172137223Y-82350071D01*
X172137225Y-82350075D01*
X172153866Y-82377552D01*
X172219962Y-82486689D01*
X172333340Y-82604095D01*
X172336259Y-82606005D01*
X172336260Y-82606006D01*
X172353137Y-82617050D01*
X172469911Y-82693465D01*
X172622888Y-82750356D01*
X172626343Y-82750817D01*
X172626347Y-82750818D01*
X172705067Y-82761321D01*
X172784668Y-82771942D01*
X172788141Y-82771626D01*
X172788144Y-82771626D01*
X172872686Y-82763932D01*
X172947210Y-82757150D01*
X173102435Y-82706714D01*
X173172532Y-82664928D01*
X173239627Y-82624932D01*
X173239630Y-82624930D01*
X173242629Y-82623142D01*
X173305552Y-82563221D01*
X173358294Y-82512996D01*
X173358297Y-82512993D01*
X173360823Y-82510587D01*
X173451144Y-82374643D01*
X173452385Y-82371377D01*
X173453982Y-82368269D01*
X173455688Y-82369146D01*
X173484386Y-82338698D01*
X173532200Y-82337284D01*
X173567010Y-82370094D01*
X173572500Y-82395708D01*
X173572500Y-82603554D01*
X173554194Y-82647748D01*
X173543352Y-82656412D01*
X173520080Y-82671095D01*
X173517137Y-82674427D01*
X173517135Y-82674429D01*
X173443458Y-82757852D01*
X173439018Y-82762879D01*
X173437126Y-82766909D01*
X173388868Y-82869695D01*
X173388867Y-82869698D01*
X173386976Y-82873726D01*
X173368136Y-82994724D01*
X173368713Y-82999137D01*
X173368713Y-82999138D01*
X173373255Y-83033870D01*
X173384014Y-83116145D01*
X173385807Y-83120220D01*
X173403672Y-83160820D01*
X173433333Y-83228230D01*
X173512127Y-83321968D01*
X173527650Y-83332301D01*
X173544633Y-83343606D01*
X173571278Y-83383333D01*
X173572500Y-83395633D01*
X173572500Y-83465369D01*
X173554194Y-83509563D01*
X173510000Y-83527869D01*
X173465806Y-83509563D01*
X173456997Y-83498489D01*
X173455446Y-83496006D01*
X173373744Y-83365256D01*
X173258739Y-83249444D01*
X173218891Y-83224156D01*
X173123879Y-83163859D01*
X173123875Y-83163857D01*
X173120933Y-83161990D01*
X172967176Y-83107240D01*
X172890720Y-83098123D01*
X172808578Y-83088328D01*
X172808574Y-83088328D01*
X172805111Y-83087915D01*
X172712278Y-83097672D01*
X172646262Y-83104610D01*
X172646259Y-83104611D01*
X172642792Y-83104975D01*
X172639491Y-83106099D01*
X172639490Y-83106099D01*
X172632693Y-83108413D01*
X172488286Y-83157573D01*
X172349272Y-83243095D01*
X172346780Y-83245536D01*
X172346778Y-83245537D01*
X172340254Y-83251926D01*
X172232661Y-83357289D01*
X172230771Y-83360222D01*
X172230770Y-83360223D01*
X172146139Y-83491545D01*
X172144247Y-83494481D01*
X172132711Y-83526176D01*
X172111417Y-83584681D01*
X172088424Y-83647852D01*
X172067968Y-83809778D01*
X172083895Y-83972213D01*
X172084997Y-83975525D01*
X172084997Y-83975526D01*
X172132154Y-84117284D01*
X172135413Y-84127082D01*
X172137223Y-84130071D01*
X172137225Y-84130075D01*
X172173901Y-84190633D01*
X172219962Y-84266689D01*
X172333340Y-84384095D01*
X172336259Y-84386005D01*
X172336260Y-84386006D01*
X172358762Y-84400731D01*
X172469911Y-84473465D01*
X172622888Y-84530356D01*
X172626343Y-84530817D01*
X172626347Y-84530818D01*
X172705067Y-84541321D01*
X172784668Y-84551942D01*
X172788141Y-84551626D01*
X172788144Y-84551626D01*
X172866455Y-84544499D01*
X172947210Y-84537150D01*
X173102435Y-84486714D01*
X173185664Y-84437100D01*
X173239627Y-84404932D01*
X173239630Y-84404930D01*
X173242629Y-84403142D01*
X173305552Y-84343221D01*
X173358294Y-84292996D01*
X173358297Y-84292993D01*
X173360823Y-84290587D01*
X173451144Y-84154643D01*
X173452385Y-84151377D01*
X173453982Y-84148269D01*
X173455688Y-84149146D01*
X173484386Y-84118698D01*
X173532200Y-84117284D01*
X173567010Y-84150094D01*
X173572500Y-84175708D01*
X173572500Y-85245369D01*
X173554194Y-85289563D01*
X173510000Y-85307869D01*
X173465806Y-85289563D01*
X173456997Y-85278489D01*
X173455446Y-85276006D01*
X173373744Y-85145256D01*
X173258739Y-85029444D01*
X173217421Y-85003223D01*
X173123879Y-84943859D01*
X173123875Y-84943857D01*
X173120933Y-84941990D01*
X172967176Y-84887240D01*
X172890720Y-84878123D01*
X172808578Y-84868328D01*
X172808574Y-84868328D01*
X172805111Y-84867915D01*
X172712278Y-84877672D01*
X172646262Y-84884610D01*
X172646259Y-84884611D01*
X172642792Y-84884975D01*
X172639491Y-84886099D01*
X172639490Y-84886099D01*
X172632693Y-84888413D01*
X172488286Y-84937573D01*
X172349272Y-85023095D01*
X172346780Y-85025536D01*
X172346778Y-85025537D01*
X172340254Y-85031926D01*
X172232661Y-85137289D01*
X172230771Y-85140222D01*
X172230770Y-85140223D01*
X172216156Y-85162900D01*
X172144247Y-85274481D01*
X172132095Y-85307869D01*
X172096007Y-85407019D01*
X172088424Y-85427852D01*
X172067968Y-85589778D01*
X172083895Y-85752213D01*
X172084997Y-85755525D01*
X172084997Y-85755526D01*
X172132154Y-85897284D01*
X172135413Y-85907082D01*
X172137223Y-85910071D01*
X172137225Y-85910075D01*
X172153866Y-85937552D01*
X172219962Y-86046689D01*
X172333340Y-86164095D01*
X172336259Y-86166005D01*
X172336260Y-86166006D01*
X172358762Y-86180731D01*
X172469911Y-86253465D01*
X172622888Y-86310356D01*
X172626343Y-86310817D01*
X172626347Y-86310818D01*
X172705067Y-86321321D01*
X172784668Y-86331942D01*
X172788141Y-86331626D01*
X172788144Y-86331626D01*
X172866455Y-86324499D01*
X172947210Y-86317150D01*
X173102435Y-86266714D01*
X173232831Y-86188983D01*
X173239627Y-86184932D01*
X173239630Y-86184930D01*
X173242629Y-86183142D01*
X173342084Y-86088432D01*
X173358294Y-86072996D01*
X173358297Y-86072993D01*
X173360823Y-86070587D01*
X173451144Y-85934643D01*
X173452385Y-85931377D01*
X173453982Y-85928269D01*
X173455688Y-85929146D01*
X173484386Y-85898698D01*
X173532200Y-85897284D01*
X173567010Y-85930094D01*
X173572500Y-85955708D01*
X173572500Y-87025369D01*
X173554194Y-87069563D01*
X173510000Y-87087869D01*
X173465806Y-87069563D01*
X173456997Y-87058489D01*
X173455446Y-87056006D01*
X173373744Y-86925256D01*
X173258739Y-86809444D01*
X173181442Y-86760390D01*
X173123879Y-86723859D01*
X173123875Y-86723857D01*
X173120933Y-86721990D01*
X172967176Y-86667240D01*
X172890720Y-86658123D01*
X172808578Y-86648328D01*
X172808574Y-86648328D01*
X172805111Y-86647915D01*
X172712278Y-86657672D01*
X172646262Y-86664610D01*
X172646259Y-86664611D01*
X172642792Y-86664975D01*
X172639491Y-86666099D01*
X172639490Y-86666099D01*
X172621959Y-86672067D01*
X172488286Y-86717573D01*
X172349272Y-86803095D01*
X172346780Y-86805536D01*
X172346778Y-86805537D01*
X172340254Y-86811926D01*
X172232661Y-86917289D01*
X172230771Y-86920222D01*
X172230770Y-86920223D01*
X172218540Y-86939201D01*
X172144247Y-87054481D01*
X172132095Y-87087869D01*
X172099321Y-87177914D01*
X172088424Y-87207852D01*
X172080963Y-87266909D01*
X172069295Y-87359277D01*
X172067968Y-87369778D01*
X172068309Y-87373255D01*
X172083385Y-87527009D01*
X172083895Y-87532213D01*
X172084997Y-87535525D01*
X172084997Y-87535526D01*
X172131241Y-87674539D01*
X172135413Y-87687082D01*
X172137223Y-87690071D01*
X172137225Y-87690075D01*
X172170376Y-87744813D01*
X172219962Y-87826689D01*
X172333340Y-87944095D01*
X172336259Y-87946005D01*
X172336260Y-87946006D01*
X172358762Y-87960731D01*
X172469911Y-88033465D01*
X172622888Y-88090356D01*
X172626343Y-88090817D01*
X172626347Y-88090818D01*
X172705067Y-88101321D01*
X172784668Y-88111942D01*
X172788141Y-88111626D01*
X172788144Y-88111626D01*
X172866455Y-88104499D01*
X172947210Y-88097150D01*
X173102435Y-88046714D01*
X173184803Y-87997613D01*
X173239627Y-87964932D01*
X173239630Y-87964930D01*
X173242629Y-87963142D01*
X173263234Y-87943520D01*
X173307862Y-87926300D01*
X173351596Y-87945680D01*
X173368830Y-87989542D01*
X173368820Y-87990328D01*
X173368136Y-87994724D01*
X173368713Y-87999137D01*
X173368713Y-87999138D01*
X173372952Y-88031555D01*
X173384014Y-88116145D01*
X173385807Y-88120220D01*
X173416064Y-88188983D01*
X173433333Y-88228230D01*
X173512127Y-88321968D01*
X173527650Y-88332301D01*
X173544633Y-88343606D01*
X173571278Y-88383333D01*
X173572500Y-88395633D01*
X173572500Y-88805369D01*
X173554194Y-88849563D01*
X173510000Y-88867869D01*
X173465806Y-88849563D01*
X173456997Y-88838489D01*
X173455446Y-88836006D01*
X173373744Y-88705256D01*
X173258739Y-88589444D01*
X173233287Y-88573292D01*
X173123879Y-88503859D01*
X173123875Y-88503857D01*
X173120933Y-88501990D01*
X172967176Y-88447240D01*
X172882139Y-88437100D01*
X172808578Y-88428328D01*
X172808574Y-88428328D01*
X172805111Y-88427915D01*
X172712278Y-88437672D01*
X172646262Y-88444610D01*
X172646259Y-88444611D01*
X172642792Y-88444975D01*
X172639491Y-88446099D01*
X172639490Y-88446099D01*
X172632693Y-88448413D01*
X172488286Y-88497573D01*
X172349272Y-88583095D01*
X172346780Y-88585536D01*
X172346778Y-88585537D01*
X172342367Y-88589857D01*
X172232661Y-88697289D01*
X172230771Y-88700222D01*
X172230770Y-88700223D01*
X172218540Y-88719201D01*
X172144247Y-88834481D01*
X172132095Y-88867869D01*
X172111417Y-88924681D01*
X172088424Y-88987852D01*
X172086684Y-89001626D01*
X172069460Y-89137971D01*
X172067968Y-89149778D01*
X172068622Y-89156448D01*
X172082652Y-89299532D01*
X172083895Y-89312213D01*
X172084997Y-89315525D01*
X172084997Y-89315526D01*
X172131782Y-89456166D01*
X172135413Y-89467082D01*
X172137223Y-89470071D01*
X172137225Y-89470075D01*
X172171602Y-89526837D01*
X172219962Y-89606689D01*
X172333340Y-89724095D01*
X172336259Y-89726005D01*
X172336260Y-89726006D01*
X172353834Y-89737506D01*
X172469911Y-89813465D01*
X172622888Y-89870356D01*
X172626343Y-89870817D01*
X172626347Y-89870818D01*
X172705067Y-89881321D01*
X172784668Y-89891942D01*
X172788141Y-89891626D01*
X172788144Y-89891626D01*
X172866455Y-89884499D01*
X172947210Y-89877150D01*
X173102435Y-89826714D01*
X173205227Y-89765438D01*
X173239627Y-89744932D01*
X173239630Y-89744930D01*
X173242629Y-89743142D01*
X173288405Y-89699550D01*
X173333033Y-89682330D01*
X173376767Y-89701710D01*
X173393987Y-89746338D01*
X173389526Y-89765241D01*
X173390170Y-89765438D01*
X173388869Y-89769695D01*
X173386976Y-89773726D01*
X173368136Y-89894724D01*
X173368713Y-89899137D01*
X173368713Y-89899138D01*
X173373255Y-89933870D01*
X173384014Y-90016145D01*
X173385807Y-90020220D01*
X173415276Y-90087192D01*
X173433333Y-90128230D01*
X173512127Y-90221968D01*
X173527650Y-90232301D01*
X173544633Y-90243606D01*
X173571278Y-90283333D01*
X173572500Y-90295633D01*
X173572500Y-90585369D01*
X173554194Y-90629563D01*
X173510000Y-90647869D01*
X173465806Y-90629563D01*
X173456997Y-90618489D01*
X173455446Y-90616006D01*
X173373744Y-90485256D01*
X173258739Y-90369444D01*
X173233287Y-90353292D01*
X173123879Y-90283859D01*
X173123875Y-90283857D01*
X173120933Y-90281990D01*
X172967176Y-90227240D01*
X172890720Y-90218123D01*
X172808578Y-90208328D01*
X172808574Y-90208328D01*
X172805111Y-90207915D01*
X172712278Y-90217672D01*
X172646262Y-90224610D01*
X172646259Y-90224611D01*
X172642792Y-90224975D01*
X172639491Y-90226099D01*
X172639490Y-90226099D01*
X172621959Y-90232067D01*
X172488286Y-90277573D01*
X172349272Y-90363095D01*
X172346780Y-90365536D01*
X172346778Y-90365537D01*
X172340254Y-90371926D01*
X172232661Y-90477289D01*
X172230771Y-90480222D01*
X172230770Y-90480223D01*
X172212911Y-90507935D01*
X172144247Y-90614481D01*
X172132095Y-90647869D01*
X172092442Y-90756814D01*
X172088424Y-90767852D01*
X172067968Y-90929778D01*
X172068309Y-90933255D01*
X172083540Y-91088591D01*
X172083895Y-91092213D01*
X172084997Y-91095525D01*
X172084997Y-91095526D01*
X172132644Y-91238757D01*
X172135413Y-91247082D01*
X172137223Y-91250071D01*
X172137225Y-91250075D01*
X172153866Y-91277552D01*
X172219962Y-91386689D01*
X172333340Y-91504095D01*
X172336259Y-91506005D01*
X172336260Y-91506006D01*
X172353137Y-91517050D01*
X172469911Y-91593465D01*
X172622888Y-91650356D01*
X172626343Y-91650817D01*
X172626347Y-91650818D01*
X172705067Y-91661321D01*
X172784668Y-91671942D01*
X172788141Y-91671626D01*
X172788144Y-91671626D01*
X172872686Y-91663932D01*
X172947210Y-91657150D01*
X173102435Y-91606714D01*
X173172532Y-91564928D01*
X173239627Y-91524932D01*
X173239630Y-91524930D01*
X173242629Y-91523142D01*
X173305552Y-91463221D01*
X173358294Y-91412996D01*
X173358297Y-91412993D01*
X173360823Y-91410587D01*
X173451144Y-91274643D01*
X173452385Y-91271377D01*
X173453982Y-91268269D01*
X173455688Y-91269146D01*
X173484386Y-91238698D01*
X173532200Y-91237284D01*
X173567010Y-91270094D01*
X173572500Y-91295708D01*
X173572500Y-91503554D01*
X173554194Y-91547748D01*
X173543352Y-91556412D01*
X173520080Y-91571095D01*
X173517137Y-91574427D01*
X173517135Y-91574429D01*
X173443458Y-91657852D01*
X173439018Y-91662879D01*
X173437126Y-91666909D01*
X173388868Y-91769695D01*
X173388867Y-91769698D01*
X173386976Y-91773726D01*
X173368136Y-91894724D01*
X173368713Y-91899137D01*
X173368713Y-91899138D01*
X173373255Y-91933870D01*
X173384014Y-92016145D01*
X173385807Y-92020220D01*
X173415276Y-92087192D01*
X173433333Y-92128230D01*
X173512127Y-92221968D01*
X173527650Y-92232301D01*
X173544633Y-92243606D01*
X173571278Y-92283333D01*
X173572500Y-92295633D01*
X173572500Y-92365369D01*
X173554194Y-92409563D01*
X173510000Y-92427869D01*
X173465806Y-92409563D01*
X173456997Y-92398489D01*
X173455446Y-92396006D01*
X173373744Y-92265256D01*
X173258739Y-92149444D01*
X173204678Y-92115136D01*
X173123879Y-92063859D01*
X173123875Y-92063857D01*
X173120933Y-92061990D01*
X172967176Y-92007240D01*
X172890720Y-91998123D01*
X172808578Y-91988328D01*
X172808574Y-91988328D01*
X172805111Y-91987915D01*
X172712278Y-91997672D01*
X172646262Y-92004610D01*
X172646259Y-92004611D01*
X172642792Y-92004975D01*
X172639491Y-92006099D01*
X172639490Y-92006099D01*
X172632693Y-92008413D01*
X172488286Y-92057573D01*
X172349272Y-92143095D01*
X172346780Y-92145536D01*
X172346778Y-92145537D01*
X172340254Y-92151926D01*
X172232661Y-92257289D01*
X172230771Y-92260222D01*
X172230770Y-92260223D01*
X172163008Y-92365369D01*
X172144247Y-92394481D01*
X172132095Y-92427869D01*
X172095607Y-92528118D01*
X172088424Y-92547852D01*
X172067968Y-92709778D01*
X172068309Y-92713255D01*
X172083189Y-92865009D01*
X172083895Y-92872213D01*
X172084997Y-92875525D01*
X172084997Y-92875526D01*
X172132154Y-93017284D01*
X172135413Y-93027082D01*
X172137223Y-93030071D01*
X172137225Y-93030075D01*
X172153866Y-93057552D01*
X172219962Y-93166689D01*
X172333340Y-93284095D01*
X172469911Y-93373465D01*
X172622888Y-93430356D01*
X172626343Y-93430817D01*
X172626347Y-93430818D01*
X172716518Y-93442849D01*
X172784668Y-93451942D01*
X172788141Y-93451626D01*
X172788144Y-93451626D01*
X172865939Y-93444546D01*
X172947210Y-93437150D01*
X173102435Y-93386714D01*
X173172532Y-93344928D01*
X173239627Y-93304932D01*
X173239630Y-93304930D01*
X173242629Y-93303142D01*
X173313539Y-93235615D01*
X173358294Y-93192996D01*
X173358297Y-93192993D01*
X173360823Y-93190587D01*
X173451144Y-93054643D01*
X173452385Y-93051377D01*
X173453982Y-93048269D01*
X173455688Y-93049146D01*
X173484386Y-93018698D01*
X173532200Y-93017284D01*
X173567010Y-93050094D01*
X173572500Y-93075708D01*
X173572500Y-93503554D01*
X173554194Y-93547748D01*
X173543352Y-93556412D01*
X173520080Y-93571095D01*
X173517137Y-93574427D01*
X173517135Y-93574429D01*
X173470775Y-93626921D01*
X173439018Y-93662879D01*
X173437126Y-93666909D01*
X173388868Y-93769695D01*
X173388867Y-93769698D01*
X173386976Y-93773726D01*
X173368136Y-93894724D01*
X173366667Y-93894495D01*
X173349982Y-93933413D01*
X173305566Y-93951172D01*
X173264267Y-93933681D01*
X173263921Y-93934111D01*
X173262406Y-93932893D01*
X173261988Y-93932716D01*
X173258739Y-93929444D01*
X173216148Y-93902415D01*
X173123879Y-93843859D01*
X173123875Y-93843857D01*
X173120933Y-93841990D01*
X172967176Y-93787240D01*
X172890720Y-93778123D01*
X172808578Y-93768328D01*
X172808574Y-93768328D01*
X172805111Y-93767915D01*
X172712278Y-93777672D01*
X172646262Y-93784610D01*
X172646259Y-93784611D01*
X172642792Y-93784975D01*
X172639491Y-93786099D01*
X172639490Y-93786099D01*
X172632693Y-93788413D01*
X172488286Y-93837573D01*
X172349272Y-93923095D01*
X172346780Y-93925536D01*
X172346778Y-93925537D01*
X172338462Y-93933681D01*
X172232661Y-94037289D01*
X172230771Y-94040222D01*
X172230770Y-94040223D01*
X172182792Y-94114671D01*
X172144247Y-94174481D01*
X172088424Y-94327852D01*
X172087986Y-94331321D01*
X172071225Y-94464000D01*
X172067968Y-94489778D01*
X171751000Y-94489778D01*
X171751000Y-78370198D01*
X171751082Y-78370000D01*
X171750765Y-78369235D01*
X171750198Y-78369000D01*
X171750000Y-78368918D01*
X171749802Y-78369000D01*
X163150198Y-78369000D01*
X163150000Y-78368918D01*
X163149802Y-78369000D01*
X163149235Y-78369235D01*
X163148918Y-78370000D01*
X163149000Y-78370198D01*
X163149000Y-95629802D01*
X163148918Y-95630000D01*
X160001000Y-95630000D01*
X160001000Y-94296975D01*
X161597779Y-94296975D01*
X161599996Y-94302327D01*
X161667996Y-94351732D01*
X161673640Y-94354991D01*
X161831652Y-94425343D01*
X161837854Y-94427358D01*
X162007031Y-94463318D01*
X162013521Y-94464000D01*
X162186479Y-94464000D01*
X162192969Y-94463318D01*
X162362146Y-94427358D01*
X162368348Y-94425343D01*
X162526360Y-94354991D01*
X162532004Y-94351732D01*
X162597313Y-94304282D01*
X162602284Y-94296170D01*
X162600931Y-94290536D01*
X162108790Y-93798395D01*
X162100000Y-93794754D01*
X162091210Y-93798395D01*
X161601420Y-94288185D01*
X161597779Y-94296975D01*
X160001000Y-94296975D01*
X160001000Y-93613254D01*
X161241638Y-93613254D01*
X161259719Y-93785279D01*
X161261073Y-93791650D01*
X161314524Y-93956153D01*
X161317171Y-93962100D01*
X161403574Y-94111754D01*
X161409606Y-94114631D01*
X161419601Y-94110794D01*
X161911605Y-93618790D01*
X161915246Y-93610000D01*
X162284754Y-93610000D01*
X162288395Y-93618790D01*
X162781004Y-94111399D01*
X162788904Y-94114671D01*
X162796762Y-94111172D01*
X162882829Y-93962100D01*
X162885476Y-93956153D01*
X162938927Y-93791650D01*
X162940281Y-93785279D01*
X162958362Y-93613254D01*
X162958362Y-93606746D01*
X162940281Y-93434721D01*
X162938927Y-93428350D01*
X162885476Y-93263847D01*
X162882829Y-93257900D01*
X162796426Y-93108246D01*
X162790394Y-93105369D01*
X162780399Y-93109206D01*
X162288395Y-93601210D01*
X162284754Y-93610000D01*
X161915246Y-93610000D01*
X161911605Y-93601210D01*
X161418996Y-93108601D01*
X161411096Y-93105329D01*
X161403238Y-93108828D01*
X161317171Y-93257900D01*
X161314524Y-93263847D01*
X161261073Y-93428350D01*
X161259719Y-93434721D01*
X161241638Y-93606746D01*
X161241638Y-93613254D01*
X160001000Y-93613254D01*
X160001000Y-92923830D01*
X161597716Y-92923830D01*
X161599069Y-92929464D01*
X162091210Y-93421605D01*
X162100000Y-93425246D01*
X162108790Y-93421605D01*
X162598580Y-92931815D01*
X162602221Y-92923025D01*
X162600004Y-92917673D01*
X162532004Y-92868268D01*
X162526360Y-92865009D01*
X162368348Y-92794657D01*
X162362146Y-92792642D01*
X162192969Y-92756682D01*
X162186479Y-92756000D01*
X162013521Y-92756000D01*
X162007031Y-92756682D01*
X161837854Y-92792642D01*
X161831652Y-92794657D01*
X161673640Y-92865009D01*
X161667996Y-92868268D01*
X161602687Y-92915718D01*
X161597716Y-92923830D01*
X160001000Y-92923830D01*
X160001000Y-91819778D01*
X161367968Y-91819778D01*
X161368779Y-91828047D01*
X161376869Y-91910552D01*
X161383895Y-91982213D01*
X161384997Y-91985525D01*
X161384997Y-91985526D01*
X161433602Y-92131637D01*
X161435413Y-92137082D01*
X161437223Y-92140071D01*
X161437225Y-92140075D01*
X161478620Y-92208425D01*
X161519962Y-92276689D01*
X161633340Y-92394095D01*
X161636259Y-92396005D01*
X161636260Y-92396006D01*
X161656977Y-92409563D01*
X161769911Y-92483465D01*
X161922888Y-92540356D01*
X161926343Y-92540817D01*
X161926347Y-92540818D01*
X162005067Y-92551321D01*
X162084668Y-92561942D01*
X162088141Y-92561626D01*
X162088144Y-92561626D01*
X162169807Y-92554194D01*
X162247210Y-92547150D01*
X162402435Y-92496714D01*
X162507351Y-92434172D01*
X162539627Y-92414932D01*
X162539630Y-92414930D01*
X162542629Y-92413142D01*
X162605552Y-92353221D01*
X162658294Y-92302996D01*
X162658297Y-92302993D01*
X162660823Y-92300587D01*
X162751144Y-92164643D01*
X162809103Y-92012067D01*
X162831818Y-91850442D01*
X162831953Y-91840785D01*
X162832076Y-91831968D01*
X162832076Y-91831961D01*
X162832103Y-91830000D01*
X162831479Y-91824433D01*
X162814300Y-91671277D01*
X162814299Y-91671273D01*
X162813910Y-91667804D01*
X162760234Y-91513669D01*
X162673744Y-91375256D01*
X162558739Y-91259444D01*
X162521190Y-91235615D01*
X162423879Y-91173859D01*
X162423875Y-91173857D01*
X162420933Y-91171990D01*
X162267176Y-91117240D01*
X162190720Y-91108123D01*
X162108578Y-91098328D01*
X162108574Y-91098328D01*
X162105111Y-91097915D01*
X162012278Y-91107672D01*
X161946262Y-91114610D01*
X161946259Y-91114611D01*
X161942792Y-91114975D01*
X161939491Y-91116099D01*
X161939490Y-91116099D01*
X161932693Y-91118413D01*
X161788286Y-91167573D01*
X161649272Y-91253095D01*
X161646780Y-91255536D01*
X161646778Y-91255537D01*
X161634759Y-91267307D01*
X161532661Y-91367289D01*
X161530771Y-91370222D01*
X161530770Y-91370223D01*
X161450535Y-91494724D01*
X161444247Y-91504481D01*
X161425332Y-91556448D01*
X161405212Y-91611729D01*
X161388424Y-91657852D01*
X161367968Y-91819778D01*
X160001000Y-91819778D01*
X160001000Y-90039778D01*
X161367968Y-90039778D01*
X161368309Y-90043255D01*
X161382990Y-90192981D01*
X161383895Y-90202213D01*
X161384997Y-90205525D01*
X161384997Y-90205526D01*
X161414972Y-90295633D01*
X161435413Y-90357082D01*
X161437223Y-90360071D01*
X161437225Y-90360075D01*
X161453866Y-90387552D01*
X161519962Y-90496689D01*
X161633340Y-90614095D01*
X161636259Y-90616005D01*
X161636260Y-90616006D01*
X161656977Y-90629563D01*
X161769911Y-90703465D01*
X161922888Y-90760356D01*
X161926343Y-90760817D01*
X161926347Y-90760818D01*
X162005067Y-90771321D01*
X162084668Y-90781942D01*
X162088141Y-90781626D01*
X162088144Y-90781626D01*
X162165939Y-90774546D01*
X162247210Y-90767150D01*
X162402435Y-90716714D01*
X162480306Y-90670294D01*
X162539627Y-90634932D01*
X162539630Y-90634930D01*
X162542629Y-90633142D01*
X162605552Y-90573221D01*
X162658294Y-90522996D01*
X162658297Y-90522993D01*
X162660823Y-90520587D01*
X162751144Y-90384643D01*
X162809103Y-90232067D01*
X162831818Y-90070442D01*
X162832103Y-90050000D01*
X162831884Y-90048047D01*
X162814300Y-89891277D01*
X162814299Y-89891273D01*
X162813910Y-89887804D01*
X162760234Y-89733669D01*
X162673744Y-89595256D01*
X162558739Y-89479444D01*
X162516967Y-89452935D01*
X162423879Y-89393859D01*
X162423875Y-89393857D01*
X162420933Y-89391990D01*
X162267176Y-89337240D01*
X162190720Y-89328123D01*
X162108578Y-89318328D01*
X162108574Y-89318328D01*
X162105111Y-89317915D01*
X162012278Y-89327672D01*
X161946262Y-89334610D01*
X161946259Y-89334611D01*
X161942792Y-89334975D01*
X161939491Y-89336099D01*
X161939490Y-89336099D01*
X161932693Y-89338413D01*
X161788286Y-89387573D01*
X161649272Y-89473095D01*
X161646780Y-89475536D01*
X161646778Y-89475537D01*
X161594393Y-89526837D01*
X161532661Y-89587289D01*
X161530771Y-89590222D01*
X161530770Y-89590223D01*
X161511438Y-89620220D01*
X161444247Y-89724481D01*
X161429340Y-89765438D01*
X161397550Y-89852780D01*
X161388424Y-89877852D01*
X161385928Y-89897613D01*
X161370954Y-90016145D01*
X161367968Y-90039778D01*
X160001000Y-90039778D01*
X160001000Y-88259778D01*
X161367968Y-88259778D01*
X161368309Y-88263255D01*
X161381289Y-88395633D01*
X161383895Y-88422213D01*
X161384997Y-88425525D01*
X161384997Y-88425526D01*
X161413567Y-88511409D01*
X161435413Y-88577082D01*
X161437223Y-88580071D01*
X161437225Y-88580075D01*
X161453866Y-88607552D01*
X161519962Y-88716689D01*
X161633340Y-88834095D01*
X161636259Y-88836005D01*
X161636260Y-88836006D01*
X161656977Y-88849563D01*
X161769911Y-88923465D01*
X161922888Y-88980356D01*
X161926343Y-88980817D01*
X161926347Y-88980818D01*
X162005067Y-88991321D01*
X162084668Y-89001942D01*
X162088141Y-89001626D01*
X162088144Y-89001626D01*
X162165939Y-88994546D01*
X162247210Y-88987150D01*
X162402435Y-88936714D01*
X162472532Y-88894928D01*
X162539627Y-88854932D01*
X162539630Y-88854930D01*
X162542629Y-88853142D01*
X162605552Y-88793221D01*
X162658294Y-88742996D01*
X162658297Y-88742993D01*
X162660823Y-88740587D01*
X162751144Y-88604643D01*
X162809103Y-88452067D01*
X162831818Y-88290442D01*
X162832103Y-88270000D01*
X162831884Y-88268047D01*
X162814300Y-88111277D01*
X162814299Y-88111273D01*
X162813910Y-88107804D01*
X162760234Y-87953669D01*
X162673744Y-87815256D01*
X162558739Y-87699444D01*
X162461873Y-87637971D01*
X162423879Y-87613859D01*
X162423875Y-87613857D01*
X162420933Y-87611990D01*
X162267176Y-87557240D01*
X162190720Y-87548123D01*
X162108578Y-87538328D01*
X162108574Y-87538328D01*
X162105111Y-87537915D01*
X162012278Y-87547672D01*
X161946262Y-87554610D01*
X161946259Y-87554611D01*
X161942792Y-87554975D01*
X161939491Y-87556099D01*
X161939490Y-87556099D01*
X161932693Y-87558413D01*
X161788286Y-87607573D01*
X161649272Y-87693095D01*
X161646780Y-87695536D01*
X161646778Y-87695537D01*
X161613393Y-87728230D01*
X161532661Y-87807289D01*
X161530771Y-87810222D01*
X161530770Y-87810223D01*
X161518669Y-87829000D01*
X161444247Y-87944481D01*
X161427846Y-87989542D01*
X161391853Y-88088432D01*
X161388424Y-88097852D01*
X161376703Y-88190633D01*
X161369859Y-88244813D01*
X161367968Y-88259778D01*
X160001000Y-88259778D01*
X160001000Y-86479778D01*
X161367968Y-86479778D01*
X161383895Y-86642213D01*
X161384997Y-86645525D01*
X161384997Y-86645526D01*
X161422018Y-86756814D01*
X161435413Y-86797082D01*
X161437223Y-86800071D01*
X161437225Y-86800075D01*
X161478620Y-86868425D01*
X161519962Y-86936689D01*
X161633340Y-87054095D01*
X161636259Y-87056005D01*
X161636260Y-87056006D01*
X161656977Y-87069563D01*
X161769911Y-87143465D01*
X161922888Y-87200356D01*
X161926343Y-87200817D01*
X161926347Y-87200818D01*
X162005067Y-87211321D01*
X162084668Y-87221942D01*
X162088141Y-87221626D01*
X162088144Y-87221626D01*
X162165939Y-87214546D01*
X162247210Y-87207150D01*
X162402435Y-87156714D01*
X162505618Y-87095205D01*
X162539627Y-87074932D01*
X162539630Y-87074930D01*
X162542629Y-87073142D01*
X162616051Y-87003223D01*
X162658294Y-86962996D01*
X162658297Y-86962993D01*
X162660823Y-86960587D01*
X162751144Y-86824643D01*
X162809103Y-86672067D01*
X162831818Y-86510442D01*
X162832103Y-86490000D01*
X162831884Y-86488047D01*
X162814300Y-86331277D01*
X162814299Y-86331273D01*
X162813910Y-86327804D01*
X162760234Y-86173669D01*
X162673744Y-86035256D01*
X162558739Y-85919444D01*
X162523820Y-85897284D01*
X162423879Y-85833859D01*
X162423875Y-85833857D01*
X162420933Y-85831990D01*
X162267176Y-85777240D01*
X162190720Y-85768123D01*
X162108578Y-85758328D01*
X162108574Y-85758328D01*
X162105111Y-85757915D01*
X162012278Y-85767672D01*
X161946262Y-85774610D01*
X161946259Y-85774611D01*
X161942792Y-85774975D01*
X161939491Y-85776099D01*
X161939490Y-85776099D01*
X161932693Y-85778413D01*
X161788286Y-85827573D01*
X161649272Y-85913095D01*
X161646780Y-85915536D01*
X161646778Y-85915537D01*
X161640254Y-85921926D01*
X161532661Y-86027289D01*
X161530771Y-86030222D01*
X161530770Y-86030223D01*
X161457553Y-86143834D01*
X161444247Y-86164481D01*
X161435329Y-86188983D01*
X161411417Y-86254681D01*
X161388424Y-86317852D01*
X161367968Y-86479778D01*
X160001000Y-86479778D01*
X160001000Y-84699778D01*
X161367968Y-84699778D01*
X161368309Y-84703255D01*
X161381679Y-84839610D01*
X161383895Y-84862213D01*
X161384997Y-84865525D01*
X161384997Y-84865526D01*
X161433105Y-85010143D01*
X161435413Y-85017082D01*
X161437223Y-85020071D01*
X161437225Y-85020075D01*
X161453866Y-85047552D01*
X161519962Y-85156689D01*
X161633340Y-85274095D01*
X161636259Y-85276005D01*
X161636260Y-85276006D01*
X161656977Y-85289563D01*
X161769911Y-85363465D01*
X161922888Y-85420356D01*
X161926343Y-85420817D01*
X161926347Y-85420818D01*
X162005067Y-85431321D01*
X162084668Y-85441942D01*
X162088141Y-85441626D01*
X162088144Y-85441626D01*
X162165939Y-85434546D01*
X162247210Y-85427150D01*
X162402435Y-85376714D01*
X162472532Y-85334928D01*
X162539627Y-85294932D01*
X162539630Y-85294930D01*
X162542629Y-85293142D01*
X162605552Y-85233221D01*
X162658294Y-85182996D01*
X162658297Y-85182993D01*
X162660823Y-85180587D01*
X162751144Y-85044643D01*
X162809103Y-84892067D01*
X162831818Y-84730442D01*
X162832103Y-84710000D01*
X162831884Y-84708047D01*
X162814300Y-84551277D01*
X162814299Y-84551273D01*
X162813910Y-84547804D01*
X162760234Y-84393669D01*
X162673744Y-84255256D01*
X162558739Y-84139444D01*
X162475741Y-84086772D01*
X162423879Y-84053859D01*
X162423875Y-84053857D01*
X162420933Y-84051990D01*
X162267176Y-83997240D01*
X162190720Y-83988123D01*
X162108578Y-83978328D01*
X162108574Y-83978328D01*
X162105111Y-83977915D01*
X162012278Y-83987672D01*
X161946262Y-83994610D01*
X161946259Y-83994611D01*
X161942792Y-83994975D01*
X161939491Y-83996099D01*
X161939490Y-83996099D01*
X161932693Y-83998413D01*
X161788286Y-84047573D01*
X161649272Y-84133095D01*
X161646780Y-84135536D01*
X161646778Y-84135537D01*
X161637039Y-84145074D01*
X161532661Y-84247289D01*
X161530771Y-84250222D01*
X161530770Y-84250223D01*
X161496503Y-84303395D01*
X161444247Y-84384481D01*
X161426161Y-84434172D01*
X161398049Y-84511409D01*
X161388424Y-84537852D01*
X161367968Y-84699778D01*
X160001000Y-84699778D01*
X160001000Y-82919778D01*
X161367968Y-82919778D01*
X161368970Y-82930000D01*
X161376869Y-83010552D01*
X161383895Y-83082213D01*
X161384997Y-83085525D01*
X161384997Y-83085526D01*
X161433602Y-83231637D01*
X161435413Y-83237082D01*
X161437223Y-83240071D01*
X161437225Y-83240075D01*
X161453866Y-83267552D01*
X161519962Y-83376689D01*
X161633340Y-83494095D01*
X161636259Y-83496005D01*
X161636260Y-83496006D01*
X161656977Y-83509563D01*
X161769911Y-83583465D01*
X161922888Y-83640356D01*
X161926343Y-83640817D01*
X161926347Y-83640818D01*
X162005067Y-83651321D01*
X162084668Y-83661942D01*
X162088141Y-83661626D01*
X162088144Y-83661626D01*
X162165939Y-83654546D01*
X162247210Y-83647150D01*
X162402435Y-83596714D01*
X162472532Y-83554928D01*
X162539627Y-83514932D01*
X162539630Y-83514930D01*
X162542629Y-83513142D01*
X162605852Y-83452935D01*
X162658294Y-83402996D01*
X162658297Y-83402993D01*
X162660823Y-83400587D01*
X162751144Y-83264643D01*
X162809103Y-83112067D01*
X162831818Y-82950442D01*
X162832103Y-82930000D01*
X162831663Y-82926078D01*
X162814300Y-82771277D01*
X162814299Y-82771273D01*
X162813910Y-82767804D01*
X162760234Y-82613669D01*
X162673744Y-82475256D01*
X162558739Y-82359444D01*
X162470420Y-82303395D01*
X162423879Y-82273859D01*
X162423875Y-82273857D01*
X162420933Y-82271990D01*
X162267176Y-82217240D01*
X162190720Y-82208123D01*
X162108578Y-82198328D01*
X162108574Y-82198328D01*
X162105111Y-82197915D01*
X162012278Y-82207672D01*
X161946262Y-82214610D01*
X161946259Y-82214611D01*
X161942792Y-82214975D01*
X161939491Y-82216099D01*
X161939490Y-82216099D01*
X161932693Y-82218413D01*
X161788286Y-82267573D01*
X161649272Y-82353095D01*
X161646780Y-82355536D01*
X161646778Y-82355537D01*
X161640254Y-82361926D01*
X161532661Y-82467289D01*
X161530771Y-82470222D01*
X161530770Y-82470223D01*
X161451518Y-82593198D01*
X161444247Y-82604481D01*
X161425332Y-82656448D01*
X161411417Y-82694681D01*
X161388424Y-82757852D01*
X161367968Y-82919778D01*
X160001000Y-82919778D01*
X160001000Y-81762558D01*
X161372500Y-81762558D01*
X161379898Y-81799748D01*
X161408078Y-81841922D01*
X161450252Y-81870102D01*
X161456285Y-81871302D01*
X161456287Y-81871303D01*
X161482384Y-81876494D01*
X161487442Y-81877500D01*
X162712558Y-81877500D01*
X162717616Y-81876494D01*
X162743713Y-81871303D01*
X162743715Y-81871302D01*
X162749748Y-81870102D01*
X162791922Y-81841922D01*
X162820102Y-81799748D01*
X162827500Y-81762558D01*
X162827500Y-80537442D01*
X162820102Y-80500252D01*
X162791922Y-80458078D01*
X162749748Y-80429898D01*
X162743715Y-80428698D01*
X162743713Y-80428697D01*
X162715569Y-80423099D01*
X162712558Y-80422500D01*
X161487442Y-80422500D01*
X161484431Y-80423099D01*
X161456287Y-80428697D01*
X161456285Y-80428698D01*
X161450252Y-80429898D01*
X161408078Y-80458078D01*
X161379898Y-80500252D01*
X161372500Y-80537442D01*
X161372500Y-81762558D01*
X160001000Y-81762558D01*
X160001000Y-76472543D01*
X165811898Y-76472543D01*
X165815964Y-76481938D01*
X165881245Y-76543241D01*
X165884247Y-76545725D01*
X166130893Y-76724923D01*
X166134205Y-76727025D01*
X166401343Y-76873885D01*
X166404907Y-76875562D01*
X166688348Y-76987784D01*
X166692078Y-76988996D01*
X166987343Y-77064808D01*
X166991216Y-77065546D01*
X167293649Y-77103753D01*
X167297579Y-77104000D01*
X167602421Y-77104000D01*
X167606351Y-77103753D01*
X167908784Y-77065546D01*
X167912657Y-77064808D01*
X168207922Y-76988996D01*
X168211652Y-76987784D01*
X168495093Y-76875562D01*
X168498657Y-76873885D01*
X168765795Y-76727025D01*
X168769107Y-76724923D01*
X169015753Y-76545725D01*
X169018755Y-76543241D01*
X169084409Y-76481587D01*
X169088087Y-76473441D01*
X169084319Y-76463924D01*
X167458790Y-74838395D01*
X167450000Y-74834754D01*
X167441210Y-74838395D01*
X165815318Y-76464287D01*
X165811898Y-76472543D01*
X160001000Y-76472543D01*
X160001000Y-76026302D01*
X160019306Y-75982108D01*
X161349459Y-74651955D01*
X164991271Y-74651955D01*
X165010414Y-74956218D01*
X165010905Y-74960105D01*
X165068028Y-75259559D01*
X165069005Y-75263363D01*
X165163212Y-75553303D01*
X165164650Y-75556934D01*
X165294457Y-75832788D01*
X165296341Y-75836215D01*
X165459695Y-76093619D01*
X165462000Y-76096792D01*
X165617787Y-76285105D01*
X165626195Y-76289557D01*
X165632900Y-76287495D01*
X167261605Y-74658790D01*
X167265246Y-74650000D01*
X167634754Y-74650000D01*
X167638395Y-74658790D01*
X169265499Y-76285894D01*
X169274289Y-76289535D01*
X169280770Y-76286850D01*
X169438000Y-76096792D01*
X169440305Y-76093619D01*
X169603659Y-75836215D01*
X169605543Y-75832788D01*
X169735350Y-75556934D01*
X169736788Y-75553303D01*
X169830995Y-75263363D01*
X169831972Y-75259559D01*
X169889095Y-74960105D01*
X169889586Y-74956218D01*
X169908729Y-74651955D01*
X169908729Y-74648045D01*
X169889586Y-74343782D01*
X169889095Y-74339895D01*
X169831972Y-74040441D01*
X169830995Y-74036637D01*
X169736788Y-73746697D01*
X169735350Y-73743066D01*
X169605543Y-73467212D01*
X169603659Y-73463785D01*
X169440305Y-73206381D01*
X169438000Y-73203208D01*
X169282213Y-73014895D01*
X169273805Y-73010443D01*
X169267100Y-73012505D01*
X167638395Y-74641210D01*
X167634754Y-74650000D01*
X167265246Y-74650000D01*
X167261605Y-74641210D01*
X165634501Y-73014106D01*
X165625711Y-73010465D01*
X165619230Y-73013150D01*
X165462000Y-73203208D01*
X165459695Y-73206381D01*
X165296341Y-73463785D01*
X165294457Y-73467212D01*
X165164650Y-73743066D01*
X165163212Y-73746697D01*
X165069005Y-74036637D01*
X165068028Y-74040441D01*
X165010905Y-74339895D01*
X165010414Y-74343782D01*
X164991271Y-74648045D01*
X164991271Y-74651955D01*
X161349459Y-74651955D01*
X163174855Y-72826559D01*
X165811913Y-72826559D01*
X165815681Y-72836076D01*
X167441210Y-74461605D01*
X167450000Y-74465246D01*
X167458790Y-74461605D01*
X169084682Y-72835713D01*
X169088102Y-72827457D01*
X169084036Y-72818062D01*
X169018755Y-72756759D01*
X169015753Y-72754275D01*
X168769107Y-72575077D01*
X168765795Y-72572975D01*
X168498657Y-72426115D01*
X168495093Y-72424438D01*
X168211652Y-72312216D01*
X168207922Y-72311004D01*
X167912657Y-72235192D01*
X167908784Y-72234454D01*
X167606351Y-72196247D01*
X167602421Y-72196000D01*
X167297579Y-72196000D01*
X167293649Y-72196247D01*
X166991216Y-72234454D01*
X166987343Y-72235192D01*
X166692078Y-72311004D01*
X166688348Y-72312216D01*
X166404907Y-72424438D01*
X166401343Y-72426115D01*
X166134205Y-72572975D01*
X166130893Y-72575077D01*
X165884247Y-72754275D01*
X165881245Y-72756759D01*
X165815591Y-72818413D01*
X165811913Y-72826559D01*
X163174855Y-72826559D01*
X164982108Y-71019306D01*
X165026302Y-71001000D01*
X169973698Y-71001000D01*
X170017892Y-71019306D01*
G37*
G04 #@! TD.AperFunction*
M02*
