M48
; DRILL file {KiCad (6.0.5)} date Sat Jul  9 20:48:05 2022
; FORMAT={-:-/ absolute / metric / decimal}
; #@! TF.CreationDate,2022-07-09T20:48:05-07:00
; #@! TF.GenerationSoftware,Kicad,Pcbnew,(6.0.5)
; #@! TF.FileFunction,Plated,1,4,PTH
FMAT,2
METRIC
; #@! TA.AperFunction,Plated,PTH,ViaDrill
T1C0.300
; #@! TA.AperFunction,Plated,PTH,ComponentDrill
T2C0.400
; #@! TA.AperFunction,Plated,PTH,ComponentDrill
T3C0.700
; #@! TA.AperFunction,Plated,PTH,ComponentDrill
T4C0.750
; #@! TA.AperFunction,Plated,PTH,ComponentDrill
T5C2.200
%
G90
G05
T1
X160.8Y-87.7
X161.2Y-90.9
X162.8Y-99.2
X163.7Y-75.7
X171.0Y-75.7
X171.0Y-98.7
X173.8Y-77.6
X173.8Y-83.0
X173.8Y-88.0
X173.8Y-89.9
X173.8Y-91.9
X173.8Y-93.9
X173.8Y-96.0
X174.9Y-85.3
X176.5Y-87.5
X176.5Y-89.5
X176.5Y-91.5
X176.5Y-93.5
X176.5Y-95.5
X176.7Y-86.6
X177.1Y-80.9
X177.1Y-83.2
X178.1Y-85.9
X178.1Y-88.2
X178.1Y-90.2
X178.1Y-91.9
X178.1Y-93.6
X178.1Y-95.9
X180.2Y-77.4
T2
X165.8Y-74.65
X165.8Y-99.15
X166.283Y-73.483
X166.283Y-75.817
X166.283Y-97.983
X166.283Y-100.317
X167.45Y-73.0
X167.45Y-76.3
X167.45Y-97.5
X167.45Y-100.8
X168.617Y-73.483
X168.617Y-75.817
X168.617Y-97.983
X168.617Y-100.317
X169.1Y-74.65
X169.1Y-99.15
T3
X162.1Y-81.15
X162.1Y-82.93
X162.1Y-84.71
X162.1Y-86.49
X162.1Y-88.27
X162.1Y-90.05
X162.1Y-91.83
X162.1Y-93.61
X172.8Y-82.04
X172.8Y-83.82
X172.8Y-85.6
X172.8Y-87.38
X172.8Y-89.16
X172.8Y-90.94
X172.8Y-92.72
X172.8Y-94.5
T4
X179.6Y-80.8
X179.6Y-82.8
X179.6Y-84.8
X179.6Y-86.8
X179.6Y-88.8
X179.6Y-90.8
X179.6Y-92.8
T5
X167.45Y-74.65
X167.45Y-99.15
T0
M30
