%FSLAX45Y45*%
G04 Gerber Fmt 4.5, Leading zero omitted, Abs format (unit mm)*
G04 Created by KiCad (PCBNEW (6.0.5)) date 2022-07-09 20:48:07*
%MOMM*%
%LPD*%
G01*
G04 APERTURE LIST*
%TA.AperFunction,Profile*%
%ADD10C,0.127000*%
%TD*%
%ADD11C,0.200000*%
%ADD12C,0.030000*%
%ADD13C,0.040000*%
%ADD14C,0.070000*%
%ADD15C,0.075000*%
%ADD16C,0.220000*%
G04 APERTURE END LIST*
D10*
X16000000Y-9800000D02*
X16000000Y-7600000D01*
X17000000Y-7100000D02*
X17500000Y-7600000D01*
X17000000Y-10300000D02*
X16500000Y-10300000D01*
X16500000Y-7100000D02*
X16000000Y-7600000D01*
X17500000Y-7600000D02*
X18200000Y-7600000D01*
X16000000Y-9800000D02*
X16500000Y-10300000D01*
X17500000Y-9800000D02*
X18200000Y-9800000D01*
X18200000Y-7600000D02*
X18200000Y-9800000D01*
X16500000Y-7100000D02*
X17000000Y-7100000D01*
X17000000Y-10300000D02*
X17500000Y-9800000D01*
D11*
D12*
X16065000Y-8755000D02*
X16095000Y-8785000D01*
X16095000Y-8755000D02*
X16065000Y-8785000D01*
X16105000Y-9075000D02*
X16135000Y-9105000D01*
X16135000Y-9075000D02*
X16105000Y-9105000D01*
X16265000Y-9905000D02*
X16295000Y-9935000D01*
X16295000Y-9905000D02*
X16265000Y-9935000D01*
X16355000Y-7555000D02*
X16385000Y-7585000D01*
X16385000Y-7555000D02*
X16355000Y-7585000D01*
X17085000Y-7555000D02*
X17115000Y-7585000D01*
X17115000Y-7555000D02*
X17085000Y-7585000D01*
X17085000Y-9855000D02*
X17115000Y-9885000D01*
X17115000Y-9855000D02*
X17085000Y-9885000D01*
X17365000Y-7745000D02*
X17395000Y-7775000D01*
X17395000Y-7745000D02*
X17365000Y-7775000D01*
X17365000Y-8285000D02*
X17395000Y-8315000D01*
X17395000Y-8285000D02*
X17365000Y-8315000D01*
X17365000Y-8785000D02*
X17395000Y-8815000D01*
X17395000Y-8785000D02*
X17365000Y-8815000D01*
X17365000Y-8975000D02*
X17395000Y-9005000D01*
X17395000Y-8975000D02*
X17365000Y-9005000D01*
X17365000Y-9175000D02*
X17395000Y-9205000D01*
X17395000Y-9175000D02*
X17365000Y-9205000D01*
X17365000Y-9375000D02*
X17395000Y-9405000D01*
X17395000Y-9375000D02*
X17365000Y-9405000D01*
X17365000Y-9585000D02*
X17395000Y-9615000D01*
X17395000Y-9585000D02*
X17365000Y-9615000D01*
X17475000Y-8515000D02*
X17505000Y-8545000D01*
X17505000Y-8515000D02*
X17475000Y-8545000D01*
X17635000Y-8735000D02*
X17665000Y-8765000D01*
X17665000Y-8735000D02*
X17635000Y-8765000D01*
X17635000Y-8935000D02*
X17665000Y-8965000D01*
X17665000Y-8935000D02*
X17635000Y-8965000D01*
X17635000Y-9135000D02*
X17665000Y-9165000D01*
X17665000Y-9135000D02*
X17635000Y-9165000D01*
X17635000Y-9335000D02*
X17665000Y-9365000D01*
X17665000Y-9335000D02*
X17635000Y-9365000D01*
X17635000Y-9535000D02*
X17665000Y-9565000D01*
X17665000Y-9535000D02*
X17635000Y-9565000D01*
X17655000Y-8645000D02*
X17685000Y-8675000D01*
X17685000Y-8645000D02*
X17655000Y-8675000D01*
X17695000Y-8075000D02*
X17725000Y-8105000D01*
X17725000Y-8075000D02*
X17695000Y-8105000D01*
X17695000Y-8305000D02*
X17725000Y-8335000D01*
X17725000Y-8305000D02*
X17695000Y-8335000D01*
X17795000Y-8575000D02*
X17825000Y-8605000D01*
X17825000Y-8575000D02*
X17795000Y-8605000D01*
X17795000Y-8805000D02*
X17825000Y-8835000D01*
X17825000Y-8805000D02*
X17795000Y-8835000D01*
X17795000Y-9005000D02*
X17825000Y-9035000D01*
X17825000Y-9005000D02*
X17795000Y-9035000D01*
X17795000Y-9175000D02*
X17825000Y-9205000D01*
X17825000Y-9175000D02*
X17795000Y-9205000D01*
X17795000Y-9345000D02*
X17825000Y-9375000D01*
X17825000Y-9345000D02*
X17795000Y-9375000D01*
X17795000Y-9575000D02*
X17825000Y-9605000D01*
X17825000Y-9575000D02*
X17795000Y-9605000D01*
X18005000Y-7725000D02*
X18035000Y-7755000D01*
X18035000Y-7725000D02*
X18005000Y-7755000D01*
D13*
X16600000Y-7465000D02*
G75*
G03*
X16600000Y-7465000I-20000J0D01*
G01*
X16600000Y-9915000D02*
G75*
G03*
X16600000Y-9915000I-20000J0D01*
G01*
X16648327Y-7348327D02*
G75*
G03*
X16648327Y-7348327I-20000J0D01*
G01*
X16648327Y-7581673D02*
G75*
G03*
X16648327Y-7581673I-20000J0D01*
G01*
X16648327Y-9798327D02*
G75*
G03*
X16648327Y-9798327I-20000J0D01*
G01*
X16648327Y-10031673D02*
G75*
G03*
X16648327Y-10031673I-20000J0D01*
G01*
X16765000Y-7300000D02*
G75*
G03*
X16765000Y-7300000I-20000J0D01*
G01*
X16765000Y-7630000D02*
G75*
G03*
X16765000Y-7630000I-20000J0D01*
G01*
X16765000Y-9750000D02*
G75*
G03*
X16765000Y-9750000I-20000J0D01*
G01*
X16765000Y-10080000D02*
G75*
G03*
X16765000Y-10080000I-20000J0D01*
G01*
X16881673Y-7348327D02*
G75*
G03*
X16881673Y-7348327I-20000J0D01*
G01*
X16881673Y-7581673D02*
G75*
G03*
X16881673Y-7581673I-20000J0D01*
G01*
X16881673Y-9798327D02*
G75*
G03*
X16881673Y-9798327I-20000J0D01*
G01*
X16881673Y-10031673D02*
G75*
G03*
X16881673Y-10031673I-20000J0D01*
G01*
X16930000Y-7465000D02*
G75*
G03*
X16930000Y-7465000I-20000J0D01*
G01*
X16930000Y-9915000D02*
G75*
G03*
X16930000Y-9915000I-20000J0D01*
G01*
D14*
X16210000Y-8080000D02*
X16210000Y-8150000D01*
X16175000Y-8115000D02*
X16245000Y-8115000D01*
X16210000Y-8258000D02*
X16210000Y-8328000D01*
X16175000Y-8293000D02*
X16245000Y-8293000D01*
X16210000Y-8436000D02*
X16210000Y-8506000D01*
X16175000Y-8471000D02*
X16245000Y-8471000D01*
X16210000Y-8614000D02*
X16210000Y-8684000D01*
X16175000Y-8649000D02*
X16245000Y-8649000D01*
X16210000Y-8792000D02*
X16210000Y-8862000D01*
X16175000Y-8827000D02*
X16245000Y-8827000D01*
X16210000Y-8970000D02*
X16210000Y-9040000D01*
X16175000Y-9005000D02*
X16245000Y-9005000D01*
X16210000Y-9148000D02*
X16210000Y-9218000D01*
X16175000Y-9183000D02*
X16245000Y-9183000D01*
X16210000Y-9326000D02*
X16210000Y-9396000D01*
X16175000Y-9361000D02*
X16245000Y-9361000D01*
X17280000Y-8169000D02*
X17280000Y-8239000D01*
X17245000Y-8204000D02*
X17315000Y-8204000D01*
X17280000Y-8347000D02*
X17280000Y-8417000D01*
X17245000Y-8382000D02*
X17315000Y-8382000D01*
X17280000Y-8525000D02*
X17280000Y-8595000D01*
X17245000Y-8560000D02*
X17315000Y-8560000D01*
X17280000Y-8703000D02*
X17280000Y-8773000D01*
X17245000Y-8738000D02*
X17315000Y-8738000D01*
X17280000Y-8881000D02*
X17280000Y-8951000D01*
X17245000Y-8916000D02*
X17315000Y-8916000D01*
X17280000Y-9059000D02*
X17280000Y-9129000D01*
X17245000Y-9094000D02*
X17315000Y-9094000D01*
X17280000Y-9237000D02*
X17280000Y-9307000D01*
X17245000Y-9272000D02*
X17315000Y-9272000D01*
X17280000Y-9415000D02*
X17280000Y-9485000D01*
X17245000Y-9450000D02*
X17315000Y-9450000D01*
D15*
X17986517Y-8106517D02*
X17986517Y-8053483D01*
X17933483Y-8053483D01*
X17933483Y-8106517D01*
X17986517Y-8106517D01*
X17986517Y-8306517D02*
X17986517Y-8253483D01*
X17933483Y-8253483D01*
X17933483Y-8306517D01*
X17986517Y-8306517D01*
X17986517Y-8506517D02*
X17986517Y-8453483D01*
X17933483Y-8453483D01*
X17933483Y-8506517D01*
X17986517Y-8506517D01*
X17986517Y-8706517D02*
X17986517Y-8653483D01*
X17933483Y-8653483D01*
X17933483Y-8706517D01*
X17986517Y-8706517D01*
X17986517Y-8906517D02*
X17986517Y-8853483D01*
X17933483Y-8853483D01*
X17933483Y-8906517D01*
X17986517Y-8906517D01*
X17986517Y-9106517D02*
X17986517Y-9053483D01*
X17933483Y-9053483D01*
X17933483Y-9106517D01*
X17986517Y-9106517D01*
X17986517Y-9306517D02*
X17986517Y-9253483D01*
X17933483Y-9253483D01*
X17933483Y-9306517D01*
X17986517Y-9306517D01*
D16*
X16745000Y-7575000D02*
X16855000Y-7465000D01*
X16745000Y-7355000D01*
X16635000Y-7465000D01*
X16745000Y-7575000D01*
X16745000Y-10025000D02*
X16855000Y-9915000D01*
X16745000Y-9805000D01*
X16635000Y-9915000D01*
X16745000Y-10025000D01*
D11*
X16251269Y-10616826D02*
X16251269Y-10416826D01*
X16298888Y-10416826D01*
X16327459Y-10426350D01*
X16346507Y-10445398D01*
X16356031Y-10464445D01*
X16365555Y-10502540D01*
X16365555Y-10531112D01*
X16356031Y-10569207D01*
X16346507Y-10588255D01*
X16327459Y-10607302D01*
X16298888Y-10616826D01*
X16251269Y-10616826D01*
X16451269Y-10616826D02*
X16451269Y-10483493D01*
X16451269Y-10521588D02*
X16460793Y-10502540D01*
X16470317Y-10493017D01*
X16489364Y-10483493D01*
X16508412Y-10483493D01*
X16575078Y-10616826D02*
X16575078Y-10483493D01*
X16575078Y-10416826D02*
X16565555Y-10426350D01*
X16575078Y-10435874D01*
X16584602Y-10426350D01*
X16575078Y-10416826D01*
X16575078Y-10435874D01*
X16698888Y-10616826D02*
X16679840Y-10607302D01*
X16670317Y-10588255D01*
X16670317Y-10416826D01*
X16803650Y-10616826D02*
X16784602Y-10607302D01*
X16775078Y-10588255D01*
X16775078Y-10416826D01*
X17032221Y-10616826D02*
X17032221Y-10416826D01*
X17098888Y-10559683D01*
X17165555Y-10416826D01*
X17165555Y-10616826D01*
X17346507Y-10616826D02*
X17346507Y-10512064D01*
X17336983Y-10493017D01*
X17317936Y-10483493D01*
X17279840Y-10483493D01*
X17260793Y-10493017D01*
X17346507Y-10607302D02*
X17327460Y-10616826D01*
X17279840Y-10616826D01*
X17260793Y-10607302D01*
X17251269Y-10588255D01*
X17251269Y-10569207D01*
X17260793Y-10550160D01*
X17279840Y-10540636D01*
X17327460Y-10540636D01*
X17346507Y-10531112D01*
X17441745Y-10483493D02*
X17441745Y-10683493D01*
X17441745Y-10493017D02*
X17460793Y-10483493D01*
X17498888Y-10483493D01*
X17517936Y-10493017D01*
X17527460Y-10502540D01*
X17536983Y-10521588D01*
X17536983Y-10578731D01*
X17527460Y-10597779D01*
X17517936Y-10607302D01*
X17498888Y-10616826D01*
X17460793Y-10616826D01*
X17441745Y-10607302D01*
X17622698Y-10597779D02*
X17632221Y-10607302D01*
X17622698Y-10616826D01*
X17613174Y-10607302D01*
X17622698Y-10597779D01*
X17622698Y-10616826D01*
X17622698Y-10493017D02*
X17632221Y-10502540D01*
X17622698Y-10512064D01*
X17613174Y-10502540D01*
X17622698Y-10493017D01*
X17622698Y-10512064D01*
D12*
X15963650Y-10931350D02*
X15993650Y-10961350D01*
X15993650Y-10931350D02*
X15963650Y-10961350D01*
D11*
X16289364Y-10836826D02*
X16308412Y-10836826D01*
X16327459Y-10846350D01*
X16336983Y-10855874D01*
X16346507Y-10874921D01*
X16356031Y-10913017D01*
X16356031Y-10960636D01*
X16346507Y-10998731D01*
X16336983Y-11017779D01*
X16327459Y-11027302D01*
X16308412Y-11036826D01*
X16289364Y-11036826D01*
X16270317Y-11027302D01*
X16260793Y-11017779D01*
X16251269Y-10998731D01*
X16241745Y-10960636D01*
X16241745Y-10913017D01*
X16251269Y-10874921D01*
X16260793Y-10855874D01*
X16270317Y-10846350D01*
X16289364Y-10836826D01*
X16441745Y-11017779D02*
X16451269Y-11027302D01*
X16441745Y-11036826D01*
X16432221Y-11027302D01*
X16441745Y-11017779D01*
X16441745Y-11036826D01*
X16517936Y-10836826D02*
X16641745Y-10836826D01*
X16575078Y-10913017D01*
X16603650Y-10913017D01*
X16622698Y-10922540D01*
X16632221Y-10932064D01*
X16641745Y-10951112D01*
X16641745Y-10998731D01*
X16632221Y-11017779D01*
X16622698Y-11027302D01*
X16603650Y-11036826D01*
X16546507Y-11036826D01*
X16527459Y-11027302D01*
X16517936Y-11017779D01*
X16765555Y-10836826D02*
X16784602Y-10836826D01*
X16803650Y-10846350D01*
X16813174Y-10855874D01*
X16822698Y-10874921D01*
X16832221Y-10913017D01*
X16832221Y-10960636D01*
X16822698Y-10998731D01*
X16813174Y-11017779D01*
X16803650Y-11027302D01*
X16784602Y-11036826D01*
X16765555Y-11036826D01*
X16746507Y-11027302D01*
X16736983Y-11017779D01*
X16727459Y-10998731D01*
X16717936Y-10960636D01*
X16717936Y-10913017D01*
X16727459Y-10874921D01*
X16736983Y-10855874D01*
X16746507Y-10846350D01*
X16765555Y-10836826D01*
X16956031Y-10836826D02*
X16975079Y-10836826D01*
X16994126Y-10846350D01*
X17003650Y-10855874D01*
X17013174Y-10874921D01*
X17022698Y-10913017D01*
X17022698Y-10960636D01*
X17013174Y-10998731D01*
X17003650Y-11017779D01*
X16994126Y-11027302D01*
X16975079Y-11036826D01*
X16956031Y-11036826D01*
X16936983Y-11027302D01*
X16927460Y-11017779D01*
X16917936Y-10998731D01*
X16908412Y-10960636D01*
X16908412Y-10913017D01*
X16917936Y-10874921D01*
X16927460Y-10855874D01*
X16936983Y-10846350D01*
X16956031Y-10836826D01*
X17108412Y-11036826D02*
X17108412Y-10903493D01*
X17108412Y-10922540D02*
X17117936Y-10913017D01*
X17136983Y-10903493D01*
X17165555Y-10903493D01*
X17184602Y-10913017D01*
X17194126Y-10932064D01*
X17194126Y-11036826D01*
X17194126Y-10932064D02*
X17203650Y-10913017D01*
X17222698Y-10903493D01*
X17251269Y-10903493D01*
X17270317Y-10913017D01*
X17279840Y-10932064D01*
X17279840Y-11036826D01*
X17375079Y-11036826D02*
X17375079Y-10903493D01*
X17375079Y-10922540D02*
X17384602Y-10913017D01*
X17403650Y-10903493D01*
X17432221Y-10903493D01*
X17451269Y-10913017D01*
X17460793Y-10932064D01*
X17460793Y-11036826D01*
X17460793Y-10932064D02*
X17470317Y-10913017D01*
X17489364Y-10903493D01*
X17517936Y-10903493D01*
X17536983Y-10913017D01*
X17546507Y-10932064D01*
X17546507Y-11036826D01*
X17936983Y-10827302D02*
X17765555Y-11084445D01*
X18194126Y-10836826D02*
X18213174Y-10836826D01*
X18232221Y-10846350D01*
X18241745Y-10855874D01*
X18251269Y-10874921D01*
X18260793Y-10913017D01*
X18260793Y-10960636D01*
X18251269Y-10998731D01*
X18241745Y-11017779D01*
X18232221Y-11027302D01*
X18213174Y-11036826D01*
X18194126Y-11036826D01*
X18175079Y-11027302D01*
X18165555Y-11017779D01*
X18156031Y-10998731D01*
X18146507Y-10960636D01*
X18146507Y-10913017D01*
X18156031Y-10874921D01*
X18165555Y-10855874D01*
X18175079Y-10846350D01*
X18194126Y-10836826D01*
X18346507Y-11017779D02*
X18356031Y-11027302D01*
X18346507Y-11036826D01*
X18336983Y-11027302D01*
X18346507Y-11017779D01*
X18346507Y-11036826D01*
X18479840Y-10836826D02*
X18498888Y-10836826D01*
X18517936Y-10846350D01*
X18527460Y-10855874D01*
X18536983Y-10874921D01*
X18546507Y-10913017D01*
X18546507Y-10960636D01*
X18536983Y-10998731D01*
X18527460Y-11017779D01*
X18517936Y-11027302D01*
X18498888Y-11036826D01*
X18479840Y-11036826D01*
X18460793Y-11027302D01*
X18451269Y-11017779D01*
X18441745Y-10998731D01*
X18432221Y-10960636D01*
X18432221Y-10913017D01*
X18441745Y-10874921D01*
X18451269Y-10855874D01*
X18460793Y-10846350D01*
X18479840Y-10836826D01*
X18736983Y-11036826D02*
X18622698Y-11036826D01*
X18679840Y-11036826D02*
X18679840Y-10836826D01*
X18660793Y-10865398D01*
X18641745Y-10884445D01*
X18622698Y-10893969D01*
X18927460Y-11036826D02*
X18813174Y-11036826D01*
X18870317Y-11036826D02*
X18870317Y-10836826D01*
X18851269Y-10865398D01*
X18832221Y-10884445D01*
X18813174Y-10893969D01*
X19041745Y-10922540D02*
X19022698Y-10913017D01*
X19013174Y-10903493D01*
X19003650Y-10884445D01*
X19003650Y-10874921D01*
X19013174Y-10855874D01*
X19022698Y-10846350D01*
X19041745Y-10836826D01*
X19079840Y-10836826D01*
X19098888Y-10846350D01*
X19108412Y-10855874D01*
X19117936Y-10874921D01*
X19117936Y-10884445D01*
X19108412Y-10903493D01*
X19098888Y-10913017D01*
X19079840Y-10922540D01*
X19041745Y-10922540D01*
X19022698Y-10932064D01*
X19013174Y-10941588D01*
X19003650Y-10960636D01*
X19003650Y-10998731D01*
X19013174Y-11017779D01*
X19022698Y-11027302D01*
X19041745Y-11036826D01*
X19079840Y-11036826D01*
X19098888Y-11027302D01*
X19108412Y-11017779D01*
X19117936Y-10998731D01*
X19117936Y-10960636D01*
X19108412Y-10941588D01*
X19098888Y-10932064D01*
X19079840Y-10922540D01*
X19194126Y-10836826D02*
X19194126Y-10874921D01*
X19270317Y-10836826D02*
X19270317Y-10874921D01*
X19565555Y-11113017D02*
X19556031Y-11103493D01*
X19536983Y-11074921D01*
X19527460Y-11055874D01*
X19517936Y-11027302D01*
X19508412Y-10979683D01*
X19508412Y-10941588D01*
X19517936Y-10893969D01*
X19527460Y-10865398D01*
X19536983Y-10846350D01*
X19556031Y-10817779D01*
X19565555Y-10808255D01*
X19632221Y-10855874D02*
X19641745Y-10846350D01*
X19660793Y-10836826D01*
X19708412Y-10836826D01*
X19727460Y-10846350D01*
X19736983Y-10855874D01*
X19746507Y-10874921D01*
X19746507Y-10893969D01*
X19736983Y-10922540D01*
X19622698Y-11036826D01*
X19746507Y-11036826D01*
X19841745Y-11036826D02*
X19879840Y-11036826D01*
X19898888Y-11027302D01*
X19908412Y-11017779D01*
X19927460Y-10989207D01*
X19936983Y-10951112D01*
X19936983Y-10874921D01*
X19927460Y-10855874D01*
X19917936Y-10846350D01*
X19898888Y-10836826D01*
X19860793Y-10836826D01*
X19841745Y-10846350D01*
X19832221Y-10855874D01*
X19822698Y-10874921D01*
X19822698Y-10922540D01*
X19832221Y-10941588D01*
X19841745Y-10951112D01*
X19860793Y-10960636D01*
X19898888Y-10960636D01*
X19917936Y-10951112D01*
X19927460Y-10941588D01*
X19936983Y-10922540D01*
X20175079Y-11036826D02*
X20175079Y-10836826D01*
X20260793Y-11036826D02*
X20260793Y-10932064D01*
X20251269Y-10913017D01*
X20232221Y-10903493D01*
X20203650Y-10903493D01*
X20184602Y-10913017D01*
X20175079Y-10922540D01*
X20384602Y-11036826D02*
X20365555Y-11027302D01*
X20356031Y-11017779D01*
X20346507Y-10998731D01*
X20346507Y-10941588D01*
X20356031Y-10922540D01*
X20365555Y-10913017D01*
X20384602Y-10903493D01*
X20413174Y-10903493D01*
X20432221Y-10913017D01*
X20441745Y-10922540D01*
X20451269Y-10941588D01*
X20451269Y-10998731D01*
X20441745Y-11017779D01*
X20432221Y-11027302D01*
X20413174Y-11036826D01*
X20384602Y-11036826D01*
X20565555Y-11036826D02*
X20546507Y-11027302D01*
X20536983Y-11008255D01*
X20536983Y-10836826D01*
X20717936Y-11027302D02*
X20698888Y-11036826D01*
X20660793Y-11036826D01*
X20641745Y-11027302D01*
X20632221Y-11008255D01*
X20632221Y-10932064D01*
X20641745Y-10913017D01*
X20660793Y-10903493D01*
X20698888Y-10903493D01*
X20717936Y-10913017D01*
X20727460Y-10932064D01*
X20727460Y-10951112D01*
X20632221Y-10970160D01*
X20803650Y-11027302D02*
X20822698Y-11036826D01*
X20860793Y-11036826D01*
X20879840Y-11027302D01*
X20889364Y-11008255D01*
X20889364Y-10998731D01*
X20879840Y-10979683D01*
X20860793Y-10970160D01*
X20832221Y-10970160D01*
X20813174Y-10960636D01*
X20803650Y-10941588D01*
X20803650Y-10932064D01*
X20813174Y-10913017D01*
X20832221Y-10903493D01*
X20860793Y-10903493D01*
X20879840Y-10913017D01*
X20956031Y-11113017D02*
X20965555Y-11103493D01*
X20984602Y-11074921D01*
X20994126Y-11055874D01*
X21003650Y-11027302D01*
X21013174Y-10979683D01*
X21013174Y-10941588D01*
X21003650Y-10893969D01*
X20994126Y-10865398D01*
X20984602Y-10846350D01*
X20965555Y-10817779D01*
X20956031Y-10808255D01*
D13*
X15993650Y-11210350D02*
G75*
G03*
X15993650Y-11210350I-20000J0D01*
G01*
D11*
X16289364Y-11100826D02*
X16308412Y-11100826D01*
X16327459Y-11110350D01*
X16336983Y-11119874D01*
X16346507Y-11138921D01*
X16356031Y-11177017D01*
X16356031Y-11224636D01*
X16346507Y-11262731D01*
X16336983Y-11281778D01*
X16327459Y-11291302D01*
X16308412Y-11300826D01*
X16289364Y-11300826D01*
X16270317Y-11291302D01*
X16260793Y-11281778D01*
X16251269Y-11262731D01*
X16241745Y-11224636D01*
X16241745Y-11177017D01*
X16251269Y-11138921D01*
X16260793Y-11119874D01*
X16270317Y-11110350D01*
X16289364Y-11100826D01*
X16441745Y-11281778D02*
X16451269Y-11291302D01*
X16441745Y-11300826D01*
X16432221Y-11291302D01*
X16441745Y-11281778D01*
X16441745Y-11300826D01*
X16622698Y-11167493D02*
X16622698Y-11300826D01*
X16575078Y-11091302D02*
X16527459Y-11234159D01*
X16651269Y-11234159D01*
X16765555Y-11100826D02*
X16784602Y-11100826D01*
X16803650Y-11110350D01*
X16813174Y-11119874D01*
X16822698Y-11138921D01*
X16832221Y-11177017D01*
X16832221Y-11224636D01*
X16822698Y-11262731D01*
X16813174Y-11281778D01*
X16803650Y-11291302D01*
X16784602Y-11300826D01*
X16765555Y-11300826D01*
X16746507Y-11291302D01*
X16736983Y-11281778D01*
X16727459Y-11262731D01*
X16717936Y-11224636D01*
X16717936Y-11177017D01*
X16727459Y-11138921D01*
X16736983Y-11119874D01*
X16746507Y-11110350D01*
X16765555Y-11100826D01*
X16956031Y-11100826D02*
X16975079Y-11100826D01*
X16994126Y-11110350D01*
X17003650Y-11119874D01*
X17013174Y-11138921D01*
X17022698Y-11177017D01*
X17022698Y-11224636D01*
X17013174Y-11262731D01*
X17003650Y-11281778D01*
X16994126Y-11291302D01*
X16975079Y-11300826D01*
X16956031Y-11300826D01*
X16936983Y-11291302D01*
X16927460Y-11281778D01*
X16917936Y-11262731D01*
X16908412Y-11224636D01*
X16908412Y-11177017D01*
X16917936Y-11138921D01*
X16927460Y-11119874D01*
X16936983Y-11110350D01*
X16956031Y-11100826D01*
X17108412Y-11300826D02*
X17108412Y-11167493D01*
X17108412Y-11186540D02*
X17117936Y-11177017D01*
X17136983Y-11167493D01*
X17165555Y-11167493D01*
X17184602Y-11177017D01*
X17194126Y-11196064D01*
X17194126Y-11300826D01*
X17194126Y-11196064D02*
X17203650Y-11177017D01*
X17222698Y-11167493D01*
X17251269Y-11167493D01*
X17270317Y-11177017D01*
X17279840Y-11196064D01*
X17279840Y-11300826D01*
X17375079Y-11300826D02*
X17375079Y-11167493D01*
X17375079Y-11186540D02*
X17384602Y-11177017D01*
X17403650Y-11167493D01*
X17432221Y-11167493D01*
X17451269Y-11177017D01*
X17460793Y-11196064D01*
X17460793Y-11300826D01*
X17460793Y-11196064D02*
X17470317Y-11177017D01*
X17489364Y-11167493D01*
X17517936Y-11167493D01*
X17536983Y-11177017D01*
X17546507Y-11196064D01*
X17546507Y-11300826D01*
X17936983Y-11091302D02*
X17765555Y-11348445D01*
X18194126Y-11100826D02*
X18213174Y-11100826D01*
X18232221Y-11110350D01*
X18241745Y-11119874D01*
X18251269Y-11138921D01*
X18260793Y-11177017D01*
X18260793Y-11224636D01*
X18251269Y-11262731D01*
X18241745Y-11281778D01*
X18232221Y-11291302D01*
X18213174Y-11300826D01*
X18194126Y-11300826D01*
X18175079Y-11291302D01*
X18165555Y-11281778D01*
X18156031Y-11262731D01*
X18146507Y-11224636D01*
X18146507Y-11177017D01*
X18156031Y-11138921D01*
X18165555Y-11119874D01*
X18175079Y-11110350D01*
X18194126Y-11100826D01*
X18346507Y-11281778D02*
X18356031Y-11291302D01*
X18346507Y-11300826D01*
X18336983Y-11291302D01*
X18346507Y-11281778D01*
X18346507Y-11300826D01*
X18479840Y-11100826D02*
X18498888Y-11100826D01*
X18517936Y-11110350D01*
X18527460Y-11119874D01*
X18536983Y-11138921D01*
X18546507Y-11177017D01*
X18546507Y-11224636D01*
X18536983Y-11262731D01*
X18527460Y-11281778D01*
X18517936Y-11291302D01*
X18498888Y-11300826D01*
X18479840Y-11300826D01*
X18460793Y-11291302D01*
X18451269Y-11281778D01*
X18441745Y-11262731D01*
X18432221Y-11224636D01*
X18432221Y-11177017D01*
X18441745Y-11138921D01*
X18451269Y-11119874D01*
X18460793Y-11110350D01*
X18479840Y-11100826D01*
X18736983Y-11300826D02*
X18622698Y-11300826D01*
X18679840Y-11300826D02*
X18679840Y-11100826D01*
X18660793Y-11129398D01*
X18641745Y-11148445D01*
X18622698Y-11157969D01*
X18917936Y-11100826D02*
X18822698Y-11100826D01*
X18813174Y-11196064D01*
X18822698Y-11186540D01*
X18841745Y-11177017D01*
X18889364Y-11177017D01*
X18908412Y-11186540D01*
X18917936Y-11196064D01*
X18927460Y-11215112D01*
X18927460Y-11262731D01*
X18917936Y-11281778D01*
X18908412Y-11291302D01*
X18889364Y-11300826D01*
X18841745Y-11300826D01*
X18822698Y-11291302D01*
X18813174Y-11281778D01*
X18994126Y-11100826D02*
X19127460Y-11100826D01*
X19041745Y-11300826D01*
X19194126Y-11100826D02*
X19194126Y-11138921D01*
X19270317Y-11100826D02*
X19270317Y-11138921D01*
X19565555Y-11377017D02*
X19556031Y-11367493D01*
X19536983Y-11338921D01*
X19527460Y-11319874D01*
X19517936Y-11291302D01*
X19508412Y-11243683D01*
X19508412Y-11205588D01*
X19517936Y-11157969D01*
X19527460Y-11129398D01*
X19536983Y-11110350D01*
X19556031Y-11081779D01*
X19565555Y-11072255D01*
X19746507Y-11300826D02*
X19632221Y-11300826D01*
X19689364Y-11300826D02*
X19689364Y-11100826D01*
X19670317Y-11129398D01*
X19651269Y-11148445D01*
X19632221Y-11157969D01*
X19917936Y-11100826D02*
X19879840Y-11100826D01*
X19860793Y-11110350D01*
X19851269Y-11119874D01*
X19832221Y-11148445D01*
X19822698Y-11186540D01*
X19822698Y-11262731D01*
X19832221Y-11281778D01*
X19841745Y-11291302D01*
X19860793Y-11300826D01*
X19898888Y-11300826D01*
X19917936Y-11291302D01*
X19927460Y-11281778D01*
X19936983Y-11262731D01*
X19936983Y-11215112D01*
X19927460Y-11196064D01*
X19917936Y-11186540D01*
X19898888Y-11177017D01*
X19860793Y-11177017D01*
X19841745Y-11186540D01*
X19832221Y-11196064D01*
X19822698Y-11215112D01*
X20175079Y-11300826D02*
X20175079Y-11100826D01*
X20260793Y-11300826D02*
X20260793Y-11196064D01*
X20251269Y-11177017D01*
X20232221Y-11167493D01*
X20203650Y-11167493D01*
X20184602Y-11177017D01*
X20175079Y-11186540D01*
X20384602Y-11300826D02*
X20365555Y-11291302D01*
X20356031Y-11281778D01*
X20346507Y-11262731D01*
X20346507Y-11205588D01*
X20356031Y-11186540D01*
X20365555Y-11177017D01*
X20384602Y-11167493D01*
X20413174Y-11167493D01*
X20432221Y-11177017D01*
X20441745Y-11186540D01*
X20451269Y-11205588D01*
X20451269Y-11262731D01*
X20441745Y-11281778D01*
X20432221Y-11291302D01*
X20413174Y-11300826D01*
X20384602Y-11300826D01*
X20565555Y-11300826D02*
X20546507Y-11291302D01*
X20536983Y-11272255D01*
X20536983Y-11100826D01*
X20717936Y-11291302D02*
X20698888Y-11300826D01*
X20660793Y-11300826D01*
X20641745Y-11291302D01*
X20632221Y-11272255D01*
X20632221Y-11196064D01*
X20641745Y-11177017D01*
X20660793Y-11167493D01*
X20698888Y-11167493D01*
X20717936Y-11177017D01*
X20727460Y-11196064D01*
X20727460Y-11215112D01*
X20632221Y-11234159D01*
X20803650Y-11291302D02*
X20822698Y-11300826D01*
X20860793Y-11300826D01*
X20879840Y-11291302D01*
X20889364Y-11272255D01*
X20889364Y-11262731D01*
X20879840Y-11243683D01*
X20860793Y-11234159D01*
X20832221Y-11234159D01*
X20813174Y-11224636D01*
X20803650Y-11205588D01*
X20803650Y-11196064D01*
X20813174Y-11177017D01*
X20832221Y-11167493D01*
X20860793Y-11167493D01*
X20879840Y-11177017D01*
X20956031Y-11377017D02*
X20965555Y-11367493D01*
X20984602Y-11338921D01*
X20994126Y-11319874D01*
X21003650Y-11291302D01*
X21013174Y-11243683D01*
X21013174Y-11205588D01*
X21003650Y-11157969D01*
X20994126Y-11129398D01*
X20984602Y-11110350D01*
X20965555Y-11081779D01*
X20956031Y-11072255D01*
D14*
X15958650Y-11439350D02*
X15958650Y-11509350D01*
X15923650Y-11474350D02*
X15993650Y-11474350D01*
D11*
X16289364Y-11364826D02*
X16308412Y-11364826D01*
X16327459Y-11374350D01*
X16336983Y-11383874D01*
X16346507Y-11402921D01*
X16356031Y-11441017D01*
X16356031Y-11488636D01*
X16346507Y-11526731D01*
X16336983Y-11545778D01*
X16327459Y-11555302D01*
X16308412Y-11564826D01*
X16289364Y-11564826D01*
X16270317Y-11555302D01*
X16260793Y-11545778D01*
X16251269Y-11526731D01*
X16241745Y-11488636D01*
X16241745Y-11441017D01*
X16251269Y-11402921D01*
X16260793Y-11383874D01*
X16270317Y-11374350D01*
X16289364Y-11364826D01*
X16441745Y-11545778D02*
X16451269Y-11555302D01*
X16441745Y-11564826D01*
X16432221Y-11555302D01*
X16441745Y-11545778D01*
X16441745Y-11564826D01*
X16517936Y-11364826D02*
X16651269Y-11364826D01*
X16565555Y-11564826D01*
X16765555Y-11364826D02*
X16784602Y-11364826D01*
X16803650Y-11374350D01*
X16813174Y-11383874D01*
X16822698Y-11402921D01*
X16832221Y-11441017D01*
X16832221Y-11488636D01*
X16822698Y-11526731D01*
X16813174Y-11545778D01*
X16803650Y-11555302D01*
X16784602Y-11564826D01*
X16765555Y-11564826D01*
X16746507Y-11555302D01*
X16736983Y-11545778D01*
X16727459Y-11526731D01*
X16717936Y-11488636D01*
X16717936Y-11441017D01*
X16727459Y-11402921D01*
X16736983Y-11383874D01*
X16746507Y-11374350D01*
X16765555Y-11364826D01*
X16956031Y-11364826D02*
X16975079Y-11364826D01*
X16994126Y-11374350D01*
X17003650Y-11383874D01*
X17013174Y-11402921D01*
X17022698Y-11441017D01*
X17022698Y-11488636D01*
X17013174Y-11526731D01*
X17003650Y-11545778D01*
X16994126Y-11555302D01*
X16975079Y-11564826D01*
X16956031Y-11564826D01*
X16936983Y-11555302D01*
X16927460Y-11545778D01*
X16917936Y-11526731D01*
X16908412Y-11488636D01*
X16908412Y-11441017D01*
X16917936Y-11402921D01*
X16927460Y-11383874D01*
X16936983Y-11374350D01*
X16956031Y-11364826D01*
X17108412Y-11564826D02*
X17108412Y-11431493D01*
X17108412Y-11450540D02*
X17117936Y-11441017D01*
X17136983Y-11431493D01*
X17165555Y-11431493D01*
X17184602Y-11441017D01*
X17194126Y-11460064D01*
X17194126Y-11564826D01*
X17194126Y-11460064D02*
X17203650Y-11441017D01*
X17222698Y-11431493D01*
X17251269Y-11431493D01*
X17270317Y-11441017D01*
X17279840Y-11460064D01*
X17279840Y-11564826D01*
X17375079Y-11564826D02*
X17375079Y-11431493D01*
X17375079Y-11450540D02*
X17384602Y-11441017D01*
X17403650Y-11431493D01*
X17432221Y-11431493D01*
X17451269Y-11441017D01*
X17460793Y-11460064D01*
X17460793Y-11564826D01*
X17460793Y-11460064D02*
X17470317Y-11441017D01*
X17489364Y-11431493D01*
X17517936Y-11431493D01*
X17536983Y-11441017D01*
X17546507Y-11460064D01*
X17546507Y-11564826D01*
X17936983Y-11355302D02*
X17765555Y-11612445D01*
X18194126Y-11364826D02*
X18213174Y-11364826D01*
X18232221Y-11374350D01*
X18241745Y-11383874D01*
X18251269Y-11402921D01*
X18260793Y-11441017D01*
X18260793Y-11488636D01*
X18251269Y-11526731D01*
X18241745Y-11545778D01*
X18232221Y-11555302D01*
X18213174Y-11564826D01*
X18194126Y-11564826D01*
X18175079Y-11555302D01*
X18165555Y-11545778D01*
X18156031Y-11526731D01*
X18146507Y-11488636D01*
X18146507Y-11441017D01*
X18156031Y-11402921D01*
X18165555Y-11383874D01*
X18175079Y-11374350D01*
X18194126Y-11364826D01*
X18346507Y-11545778D02*
X18356031Y-11555302D01*
X18346507Y-11564826D01*
X18336983Y-11555302D01*
X18346507Y-11545778D01*
X18346507Y-11564826D01*
X18479840Y-11364826D02*
X18498888Y-11364826D01*
X18517936Y-11374350D01*
X18527460Y-11383874D01*
X18536983Y-11402921D01*
X18546507Y-11441017D01*
X18546507Y-11488636D01*
X18536983Y-11526731D01*
X18527460Y-11545778D01*
X18517936Y-11555302D01*
X18498888Y-11564826D01*
X18479840Y-11564826D01*
X18460793Y-11555302D01*
X18451269Y-11545778D01*
X18441745Y-11526731D01*
X18432221Y-11488636D01*
X18432221Y-11441017D01*
X18441745Y-11402921D01*
X18451269Y-11383874D01*
X18460793Y-11374350D01*
X18479840Y-11364826D01*
X18622698Y-11383874D02*
X18632221Y-11374350D01*
X18651269Y-11364826D01*
X18698888Y-11364826D01*
X18717936Y-11374350D01*
X18727460Y-11383874D01*
X18736983Y-11402921D01*
X18736983Y-11421969D01*
X18727460Y-11450540D01*
X18613174Y-11564826D01*
X18736983Y-11564826D01*
X18803650Y-11364826D02*
X18936983Y-11364826D01*
X18851269Y-11564826D01*
X19098888Y-11364826D02*
X19060793Y-11364826D01*
X19041745Y-11374350D01*
X19032221Y-11383874D01*
X19013174Y-11412445D01*
X19003650Y-11450540D01*
X19003650Y-11526731D01*
X19013174Y-11545778D01*
X19022698Y-11555302D01*
X19041745Y-11564826D01*
X19079840Y-11564826D01*
X19098888Y-11555302D01*
X19108412Y-11545778D01*
X19117936Y-11526731D01*
X19117936Y-11479112D01*
X19108412Y-11460064D01*
X19098888Y-11450540D01*
X19079840Y-11441017D01*
X19041745Y-11441017D01*
X19022698Y-11450540D01*
X19013174Y-11460064D01*
X19003650Y-11479112D01*
X19194126Y-11364826D02*
X19194126Y-11402921D01*
X19270317Y-11364826D02*
X19270317Y-11402921D01*
X19565555Y-11641017D02*
X19556031Y-11631493D01*
X19536983Y-11602921D01*
X19527460Y-11583874D01*
X19517936Y-11555302D01*
X19508412Y-11507683D01*
X19508412Y-11469588D01*
X19517936Y-11421969D01*
X19527460Y-11393398D01*
X19536983Y-11374350D01*
X19556031Y-11345778D01*
X19565555Y-11336255D01*
X19746507Y-11564826D02*
X19632221Y-11564826D01*
X19689364Y-11564826D02*
X19689364Y-11364826D01*
X19670317Y-11393398D01*
X19651269Y-11412445D01*
X19632221Y-11421969D01*
X19917936Y-11364826D02*
X19879840Y-11364826D01*
X19860793Y-11374350D01*
X19851269Y-11383874D01*
X19832221Y-11412445D01*
X19822698Y-11450540D01*
X19822698Y-11526731D01*
X19832221Y-11545778D01*
X19841745Y-11555302D01*
X19860793Y-11564826D01*
X19898888Y-11564826D01*
X19917936Y-11555302D01*
X19927460Y-11545778D01*
X19936983Y-11526731D01*
X19936983Y-11479112D01*
X19927460Y-11460064D01*
X19917936Y-11450540D01*
X19898888Y-11441017D01*
X19860793Y-11441017D01*
X19841745Y-11450540D01*
X19832221Y-11460064D01*
X19822698Y-11479112D01*
X20175079Y-11564826D02*
X20175079Y-11364826D01*
X20260793Y-11564826D02*
X20260793Y-11460064D01*
X20251269Y-11441017D01*
X20232221Y-11431493D01*
X20203650Y-11431493D01*
X20184602Y-11441017D01*
X20175079Y-11450540D01*
X20384602Y-11564826D02*
X20365555Y-11555302D01*
X20356031Y-11545778D01*
X20346507Y-11526731D01*
X20346507Y-11469588D01*
X20356031Y-11450540D01*
X20365555Y-11441017D01*
X20384602Y-11431493D01*
X20413174Y-11431493D01*
X20432221Y-11441017D01*
X20441745Y-11450540D01*
X20451269Y-11469588D01*
X20451269Y-11526731D01*
X20441745Y-11545778D01*
X20432221Y-11555302D01*
X20413174Y-11564826D01*
X20384602Y-11564826D01*
X20565555Y-11564826D02*
X20546507Y-11555302D01*
X20536983Y-11536255D01*
X20536983Y-11364826D01*
X20717936Y-11555302D02*
X20698888Y-11564826D01*
X20660793Y-11564826D01*
X20641745Y-11555302D01*
X20632221Y-11536255D01*
X20632221Y-11460064D01*
X20641745Y-11441017D01*
X20660793Y-11431493D01*
X20698888Y-11431493D01*
X20717936Y-11441017D01*
X20727460Y-11460064D01*
X20727460Y-11479112D01*
X20632221Y-11498159D01*
X20803650Y-11555302D02*
X20822698Y-11564826D01*
X20860793Y-11564826D01*
X20879840Y-11555302D01*
X20889364Y-11536255D01*
X20889364Y-11526731D01*
X20879840Y-11507683D01*
X20860793Y-11498159D01*
X20832221Y-11498159D01*
X20813174Y-11488636D01*
X20803650Y-11469588D01*
X20803650Y-11460064D01*
X20813174Y-11441017D01*
X20832221Y-11431493D01*
X20860793Y-11431493D01*
X20879840Y-11441017D01*
X20956031Y-11641017D02*
X20965555Y-11631493D01*
X20984602Y-11602921D01*
X20994126Y-11583874D01*
X21003650Y-11555302D01*
X21013174Y-11507683D01*
X21013174Y-11469588D01*
X21003650Y-11421969D01*
X20994126Y-11393398D01*
X20984602Y-11374350D01*
X20965555Y-11345778D01*
X20956031Y-11336255D01*
D15*
X15982667Y-11764867D02*
X15982667Y-11711833D01*
X15929633Y-11711833D01*
X15929633Y-11764867D01*
X15982667Y-11764867D01*
D11*
X16289364Y-11628826D02*
X16308412Y-11628826D01*
X16327459Y-11638350D01*
X16336983Y-11647874D01*
X16346507Y-11666921D01*
X16356031Y-11705017D01*
X16356031Y-11752636D01*
X16346507Y-11790731D01*
X16336983Y-11809778D01*
X16327459Y-11819302D01*
X16308412Y-11828826D01*
X16289364Y-11828826D01*
X16270317Y-11819302D01*
X16260793Y-11809778D01*
X16251269Y-11790731D01*
X16241745Y-11752636D01*
X16241745Y-11705017D01*
X16251269Y-11666921D01*
X16260793Y-11647874D01*
X16270317Y-11638350D01*
X16289364Y-11628826D01*
X16441745Y-11809778D02*
X16451269Y-11819302D01*
X16441745Y-11828826D01*
X16432221Y-11819302D01*
X16441745Y-11809778D01*
X16441745Y-11828826D01*
X16517936Y-11628826D02*
X16651269Y-11628826D01*
X16565555Y-11828826D01*
X16822698Y-11628826D02*
X16727459Y-11628826D01*
X16717936Y-11724064D01*
X16727459Y-11714540D01*
X16746507Y-11705017D01*
X16794126Y-11705017D01*
X16813174Y-11714540D01*
X16822698Y-11724064D01*
X16832221Y-11743112D01*
X16832221Y-11790731D01*
X16822698Y-11809778D01*
X16813174Y-11819302D01*
X16794126Y-11828826D01*
X16746507Y-11828826D01*
X16727459Y-11819302D01*
X16717936Y-11809778D01*
X16956031Y-11628826D02*
X16975079Y-11628826D01*
X16994126Y-11638350D01*
X17003650Y-11647874D01*
X17013174Y-11666921D01*
X17022698Y-11705017D01*
X17022698Y-11752636D01*
X17013174Y-11790731D01*
X17003650Y-11809778D01*
X16994126Y-11819302D01*
X16975079Y-11828826D01*
X16956031Y-11828826D01*
X16936983Y-11819302D01*
X16927460Y-11809778D01*
X16917936Y-11790731D01*
X16908412Y-11752636D01*
X16908412Y-11705017D01*
X16917936Y-11666921D01*
X16927460Y-11647874D01*
X16936983Y-11638350D01*
X16956031Y-11628826D01*
X17108412Y-11828826D02*
X17108412Y-11695493D01*
X17108412Y-11714540D02*
X17117936Y-11705017D01*
X17136983Y-11695493D01*
X17165555Y-11695493D01*
X17184602Y-11705017D01*
X17194126Y-11724064D01*
X17194126Y-11828826D01*
X17194126Y-11724064D02*
X17203650Y-11705017D01*
X17222698Y-11695493D01*
X17251269Y-11695493D01*
X17270317Y-11705017D01*
X17279840Y-11724064D01*
X17279840Y-11828826D01*
X17375079Y-11828826D02*
X17375079Y-11695493D01*
X17375079Y-11714540D02*
X17384602Y-11705017D01*
X17403650Y-11695493D01*
X17432221Y-11695493D01*
X17451269Y-11705017D01*
X17460793Y-11724064D01*
X17460793Y-11828826D01*
X17460793Y-11724064D02*
X17470317Y-11705017D01*
X17489364Y-11695493D01*
X17517936Y-11695493D01*
X17536983Y-11705017D01*
X17546507Y-11724064D01*
X17546507Y-11828826D01*
X17936983Y-11619302D02*
X17765555Y-11876445D01*
X18194126Y-11628826D02*
X18213174Y-11628826D01*
X18232221Y-11638350D01*
X18241745Y-11647874D01*
X18251269Y-11666921D01*
X18260793Y-11705017D01*
X18260793Y-11752636D01*
X18251269Y-11790731D01*
X18241745Y-11809778D01*
X18232221Y-11819302D01*
X18213174Y-11828826D01*
X18194126Y-11828826D01*
X18175079Y-11819302D01*
X18165555Y-11809778D01*
X18156031Y-11790731D01*
X18146507Y-11752636D01*
X18146507Y-11705017D01*
X18156031Y-11666921D01*
X18165555Y-11647874D01*
X18175079Y-11638350D01*
X18194126Y-11628826D01*
X18346507Y-11809778D02*
X18356031Y-11819302D01*
X18346507Y-11828826D01*
X18336983Y-11819302D01*
X18346507Y-11809778D01*
X18346507Y-11828826D01*
X18479840Y-11628826D02*
X18498888Y-11628826D01*
X18517936Y-11638350D01*
X18527460Y-11647874D01*
X18536983Y-11666921D01*
X18546507Y-11705017D01*
X18546507Y-11752636D01*
X18536983Y-11790731D01*
X18527460Y-11809778D01*
X18517936Y-11819302D01*
X18498888Y-11828826D01*
X18479840Y-11828826D01*
X18460793Y-11819302D01*
X18451269Y-11809778D01*
X18441745Y-11790731D01*
X18432221Y-11752636D01*
X18432221Y-11705017D01*
X18441745Y-11666921D01*
X18451269Y-11647874D01*
X18460793Y-11638350D01*
X18479840Y-11628826D01*
X18622698Y-11647874D02*
X18632221Y-11638350D01*
X18651269Y-11628826D01*
X18698888Y-11628826D01*
X18717936Y-11638350D01*
X18727460Y-11647874D01*
X18736983Y-11666921D01*
X18736983Y-11685969D01*
X18727460Y-11714540D01*
X18613174Y-11828826D01*
X18736983Y-11828826D01*
X18832221Y-11828826D02*
X18870317Y-11828826D01*
X18889364Y-11819302D01*
X18898888Y-11809778D01*
X18917936Y-11781207D01*
X18927460Y-11743112D01*
X18927460Y-11666921D01*
X18917936Y-11647874D01*
X18908412Y-11638350D01*
X18889364Y-11628826D01*
X18851269Y-11628826D01*
X18832221Y-11638350D01*
X18822698Y-11647874D01*
X18813174Y-11666921D01*
X18813174Y-11714540D01*
X18822698Y-11733588D01*
X18832221Y-11743112D01*
X18851269Y-11752636D01*
X18889364Y-11752636D01*
X18908412Y-11743112D01*
X18917936Y-11733588D01*
X18927460Y-11714540D01*
X19108412Y-11628826D02*
X19013174Y-11628826D01*
X19003650Y-11724064D01*
X19013174Y-11714540D01*
X19032221Y-11705017D01*
X19079840Y-11705017D01*
X19098888Y-11714540D01*
X19108412Y-11724064D01*
X19117936Y-11743112D01*
X19117936Y-11790731D01*
X19108412Y-11809778D01*
X19098888Y-11819302D01*
X19079840Y-11828826D01*
X19032221Y-11828826D01*
X19013174Y-11819302D01*
X19003650Y-11809778D01*
X19194126Y-11628826D02*
X19194126Y-11666921D01*
X19270317Y-11628826D02*
X19270317Y-11666921D01*
X19565555Y-11905017D02*
X19556031Y-11895493D01*
X19536983Y-11866921D01*
X19527460Y-11847874D01*
X19517936Y-11819302D01*
X19508412Y-11771683D01*
X19508412Y-11733588D01*
X19517936Y-11685969D01*
X19527460Y-11657398D01*
X19536983Y-11638350D01*
X19556031Y-11609778D01*
X19565555Y-11600255D01*
X19622698Y-11628826D02*
X19756031Y-11628826D01*
X19670317Y-11828826D01*
X19984602Y-11828826D02*
X19984602Y-11628826D01*
X20070317Y-11828826D02*
X20070317Y-11724064D01*
X20060793Y-11705017D01*
X20041745Y-11695493D01*
X20013174Y-11695493D01*
X19994126Y-11705017D01*
X19984602Y-11714540D01*
X20194126Y-11828826D02*
X20175079Y-11819302D01*
X20165555Y-11809778D01*
X20156031Y-11790731D01*
X20156031Y-11733588D01*
X20165555Y-11714540D01*
X20175079Y-11705017D01*
X20194126Y-11695493D01*
X20222698Y-11695493D01*
X20241745Y-11705017D01*
X20251269Y-11714540D01*
X20260793Y-11733588D01*
X20260793Y-11790731D01*
X20251269Y-11809778D01*
X20241745Y-11819302D01*
X20222698Y-11828826D01*
X20194126Y-11828826D01*
X20375079Y-11828826D02*
X20356031Y-11819302D01*
X20346507Y-11800255D01*
X20346507Y-11628826D01*
X20527460Y-11819302D02*
X20508412Y-11828826D01*
X20470317Y-11828826D01*
X20451269Y-11819302D01*
X20441745Y-11800255D01*
X20441745Y-11724064D01*
X20451269Y-11705017D01*
X20470317Y-11695493D01*
X20508412Y-11695493D01*
X20527460Y-11705017D01*
X20536983Y-11724064D01*
X20536983Y-11743112D01*
X20441745Y-11762159D01*
X20613174Y-11819302D02*
X20632221Y-11828826D01*
X20670317Y-11828826D01*
X20689364Y-11819302D01*
X20698888Y-11800255D01*
X20698888Y-11790731D01*
X20689364Y-11771683D01*
X20670317Y-11762159D01*
X20641745Y-11762159D01*
X20622698Y-11752636D01*
X20613174Y-11733588D01*
X20613174Y-11724064D01*
X20622698Y-11705017D01*
X20641745Y-11695493D01*
X20670317Y-11695493D01*
X20689364Y-11705017D01*
X20765555Y-11905017D02*
X20775079Y-11895493D01*
X20794126Y-11866921D01*
X20803650Y-11847874D01*
X20813174Y-11819302D01*
X20822698Y-11771683D01*
X20822698Y-11733588D01*
X20813174Y-11685969D01*
X20803650Y-11657398D01*
X20794126Y-11638350D01*
X20775079Y-11609778D01*
X20765555Y-11600255D01*
X15893650Y-12102350D02*
X15993650Y-12002350D01*
X15893650Y-11902350D01*
X15793650Y-12002350D01*
X15893650Y-12102350D01*
X16241745Y-11911874D02*
X16251269Y-11902350D01*
X16270317Y-11892826D01*
X16317936Y-11892826D01*
X16336983Y-11902350D01*
X16346507Y-11911874D01*
X16356031Y-11930921D01*
X16356031Y-11949969D01*
X16346507Y-11978540D01*
X16232221Y-12092826D01*
X16356031Y-12092826D01*
X16441745Y-12073778D02*
X16451269Y-12083302D01*
X16441745Y-12092826D01*
X16432221Y-12083302D01*
X16441745Y-12073778D01*
X16441745Y-12092826D01*
X16527459Y-11911874D02*
X16536983Y-11902350D01*
X16556031Y-11892826D01*
X16603650Y-11892826D01*
X16622698Y-11902350D01*
X16632221Y-11911874D01*
X16641745Y-11930921D01*
X16641745Y-11949969D01*
X16632221Y-11978540D01*
X16517936Y-12092826D01*
X16641745Y-12092826D01*
X16765555Y-11892826D02*
X16784602Y-11892826D01*
X16803650Y-11902350D01*
X16813174Y-11911874D01*
X16822698Y-11930921D01*
X16832221Y-11969017D01*
X16832221Y-12016636D01*
X16822698Y-12054731D01*
X16813174Y-12073778D01*
X16803650Y-12083302D01*
X16784602Y-12092826D01*
X16765555Y-12092826D01*
X16746507Y-12083302D01*
X16736983Y-12073778D01*
X16727459Y-12054731D01*
X16717936Y-12016636D01*
X16717936Y-11969017D01*
X16727459Y-11930921D01*
X16736983Y-11911874D01*
X16746507Y-11902350D01*
X16765555Y-11892826D01*
X16956031Y-11892826D02*
X16975079Y-11892826D01*
X16994126Y-11902350D01*
X17003650Y-11911874D01*
X17013174Y-11930921D01*
X17022698Y-11969017D01*
X17022698Y-12016636D01*
X17013174Y-12054731D01*
X17003650Y-12073778D01*
X16994126Y-12083302D01*
X16975079Y-12092826D01*
X16956031Y-12092826D01*
X16936983Y-12083302D01*
X16927460Y-12073778D01*
X16917936Y-12054731D01*
X16908412Y-12016636D01*
X16908412Y-11969017D01*
X16917936Y-11930921D01*
X16927460Y-11911874D01*
X16936983Y-11902350D01*
X16956031Y-11892826D01*
X17108412Y-12092826D02*
X17108412Y-11959493D01*
X17108412Y-11978540D02*
X17117936Y-11969017D01*
X17136983Y-11959493D01*
X17165555Y-11959493D01*
X17184602Y-11969017D01*
X17194126Y-11988064D01*
X17194126Y-12092826D01*
X17194126Y-11988064D02*
X17203650Y-11969017D01*
X17222698Y-11959493D01*
X17251269Y-11959493D01*
X17270317Y-11969017D01*
X17279840Y-11988064D01*
X17279840Y-12092826D01*
X17375079Y-12092826D02*
X17375079Y-11959493D01*
X17375079Y-11978540D02*
X17384602Y-11969017D01*
X17403650Y-11959493D01*
X17432221Y-11959493D01*
X17451269Y-11969017D01*
X17460793Y-11988064D01*
X17460793Y-12092826D01*
X17460793Y-11988064D02*
X17470317Y-11969017D01*
X17489364Y-11959493D01*
X17517936Y-11959493D01*
X17536983Y-11969017D01*
X17546507Y-11988064D01*
X17546507Y-12092826D01*
X17936983Y-11883302D02*
X17765555Y-12140445D01*
X18194126Y-11892826D02*
X18213174Y-11892826D01*
X18232221Y-11902350D01*
X18241745Y-11911874D01*
X18251269Y-11930921D01*
X18260793Y-11969017D01*
X18260793Y-12016636D01*
X18251269Y-12054731D01*
X18241745Y-12073778D01*
X18232221Y-12083302D01*
X18213174Y-12092826D01*
X18194126Y-12092826D01*
X18175079Y-12083302D01*
X18165555Y-12073778D01*
X18156031Y-12054731D01*
X18146507Y-12016636D01*
X18146507Y-11969017D01*
X18156031Y-11930921D01*
X18165555Y-11911874D01*
X18175079Y-11902350D01*
X18194126Y-11892826D01*
X18346507Y-12073778D02*
X18356031Y-12083302D01*
X18346507Y-12092826D01*
X18336983Y-12083302D01*
X18346507Y-12073778D01*
X18346507Y-12092826D01*
X18479840Y-11892826D02*
X18498888Y-11892826D01*
X18517936Y-11902350D01*
X18527460Y-11911874D01*
X18536983Y-11930921D01*
X18546507Y-11969017D01*
X18546507Y-12016636D01*
X18536983Y-12054731D01*
X18527460Y-12073778D01*
X18517936Y-12083302D01*
X18498888Y-12092826D01*
X18479840Y-12092826D01*
X18460793Y-12083302D01*
X18451269Y-12073778D01*
X18441745Y-12054731D01*
X18432221Y-12016636D01*
X18432221Y-11969017D01*
X18441745Y-11930921D01*
X18451269Y-11911874D01*
X18460793Y-11902350D01*
X18479840Y-11892826D01*
X18660793Y-11978540D02*
X18641745Y-11969017D01*
X18632221Y-11959493D01*
X18622698Y-11940445D01*
X18622698Y-11930921D01*
X18632221Y-11911874D01*
X18641745Y-11902350D01*
X18660793Y-11892826D01*
X18698888Y-11892826D01*
X18717936Y-11902350D01*
X18727460Y-11911874D01*
X18736983Y-11930921D01*
X18736983Y-11940445D01*
X18727460Y-11959493D01*
X18717936Y-11969017D01*
X18698888Y-11978540D01*
X18660793Y-11978540D01*
X18641745Y-11988064D01*
X18632221Y-11997588D01*
X18622698Y-12016636D01*
X18622698Y-12054731D01*
X18632221Y-12073778D01*
X18641745Y-12083302D01*
X18660793Y-12092826D01*
X18698888Y-12092826D01*
X18717936Y-12083302D01*
X18727460Y-12073778D01*
X18736983Y-12054731D01*
X18736983Y-12016636D01*
X18727460Y-11997588D01*
X18717936Y-11988064D01*
X18698888Y-11978540D01*
X18908412Y-11892826D02*
X18870317Y-11892826D01*
X18851269Y-11902350D01*
X18841745Y-11911874D01*
X18822698Y-11940445D01*
X18813174Y-11978540D01*
X18813174Y-12054731D01*
X18822698Y-12073778D01*
X18832221Y-12083302D01*
X18851269Y-12092826D01*
X18889364Y-12092826D01*
X18908412Y-12083302D01*
X18917936Y-12073778D01*
X18927460Y-12054731D01*
X18927460Y-12007112D01*
X18917936Y-11988064D01*
X18908412Y-11978540D01*
X18889364Y-11969017D01*
X18851269Y-11969017D01*
X18832221Y-11978540D01*
X18822698Y-11988064D01*
X18813174Y-12007112D01*
X19098888Y-11892826D02*
X19060793Y-11892826D01*
X19041745Y-11902350D01*
X19032221Y-11911874D01*
X19013174Y-11940445D01*
X19003650Y-11978540D01*
X19003650Y-12054731D01*
X19013174Y-12073778D01*
X19022698Y-12083302D01*
X19041745Y-12092826D01*
X19079840Y-12092826D01*
X19098888Y-12083302D01*
X19108412Y-12073778D01*
X19117936Y-12054731D01*
X19117936Y-12007112D01*
X19108412Y-11988064D01*
X19098888Y-11978540D01*
X19079840Y-11969017D01*
X19041745Y-11969017D01*
X19022698Y-11978540D01*
X19013174Y-11988064D01*
X19003650Y-12007112D01*
X19194126Y-11892826D02*
X19194126Y-11930921D01*
X19270317Y-11892826D02*
X19270317Y-11930921D01*
X19565555Y-12169017D02*
X19556031Y-12159493D01*
X19536983Y-12130921D01*
X19527460Y-12111874D01*
X19517936Y-12083302D01*
X19508412Y-12035683D01*
X19508412Y-11997588D01*
X19517936Y-11949969D01*
X19527460Y-11921398D01*
X19536983Y-11902350D01*
X19556031Y-11873778D01*
X19565555Y-11864255D01*
X19632221Y-11911874D02*
X19641745Y-11902350D01*
X19660793Y-11892826D01*
X19708412Y-11892826D01*
X19727460Y-11902350D01*
X19736983Y-11911874D01*
X19746507Y-11930921D01*
X19746507Y-11949969D01*
X19736983Y-11978540D01*
X19622698Y-12092826D01*
X19746507Y-12092826D01*
X19984602Y-12092826D02*
X19984602Y-11892826D01*
X20070317Y-12092826D02*
X20070317Y-11988064D01*
X20060793Y-11969017D01*
X20041745Y-11959493D01*
X20013174Y-11959493D01*
X19994126Y-11969017D01*
X19984602Y-11978540D01*
X20194126Y-12092826D02*
X20175079Y-12083302D01*
X20165555Y-12073778D01*
X20156031Y-12054731D01*
X20156031Y-11997588D01*
X20165555Y-11978540D01*
X20175079Y-11969017D01*
X20194126Y-11959493D01*
X20222698Y-11959493D01*
X20241745Y-11969017D01*
X20251269Y-11978540D01*
X20260793Y-11997588D01*
X20260793Y-12054731D01*
X20251269Y-12073778D01*
X20241745Y-12083302D01*
X20222698Y-12092826D01*
X20194126Y-12092826D01*
X20375079Y-12092826D02*
X20356031Y-12083302D01*
X20346507Y-12064255D01*
X20346507Y-11892826D01*
X20527460Y-12083302D02*
X20508412Y-12092826D01*
X20470317Y-12092826D01*
X20451269Y-12083302D01*
X20441745Y-12064255D01*
X20441745Y-11988064D01*
X20451269Y-11969017D01*
X20470317Y-11959493D01*
X20508412Y-11959493D01*
X20527460Y-11969017D01*
X20536983Y-11988064D01*
X20536983Y-12007112D01*
X20441745Y-12026159D01*
X20613174Y-12083302D02*
X20632221Y-12092826D01*
X20670317Y-12092826D01*
X20689364Y-12083302D01*
X20698888Y-12064255D01*
X20698888Y-12054731D01*
X20689364Y-12035683D01*
X20670317Y-12026159D01*
X20641745Y-12026159D01*
X20622698Y-12016636D01*
X20613174Y-11997588D01*
X20613174Y-11988064D01*
X20622698Y-11969017D01*
X20641745Y-11959493D01*
X20670317Y-11959493D01*
X20689364Y-11969017D01*
X20765555Y-12169017D02*
X20775079Y-12159493D01*
X20794126Y-12130921D01*
X20803650Y-12111874D01*
X20813174Y-12083302D01*
X20822698Y-12035683D01*
X20822698Y-11997588D01*
X20813174Y-11949969D01*
X20803650Y-11921398D01*
X20794126Y-11902350D01*
X20775079Y-11873778D01*
X20765555Y-11864255D01*
M02*
